0
SECTION
2
HEADER
9
$INSUNITS
70
4
9
$ACADVER
1
AC1014
9
$HANDSEED
5
FFFF
0
ENDSEC
0
SECTION
2
TABLES
0
TABLE
2
VPORT
5
8
100
AcDbSymbolTable
0
ENDTAB
0
TABLE
2
LTYPE
5
5
100
AcDbSymbolTable
0
LTYPE
5
14
100
AcDbSymbolTableRecord
100
AcDbLinetypeTableRecord
2
BYBLOCK
70
0
0
LTYPE
5
15
100
AcDbSymbolTableRecord
100
AcDbLinetypeTableRecord
2
BYLAYER
70
0
0
ENDTAB
0
TABLE
2
LAYER
5
2
100
AcDbSymbolTable
70
2
0
LAYER
5
50
100
AcDbSymbolTableRecord
100
AcDbLayerTableRecord
2
0
70
0
6
CONTINUOUS
0
ENDTAB
0
TABLE
2
STYLE
5
3
100
AcDbSymbolTable
70
1
0
STYLE
5
11
100
AcDbSymbolTableRecord
100
AcDbTextStyleTableRecord
2
STANDARD
70
0
0
ENDTAB
0
TABLE
2
VIEW
5
6
100
AcDbSymbolTable
70
0
0
ENDTAB
0
TABLE
2
UCS
5
7
100
AcDbSymbolTable
70
0
0
ENDTAB
0
TABLE
2
APPID
5
9
100
AcDbSymbolTable
70
2
0
APPID
5
12
100
AcDbSymbolTableRecord
100
AcDbRegAppTableRecord
2
ACAD
70
0
0
ENDTAB
0
TABLE
2
DIMSTYLE
5
A
100
AcDbSymbolTable
70
1
0
ENDTAB
0
TABLE
2
BLOCK_RECORD
5
1
100
AcDbSymbolTable
70
1
0
BLOCK_RECORD
5
1F
100
AcDbSymbolTableRecord
100
AcDbBlockTableRecord
2
*MODEL_SPACE
0
BLOCK_RECORD
5
1B
100
AcDbSymbolTableRecord
100
AcDbBlockTableRecord
2
*PAPER_SPACE
0
ENDTAB
0
ENDSEC
0
SECTION
2
BLOCKS
0
BLOCK
5
20
100
AcDbEntity
100
AcDbBlockBegin
2
*MODEL_SPACE
0
ENDBLK
5
21
100
AcDbEntity
100
AcDbBlockEnd
0
BLOCK
5
1C
100
AcDbEntity
100
AcDbBlockBegin
2
*PAPER_SPACE
0
ENDBLK
5
1D
100
AcDbEntity
100
AcDbBlockEnd
0
ENDSEC
0
SECTION
2
ENTITIES
0
ARC
5
100
100
AcDbEntity
8
0
100
AcDbCircle
10
105.43333333333337
20
2.3999999999999981
30
0
40
4.6000000149011591
210
0
220
0
230
1
100
AcDbArc
50
225.546232577278
51
314.45376742272197
0
ARC
5
101
100
AcDbEntity
8
0
100
AcDbCircle
10
2.0000000000000009
20
2.4000000000000012
30
0
40
4.6000000149011662
210
0
220
0
230
1
100
AcDbArc
50
269.99999944319109
51
314.45376742272214
0
ARC
5
102
100
AcDbEntity
8
0
100
AcDbCircle
10
1.9999999999999947
20
-126.19999999999999
30
0
40
4.6000000149011555
210
0
220
-0
230
1
100
AcDbArc
50
45.010539494113821
51
90.00004716748424
0
ARC
5
103
100
AcDbEntity
8
0
100
AcDbCircle
10
105.43333333333337
20
-126.20000000000003
30
0
40
4.600000014901152
210
0
220
-0
230
1
100
AcDbArc
50
45.010539494114333
51
134.98946050588566
0
ARC
5
104
100
AcDbEntity
8
0
100
AcDbCircle
10
208.8666666666667
20
-126.20000000000003
30
0
40
4.6000000149011644
210
0
220
-0
230
1
100
AcDbArc
50
45.010539494113956
51
134.98946050588592
0
ARC
5
105
100
AcDbEntity
8
0
100
AcDbCircle
10
312.30000000000007
20
-126.20000000000002
30
0
40
4.6000000149064135
210
0
220
0
230
1
100
AcDbArc
50
90
51
134.98946050588529
0
ARC
5
106
100
AcDbEntity
8
0
100
AcDbCircle
10
312.30000000000007
20
2.3999999999999737
30
0
40
4.6000000149011342
210
0
220
0
230
1
100
AcDbArc
50
225.54623257727746
51
270
0
ARC
5
107
100
AcDbEntity
8
0
100
AcDbCircle
10
208.8666666666667
20
2.4000000000000146
30
0
40
4.6000000149011839
210
0
220
0
230
1
100
AcDbArc
50
225.54623257727803
51
314.45376742272197
0
LINE
5
108
100
AcDbEntity
8
0
100
AcDbLine
10
110.75586799517427
20
-0.024999999999959499
30
0
11
203.54413200482577
21
-0.024999999999959499
31
0
0
LINE
5
109
100
AcDbEntity
8
0
100
AcDbLine
10
214.18920132850764
20
-0.024999999999958944
30
0
11
306.97746533815911
21
-0.024999999999958944
31
0
0
LINE
5
110
100
AcDbEntity
8
0
100
AcDbLine
10
7.3225346618409297
20
-0.024999999999959499
30
0
11
100.11079867149246
21
-0.024999999999958944
31
0
0
LINE
5
111
100
AcDbEntity
8
0
100
AcDbLine
10
306.92697708673268
20
-123.82499999999996
30
0
11
214.23968957993421
21
-123.82499999999996
31
0
0
LINE
5
112
100
AcDbEntity
8
0
100
AcDbLine
10
203.49364375339923
20
-123.82499999999996
30
0
11
110.80635624660079
21
-123.82499999999996
31
0
0
LINE
5
113
100
AcDbEntity
8
0
100
AcDbLine
10
100.06031042006595
20
-123.82499999999996
30
0
11
7.3730229132674374
21
-123.82499999999996
31
0
0
LINE
5
114
100
AcDbEntity
8
0
100
AcDbLine
10
314.30000000000001
20
-119.59999998509889
30
0
11
314.30000000000001
21
-4.2000000149011463
31
0
0
LINE
5
115
100
AcDbEntity
8
0
100
AcDbLine
10
-2.7755575615628914e-16
20
-4.2000000149011649
30
0
11
-3.8857805861880479e-15
21
-119.59999998509888
31
0
0
ARC
5
116
100
AcDbEntity
8
0
100
AcDbCircle
10
110.7558679951743
20
-3.0249999999999568
30
0
40
2.9999999999999973
210
0
220
0
230
1
100
AcDbArc
50
90.00000000000054
51
134.45376742272242
0
ARC
5
117
100
AcDbEntity
8
0
100
AcDbCircle
10
100.11079867149243
20
-3.0249999999999604
30
0
40
3.0000000000000053
210
0
220
-0
230
1
100
AcDbArc
50
45.546232577277635
51
89.99999999999946
0
ARC
5
118
100
AcDbEntity
8
0
100
AcDbCircle
10
203.5441320048258
20
-3.02499999999988
30
0
40
2.999999999999921
210
0
220
-0
230
1
100
AcDbArc
50
45.546232577277109
51
90.00000000000054
0
ARC
5
119
100
AcDbEntity
8
0
100
AcDbCircle
10
214.18920132850761
20
-3.0249999999998876
30
0
40
2.9999999999999289
210
0
220
-0
230
1
100
AcDbArc
50
89.99999999999946
51
134.45376742272273
0
ARC
5
120
100
AcDbEntity
8
0
100
AcDbCircle
10
306.97746533815916
20
-3.0249999999997979
30
0
40
2.9999999999998597
210
0
220
-0
230
1
100
AcDbArc
50
45.546232577276335
51
90.000000000001094
0
ARC
5
121
100
AcDbEntity
8
0
100
AcDbCircle
10
306.92697708673268
20
-120.82500000000002
30
0
40
2.9999999999999538
210
0
220
0
230
1
100
AcDbArc
50
270
51
314.98946050588694
0
ARC
5
122
100
AcDbEntity
8
0
100
AcDbCircle
10
214.23968957993424
20
-120.8249999999998
30
0
40
3.0000000000001763
210
0
220
0
230
1
100
AcDbArc
50
225.01053949411533
51
269.99999999999943
0
ARC
5
123
100
AcDbEntity
8
0
100
AcDbCircle
10
203.49364375339923
20
-120.82500000000002
30
0
40
2.9999999999999538
210
0
220
0
230
1
100
AcDbArc
50
270
51
314.98946050588694
0
ARC
5
124
100
AcDbEntity
8
0
100
AcDbCircle
10
110.80635624660081
20
-120.82499999999993
30
0
40
3.0000000000000377
210
0
220
0
230
1
100
AcDbArc
50
225.01053949411423
51
269.99999999999943
0
ARC
5
125
100
AcDbEntity
8
0
100
AcDbCircle
10
100.06031042006592
20
-120.82499999999993
30
0
40
3.0000000000000426
210
0
220
0
230
1
100
AcDbArc
50
270.00000000000051
51
314.9894605058858
0
ARC
5
126
100
AcDbEntity
8
0
100
AcDbCircle
10
7.3730229132674889
20
-120.82499999999993
30
0
40
3.0000000000000444
210
0
220
0
230
1
100
AcDbArc
50
225.01053949411377
51
269.99999999999898
0
ARC
5
127
100
AcDbEntity
8
0
100
AcDbCircle
10
7.3225346618409324
20
-3.0249999999999684
30
0
40
3.0000000000000089
210
0
220
0
230
1
100
AcDbArc
50
90.000000000000057
51
134.453767422722
0
ARC
5
128
100
AcDbEntity
8
0
100
AcDbCircle
10
312.30000000000007
20
-4.2000000149011356
30
0
40
1.9999999999999929
210
-0
220
0
230
1
100
AcDbArc
50
0
51
89.999800024867383
0
ARC
5
129
100
AcDbEntity
8
0
100
AcDbCircle
10
312.30000000000007
20
-119.59999998509892
30
0
40
2.0000000000068634
210
0
220
0
230
1
100
AcDbArc
50
-89.999800024867383
51
0
0
ARC
5
130
100
AcDbEntity
8
0
100
AcDbCircle
10
1.9999999999999711
20
-119.59999998509888
30
0
40
1.9999999999999751
210
0
220
-0
230
1
100
AcDbArc
50
180
51
270.00000000000034
0
ARC
5
131
100
AcDbEntity
8
0
100
AcDbCircle
10
1.9999999999999978
20
-4.2000000149011631
30
0
40
1.9999999999999982
210
0
220
-0
230
1
100
AcDbArc
50
89.999999999999901
51
180
0
CIRCLE
5
132
100
AcDbEntity
8
0
100
AcDbCircle
10
4.4450000000000003
20
-9.5499999999999616
30
0
40
0.87500000000000011
210
0
220
-0
230
1
0
ENDSEC
0
SECTION
2
OBJECTS
0
DICTIONARY
5
C
100
AcDbDictionary
3
ACAD_GROUP
350
D
3
ACAD_MLINESTYLE
350
17
0
DICTIONARY
5
D
100
AcDbDictionary
0
DICTIONARY
5
1A
330
C
100
AcDbDictionary
0
DICTIONARY
5
17
100
AcDbDictionary
0
ENDSEC
0
EOF
