M48
; DRILL file {KiCad 7.0.6} date Sat Feb 10 17:37:48 2024
; FORMAT={-:-/ absolute / inch / decimal}
; #@! TF.CreationDate,2024-02-10T17:37:48+00:00
; #@! TF.GenerationSoftware,Kicad,Pcbnew,7.0.6
; #@! TF.FileFunction,NonPlated,1,4,NPTH
FMAT,2
INCH
; #@! TA.AperFunction,NonPlated,NPTH,ComponentDrill
T1C0.0454
; #@! TA.AperFunction,NonPlated,NPTH,ComponentDrill
T2C0.0689
; #@! TA.AperFunction,NonPlated,NPTH,ComponentDrill
T3C0.0866
; #@! TA.AperFunction,NonPlated,NPTH,ComponentDrill
T4C0.1570
%
G90
G05
T1
X1.8024Y-2.8661
X1.8024Y-7.311
X13.8969Y-7.311
T2
X1.8504Y-3.0315
X1.8504Y-3.969
X1.9441Y-6.219
X1.9441Y-6.969
X2.0379Y-4.719
X2.1316Y-5.469
X2.2504Y-3.0315
X2.2504Y-3.969
X2.3441Y-6.219
X2.3441Y-6.969
X2.4379Y-4.719
X2.5316Y-5.469
X2.6004Y-3.969
X2.7879Y-6.219
X2.8816Y-6.969
X2.9754Y-3.0315
X2.9754Y-4.719
X3.0004Y-3.969
X3.1629Y-5.469
X3.1879Y-6.219
X3.2816Y-6.969
X3.3504Y-3.969
X3.3754Y-3.0315
X3.3754Y-4.719
X3.5379Y-6.219
X3.5629Y-5.469
X3.7254Y-3.0315
X3.7254Y-4.719
X3.7504Y-3.969
X3.8191Y-6.969
X3.9129Y-5.469
X3.9379Y-6.219
X4.1004Y-3.969
X4.1254Y-3.0315
X4.1254Y-4.719
X4.2191Y-6.969
X4.2879Y-6.219
X4.3129Y-5.469
X4.4754Y-3.0315
X4.4754Y-4.719
X4.5004Y-3.969
X4.6629Y-5.469
X4.6879Y-6.219
X4.8504Y-3.969
X4.8754Y-3.0315
X4.8754Y-4.719
X5.0379Y-6.219
X5.0629Y-5.469
X5.2254Y-3.0315
X5.2254Y-4.719
X5.2504Y-3.969
X5.4129Y-5.469
X5.4379Y-6.219
X5.6004Y-3.969
X5.6254Y-3.0315
X5.6254Y-4.719
X5.7879Y-6.219
X5.8129Y-5.469
X5.9754Y-4.719
X6.0004Y-3.969
X6.1629Y-3.0315
X6.1629Y-5.469
X6.1879Y-6.219
X6.3504Y-3.969
X6.3754Y-4.719
X6.5379Y-6.219
X6.5629Y-3.0315
X6.5629Y-5.469
X6.6316Y-6.969
X6.7254Y-4.719
X6.7504Y-3.969
X6.9129Y-3.0315
X6.9129Y-5.469
X6.9379Y-6.219
X7.0316Y-6.969
X7.1004Y-3.969
X7.1254Y-4.719
X7.2879Y-6.219
X7.3129Y-3.0315
X7.3129Y-5.469
X7.4754Y-4.719
X7.5004Y-3.969
X7.6629Y-3.0315
X7.6629Y-5.469
X7.6879Y-6.219
X7.8504Y-3.969
X7.8754Y-4.719
X8.0379Y-6.219
X8.0629Y-3.0315
X8.0629Y-5.469
X8.2254Y-4.719
X8.2504Y-3.969
X8.4129Y-3.0315
X8.4129Y-5.469
X8.4379Y-6.219
X8.6004Y-3.969
X8.6254Y-4.719
X8.7879Y-6.219
X8.8129Y-3.0315
X8.8129Y-5.469
X8.9754Y-4.719
X9.0004Y-3.969
X9.1629Y-5.469
X9.1879Y-6.219
X9.3504Y-3.0315
X9.3504Y-3.969
X9.3504Y-6.969
X9.3754Y-4.719
X9.5379Y-6.219
X9.5629Y-5.469
X9.7254Y-4.719
X9.7504Y-3.0315
X9.7504Y-3.969
X9.7504Y-6.969
X9.9129Y-5.469
X9.9379Y-6.219
X10.1004Y-3.0315
X10.1004Y-3.969
X10.1004Y-6.969
X10.1254Y-4.719
X10.2879Y-6.219
X10.3129Y-5.469
X10.4754Y-4.719
X10.5004Y-3.0315
X10.5004Y-3.969
X10.5004Y-6.969
X10.6629Y-5.469
X10.6879Y-6.219
X10.8504Y-3.0315
X10.8504Y-3.969
X10.8504Y-6.969
X10.8754Y-4.719
X11.0629Y-5.469
X11.2254Y-4.719
X11.2504Y-3.0315
X11.2504Y-3.969
X11.2504Y-6.969
X11.3191Y-6.219
X11.4129Y-5.469
X11.6004Y-3.0315
X11.6254Y-4.719
X11.7191Y-6.219
X11.7879Y-7.1565
X11.8129Y-5.469
X11.9754Y-3.969
X12.0004Y-3.0315
X12.1879Y-7.1565
X12.2566Y-5.094
X12.3754Y-3.969
X12.5379Y-6.4065
X12.5379Y-7.1565
X12.6566Y-5.094
X12.9379Y-6.4065
X12.9379Y-7.1565
X13.2879Y-7.1565
X13.4754Y-4.719
X13.4754Y-5.469
X13.4754Y-6.219
X13.6879Y-7.1565
X13.8754Y-4.719
X13.8754Y-5.469
X13.8754Y-6.219
T3
X2.566Y-6.594
X2.6178Y-3.5002
X5.1441Y-5.094
X7.5817Y-3.5002
X7.8629Y-6.969
X9.6442Y-5.094
X12.1285Y-6.3127
X13.1606Y-3.969
T4
X4.8629Y-6.644
X8.8004Y-6.644
X11.7066Y-3.644
X12.6441Y-3.644
X12.7816Y-4.6252
X12.7816Y-5.5627
T0
M30
