%TF.GenerationSoftware,KiCad,Pcbnew,7.0.6*%
%TF.CreationDate,2024-02-21T18:21:50+00:00*%
%TF.ProjectId,MoonBoard,4d6f6f6e-426f-4617-9264-2e6b69636164,rev?*%
%TF.SameCoordinates,Original*%
%TF.FileFunction,Paste,Bot*%
%TF.FilePolarity,Positive*%
%FSLAX46Y46*%
G04 Gerber Fmt 4.6, Leading zero omitted, Abs format (unit mm)*
G04 Created by KiCad (PCBNEW 7.0.6) date 2024-02-21 18:21:50*
%MOMM*%
%LPD*%
G01*
G04 APERTURE LIST*
G04 Aperture macros list*
%AMRoundRect*
0 Rectangle with rounded corners*
0 $1 Rounding radius*
0 $2 $3 $4 $5 $6 $7 $8 $9 X,Y pos of 4 corners*
0 Add a 4 corners polygon primitive as box body*
4,1,4,$2,$3,$4,$5,$6,$7,$8,$9,$2,$3,0*
0 Add four circle primitives for the rounded corners*
1,1,$1+$1,$2,$3*
1,1,$1+$1,$4,$5*
1,1,$1+$1,$6,$7*
1,1,$1+$1,$8,$9*
0 Add four rect primitives between the rounded corners*
20,1,$1+$1,$2,$3,$4,$5,0*
20,1,$1+$1,$4,$5,$6,$7,0*
20,1,$1+$1,$6,$7,$8,$9,0*
20,1,$1+$1,$8,$9,$2,$3,0*%
%AMRotRect*
0 Rectangle, with rotation*
0 The origin of the aperture is its center*
0 $1 length*
0 $2 width*
0 $3 Rotation angle, in degrees counterclockwise*
0 Add horizontal line*
21,1,$1,$2,0,0,$3*%
G04 Aperture macros list end*
%ADD10RoundRect,0.135000X-0.185000X0.135000X-0.185000X-0.135000X0.185000X-0.135000X0.185000X0.135000X0*%
%ADD11RoundRect,0.082000X0.743000X0.328000X-0.743000X0.328000X-0.743000X-0.328000X0.743000X-0.328000X0*%
%ADD12RoundRect,0.081999X0.743001X0.327998X-0.743001X0.327998X-0.743001X-0.327998X0.743001X-0.327998X0*%
%ADD13RoundRect,0.140000X-0.170000X0.140000X-0.170000X-0.140000X0.170000X-0.140000X0.170000X0.140000X0*%
%ADD14RoundRect,0.150000X-0.150000X0.587500X-0.150000X-0.587500X0.150000X-0.587500X0.150000X0.587500X0*%
%ADD15RoundRect,0.140000X0.170000X-0.140000X0.170000X0.140000X-0.170000X0.140000X-0.170000X-0.140000X0*%
%ADD16RoundRect,0.100000X-0.100000X0.637500X-0.100000X-0.637500X0.100000X-0.637500X0.100000X0.637500X0*%
%ADD17RoundRect,0.200000X0.275000X-0.200000X0.275000X0.200000X-0.275000X0.200000X-0.275000X-0.200000X0*%
%ADD18RoundRect,0.250000X-0.325000X-0.650000X0.325000X-0.650000X0.325000X0.650000X-0.325000X0.650000X0*%
%ADD19RoundRect,0.250000X-0.625000X0.312500X-0.625000X-0.312500X0.625000X-0.312500X0.625000X0.312500X0*%
%ADD20RoundRect,0.250000X-0.650000X0.325000X-0.650000X-0.325000X0.650000X-0.325000X0.650000X0.325000X0*%
%ADD21RoundRect,0.237500X0.250000X0.237500X-0.250000X0.237500X-0.250000X-0.237500X0.250000X-0.237500X0*%
%ADD22RoundRect,0.250000X0.312500X0.625000X-0.312500X0.625000X-0.312500X-0.625000X0.312500X-0.625000X0*%
%ADD23R,0.675000X0.200000*%
%ADD24R,0.775000X0.400000*%
%ADD25RoundRect,0.150000X0.587500X0.150000X-0.587500X0.150000X-0.587500X-0.150000X0.587500X-0.150000X0*%
%ADD26RoundRect,0.135000X0.185000X-0.135000X0.185000X0.135000X-0.185000X0.135000X-0.185000X-0.135000X0*%
%ADD27RoundRect,0.140000X0.140000X0.170000X-0.140000X0.170000X-0.140000X-0.170000X0.140000X-0.170000X0*%
%ADD28R,2.000000X1.500000*%
%ADD29R,2.000000X3.800000*%
%ADD30RoundRect,0.100000X0.400000X-0.250000X0.400000X0.250000X-0.400000X0.250000X-0.400000X-0.250000X0*%
%ADD31RoundRect,0.125000X0.475000X-0.250000X0.475000X0.250000X-0.475000X0.250000X-0.475000X-0.250000X0*%
%ADD32RoundRect,0.237500X-0.008839X-0.344715X0.344715X0.008839X0.008839X0.344715X-0.344715X-0.008839X0*%
%ADD33RoundRect,0.250000X0.325000X0.650000X-0.325000X0.650000X-0.325000X-0.650000X0.325000X-0.650000X0*%
%ADD34RotRect,0.200000X0.675000X45.000000*%
%ADD35RotRect,0.400000X0.775000X45.000000*%
%ADD36R,1.400000X1.200000*%
%ADD37R,1.000000X1.700000*%
%ADD38RoundRect,0.135000X-0.135000X-0.185000X0.135000X-0.185000X0.135000X0.185000X-0.135000X0.185000X0*%
%ADD39RoundRect,0.140000X-0.140000X-0.170000X0.140000X-0.170000X0.140000X0.170000X-0.140000X0.170000X0*%
%ADD40RoundRect,0.150000X-0.587500X-0.150000X0.587500X-0.150000X0.587500X0.150000X-0.587500X0.150000X0*%
%ADD41RoundRect,0.075000X0.662500X0.075000X-0.662500X0.075000X-0.662500X-0.075000X0.662500X-0.075000X0*%
%ADD42RoundRect,0.075000X0.075000X0.662500X-0.075000X0.662500X-0.075000X-0.662500X0.075000X-0.662500X0*%
%ADD43RoundRect,0.112500X-0.112500X0.187500X-0.112500X-0.187500X0.112500X-0.187500X0.112500X0.187500X0*%
%ADD44RoundRect,0.218750X0.218750X0.381250X-0.218750X0.381250X-0.218750X-0.381250X0.218750X-0.381250X0*%
G04 APERTURE END LIST*
D10*
%TO.C,R2*%
X351755000Y-123167504D03*
X351755000Y-124187504D03*
%TD*%
D11*
%TO.C,LED49*%
X221492500Y-144747501D03*
D12*
X221492500Y-143237504D03*
D11*
X216042500Y-143237501D03*
X216042500Y-144747501D03*
%TD*%
%TO.C,LED14*%
X54805000Y-106647501D03*
D12*
X54805000Y-105137504D03*
D11*
X49355000Y-105137501D03*
X49355000Y-106647501D03*
%TD*%
%TO.C,LED70*%
X104811250Y-182847501D03*
D12*
X104811250Y-181337504D03*
D11*
X99361250Y-181337501D03*
X99361250Y-182847501D03*
%TD*%
%TO.C,LED26*%
X283405000Y-106647501D03*
D12*
X283405000Y-105137504D03*
D11*
X277955000Y-105137501D03*
X277955000Y-106647501D03*
%TD*%
%TO.C,LED68*%
X57186250Y-182847501D03*
D12*
X57186250Y-181337504D03*
D11*
X51736250Y-181337501D03*
X51736250Y-182847501D03*
%TD*%
%TO.C,LED81*%
X350080000Y-125697501D03*
D12*
X350080000Y-124187504D03*
D11*
X344630000Y-124187501D03*
X344630000Y-125697501D03*
%TD*%
%TO.C,LED72*%
X245305000Y-182847501D03*
D12*
X245305000Y-181337504D03*
D11*
X239855000Y-181337501D03*
X239855000Y-182847501D03*
%TD*%
%TO.C,LED52*%
X278642500Y-144747501D03*
D12*
X278642500Y-143237504D03*
D11*
X273192500Y-143237501D03*
X273192500Y-144747501D03*
%TD*%
%TO.C,LED24*%
X245305000Y-106647501D03*
D12*
X245305000Y-105137504D03*
D11*
X239855000Y-105137501D03*
X239855000Y-106647501D03*
%TD*%
%TO.C,LED20*%
X169105000Y-106647501D03*
D12*
X169105000Y-105137504D03*
D11*
X163655000Y-105137501D03*
X163655000Y-106647501D03*
%TD*%
%TO.C,LED50*%
X240542500Y-144747501D03*
D12*
X240542500Y-143237504D03*
D11*
X235092500Y-143237501D03*
X235092500Y-144747501D03*
%TD*%
%TO.C,LED41*%
X61948750Y-144747501D03*
D12*
X61948750Y-143237504D03*
D11*
X56498750Y-143237501D03*
X56498750Y-144747501D03*
%TD*%
%TO.C,LED79*%
X350080000Y-163797501D03*
D12*
X350080000Y-162287504D03*
D11*
X344630000Y-162287501D03*
X344630000Y-163797501D03*
%TD*%
%TO.C,LED25*%
X264355000Y-106647501D03*
D12*
X264355000Y-105137504D03*
D11*
X258905000Y-105137501D03*
X258905000Y-106647501D03*
%TD*%
%TO.C,LED23*%
X226255000Y-106647501D03*
D12*
X226255000Y-105137504D03*
D11*
X220805000Y-105137501D03*
X220805000Y-106647501D03*
%TD*%
%TO.C,LED78*%
X326267500Y-168560001D03*
D12*
X326267500Y-167050004D03*
D11*
X320817500Y-167050001D03*
X320817500Y-168560001D03*
%TD*%
%TO.C,LED15*%
X73855000Y-106647501D03*
D12*
X73855000Y-105137504D03*
D11*
X68405000Y-105137501D03*
X68405000Y-106647501D03*
%TD*%
%TO.C,LED69*%
X80998750Y-182847501D03*
D12*
X80998750Y-181337504D03*
D11*
X75548750Y-181337501D03*
X75548750Y-182847501D03*
%TD*%
%TO.C,LED44*%
X126242500Y-144747501D03*
D12*
X126242500Y-143237504D03*
D11*
X120792500Y-143237501D03*
X120792500Y-144747501D03*
%TD*%
%TO.C,LED71*%
X176248750Y-182847501D03*
D12*
X176248750Y-181337504D03*
D11*
X170798750Y-181337501D03*
X170798750Y-182847501D03*
%TD*%
%TO.C,LED77*%
X345317500Y-187610001D03*
D12*
X345317500Y-186100004D03*
D11*
X339867500Y-186100001D03*
X339867500Y-187610001D03*
%TD*%
%TO.C,LED75*%
X307217500Y-187610001D03*
D12*
X307217500Y-186100004D03*
D11*
X301767500Y-186100001D03*
X301767500Y-187610001D03*
%TD*%
%TO.C,LED51*%
X259592500Y-144747501D03*
D12*
X259592500Y-143237504D03*
D11*
X254142500Y-143237501D03*
X254142500Y-144747501D03*
%TD*%
%TO.C,LED46*%
X164342500Y-144747501D03*
D12*
X164342500Y-143237504D03*
D11*
X158892500Y-143237501D03*
X158892500Y-144747501D03*
%TD*%
%TO.C,LED27*%
X311980000Y-106647501D03*
D12*
X311980000Y-105137504D03*
D11*
X306530000Y-105137501D03*
X306530000Y-106647501D03*
%TD*%
%TO.C,LED22*%
X207205000Y-106647501D03*
D12*
X207205000Y-105137504D03*
D11*
X201755000Y-105137501D03*
X201755000Y-106647501D03*
%TD*%
%TO.C,LED54*%
X319123750Y-135222501D03*
D12*
X319123750Y-133712504D03*
D11*
X313673750Y-133712501D03*
X313673750Y-135222501D03*
%TD*%
%TO.C,LED47*%
X183392500Y-144747501D03*
D12*
X183392500Y-143237504D03*
D11*
X177942500Y-143237501D03*
X177942500Y-144747501D03*
%TD*%
%TO.C,LED43*%
X107192500Y-144747501D03*
D12*
X107192500Y-143237504D03*
D11*
X101742500Y-143237501D03*
X101742500Y-144747501D03*
%TD*%
%TO.C,LED18*%
X131005000Y-106647501D03*
D12*
X131005000Y-105137504D03*
D11*
X125555000Y-105137501D03*
X125555000Y-106647501D03*
%TD*%
%TO.C,LED48*%
X202442500Y-144747501D03*
D12*
X202442500Y-143237504D03*
D11*
X196992500Y-143237501D03*
X196992500Y-144747501D03*
%TD*%
%TO.C,LED42*%
X88142500Y-144747501D03*
D12*
X88142500Y-143237504D03*
D11*
X82692500Y-143237501D03*
X82692500Y-144747501D03*
%TD*%
%TO.C,LED53*%
X297692500Y-144747501D03*
D12*
X297692500Y-143237504D03*
D11*
X292242500Y-143237501D03*
X292242500Y-144747501D03*
%TD*%
%TO.C,LED45*%
X145292500Y-144747501D03*
D12*
X145292500Y-143237504D03*
D11*
X139842500Y-143237501D03*
X139842500Y-144747501D03*
%TD*%
%TO.C,LED19*%
X150055000Y-106647501D03*
D12*
X150055000Y-105137504D03*
D11*
X144605000Y-105137501D03*
X144605000Y-106647501D03*
%TD*%
%TO.C,LED21*%
X188155000Y-106647501D03*
D12*
X188155000Y-105137504D03*
D11*
X182705000Y-105137501D03*
X182705000Y-106647501D03*
%TD*%
%TO.C,LED16*%
X92905000Y-106647501D03*
D12*
X92905000Y-105137504D03*
D11*
X87455000Y-105137501D03*
X87455000Y-106647501D03*
%TD*%
%TO.C,LED76*%
X326267500Y-187610001D03*
D12*
X326267500Y-186100004D03*
D11*
X320817500Y-186100001D03*
X320817500Y-187610001D03*
%TD*%
%TO.C,LED73*%
X264355000Y-182847501D03*
D12*
X264355000Y-181337504D03*
D11*
X258905000Y-181337501D03*
X258905000Y-182847501D03*
%TD*%
%TO.C,LED17*%
X106505000Y-106647501D03*
X106505000Y-105137501D03*
D12*
X111955000Y-105137504D03*
D11*
X111955000Y-106647501D03*
%TD*%
%TO.C,LED74*%
X283405000Y-182847501D03*
D12*
X283405000Y-181337504D03*
D11*
X277955000Y-181337501D03*
X277955000Y-182847501D03*
%TD*%
%TO.C,LED34*%
X173180000Y-124187501D03*
X173180000Y-125697501D03*
X178630000Y-125697501D03*
D12*
X178630000Y-124187504D03*
%TD*%
D11*
%TO.C,LED40*%
X54117500Y-124187501D03*
X54117500Y-125697501D03*
X59567500Y-125697501D03*
D12*
X59567500Y-124187504D03*
%TD*%
D11*
%TO.C,LED55*%
X289861250Y-162287501D03*
X289861250Y-163797501D03*
X295311250Y-163797501D03*
D12*
X295311250Y-162287504D03*
%TD*%
D11*
%TO.C,LED13*%
X49355000Y-81325001D03*
X49355000Y-82835001D03*
X54805000Y-82835001D03*
D12*
X54805000Y-81325004D03*
%TD*%
D11*
%TO.C,LED6*%
X196992500Y-81325001D03*
X196992500Y-82835001D03*
X202442500Y-82835001D03*
D12*
X202442500Y-81325004D03*
%TD*%
D11*
%TO.C,LED29*%
X268430000Y-124187501D03*
X268430000Y-125697501D03*
X273880000Y-125697501D03*
D12*
X273880000Y-124187504D03*
%TD*%
D11*
%TO.C,LED8*%
X158892500Y-81325001D03*
X158892500Y-82835001D03*
X164342500Y-82835001D03*
D12*
X164342500Y-81325004D03*
%TD*%
D11*
%TO.C,LED61*%
X168417500Y-162287501D03*
X168417500Y-163797501D03*
X173867500Y-163797501D03*
D12*
X173867500Y-162287504D03*
%TD*%
D11*
%TO.C,LED63*%
X130317500Y-162287501D03*
X130317500Y-163797501D03*
X135767500Y-163797501D03*
D12*
X135767500Y-162287504D03*
%TD*%
D11*
%TO.C,LED31*%
X230330000Y-124187501D03*
X230330000Y-125697501D03*
X235780000Y-125697501D03*
D12*
X235780000Y-124187504D03*
%TD*%
D11*
%TO.C,LED12*%
X77930000Y-81325001D03*
X77930000Y-82835001D03*
X83380000Y-82835001D03*
D12*
X83380000Y-81325004D03*
%TD*%
D11*
%TO.C,LED3*%
X258905000Y-81325001D03*
X258905000Y-82835001D03*
X264355000Y-82835001D03*
D12*
X264355000Y-81325004D03*
%TD*%
D11*
%TO.C,LED66*%
X73167500Y-162287501D03*
X73167500Y-163797501D03*
X78617500Y-163797501D03*
D12*
X78617500Y-162287504D03*
%TD*%
D11*
%TO.C,LED36*%
X135080000Y-124187501D03*
X135080000Y-125697501D03*
X140530000Y-125697501D03*
D12*
X140530000Y-124187504D03*
%TD*%
D11*
%TO.C,LED1*%
X297005000Y-81325001D03*
X297005000Y-82835001D03*
X302455000Y-82835001D03*
D12*
X302455000Y-81325004D03*
%TD*%
D11*
%TO.C,LED7*%
X177942500Y-81325001D03*
X177942500Y-82835001D03*
X183392500Y-82835001D03*
D12*
X183392500Y-81325004D03*
%TD*%
D11*
%TO.C,LED65*%
X92217500Y-162287501D03*
X92217500Y-163797501D03*
X97667500Y-163797501D03*
D12*
X97667500Y-162287504D03*
%TD*%
D11*
%TO.C,LED2*%
X277955000Y-81325001D03*
X277955000Y-82835001D03*
X283405000Y-82835001D03*
D12*
X283405000Y-81325004D03*
%TD*%
D11*
%TO.C,LED57*%
X244617500Y-162287501D03*
X244617500Y-163797501D03*
X250067500Y-163797501D03*
D12*
X250067500Y-162287504D03*
%TD*%
D11*
%TO.C,LED58*%
X225567500Y-162287501D03*
X225567500Y-163797501D03*
X231017500Y-163797501D03*
D12*
X231017500Y-162287504D03*
%TD*%
D11*
%TO.C,LED5*%
X216042500Y-81325001D03*
X216042500Y-82835001D03*
X221492500Y-82835001D03*
D12*
X221492500Y-81325004D03*
%TD*%
D11*
%TO.C,LED28*%
X287480000Y-124187501D03*
X287480000Y-125697501D03*
X292930000Y-125697501D03*
D12*
X292930000Y-124187504D03*
%TD*%
D11*
%TO.C,LED56*%
X263667500Y-162287501D03*
X263667500Y-163797501D03*
X269117500Y-163797501D03*
D12*
X269117500Y-162287504D03*
%TD*%
D11*
%TO.C,LED38*%
X96980000Y-124187501D03*
X96980000Y-125697501D03*
X102430000Y-125697501D03*
D12*
X102430000Y-124187504D03*
%TD*%
D11*
%TO.C,LED64*%
X111267500Y-162287501D03*
X111267500Y-163797501D03*
X116717500Y-163797501D03*
D12*
X116717500Y-162287504D03*
%TD*%
D11*
%TO.C,LED35*%
X154130000Y-124187501D03*
X154130000Y-125697501D03*
X159580000Y-125697501D03*
D12*
X159580000Y-124187504D03*
%TD*%
D11*
%TO.C,LED37*%
X116030000Y-124187501D03*
X116030000Y-125697501D03*
X121480000Y-125697501D03*
D12*
X121480000Y-124187504D03*
%TD*%
D11*
%TO.C,LED11*%
X96980000Y-81325001D03*
X96980000Y-82835001D03*
X102430000Y-82835001D03*
D12*
X102430000Y-81325004D03*
%TD*%
D11*
%TO.C,LED39*%
X77930000Y-124187501D03*
X77930000Y-125697501D03*
X83380000Y-125697501D03*
D12*
X83380000Y-124187504D03*
%TD*%
D11*
%TO.C,LED32*%
X211280000Y-124187501D03*
X211280000Y-125697501D03*
X216730000Y-125697501D03*
D12*
X216730000Y-124187504D03*
%TD*%
D11*
%TO.C,LED59*%
X206517500Y-162287501D03*
X206517500Y-163797501D03*
X211967500Y-163797501D03*
D12*
X211967500Y-162287504D03*
%TD*%
D11*
%TO.C,LED4*%
X239855000Y-81325001D03*
X239855000Y-82835001D03*
X245305000Y-82835001D03*
D12*
X245305000Y-81325004D03*
%TD*%
D11*
%TO.C,LED30*%
X249380000Y-124187501D03*
X249380000Y-125697501D03*
X254830000Y-125697501D03*
D12*
X254830000Y-124187504D03*
%TD*%
D11*
%TO.C,LED62*%
X149367500Y-162287501D03*
X149367500Y-163797501D03*
X154817500Y-163797501D03*
D12*
X154817500Y-162287504D03*
%TD*%
%TO.C,LED67*%
X57186250Y-162287504D03*
D11*
X57186250Y-163797501D03*
X51736250Y-163797501D03*
X51736250Y-162287501D03*
%TD*%
%TO.C,LED9*%
X135080000Y-81325001D03*
X135080000Y-82835001D03*
X140530000Y-82835001D03*
D12*
X140530000Y-81325004D03*
%TD*%
D11*
%TO.C,LED10*%
X116030000Y-81325001D03*
X116030000Y-82835001D03*
X121480000Y-82835001D03*
D12*
X121480000Y-81325004D03*
%TD*%
D11*
%TO.C,LED60*%
X187467500Y-162287501D03*
X187467500Y-163797501D03*
X192917500Y-163797501D03*
D12*
X192917500Y-162287504D03*
%TD*%
D11*
%TO.C,LED33*%
X192230000Y-124187501D03*
X192230000Y-125697501D03*
X197680000Y-125697501D03*
D12*
X197680000Y-124187504D03*
%TD*%
D11*
%TO.C,LED80*%
X344630000Y-143237501D03*
X344630000Y-144747501D03*
X350080000Y-144747501D03*
D12*
X350080000Y-143237504D03*
%TD*%
D13*
%TO.C,C228*%
X127917500Y-144747499D03*
X127917500Y-145707499D03*
%TD*%
D14*
%TO.C,HALL4*%
X117805000Y-76082500D03*
X118755000Y-77957500D03*
X119705000Y-76082500D03*
%TD*%
D15*
%TO.C,C248*%
X109592500Y-162287501D03*
X109592500Y-161327501D03*
%TD*%
D10*
%TO.C,R66*%
X56761250Y-156025000D03*
X56761250Y-157045000D03*
%TD*%
D14*
%TO.C,HALL9*%
X217817500Y-76082500D03*
X218767500Y-77957500D03*
X219717500Y-76082500D03*
%TD*%
D16*
%TO.C,U5*%
X110705000Y-129437500D03*
X111355000Y-129437500D03*
X112005000Y-129437500D03*
X112655000Y-129437500D03*
X113305000Y-129437500D03*
X113955000Y-129437500D03*
X114605000Y-129437500D03*
X115255000Y-129437500D03*
X115905000Y-129437500D03*
X116555000Y-129437500D03*
X117205000Y-129437500D03*
X117855000Y-129437500D03*
X117855000Y-135162500D03*
X117205000Y-135162500D03*
X116555000Y-135162500D03*
X115905000Y-135162500D03*
X115255000Y-135162500D03*
X114605000Y-135162500D03*
X113955000Y-135162500D03*
X113305000Y-135162500D03*
X112655000Y-135162500D03*
X112005000Y-135162500D03*
X111355000Y-135162500D03*
X110705000Y-135162500D03*
%TD*%
D13*
%TO.C,C238*%
X320798750Y-135222499D03*
X320798750Y-136182499D03*
%TD*%
D15*
%TO.C,C171*%
X240280000Y-177055000D03*
X240280000Y-176095000D03*
%TD*%
D13*
%TO.C,C86*%
X160255000Y-117925000D03*
X160255000Y-118885000D03*
%TD*%
D15*
%TO.C,C250*%
X71492500Y-162287501D03*
X71492500Y-161327501D03*
%TD*%
D14*
%TO.C,HALL58*%
X74942500Y-157045000D03*
X75892500Y-158920000D03*
X76842500Y-157045000D03*
%TD*%
D13*
%TO.C,C80*%
X103105000Y-117925000D03*
X103105000Y-118885000D03*
%TD*%
%TO.C,C227*%
X108867500Y-144747499D03*
X108867500Y-145707499D03*
%TD*%
D15*
%TO.C,C240*%
X261992500Y-162287501D03*
X261992500Y-161327501D03*
%TD*%
D14*
%TO.C,HALL25*%
X260680000Y-99895000D03*
X261630000Y-101770000D03*
X262580000Y-99895000D03*
%TD*%
D17*
%TO.C,R91*%
X347680000Y-77125000D03*
X347680000Y-75475000D03*
%TD*%
D18*
%TO.C,C183*%
X350405000Y-76400000D03*
X353355000Y-76400000D03*
%TD*%
D13*
%TO.C,C92*%
X217405000Y-117925000D03*
X217405000Y-118885000D03*
%TD*%
%TO.C,C152*%
X231692500Y-156025000D03*
X231692500Y-156985000D03*
%TD*%
D15*
%TO.C,C31*%
X159317500Y-77042500D03*
X159317500Y-76082500D03*
%TD*%
D14*
%TO.C,HALL8*%
X198767500Y-76082500D03*
X199717500Y-77957500D03*
X200667500Y-76082500D03*
%TD*%
D10*
%TO.C,R65*%
X349655000Y-136975000D03*
X349655000Y-137995000D03*
%TD*%
D19*
%TO.C,R4*%
X288480000Y-101037500D03*
X288480000Y-103962500D03*
%TD*%
D15*
%TO.C,C222*%
X95305000Y-124187501D03*
X95305000Y-123227501D03*
%TD*%
%TO.C,C41*%
X259330000Y-77042500D03*
X259330000Y-76082500D03*
%TD*%
%TO.C,C79*%
X97405000Y-119905000D03*
X97405000Y-118945000D03*
%TD*%
D13*
%TO.C,C24*%
X84055000Y-75062500D03*
X84055000Y-76022500D03*
%TD*%
D15*
%TO.C,C91*%
X211705000Y-119905000D03*
X211705000Y-118945000D03*
%TD*%
D13*
%TO.C,C198*%
X56480000Y-106647499D03*
X56480000Y-107607499D03*
%TD*%
%TO.C,C174*%
X265030000Y-175075000D03*
X265030000Y-176035000D03*
%TD*%
D10*
%TO.C,R61*%
X240117500Y-136975000D03*
X240117500Y-137995000D03*
%TD*%
D13*
%TO.C,C124*%
X241217500Y-136975000D03*
X241217500Y-137935000D03*
%TD*%
D15*
%TO.C,C163*%
X52161250Y-177055000D03*
X52161250Y-176095000D03*
%TD*%
%TO.C,C39*%
X240280000Y-77042500D03*
X240280000Y-76082500D03*
%TD*%
D10*
%TO.C,R18*%
X221067500Y-75062500D03*
X221067500Y-76082500D03*
%TD*%
D13*
%TO.C,C116*%
X165017500Y-136975000D03*
X165017500Y-137935000D03*
%TD*%
%TO.C,C252*%
X58861250Y-182847499D03*
X58861250Y-183807499D03*
%TD*%
D15*
%TO.C,C187*%
X257230000Y-81325001D03*
X257230000Y-80365001D03*
%TD*%
D10*
%TO.C,R55*%
X125817500Y-136975000D03*
X125817500Y-137995000D03*
%TD*%
D13*
%TO.C,C180*%
X326942500Y-179837500D03*
X326942500Y-180797500D03*
%TD*%
D15*
%TO.C,C188*%
X238180000Y-81325001D03*
X238180000Y-80365001D03*
%TD*%
%TO.C,C123*%
X235517500Y-138955000D03*
X235517500Y-137995000D03*
%TD*%
D14*
%TO.C,HALL63*%
X170192500Y-157045000D03*
X171142500Y-158920000D03*
X172092500Y-157045000D03*
%TD*%
D15*
%TO.C,C165*%
X75973750Y-177055000D03*
X75973750Y-176095000D03*
%TD*%
D14*
%TO.C,HALL30*%
X98755000Y-118945000D03*
X99705000Y-120820000D03*
X100655000Y-118945000D03*
%TD*%
%TO.C,HALL28*%
X55892500Y-118945000D03*
X56842500Y-120820000D03*
X57792500Y-118945000D03*
%TD*%
D20*
%TO.C,C3*%
X288480000Y-96325000D03*
X288480000Y-99275000D03*
%TD*%
D13*
%TO.C,C142*%
X136442500Y-156025000D03*
X136442500Y-156985000D03*
%TD*%
D14*
%TO.C,HALL7*%
X179717500Y-76082500D03*
X180667500Y-77957500D03*
X181617500Y-76082500D03*
%TD*%
D13*
%TO.C,C154*%
X250742500Y-156025000D03*
X250742500Y-156985000D03*
%TD*%
D21*
%TO.C,R100*%
X317892500Y-88050000D03*
X316067500Y-88050000D03*
%TD*%
D14*
%TO.C,HALL27*%
X308305000Y-99895000D03*
X309255000Y-101770000D03*
X310205000Y-99895000D03*
%TD*%
D13*
%TO.C,C210*%
X285080000Y-106647499D03*
X285080000Y-107607499D03*
%TD*%
D15*
%TO.C,C43*%
X278380000Y-77042500D03*
X278380000Y-76082500D03*
%TD*%
D14*
%TO.C,HALL1*%
X51130000Y-76082500D03*
X52080000Y-77957500D03*
X53030000Y-76082500D03*
%TD*%
D15*
%TO.C,C241*%
X242942500Y-162287501D03*
X242942500Y-161327501D03*
%TD*%
D13*
%TO.C,C78*%
X84055000Y-117925000D03*
X84055000Y-118885000D03*
%TD*%
%TO.C,C70*%
X265030000Y-98875000D03*
X265030000Y-99835000D03*
%TD*%
D14*
%TO.C,HALL14*%
X51130000Y-99895000D03*
X52080000Y-101770000D03*
X53030000Y-99895000D03*
%TD*%
D13*
%TO.C,C94*%
X236455000Y-117925000D03*
X236455000Y-118885000D03*
%TD*%
%TO.C,C207*%
X227930000Y-106647499D03*
X227930000Y-107607499D03*
%TD*%
D14*
%TO.C,HALL70*%
X346405000Y-157045000D03*
X347355000Y-158920000D03*
X348305000Y-157045000D03*
%TD*%
D10*
%TO.C,R97*%
X346380000Y-83180000D03*
X346380000Y-84200000D03*
%TD*%
D14*
%TO.C,HALL5*%
X136855000Y-76082500D03*
X137805000Y-77957500D03*
X138755000Y-76082500D03*
%TD*%
D13*
%TO.C,C148*%
X193592500Y-156025000D03*
X193592500Y-156985000D03*
%TD*%
%TO.C,C176*%
X284080000Y-175075000D03*
X284080000Y-176035000D03*
%TD*%
D15*
%TO.C,C135*%
X73592500Y-158005000D03*
X73592500Y-157045000D03*
%TD*%
D14*
%TO.C,HALL41*%
X315448750Y-128470000D03*
X316398750Y-130345000D03*
X317348750Y-128470000D03*
%TD*%
D22*
%TO.C,R5*%
X293642500Y-103600000D03*
X290717500Y-103600000D03*
%TD*%
D13*
%TO.C,C211*%
X313655000Y-106647499D03*
X313655000Y-107607499D03*
%TD*%
D23*
%TO.C,U11*%
X293117500Y-87900000D03*
X293117500Y-88400000D03*
D24*
X293067500Y-88900000D03*
D23*
X293117500Y-89400000D03*
X293117500Y-89900000D03*
X292242500Y-89900000D03*
X292242500Y-89400000D03*
D24*
X292292500Y-88900000D03*
D23*
X292242500Y-88400000D03*
X292242500Y-87900000D03*
%TD*%
D13*
%TO.C,C231*%
X185067500Y-144747499D03*
X185067500Y-145707499D03*
%TD*%
D15*
%TO.C,C65*%
X221230000Y-100855000D03*
X221230000Y-99895000D03*
%TD*%
%TO.C,C33*%
X178367500Y-77042500D03*
X178367500Y-76082500D03*
%TD*%
D13*
%TO.C,C158*%
X295986250Y-156025000D03*
X295986250Y-156985000D03*
%TD*%
D10*
%TO.C,R13*%
X121055000Y-75062500D03*
X121055000Y-76082500D03*
%TD*%
D13*
%TO.C,C232*%
X204117500Y-144747499D03*
X204117500Y-145707499D03*
%TD*%
D10*
%TO.C,R83*%
X104386250Y-175075000D03*
X104386250Y-176095000D03*
%TD*%
D15*
%TO.C,C71*%
X278380000Y-100855000D03*
X278380000Y-99895000D03*
%TD*%
D16*
%TO.C,U6*%
X148805000Y-129437500D03*
X149455000Y-129437500D03*
X150105000Y-129437500D03*
X150755000Y-129437500D03*
X151405000Y-129437500D03*
X152055000Y-129437500D03*
X152705000Y-129437500D03*
X153355000Y-129437500D03*
X154005000Y-129437500D03*
X154655000Y-129437500D03*
X155305000Y-129437500D03*
X155955000Y-129437500D03*
X155955000Y-135162500D03*
X155305000Y-135162500D03*
X154655000Y-135162500D03*
X154005000Y-135162500D03*
X153355000Y-135162500D03*
X152705000Y-135162500D03*
X152055000Y-135162500D03*
X151405000Y-135162500D03*
X150755000Y-135162500D03*
X150105000Y-135162500D03*
X149455000Y-135162500D03*
X148805000Y-135162500D03*
%TD*%
D14*
%TO.C,HALL54*%
X274967500Y-137995000D03*
X275917500Y-139870000D03*
X276867500Y-137995000D03*
%TD*%
D15*
%TO.C,C59*%
X164080000Y-100855000D03*
X164080000Y-99895000D03*
%TD*%
D14*
%TO.C,HALL39*%
X270205000Y-118945000D03*
X271155000Y-120820000D03*
X272105000Y-118945000D03*
%TD*%
D15*
%TO.C,C149*%
X206942500Y-158005000D03*
X206942500Y-157045000D03*
%TD*%
D13*
%TO.C,C104*%
X350755000Y-117925000D03*
X350755000Y-118885000D03*
%TD*%
D10*
%TO.C,R64*%
X297267500Y-136975000D03*
X297267500Y-137995000D03*
%TD*%
D15*
%TO.C,C107*%
X83117500Y-138955000D03*
X83117500Y-137995000D03*
%TD*%
D14*
%TO.C,HALL32*%
X136855000Y-118945000D03*
X137805000Y-120820000D03*
X138755000Y-118945000D03*
%TD*%
D13*
%TO.C,C160*%
X350755000Y-156025000D03*
X350755000Y-156985000D03*
%TD*%
D10*
%TO.C,R15*%
X163917500Y-75062500D03*
X163917500Y-76082500D03*
%TD*%
D15*
%TO.C,C87*%
X173605000Y-119905000D03*
X173605000Y-118945000D03*
%TD*%
D13*
%TO.C,C64*%
X207880000Y-98875000D03*
X207880000Y-99835000D03*
%TD*%
%TO.C,C72*%
X284080000Y-98875000D03*
X284080000Y-99835000D03*
%TD*%
D10*
%TO.C,R68*%
X97242500Y-156025000D03*
X97242500Y-157045000D03*
%TD*%
%TO.C,R75*%
X230592500Y-156025000D03*
X230592500Y-157045000D03*
%TD*%
D15*
%TO.C,C159*%
X345055000Y-158005000D03*
X345055000Y-157045000D03*
%TD*%
D13*
%TO.C,C206*%
X208880000Y-106647499D03*
X208880000Y-107607499D03*
%TD*%
D14*
%TO.C,HALL2*%
X79705000Y-76082500D03*
X80655000Y-77957500D03*
X81605000Y-76082500D03*
%TD*%
D10*
%TO.C,R69*%
X116292500Y-156025000D03*
X116292500Y-157045000D03*
%TD*%
D13*
%TO.C,C226*%
X89817500Y-144747499D03*
X89817500Y-145707499D03*
%TD*%
D25*
%TO.C,Q1*%
X351080000Y-78710000D03*
X351080000Y-80610000D03*
X349205000Y-79660000D03*
%TD*%
D15*
%TO.C,C77*%
X78355000Y-119905000D03*
X78355000Y-118945000D03*
%TD*%
D26*
%TO.C,R9*%
X304180000Y-82110000D03*
X304180000Y-81090000D03*
%TD*%
D13*
%TO.C,C204*%
X170780000Y-106647499D03*
X170780000Y-107607499D03*
%TD*%
D14*
%TO.C,HALL76*%
X241630000Y-176095000D03*
X242580000Y-177970000D03*
X243530000Y-176095000D03*
%TD*%
D13*
%TO.C,C60*%
X169780000Y-98875000D03*
X169780000Y-99835000D03*
%TD*%
D10*
%TO.C,R85*%
X244880000Y-175075000D03*
X244880000Y-176095000D03*
%TD*%
D13*
%TO.C,C74*%
X312655000Y-98875000D03*
X312655000Y-99835000D03*
%TD*%
%TO.C,C261*%
X346992500Y-187609999D03*
X346992500Y-188569999D03*
%TD*%
%TO.C,C54*%
X112630000Y-98875000D03*
X112630000Y-99835000D03*
%TD*%
D10*
%TO.C,R7*%
X305280000Y-82110000D03*
X305280000Y-83130000D03*
%TD*%
D15*
%TO.C,C167*%
X99786250Y-177055000D03*
X99786250Y-176095000D03*
%TD*%
D27*
%TO.C,C6*%
X333060000Y-84200000D03*
X332100000Y-84200000D03*
%TD*%
D28*
%TO.C,U1*%
X291223750Y-100875000D03*
X291223750Y-98575000D03*
D29*
X297523750Y-98575000D03*
D28*
X291223750Y-96275000D03*
%TD*%
D13*
%TO.C,C234*%
X242217500Y-144747499D03*
X242217500Y-145707499D03*
%TD*%
D10*
%TO.C,R12*%
X102005000Y-75062500D03*
X102005000Y-76082500D03*
%TD*%
D15*
%TO.C,C212*%
X285805000Y-124187501D03*
X285805000Y-123227501D03*
%TD*%
D10*
%TO.C,R49*%
X292505000Y-117925000D03*
X292505000Y-118945000D03*
%TD*%
D13*
%TO.C,C76*%
X60242500Y-117925000D03*
X60242500Y-118885000D03*
%TD*%
D15*
%TO.C,C246*%
X147692500Y-162287501D03*
X147692500Y-161327501D03*
%TD*%
D13*
%TO.C,C132*%
X350755000Y-136975000D03*
X350755000Y-137935000D03*
%TD*%
D14*
%TO.C,HALL40*%
X289255000Y-118945000D03*
X290205000Y-120820000D03*
X291155000Y-118945000D03*
%TD*%
D15*
%TO.C,C244*%
X185792500Y-162287501D03*
X185792500Y-161327501D03*
%TD*%
D13*
%TO.C,C88*%
X179305000Y-117925000D03*
X179305000Y-118885000D03*
%TD*%
%TO.C,C164*%
X57861250Y-175075000D03*
X57861250Y-176035000D03*
%TD*%
%TO.C,C172*%
X245980000Y-175075000D03*
X245980000Y-176035000D03*
%TD*%
D15*
%TO.C,C89*%
X192655000Y-119905000D03*
X192655000Y-118945000D03*
%TD*%
D13*
%TO.C,C178*%
X307892500Y-179837500D03*
X307892500Y-180797500D03*
%TD*%
D10*
%TO.C,R14*%
X140105000Y-75062500D03*
X140105000Y-76082500D03*
%TD*%
D14*
%TO.C,HALL55*%
X294017500Y-137995000D03*
X294967500Y-139870000D03*
X295917500Y-137995000D03*
%TD*%
D10*
%TO.C,R63*%
X278217500Y-136975000D03*
X278217500Y-137995000D03*
%TD*%
D14*
%TO.C,HALL67*%
X246392500Y-157045000D03*
X247342500Y-158920000D03*
X248292500Y-157045000D03*
%TD*%
D30*
%TO.C,USB1*%
X284880000Y-91850000D03*
D31*
X288880000Y-90700000D03*
X288880000Y-89500000D03*
X288880000Y-88300000D03*
X288880000Y-87100000D03*
D30*
X284880000Y-85950000D03*
%TD*%
D14*
%TO.C,HALL50*%
X198767500Y-137995000D03*
X199717500Y-139870000D03*
X200667500Y-137995000D03*
%TD*%
D10*
%TO.C,R57*%
X163917500Y-136975000D03*
X163917500Y-137995000D03*
%TD*%
D13*
%TO.C,C126*%
X260267500Y-136975000D03*
X260267500Y-137935000D03*
%TD*%
D10*
%TO.C,R24*%
X73430000Y-98875000D03*
X73430000Y-99895000D03*
%TD*%
D14*
%TO.C,HALL49*%
X179717500Y-137995000D03*
X180667500Y-139870000D03*
X181617500Y-137995000D03*
%TD*%
D26*
%TO.C,R93*%
X348980000Y-77320000D03*
X348980000Y-76300000D03*
%TD*%
D32*
%TO.C,R8*%
X337089530Y-88845235D03*
X338380000Y-87554765D03*
%TD*%
D13*
%TO.C,C162*%
X326942500Y-160787500D03*
X326942500Y-161747500D03*
%TD*%
D14*
%TO.C,HALL6*%
X160667500Y-76082500D03*
X161617500Y-77957500D03*
X162567500Y-76082500D03*
%TD*%
D10*
%TO.C,R50*%
X318698750Y-127450000D03*
X318698750Y-128470000D03*
%TD*%
D13*
%TO.C,C68*%
X245980000Y-98875000D03*
X245980000Y-99835000D03*
%TD*%
D10*
%TO.C,R43*%
X178205000Y-117925000D03*
X178205000Y-118945000D03*
%TD*%
D13*
%TO.C,C108*%
X88817500Y-136975000D03*
X88817500Y-137935000D03*
%TD*%
%TO.C,C22*%
X55480000Y-75062500D03*
X55480000Y-76022500D03*
%TD*%
D10*
%TO.C,R78*%
X294886250Y-156025000D03*
X294886250Y-157045000D03*
%TD*%
D13*
%TO.C,C166*%
X81673750Y-175075000D03*
X81673750Y-176035000D03*
%TD*%
D14*
%TO.C,HALL16*%
X89230000Y-99895000D03*
X90180000Y-101770000D03*
X91130000Y-99895000D03*
%TD*%
D10*
%TO.C,R59*%
X202017500Y-136975000D03*
X202017500Y-137995000D03*
%TD*%
D15*
%TO.C,C186*%
X276280000Y-81325001D03*
X276280000Y-80365001D03*
%TD*%
D14*
%TO.C,HALL21*%
X184480000Y-99895000D03*
X185430000Y-101770000D03*
X186380000Y-99895000D03*
%TD*%
D13*
%TO.C,C34*%
X184067500Y-75062500D03*
X184067500Y-76022500D03*
%TD*%
D15*
%TO.C,C129*%
X292667500Y-138955000D03*
X292667500Y-137995000D03*
%TD*%
D10*
%TO.C,R33*%
X244880000Y-98875000D03*
X244880000Y-99895000D03*
%TD*%
D15*
%TO.C,C101*%
X314098750Y-129430000D03*
X314098750Y-128470000D03*
%TD*%
%TO.C,C141*%
X130742500Y-158005000D03*
X130742500Y-157045000D03*
%TD*%
%TO.C,C61*%
X183130000Y-100855000D03*
X183130000Y-99895000D03*
%TD*%
D14*
%TO.C,HALL66*%
X227342500Y-157045000D03*
X228292500Y-158920000D03*
X229242500Y-157045000D03*
%TD*%
D15*
%TO.C,C51*%
X87880000Y-100855000D03*
X87880000Y-99895000D03*
%TD*%
D13*
%TO.C,C263*%
X351755000Y-163797499D03*
X351755000Y-164757499D03*
%TD*%
D10*
%TO.C,R92*%
X346380000Y-76300000D03*
X346380000Y-77320000D03*
%TD*%
D13*
%TO.C,C118*%
X184067500Y-136975000D03*
X184067500Y-137935000D03*
%TD*%
D14*
%TO.C,HALL11*%
X260680000Y-76082500D03*
X261630000Y-77957500D03*
X262580000Y-76082500D03*
%TD*%
D10*
%TO.C,R74*%
X211542500Y-156025000D03*
X211542500Y-157045000D03*
%TD*%
D15*
%TO.C,C73*%
X306955000Y-100855000D03*
X306955000Y-99895000D03*
%TD*%
%TO.C,C137*%
X92642500Y-158005000D03*
X92642500Y-157045000D03*
%TD*%
%TO.C,C179*%
X321242500Y-181817500D03*
X321242500Y-180857500D03*
%TD*%
D14*
%TO.C,HALL78*%
X279730000Y-176095000D03*
X280680000Y-177970000D03*
X281630000Y-176095000D03*
%TD*%
D15*
%TO.C,C10*%
X336930000Y-91760000D03*
X336930000Y-90800000D03*
%TD*%
D14*
%TO.C,HALL12*%
X279730000Y-76082500D03*
X280680000Y-77957500D03*
X281630000Y-76082500D03*
%TD*%
D13*
%TO.C,C36*%
X203117500Y-75062500D03*
X203117500Y-76022500D03*
%TD*%
D10*
%TO.C,R44*%
X197255000Y-117925000D03*
X197255000Y-118945000D03*
%TD*%
D15*
%TO.C,C223*%
X76255000Y-124187501D03*
X76255000Y-123227501D03*
%TD*%
D13*
%TO.C,C26*%
X103105000Y-75062500D03*
X103105000Y-76022500D03*
%TD*%
D10*
%TO.C,R71*%
X154392500Y-156025000D03*
X154392500Y-157045000D03*
%TD*%
D15*
%TO.C,C184*%
X353680000Y-85220000D03*
X353680000Y-84260000D03*
%TD*%
D16*
%TO.C,U7*%
X206005000Y-129437500D03*
X206655000Y-129437500D03*
X207305000Y-129437500D03*
X207955000Y-129437500D03*
X208605000Y-129437500D03*
X209255000Y-129437500D03*
X209905000Y-129437500D03*
X210555000Y-129437500D03*
X211205000Y-129437500D03*
X211855000Y-129437500D03*
X212505000Y-129437500D03*
X213155000Y-129437500D03*
X213155000Y-135162500D03*
X212505000Y-135162500D03*
X211855000Y-135162500D03*
X211205000Y-135162500D03*
X210555000Y-135162500D03*
X209905000Y-135162500D03*
X209255000Y-135162500D03*
X208605000Y-135162500D03*
X207955000Y-135162500D03*
X207305000Y-135162500D03*
X206655000Y-135162500D03*
X206005000Y-135162500D03*
%TD*%
D15*
%TO.C,C21*%
X49780000Y-77042500D03*
X49780000Y-76082500D03*
%TD*%
D13*
%TO.C,C46*%
X303130000Y-75062500D03*
X303130000Y-76022500D03*
%TD*%
D15*
%TO.C,C221*%
X114355000Y-124187501D03*
X114355000Y-123227501D03*
%TD*%
%TO.C,C145*%
X168842500Y-158005000D03*
X168842500Y-157045000D03*
%TD*%
D10*
%TO.C,R77*%
X268692500Y-156025000D03*
X268692500Y-157045000D03*
%TD*%
%TO.C,R67*%
X78192500Y-156025000D03*
X78192500Y-157045000D03*
%TD*%
D15*
%TO.C,C264*%
X342955000Y-143237501D03*
X342955000Y-142277501D03*
%TD*%
%TO.C,C125*%
X254567500Y-138955000D03*
X254567500Y-137995000D03*
%TD*%
D14*
%TO.C,HALL23*%
X222580000Y-99895000D03*
X223530000Y-101770000D03*
X224480000Y-99895000D03*
%TD*%
D13*
%TO.C,C144*%
X155492500Y-156025000D03*
X155492500Y-156985000D03*
%TD*%
%TO.C,C262*%
X327942500Y-168559999D03*
X327942500Y-169519999D03*
%TD*%
%TO.C,C62*%
X188830000Y-98875000D03*
X188830000Y-99835000D03*
%TD*%
D10*
%TO.C,R1*%
X314180000Y-87490000D03*
X314180000Y-88510000D03*
%TD*%
D15*
%TO.C,C115*%
X159317500Y-138955000D03*
X159317500Y-137995000D03*
%TD*%
D14*
%TO.C,HALL65*%
X208292500Y-157045000D03*
X209242500Y-158920000D03*
X210192500Y-157045000D03*
%TD*%
D15*
%TO.C,C103*%
X345055000Y-119905000D03*
X345055000Y-118945000D03*
%TD*%
%TO.C,C25*%
X97405000Y-77042500D03*
X97405000Y-76082500D03*
%TD*%
%TO.C,C243*%
X204842500Y-162287501D03*
X204842500Y-161327501D03*
%TD*%
D10*
%TO.C,R76*%
X249642500Y-156025000D03*
X249642500Y-157045000D03*
%TD*%
D15*
%TO.C,C55*%
X125980000Y-100855000D03*
X125980000Y-99895000D03*
%TD*%
%TO.C,C35*%
X197417500Y-77042500D03*
X197417500Y-76082500D03*
%TD*%
D13*
%TO.C,C256*%
X246980000Y-182847499D03*
X246980000Y-183807499D03*
%TD*%
%TO.C,C52*%
X93580000Y-98875000D03*
X93580000Y-99835000D03*
%TD*%
D10*
%TO.C,R70*%
X135342500Y-156025000D03*
X135342500Y-157045000D03*
%TD*%
D14*
%TO.C,HALL59*%
X93992500Y-157045000D03*
X94942500Y-158920000D03*
X95892500Y-157045000D03*
%TD*%
D10*
%TO.C,R40*%
X121055000Y-117925000D03*
X121055000Y-118945000D03*
%TD*%
D13*
%TO.C,C114*%
X145967500Y-136975000D03*
X145967500Y-137935000D03*
%TD*%
D14*
%TO.C,HALL34*%
X174955000Y-118945000D03*
X175905000Y-120820000D03*
X176855000Y-118945000D03*
%TD*%
D15*
%TO.C,C191*%
X176267500Y-81325001D03*
X176267500Y-80365001D03*
%TD*%
D14*
%TO.C,HALL33*%
X155905000Y-118945000D03*
X156855000Y-120820000D03*
X157805000Y-118945000D03*
%TD*%
D15*
%TO.C,C216*%
X209605000Y-124187501D03*
X209605000Y-123227501D03*
%TD*%
D13*
%TO.C,C58*%
X150730000Y-98875000D03*
X150730000Y-99835000D03*
%TD*%
D33*
%TO.C,C4*%
X298355000Y-103600000D03*
X295405000Y-103600000D03*
%TD*%
D10*
%TO.C,R81*%
X56761250Y-175075000D03*
X56761250Y-176095000D03*
%TD*%
D15*
%TO.C,C81*%
X116455000Y-119905000D03*
X116455000Y-118945000D03*
%TD*%
D14*
%TO.C,HALL46*%
X122567500Y-137995000D03*
X123517500Y-139870000D03*
X124467500Y-137995000D03*
%TD*%
D15*
%TO.C,C29*%
X135505000Y-77042500D03*
X135505000Y-76082500D03*
%TD*%
%TO.C,C97*%
X268855000Y-119905000D03*
X268855000Y-118945000D03*
%TD*%
%TO.C,C133*%
X52161250Y-158005000D03*
X52161250Y-157045000D03*
%TD*%
D10*
%TO.C,R21*%
X282980000Y-75062500D03*
X282980000Y-76082500D03*
%TD*%
D13*
%TO.C,C56*%
X131680000Y-98875000D03*
X131680000Y-99835000D03*
%TD*%
D14*
%TO.C,HALL68*%
X265442500Y-157045000D03*
X266392500Y-158920000D03*
X267342500Y-157045000D03*
%TD*%
D10*
%TO.C,R41*%
X140105000Y-117925000D03*
X140105000Y-118945000D03*
%TD*%
D15*
%TO.C,C195*%
X95305000Y-81325001D03*
X95305000Y-80365001D03*
%TD*%
D13*
%TO.C,C120*%
X203117500Y-136975000D03*
X203117500Y-137935000D03*
%TD*%
D27*
%TO.C,C11*%
X339055000Y-91680000D03*
X338095000Y-91680000D03*
%TD*%
D15*
%TO.C,C220*%
X133405000Y-124187501D03*
X133405000Y-123227501D03*
%TD*%
%TO.C,C131*%
X345055000Y-138955000D03*
X345055000Y-137995000D03*
%TD*%
D13*
%TO.C,C44*%
X284080000Y-75062500D03*
X284080000Y-76022500D03*
%TD*%
D14*
%TO.C,HALL26*%
X279730000Y-99895000D03*
X280680000Y-101770000D03*
X281630000Y-99895000D03*
%TD*%
D13*
%TO.C,C48*%
X55480000Y-98875000D03*
X55480000Y-99835000D03*
%TD*%
D15*
%TO.C,C189*%
X214367500Y-81325001D03*
X214367500Y-80365001D03*
%TD*%
D13*
%TO.C,C265*%
X351755000Y-125697499D03*
X351755000Y-126657499D03*
%TD*%
D10*
%TO.C,R82*%
X80573750Y-175075000D03*
X80573750Y-176095000D03*
%TD*%
D15*
%TO.C,C169*%
X171223750Y-177055000D03*
X171223750Y-176095000D03*
%TD*%
D13*
%TO.C,C156*%
X269792500Y-156025000D03*
X269792500Y-156985000D03*
%TD*%
D10*
%TO.C,R19*%
X244880000Y-75062500D03*
X244880000Y-76082500D03*
%TD*%
%TO.C,R86*%
X263930000Y-175075000D03*
X263930000Y-176095000D03*
%TD*%
D14*
%TO.C,HALL45*%
X103517500Y-137995000D03*
X104467500Y-139870000D03*
X105417500Y-137995000D03*
%TD*%
D13*
%TO.C,C225*%
X63623750Y-144747499D03*
X63623750Y-145707499D03*
%TD*%
D10*
%TO.C,R89*%
X325842500Y-179837500D03*
X325842500Y-180857500D03*
%TD*%
D13*
%TO.C,C170*%
X176923750Y-175075000D03*
X176923750Y-176035000D03*
%TD*%
D15*
%TO.C,C9*%
X335830000Y-91760000D03*
X335830000Y-90800000D03*
%TD*%
%TO.C,C155*%
X264092500Y-158005000D03*
X264092500Y-157045000D03*
%TD*%
D13*
%TO.C,C122*%
X222167500Y-136975000D03*
X222167500Y-137935000D03*
%TD*%
D15*
%TO.C,C193*%
X133405000Y-81325001D03*
X133405000Y-80365001D03*
%TD*%
D13*
%TO.C,C203*%
X151730000Y-106647499D03*
X151730000Y-107607499D03*
%TD*%
D15*
%TO.C,C247*%
X128642500Y-162287501D03*
X128642500Y-161327501D03*
%TD*%
D34*
%TO.C,U10*%
X323819340Y-80860661D03*
X324172893Y-80507107D03*
D35*
X324561802Y-80188909D03*
D34*
X324880000Y-79800000D03*
X325233554Y-79446447D03*
X325852272Y-80065165D03*
X325498719Y-80418719D03*
D35*
X325109810Y-80736917D03*
D34*
X324791612Y-81125826D03*
X324438058Y-81479379D03*
%TD*%
D14*
%TO.C,HALL77*%
X260680000Y-176095000D03*
X261630000Y-177970000D03*
X262580000Y-176095000D03*
%TD*%
D26*
%TO.C,R98*%
X347480000Y-84200000D03*
X347480000Y-83180000D03*
%TD*%
D10*
%TO.C,R52*%
X61523750Y-136975000D03*
X61523750Y-137995000D03*
%TD*%
D13*
%TO.C,C102*%
X319798750Y-127450000D03*
X319798750Y-128410000D03*
%TD*%
D10*
%TO.C,R84*%
X175823750Y-175075000D03*
X175823750Y-176095000D03*
%TD*%
D15*
%TO.C,C242*%
X223892500Y-162287501D03*
X223892500Y-161327501D03*
%TD*%
%TO.C,C185*%
X295330000Y-81325001D03*
X295330000Y-80365001D03*
%TD*%
D10*
%TO.C,R36*%
X311555000Y-98875000D03*
X311555000Y-99895000D03*
%TD*%
D15*
%TO.C,C239*%
X288186250Y-162287501D03*
X288186250Y-161327501D03*
%TD*%
%TO.C,C151*%
X225992500Y-158005000D03*
X225992500Y-157045000D03*
%TD*%
D10*
%TO.C,R53*%
X87717500Y-136975000D03*
X87717500Y-137995000D03*
%TD*%
D13*
%TO.C,C199*%
X75530000Y-106647499D03*
X75530000Y-107607499D03*
%TD*%
D10*
%TO.C,R16*%
X182967500Y-75062500D03*
X182967500Y-76082500D03*
%TD*%
D13*
%TO.C,C100*%
X293605000Y-117925000D03*
X293605000Y-118885000D03*
%TD*%
D10*
%TO.C,R29*%
X168680000Y-98875000D03*
X168680000Y-99895000D03*
%TD*%
%TO.C,R62*%
X259167500Y-136975000D03*
X259167500Y-137995000D03*
%TD*%
D14*
%TO.C,HALL22*%
X203530000Y-99895000D03*
X204480000Y-101770000D03*
X205430000Y-99895000D03*
%TD*%
D13*
%TO.C,C128*%
X279317500Y-136975000D03*
X279317500Y-137935000D03*
%TD*%
%TO.C,C84*%
X141205000Y-117925000D03*
X141205000Y-118885000D03*
%TD*%
%TO.C,C112*%
X126917500Y-136975000D03*
X126917500Y-137935000D03*
%TD*%
%TO.C,C257*%
X266030000Y-182847499D03*
X266030000Y-183807499D03*
%TD*%
D14*
%TO.C,HALL56*%
X346405000Y-137995000D03*
X347355000Y-139870000D03*
X348305000Y-137995000D03*
%TD*%
D15*
%TO.C,C47*%
X49780000Y-100855000D03*
X49780000Y-99895000D03*
%TD*%
D13*
%TO.C,C200*%
X94580000Y-106647499D03*
X94580000Y-107607499D03*
%TD*%
D14*
%TO.C,HALL38*%
X251155000Y-118945000D03*
X252105000Y-120820000D03*
X253055000Y-118945000D03*
%TD*%
D15*
%TO.C,C113*%
X140267500Y-138955000D03*
X140267500Y-137995000D03*
%TD*%
%TO.C,C18*%
X204780000Y-135162500D03*
X204780000Y-134202500D03*
%TD*%
%TO.C,C249*%
X90542500Y-162287501D03*
X90542500Y-161327501D03*
%TD*%
D13*
%TO.C,C253*%
X82673750Y-182847499D03*
X82673750Y-183807499D03*
%TD*%
%TO.C,C66*%
X226930000Y-98875000D03*
X226930000Y-99835000D03*
%TD*%
D14*
%TO.C,HALL81*%
X341642500Y-180857500D03*
X342592500Y-182732500D03*
X343542500Y-180857500D03*
%TD*%
%TO.C,HALL17*%
X108280000Y-99895000D03*
X109230000Y-101770000D03*
X110180000Y-99895000D03*
%TD*%
%TO.C,HALL53*%
X255917500Y-137995000D03*
X256867500Y-139870000D03*
X257817500Y-137995000D03*
%TD*%
%TO.C,HALL69*%
X291636250Y-157045000D03*
X292586250Y-158920000D03*
X293536250Y-157045000D03*
%TD*%
D16*
%TO.C,U9*%
X329305000Y-121137500D03*
X329955000Y-121137500D03*
X330605000Y-121137500D03*
X331255000Y-121137500D03*
X331905000Y-121137500D03*
X332555000Y-121137500D03*
X333205000Y-121137500D03*
X333855000Y-121137500D03*
X334505000Y-121137500D03*
X335155000Y-121137500D03*
X335805000Y-121137500D03*
X336455000Y-121137500D03*
X336455000Y-126862500D03*
X335805000Y-126862500D03*
X335155000Y-126862500D03*
X334505000Y-126862500D03*
X333855000Y-126862500D03*
X333205000Y-126862500D03*
X332555000Y-126862500D03*
X331905000Y-126862500D03*
X331255000Y-126862500D03*
X330605000Y-126862500D03*
X329955000Y-126862500D03*
X329305000Y-126862500D03*
%TD*%
D15*
%TO.C,C157*%
X290286250Y-158005000D03*
X290286250Y-157045000D03*
%TD*%
D14*
%TO.C,HALL13*%
X298780000Y-76082500D03*
X299730000Y-77957500D03*
X300680000Y-76082500D03*
%TD*%
D13*
%TO.C,C82*%
X122155000Y-117925000D03*
X122155000Y-118885000D03*
%TD*%
D15*
%TO.C,C85*%
X154555000Y-119905000D03*
X154555000Y-118945000D03*
%TD*%
%TO.C,C93*%
X230755000Y-119905000D03*
X230755000Y-118945000D03*
%TD*%
D14*
%TO.C,HALL71*%
X322592500Y-161807500D03*
X323542500Y-163682500D03*
X324492500Y-161807500D03*
%TD*%
D27*
%TO.C,C14*%
X339340000Y-86000000D03*
X338380000Y-86000000D03*
%TD*%
D14*
%TO.C,HALL62*%
X151142500Y-157045000D03*
X152092500Y-158920000D03*
X153042500Y-157045000D03*
%TD*%
D10*
%TO.C,R27*%
X130580000Y-98875000D03*
X130580000Y-99895000D03*
%TD*%
%TO.C,R60*%
X221067500Y-136975000D03*
X221067500Y-137995000D03*
%TD*%
%TO.C,R45*%
X216305000Y-117925000D03*
X216305000Y-118945000D03*
%TD*%
D15*
%TO.C,C99*%
X287905000Y-119905000D03*
X287905000Y-118945000D03*
%TD*%
D10*
%TO.C,R17*%
X202017500Y-75062500D03*
X202017500Y-76082500D03*
%TD*%
D14*
%TO.C,HALL15*%
X70180000Y-99895000D03*
X71130000Y-101770000D03*
X72080000Y-99895000D03*
%TD*%
D15*
%TO.C,C175*%
X278380000Y-177055000D03*
X278380000Y-176095000D03*
%TD*%
%TO.C,C119*%
X197417500Y-138955000D03*
X197417500Y-137995000D03*
%TD*%
D14*
%TO.C,HALL72*%
X53511250Y-176095000D03*
X54461250Y-177970000D03*
X55411250Y-176095000D03*
%TD*%
D15*
%TO.C,C17*%
X147580000Y-135162500D03*
X147580000Y-134202500D03*
%TD*%
D14*
%TO.C,HALL24*%
X241630000Y-99895000D03*
X242580000Y-101770000D03*
X243530000Y-99895000D03*
%TD*%
D15*
%TO.C,C67*%
X240280000Y-100855000D03*
X240280000Y-99895000D03*
%TD*%
%TO.C,C143*%
X149792500Y-158005000D03*
X149792500Y-157045000D03*
%TD*%
D10*
%TO.C,R25*%
X92480000Y-98875000D03*
X92480000Y-99895000D03*
%TD*%
D15*
%TO.C,C45*%
X297430000Y-77042500D03*
X297430000Y-76082500D03*
%TD*%
D14*
%TO.C,HALL73*%
X77323750Y-176095000D03*
X78273750Y-177970000D03*
X79223750Y-176095000D03*
%TD*%
D13*
%TO.C,C230*%
X166017500Y-144747499D03*
X166017500Y-145707499D03*
%TD*%
%TO.C,C130*%
X298367500Y-136975000D03*
X298367500Y-137935000D03*
%TD*%
D15*
%TO.C,C105*%
X56923750Y-138955000D03*
X56923750Y-137995000D03*
%TD*%
D13*
%TO.C,C258*%
X285080000Y-182847499D03*
X285080000Y-183807499D03*
%TD*%
D10*
%TO.C,R11*%
X82955000Y-75062500D03*
X82955000Y-76082500D03*
%TD*%
D13*
%TO.C,C134*%
X57861250Y-156025000D03*
X57861250Y-156985000D03*
%TD*%
D10*
%TO.C,R88*%
X306792500Y-179837500D03*
X306792500Y-180857500D03*
%TD*%
D13*
%TO.C,C136*%
X79292500Y-156025000D03*
X79292500Y-156985000D03*
%TD*%
%TO.C,C140*%
X117392500Y-156025000D03*
X117392500Y-156985000D03*
%TD*%
D14*
%TO.C,HALL52*%
X236867500Y-137995000D03*
X237817500Y-139870000D03*
X238767500Y-137995000D03*
%TD*%
D15*
%TO.C,C214*%
X247705000Y-124187501D03*
X247705000Y-123227501D03*
%TD*%
%TO.C,C181*%
X340292500Y-181817500D03*
X340292500Y-180857500D03*
%TD*%
%TO.C,C161*%
X321242500Y-162767500D03*
X321242500Y-161807500D03*
%TD*%
D10*
%TO.C,R23*%
X54380000Y-98875000D03*
X54380000Y-99895000D03*
%TD*%
D14*
%TO.C,HALL48*%
X160667500Y-137995000D03*
X161617500Y-139870000D03*
X162567500Y-137995000D03*
%TD*%
D15*
%TO.C,C213*%
X266755000Y-124187501D03*
X266755000Y-123227501D03*
%TD*%
D13*
%TO.C,C202*%
X132680000Y-106647499D03*
X132680000Y-107607499D03*
%TD*%
D15*
%TO.C,C190*%
X195317500Y-81325001D03*
X195317500Y-80365001D03*
%TD*%
%TO.C,C27*%
X116455000Y-77042500D03*
X116455000Y-76082500D03*
%TD*%
D10*
%TO.C,R47*%
X254405000Y-117925000D03*
X254405000Y-118945000D03*
%TD*%
D14*
%TO.C,HALL51*%
X217817500Y-137995000D03*
X218767500Y-139870000D03*
X219717500Y-137995000D03*
%TD*%
D15*
%TO.C,C251*%
X50061250Y-162287501D03*
X50061250Y-161327501D03*
%TD*%
D13*
%TO.C,C28*%
X122155000Y-75062500D03*
X122155000Y-76022500D03*
%TD*%
%TO.C,C209*%
X266030000Y-106647499D03*
X266030000Y-107607499D03*
%TD*%
D36*
%TO.C,Y1*%
X336180000Y-82850000D03*
X338380000Y-82850000D03*
X338380000Y-84550000D03*
X336180000Y-84550000D03*
%TD*%
D10*
%TO.C,R10*%
X54380000Y-75062500D03*
X54380000Y-76082500D03*
%TD*%
D37*
%TO.C,SW1*%
X340880000Y-77460000D03*
X340880000Y-83760000D03*
X344680000Y-77460000D03*
X344680000Y-83760000D03*
%TD*%
D10*
%TO.C,R22*%
X302030000Y-75062500D03*
X302030000Y-76082500D03*
%TD*%
D13*
%TO.C,C98*%
X274555000Y-117925000D03*
X274555000Y-118885000D03*
%TD*%
D10*
%TO.C,R79*%
X349655000Y-156025000D03*
X349655000Y-157045000D03*
%TD*%
D14*
%TO.C,HALL43*%
X58273750Y-137995000D03*
X59223750Y-139870000D03*
X60173750Y-137995000D03*
%TD*%
D25*
%TO.C,Q3*%
X308817500Y-81160000D03*
X308817500Y-83060000D03*
X306942500Y-82110000D03*
%TD*%
D13*
%TO.C,C42*%
X265030000Y-75062500D03*
X265030000Y-76022500D03*
%TD*%
%TO.C,C235*%
X261267500Y-144747499D03*
X261267500Y-145707499D03*
%TD*%
%TO.C,C182*%
X345992500Y-179837500D03*
X345992500Y-180797500D03*
%TD*%
%TO.C,C38*%
X222167500Y-75062500D03*
X222167500Y-76022500D03*
%TD*%
%TO.C,C50*%
X74530000Y-98875000D03*
X74530000Y-99835000D03*
%TD*%
D38*
%TO.C,R95*%
X352580000Y-78710000D03*
X353600000Y-78710000D03*
%TD*%
D15*
%TO.C,C196*%
X76255000Y-81325001D03*
X76255000Y-80365001D03*
%TD*%
%TO.C,C111*%
X121217500Y-138955000D03*
X121217500Y-137995000D03*
%TD*%
D14*
%TO.C,HALL3*%
X98755000Y-76082500D03*
X99705000Y-77957500D03*
X100655000Y-76082500D03*
%TD*%
D13*
%TO.C,C233*%
X223167500Y-144747499D03*
X223167500Y-145707499D03*
%TD*%
D14*
%TO.C,HALL44*%
X84467500Y-137995000D03*
X85417500Y-139870000D03*
X86367500Y-137995000D03*
%TD*%
D15*
%TO.C,C139*%
X111692500Y-158005000D03*
X111692500Y-157045000D03*
%TD*%
D14*
%TO.C,HALL47*%
X141617500Y-137995000D03*
X142567500Y-139870000D03*
X143517500Y-137995000D03*
%TD*%
D10*
%TO.C,R26*%
X111530000Y-98875000D03*
X111530000Y-99895000D03*
%TD*%
%TO.C,R42*%
X159155000Y-117925000D03*
X159155000Y-118945000D03*
%TD*%
D13*
%TO.C,C96*%
X255505000Y-117925000D03*
X255505000Y-118885000D03*
%TD*%
%TO.C,C90*%
X198355000Y-117925000D03*
X198355000Y-118885000D03*
%TD*%
D10*
%TO.C,R87*%
X282980000Y-175075000D03*
X282980000Y-176095000D03*
%TD*%
%TO.C,R34*%
X263930000Y-98875000D03*
X263930000Y-99895000D03*
%TD*%
D15*
%TO.C,C224*%
X52442500Y-124187501D03*
X52442500Y-123227501D03*
%TD*%
%TO.C,C117*%
X178367500Y-138955000D03*
X178367500Y-137995000D03*
%TD*%
%TO.C,C109*%
X102167500Y-138955000D03*
X102167500Y-137995000D03*
%TD*%
D13*
%TO.C,C110*%
X107867500Y-136975000D03*
X107867500Y-137935000D03*
%TD*%
D10*
%TO.C,R54*%
X106767500Y-136975000D03*
X106767500Y-137995000D03*
%TD*%
D13*
%TO.C,C205*%
X189830000Y-106647499D03*
X189830000Y-107607499D03*
%TD*%
D14*
%TO.C,HALL18*%
X127330000Y-99895000D03*
X128280000Y-101770000D03*
X129230000Y-99895000D03*
%TD*%
D10*
%TO.C,R28*%
X149630000Y-98875000D03*
X149630000Y-99895000D03*
%TD*%
%TO.C,R90*%
X344892500Y-179837500D03*
X344892500Y-180857500D03*
%TD*%
D14*
%TO.C,HALL75*%
X172573750Y-176095000D03*
X173523750Y-177970000D03*
X174473750Y-176095000D03*
%TD*%
D15*
%TO.C,C20*%
X328080000Y-126862500D03*
X328080000Y-125902500D03*
%TD*%
D13*
%TO.C,C260*%
X327942500Y-187609999D03*
X327942500Y-188569999D03*
%TD*%
D10*
%TO.C,R72*%
X173442500Y-156025000D03*
X173442500Y-157045000D03*
%TD*%
D14*
%TO.C,HALL37*%
X232105000Y-118945000D03*
X233055000Y-120820000D03*
X234005000Y-118945000D03*
%TD*%
%TO.C,HALL79*%
X303542500Y-180857500D03*
X304492500Y-182732500D03*
X305442500Y-180857500D03*
%TD*%
D10*
%TO.C,R48*%
X273455000Y-117925000D03*
X273455000Y-118945000D03*
%TD*%
D13*
%TO.C,C7*%
X324380000Y-86520000D03*
X324380000Y-87480000D03*
%TD*%
D15*
%TO.C,C16*%
X109480000Y-135162500D03*
X109480000Y-134202500D03*
%TD*%
%TO.C,C121*%
X216467500Y-138955000D03*
X216467500Y-137995000D03*
%TD*%
%TO.C,C83*%
X135505000Y-119905000D03*
X135505000Y-118945000D03*
%TD*%
D16*
%TO.C,U8*%
X263105000Y-129437500D03*
X263755000Y-129437500D03*
X264405000Y-129437500D03*
X265055000Y-129437500D03*
X265705000Y-129437500D03*
X266355000Y-129437500D03*
X267005000Y-129437500D03*
X267655000Y-129437500D03*
X268305000Y-129437500D03*
X268955000Y-129437500D03*
X269605000Y-129437500D03*
X270255000Y-129437500D03*
X270255000Y-135162500D03*
X269605000Y-135162500D03*
X268955000Y-135162500D03*
X268305000Y-135162500D03*
X267655000Y-135162500D03*
X267005000Y-135162500D03*
X266355000Y-135162500D03*
X265705000Y-135162500D03*
X265055000Y-135162500D03*
X264405000Y-135162500D03*
X263755000Y-135162500D03*
X263105000Y-135162500D03*
%TD*%
D13*
%TO.C,C254*%
X106486250Y-182847499D03*
X106486250Y-183807499D03*
%TD*%
D15*
%TO.C,C95*%
X249805000Y-119905000D03*
X249805000Y-118945000D03*
%TD*%
D13*
%TO.C,C168*%
X105486250Y-175075000D03*
X105486250Y-176035000D03*
%TD*%
D15*
%TO.C,C23*%
X78355000Y-77042500D03*
X78355000Y-76082500D03*
%TD*%
D13*
%TO.C,C259*%
X308892500Y-187609999D03*
X308892500Y-188569999D03*
%TD*%
D15*
%TO.C,C37*%
X216467500Y-77042500D03*
X216467500Y-76082500D03*
%TD*%
%TO.C,C5*%
X325680000Y-95600000D03*
X325680000Y-94640000D03*
%TD*%
D13*
%TO.C,C236*%
X280317500Y-144747499D03*
X280317500Y-145707499D03*
%TD*%
D14*
%TO.C,HALL60*%
X113042500Y-157045000D03*
X113992500Y-158920000D03*
X114942500Y-157045000D03*
%TD*%
D15*
%TO.C,C215*%
X228655000Y-124187501D03*
X228655000Y-123227501D03*
%TD*%
D10*
%TO.C,R35*%
X282980000Y-98875000D03*
X282980000Y-99895000D03*
%TD*%
%TO.C,R56*%
X144867500Y-136975000D03*
X144867500Y-137995000D03*
%TD*%
D13*
%TO.C,C201*%
X113630000Y-106647499D03*
X113630000Y-107607499D03*
%TD*%
D15*
%TO.C,C218*%
X171505000Y-124187501D03*
X171505000Y-123227501D03*
%TD*%
%TO.C,C192*%
X157217500Y-81325001D03*
X157217500Y-80365001D03*
%TD*%
D39*
%TO.C,C13*%
X336320000Y-86000000D03*
X337280000Y-86000000D03*
%TD*%
D14*
%TO.C,HALL20*%
X165430000Y-99895000D03*
X166380000Y-101770000D03*
X167330000Y-99895000D03*
%TD*%
D10*
%TO.C,R31*%
X206780000Y-98875000D03*
X206780000Y-99895000D03*
%TD*%
D15*
%TO.C,C19*%
X261880000Y-135162500D03*
X261880000Y-134202500D03*
%TD*%
D40*
%TO.C,Q2*%
X349142500Y-84200000D03*
X349142500Y-82300000D03*
X351017500Y-83250000D03*
%TD*%
D10*
%TO.C,R73*%
X192492500Y-156025000D03*
X192492500Y-157045000D03*
%TD*%
D41*
%TO.C,U3*%
X334242500Y-87150000D03*
X334242500Y-87650000D03*
X334242500Y-88150000D03*
X334242500Y-88650000D03*
X334242500Y-89150000D03*
X334242500Y-89650000D03*
X334242500Y-90150000D03*
X334242500Y-90650000D03*
X334242500Y-91150000D03*
X334242500Y-91650000D03*
X334242500Y-92150000D03*
X334242500Y-92650000D03*
D42*
X332830000Y-94062500D03*
X332330000Y-94062500D03*
X331830000Y-94062500D03*
X331330000Y-94062500D03*
X330830000Y-94062500D03*
X330330000Y-94062500D03*
X329830000Y-94062500D03*
X329330000Y-94062500D03*
X328830000Y-94062500D03*
X328330000Y-94062500D03*
X327830000Y-94062500D03*
X327330000Y-94062500D03*
D41*
X325917500Y-92650000D03*
X325917500Y-92150000D03*
X325917500Y-91650000D03*
X325917500Y-91150000D03*
X325917500Y-90650000D03*
X325917500Y-90150000D03*
X325917500Y-89650000D03*
X325917500Y-89150000D03*
X325917500Y-88650000D03*
X325917500Y-88150000D03*
X325917500Y-87650000D03*
X325917500Y-87150000D03*
D42*
X327330000Y-85737500D03*
X327830000Y-85737500D03*
X328330000Y-85737500D03*
X328830000Y-85737500D03*
X329330000Y-85737500D03*
X329830000Y-85737500D03*
X330330000Y-85737500D03*
X330830000Y-85737500D03*
X331330000Y-85737500D03*
X331830000Y-85737500D03*
X332330000Y-85737500D03*
X332830000Y-85737500D03*
%TD*%
D43*
%TO.C,D1*%
X346980000Y-79160000D03*
X346980000Y-81260000D03*
%TD*%
D26*
%TO.C,R6*%
X310480000Y-83060000D03*
X310480000Y-82040000D03*
%TD*%
D15*
%TO.C,C75*%
X54542500Y-119905000D03*
X54542500Y-118945000D03*
%TD*%
D14*
%TO.C,HALL36*%
X213055000Y-118945000D03*
X214005000Y-120820000D03*
X214955000Y-118945000D03*
%TD*%
D10*
%TO.C,R20*%
X263930000Y-75062500D03*
X263930000Y-76082500D03*
%TD*%
D16*
%TO.C,U4*%
X68705000Y-129437500D03*
X69355000Y-129437500D03*
X70005000Y-129437500D03*
X70655000Y-129437500D03*
X71305000Y-129437500D03*
X71955000Y-129437500D03*
X72605000Y-129437500D03*
X73255000Y-129437500D03*
X73905000Y-129437500D03*
X74555000Y-129437500D03*
X75205000Y-129437500D03*
X75855000Y-129437500D03*
X75855000Y-135162500D03*
X75205000Y-135162500D03*
X74555000Y-135162500D03*
X73905000Y-135162500D03*
X73255000Y-135162500D03*
X72605000Y-135162500D03*
X71955000Y-135162500D03*
X71305000Y-135162500D03*
X70655000Y-135162500D03*
X70005000Y-135162500D03*
X69355000Y-135162500D03*
X68705000Y-135162500D03*
%TD*%
D13*
%TO.C,C146*%
X174542500Y-156025000D03*
X174542500Y-156985000D03*
%TD*%
D10*
%TO.C,R80*%
X325842500Y-160787500D03*
X325842500Y-161807500D03*
%TD*%
D14*
%TO.C,HALL57*%
X53511250Y-157045000D03*
X54461250Y-158920000D03*
X55411250Y-157045000D03*
%TD*%
D15*
%TO.C,C173*%
X259330000Y-177055000D03*
X259330000Y-176095000D03*
%TD*%
%TO.C,C57*%
X145030000Y-100855000D03*
X145030000Y-99895000D03*
%TD*%
%TO.C,C53*%
X106930000Y-100855000D03*
X106930000Y-99895000D03*
%TD*%
D14*
%TO.C,HALL10*%
X241630000Y-76082500D03*
X242580000Y-77957500D03*
X243530000Y-76082500D03*
%TD*%
D15*
%TO.C,C49*%
X68830000Y-100855000D03*
X68830000Y-99895000D03*
%TD*%
%TO.C,C245*%
X166742500Y-162287501D03*
X166742500Y-161327501D03*
%TD*%
D13*
%TO.C,C138*%
X98342500Y-156025000D03*
X98342500Y-156985000D03*
%TD*%
D14*
%TO.C,HALL74*%
X101136250Y-176095000D03*
X102086250Y-177970000D03*
X103036250Y-176095000D03*
%TD*%
D39*
%TO.C,C8*%
X326740000Y-95600000D03*
X327700000Y-95600000D03*
%TD*%
D14*
%TO.C,HALL29*%
X79705000Y-118945000D03*
X80655000Y-120820000D03*
X81605000Y-118945000D03*
%TD*%
D15*
%TO.C,C63*%
X202180000Y-100855000D03*
X202180000Y-99895000D03*
%TD*%
D14*
%TO.C,HALL42*%
X346405000Y-118945000D03*
X347355000Y-120820000D03*
X348305000Y-118945000D03*
%TD*%
%TO.C,HALL64*%
X189242500Y-157045000D03*
X190192500Y-158920000D03*
X191142500Y-157045000D03*
%TD*%
%TO.C,HALL31*%
X117805000Y-118945000D03*
X118755000Y-120820000D03*
X119705000Y-118945000D03*
%TD*%
D10*
%TO.C,R32*%
X225830000Y-98875000D03*
X225830000Y-99895000D03*
%TD*%
D15*
%TO.C,C219*%
X152455000Y-124187501D03*
X152455000Y-123227501D03*
%TD*%
D10*
%TO.C,R39*%
X102005000Y-117925000D03*
X102005000Y-118945000D03*
%TD*%
D13*
%TO.C,C106*%
X62623750Y-136975000D03*
X62623750Y-137935000D03*
%TD*%
D14*
%TO.C,HALL35*%
X194005000Y-118945000D03*
X194955000Y-120820000D03*
X195905000Y-118945000D03*
%TD*%
D15*
%TO.C,C15*%
X67480000Y-135162500D03*
X67480000Y-134202500D03*
%TD*%
%TO.C,C217*%
X190555000Y-124187501D03*
X190555000Y-123227501D03*
%TD*%
D10*
%TO.C,R58*%
X182967500Y-136975000D03*
X182967500Y-137995000D03*
%TD*%
D13*
%TO.C,C150*%
X212642500Y-156025000D03*
X212642500Y-156985000D03*
%TD*%
D14*
%TO.C,HALL80*%
X322592500Y-180857500D03*
X323542500Y-182732500D03*
X324492500Y-180857500D03*
%TD*%
D15*
%TO.C,C147*%
X187892500Y-158005000D03*
X187892500Y-157045000D03*
%TD*%
D13*
%TO.C,C255*%
X177923750Y-182847499D03*
X177923750Y-183807499D03*
%TD*%
D14*
%TO.C,HALL19*%
X146380000Y-99895000D03*
X147330000Y-101770000D03*
X148280000Y-99895000D03*
%TD*%
D21*
%TO.C,R99*%
X317892500Y-89750000D03*
X316067500Y-89750000D03*
%TD*%
D26*
%TO.C,R94*%
X352580000Y-83250000D03*
X352580000Y-82230000D03*
%TD*%
D13*
%TO.C,C40*%
X245980000Y-75062500D03*
X245980000Y-76022500D03*
%TD*%
D15*
%TO.C,C194*%
X114355000Y-81325001D03*
X114355000Y-80365001D03*
%TD*%
%TO.C,C127*%
X273617500Y-138955000D03*
X273617500Y-137995000D03*
%TD*%
D10*
%TO.C,R38*%
X82955000Y-117925000D03*
X82955000Y-118945000D03*
%TD*%
D15*
%TO.C,C69*%
X259330000Y-100855000D03*
X259330000Y-99895000D03*
%TD*%
D44*
%TO.C,FB2*%
X339055000Y-93180000D03*
X336930000Y-93180000D03*
%TD*%
D15*
%TO.C,C197*%
X47680000Y-81325001D03*
X47680000Y-80365001D03*
%TD*%
D10*
%TO.C,R30*%
X187730000Y-98875000D03*
X187730000Y-99895000D03*
%TD*%
D15*
%TO.C,C153*%
X245042500Y-158005000D03*
X245042500Y-157045000D03*
%TD*%
D13*
%TO.C,C229*%
X146967500Y-144747499D03*
X146967500Y-145707499D03*
%TD*%
D10*
%TO.C,R96*%
X352580000Y-84200000D03*
X352580000Y-85220000D03*
%TD*%
D13*
%TO.C,C32*%
X165017500Y-75062500D03*
X165017500Y-76022500D03*
%TD*%
%TO.C,C208*%
X246980000Y-106647499D03*
X246980000Y-107607499D03*
%TD*%
D10*
%TO.C,R46*%
X235355000Y-117925000D03*
X235355000Y-118945000D03*
%TD*%
%TO.C,R51*%
X349655000Y-117925000D03*
X349655000Y-118945000D03*
%TD*%
D15*
%TO.C,C177*%
X302192500Y-181817500D03*
X302192500Y-180857500D03*
%TD*%
D13*
%TO.C,C30*%
X141205000Y-75062500D03*
X141205000Y-76022500D03*
%TD*%
D14*
%TO.C,HALL61*%
X132092500Y-157045000D03*
X133042500Y-158920000D03*
X133992500Y-157045000D03*
%TD*%
D10*
%TO.C,R37*%
X59142500Y-117925000D03*
X59142500Y-118945000D03*
%TD*%
D13*
%TO.C,C237*%
X299367500Y-144747499D03*
X299367500Y-145707499D03*
%TD*%
M02*
