%TF.GenerationSoftware,KiCad,Pcbnew,7.0.6*%
%TF.CreationDate,2023-11-23T18:56:54+00:00*%
%TF.ProjectId,MoonBoard,4d6f6f6e-426f-4617-9264-2e6b69636164,rev?*%
%TF.SameCoordinates,Original*%
%TF.FileFunction,Profile,NP*%
%FSLAX46Y46*%
G04 Gerber Fmt 4.6, Leading zero omitted, Abs format (unit mm)*
G04 Created by KiCad (PCBNEW 7.0.6) date 2023-11-23 18:56:54*
%MOMM*%
%LPD*%
G01*
G04 APERTURE LIST*
%TA.AperFunction,Profile*%
%ADD10C,0.100000*%
%TD*%
G04 APERTURE END LIST*
D10*
X354880000Y-191300000D02*
X44555000Y-191300000D01*
X44555000Y-67475000D02*
X354880000Y-67475000D01*
X42555000Y-189300000D02*
X42555000Y-69475000D01*
X356880000Y-69475000D02*
G75*
G03*
X354880000Y-67475000I-2000000J0D01*
G01*
X356880000Y-69475000D02*
X356880000Y-189300000D01*
X42555000Y-189300000D02*
G75*
G03*
X44555000Y-191300000I2000000J0D01*
G01*
X44555000Y-67475000D02*
G75*
G03*
X42555000Y-69475000I0J-2000000D01*
G01*
X354880000Y-191300000D02*
G75*
G03*
X356880000Y-189300000I0J2000000D01*
G01*
%TO.C,LED49*%
X220467499Y-143289658D02*
X220467499Y-144695342D01*
X219561952Y-145492499D02*
X217973047Y-145492499D01*
X217973048Y-142492500D02*
X219561952Y-142492500D01*
X217067501Y-144695342D02*
X217067501Y-143289658D01*
X220467500Y-144695342D02*
G75*
G03*
X220516985Y-144912220I500348J80D01*
G01*
X219814211Y-145560798D02*
G75*
G03*
X220516983Y-144912220I252293J431662D01*
G01*
X220516984Y-143072780D02*
G75*
G03*
X220467499Y-143289657I449826J-216721D01*
G01*
X220516983Y-143072779D02*
G75*
G03*
X219814211Y-142424204I-450516J216874D01*
G01*
X219561952Y-142492500D02*
G75*
G03*
X219814210Y-142424201I-103J500379D01*
G01*
X219814211Y-145560799D02*
G75*
G03*
X219561953Y-145492500I-252339J-432000D01*
G01*
X217720790Y-142424200D02*
G75*
G03*
X217973048Y-142492500I252350J432030D01*
G01*
X217973047Y-145492499D02*
G75*
G03*
X217720789Y-145560798I-107J-499601D01*
G01*
X217018019Y-144912222D02*
G75*
G03*
X217720789Y-145560798I450521J-216868D01*
G01*
X217018016Y-144912220D02*
G75*
G03*
X217067501Y-144695343I-450386J216850D01*
G01*
X217720789Y-142424201D02*
G75*
G03*
X217018017Y-143072781I-252253J-431706D01*
G01*
X217067512Y-143289658D02*
G75*
G03*
X217018015Y-143072780I-500512J-142D01*
G01*
%TO.C,LED34*%
X177604999Y-124239658D02*
X177604999Y-125645342D01*
X176699452Y-126442500D02*
X175110548Y-126442500D01*
X175110548Y-123442501D02*
X176699453Y-123442501D01*
X174205001Y-125645342D02*
X174205001Y-124239658D01*
X177605000Y-125645342D02*
G75*
G03*
X177654485Y-125862220I500348J80D01*
G01*
X176951712Y-126510798D02*
G75*
G03*
X177654483Y-125862219I252292J431663D01*
G01*
X177654484Y-124022780D02*
G75*
G03*
X177604999Y-124239657I450138J-216792D01*
G01*
X177654483Y-124022780D02*
G75*
G03*
X176951711Y-123374203I-450519J216872D01*
G01*
X176699453Y-123442501D02*
G75*
G03*
X176951711Y-123374202I90J499665D01*
G01*
X176951711Y-126510799D02*
G75*
G03*
X176699452Y-126442500I-252346J-432027D01*
G01*
X174858290Y-123374200D02*
G75*
G03*
X175110547Y-123442500I252350J432030D01*
G01*
X175110548Y-126442501D02*
G75*
G03*
X174858290Y-126510799I102J-500379D01*
G01*
X174155519Y-125862222D02*
G75*
G03*
X174858289Y-126510796I450511J-216878D01*
G01*
X174155524Y-125862224D02*
G75*
G03*
X174205001Y-125645343I-449924J216724D01*
G01*
X174858289Y-123374201D02*
G75*
G03*
X174155516Y-124022780I-252253J-431706D01*
G01*
X174205012Y-124239658D02*
G75*
G03*
X174155515Y-124022780I-500512J-142D01*
G01*
%TO.C,LED14*%
X53779999Y-105189658D02*
X53779999Y-106595342D01*
X52874452Y-107392499D02*
X51285547Y-107392499D01*
X51285548Y-104392500D02*
X52874452Y-104392500D01*
X50380001Y-106595342D02*
X50380001Y-105189658D01*
X53780000Y-106595342D02*
G75*
G03*
X53829485Y-106812220I500348J80D01*
G01*
X53126711Y-107460798D02*
G75*
G03*
X53829483Y-106812220I252293J431662D01*
G01*
X53829484Y-104972780D02*
G75*
G03*
X53779999Y-105189657I449826J-216721D01*
G01*
X53829483Y-104972779D02*
G75*
G03*
X53126711Y-104324204I-450516J216874D01*
G01*
X52874452Y-104392500D02*
G75*
G03*
X53126710Y-104324201I-103J500379D01*
G01*
X53126711Y-107460799D02*
G75*
G03*
X52874453Y-107392500I-252339J-432000D01*
G01*
X51033290Y-104324200D02*
G75*
G03*
X51285548Y-104392500I252350J432030D01*
G01*
X51285547Y-107392499D02*
G75*
G03*
X51033289Y-107460798I-107J-499601D01*
G01*
X50330519Y-106812222D02*
G75*
G03*
X51033289Y-107460798I450521J-216868D01*
G01*
X50330516Y-106812220D02*
G75*
G03*
X50380001Y-106595343I-450386J216850D01*
G01*
X51033289Y-104324201D02*
G75*
G03*
X50330517Y-104972781I-252253J-431706D01*
G01*
X50380012Y-105189658D02*
G75*
G03*
X50330515Y-104972780I-500512J-142D01*
G01*
%TO.C,LED70*%
X103786249Y-181389658D02*
X103786249Y-182795342D01*
X102880702Y-183592499D02*
X101291797Y-183592499D01*
X101291798Y-180592500D02*
X102880702Y-180592500D01*
X100386251Y-182795342D02*
X100386251Y-181389658D01*
X103786250Y-182795342D02*
G75*
G03*
X103835735Y-183012220I500348J80D01*
G01*
X103132961Y-183660798D02*
G75*
G03*
X103835733Y-183012220I252293J431662D01*
G01*
X103835734Y-181172780D02*
G75*
G03*
X103786249Y-181389657I449826J-216721D01*
G01*
X103835733Y-181172779D02*
G75*
G03*
X103132961Y-180524204I-450516J216874D01*
G01*
X102880702Y-180592500D02*
G75*
G03*
X103132960Y-180524201I-103J500379D01*
G01*
X103132961Y-183660799D02*
G75*
G03*
X102880703Y-183592500I-252339J-432000D01*
G01*
X101039540Y-180524200D02*
G75*
G03*
X101291798Y-180592500I252350J432030D01*
G01*
X101291797Y-183592499D02*
G75*
G03*
X101039539Y-183660798I-107J-499601D01*
G01*
X100336769Y-183012222D02*
G75*
G03*
X101039539Y-183660798I450521J-216868D01*
G01*
X100336766Y-183012220D02*
G75*
G03*
X100386251Y-182795343I-450386J216850D01*
G01*
X101039539Y-180524201D02*
G75*
G03*
X100336767Y-181172781I-252253J-431706D01*
G01*
X100386262Y-181389658D02*
G75*
G03*
X100336765Y-181172780I-500512J-142D01*
G01*
%TO.C,LED40*%
X58542499Y-124239658D02*
X58542499Y-125645342D01*
X57636952Y-126442500D02*
X56048048Y-126442500D01*
X56048048Y-123442501D02*
X57636953Y-123442501D01*
X55142501Y-125645342D02*
X55142501Y-124239658D01*
X58542500Y-125645342D02*
G75*
G03*
X58591985Y-125862220I500348J80D01*
G01*
X57889212Y-126510798D02*
G75*
G03*
X58591983Y-125862219I252292J431663D01*
G01*
X58591984Y-124022780D02*
G75*
G03*
X58542499Y-124239657I450138J-216792D01*
G01*
X58591983Y-124022780D02*
G75*
G03*
X57889211Y-123374203I-450519J216872D01*
G01*
X57636953Y-123442501D02*
G75*
G03*
X57889211Y-123374202I90J499665D01*
G01*
X57889211Y-126510799D02*
G75*
G03*
X57636952Y-126442500I-252346J-432027D01*
G01*
X55795790Y-123374200D02*
G75*
G03*
X56048047Y-123442500I252350J432030D01*
G01*
X56048048Y-126442501D02*
G75*
G03*
X55795790Y-126510799I102J-500379D01*
G01*
X55093019Y-125862222D02*
G75*
G03*
X55795789Y-126510796I450511J-216878D01*
G01*
X55093024Y-125862224D02*
G75*
G03*
X55142501Y-125645343I-449924J216724D01*
G01*
X55795789Y-123374201D02*
G75*
G03*
X55093016Y-124022780I-252253J-431706D01*
G01*
X55142512Y-124239658D02*
G75*
G03*
X55093015Y-124022780I-500512J-142D01*
G01*
%TO.C,LED55*%
X294286249Y-162339658D02*
X294286249Y-163745342D01*
X293380702Y-164542500D02*
X291791798Y-164542500D01*
X291791798Y-161542501D02*
X293380703Y-161542501D01*
X290886251Y-163745342D02*
X290886251Y-162339658D01*
X294286250Y-163745342D02*
G75*
G03*
X294335735Y-163962220I500348J80D01*
G01*
X293632962Y-164610798D02*
G75*
G03*
X294335733Y-163962219I252292J431663D01*
G01*
X294335734Y-162122780D02*
G75*
G03*
X294286249Y-162339657I450138J-216792D01*
G01*
X294335733Y-162122780D02*
G75*
G03*
X293632961Y-161474203I-450519J216872D01*
G01*
X293380703Y-161542501D02*
G75*
G03*
X293632961Y-161474202I90J499665D01*
G01*
X293632961Y-164610799D02*
G75*
G03*
X293380702Y-164542500I-252346J-432027D01*
G01*
X291539540Y-161474200D02*
G75*
G03*
X291791797Y-161542500I252350J432030D01*
G01*
X291791798Y-164542501D02*
G75*
G03*
X291539540Y-164610799I102J-500379D01*
G01*
X290836769Y-163962222D02*
G75*
G03*
X291539539Y-164610796I450511J-216878D01*
G01*
X290836774Y-163962224D02*
G75*
G03*
X290886251Y-163745343I-449924J216724D01*
G01*
X291539539Y-161474201D02*
G75*
G03*
X290836766Y-162122780I-252253J-431706D01*
G01*
X290886262Y-162339658D02*
G75*
G03*
X290836765Y-162122780I-500512J-142D01*
G01*
%TO.C,LED13*%
X53779999Y-81377158D02*
X53779999Y-82782842D01*
X52874452Y-83580000D02*
X51285548Y-83580000D01*
X51285548Y-80580001D02*
X52874453Y-80580001D01*
X50380001Y-82782842D02*
X50380001Y-81377158D01*
X53780000Y-82782842D02*
G75*
G03*
X53829485Y-82999720I500348J80D01*
G01*
X53126712Y-83648298D02*
G75*
G03*
X53829483Y-82999719I252292J431663D01*
G01*
X53829484Y-81160280D02*
G75*
G03*
X53779999Y-81377157I450138J-216792D01*
G01*
X53829483Y-81160280D02*
G75*
G03*
X53126711Y-80511703I-450519J216872D01*
G01*
X52874453Y-80580001D02*
G75*
G03*
X53126711Y-80511702I90J499665D01*
G01*
X53126711Y-83648299D02*
G75*
G03*
X52874452Y-83580000I-252346J-432027D01*
G01*
X51033290Y-80511700D02*
G75*
G03*
X51285547Y-80580000I252350J432030D01*
G01*
X51285548Y-83580001D02*
G75*
G03*
X51033290Y-83648299I102J-500379D01*
G01*
X50330519Y-82999722D02*
G75*
G03*
X51033289Y-83648296I450511J-216878D01*
G01*
X50330524Y-82999724D02*
G75*
G03*
X50380001Y-82782843I-449924J216724D01*
G01*
X51033289Y-80511701D02*
G75*
G03*
X50330516Y-81160280I-252253J-431706D01*
G01*
X50380012Y-81377158D02*
G75*
G03*
X50330515Y-81160280I-500512J-142D01*
G01*
%TO.C,LED26*%
X282379999Y-105189658D02*
X282379999Y-106595342D01*
X281474452Y-107392499D02*
X279885547Y-107392499D01*
X279885548Y-104392500D02*
X281474452Y-104392500D01*
X278980001Y-106595342D02*
X278980001Y-105189658D01*
X282380000Y-106595342D02*
G75*
G03*
X282429485Y-106812220I500348J80D01*
G01*
X281726711Y-107460798D02*
G75*
G03*
X282429483Y-106812220I252293J431662D01*
G01*
X282429484Y-104972780D02*
G75*
G03*
X282379999Y-105189657I449826J-216721D01*
G01*
X282429483Y-104972779D02*
G75*
G03*
X281726711Y-104324204I-450516J216874D01*
G01*
X281474452Y-104392500D02*
G75*
G03*
X281726710Y-104324201I-103J500379D01*
G01*
X281726711Y-107460799D02*
G75*
G03*
X281474453Y-107392500I-252339J-432000D01*
G01*
X279633290Y-104324200D02*
G75*
G03*
X279885548Y-104392500I252350J432030D01*
G01*
X279885547Y-107392499D02*
G75*
G03*
X279633289Y-107460798I-107J-499601D01*
G01*
X278930519Y-106812222D02*
G75*
G03*
X279633289Y-107460798I450521J-216868D01*
G01*
X278930516Y-106812220D02*
G75*
G03*
X278980001Y-106595343I-450386J216850D01*
G01*
X279633289Y-104324201D02*
G75*
G03*
X278930517Y-104972781I-252253J-431706D01*
G01*
X278980012Y-105189658D02*
G75*
G03*
X278930515Y-104972780I-500512J-142D01*
G01*
%TO.C,LED6*%
X201417499Y-81377158D02*
X201417499Y-82782842D01*
X200511952Y-83580000D02*
X198923048Y-83580000D01*
X198923048Y-80580001D02*
X200511953Y-80580001D01*
X198017501Y-82782842D02*
X198017501Y-81377158D01*
X201417500Y-82782842D02*
G75*
G03*
X201466985Y-82999720I500348J80D01*
G01*
X200764212Y-83648298D02*
G75*
G03*
X201466983Y-82999719I252292J431663D01*
G01*
X201466984Y-81160280D02*
G75*
G03*
X201417499Y-81377157I450138J-216792D01*
G01*
X201466983Y-81160280D02*
G75*
G03*
X200764211Y-80511703I-450519J216872D01*
G01*
X200511953Y-80580001D02*
G75*
G03*
X200764211Y-80511702I90J499665D01*
G01*
X200764211Y-83648299D02*
G75*
G03*
X200511952Y-83580000I-252346J-432027D01*
G01*
X198670790Y-80511700D02*
G75*
G03*
X198923047Y-80580000I252350J432030D01*
G01*
X198923048Y-83580001D02*
G75*
G03*
X198670790Y-83648299I102J-500379D01*
G01*
X197968019Y-82999722D02*
G75*
G03*
X198670789Y-83648296I450511J-216878D01*
G01*
X197968024Y-82999724D02*
G75*
G03*
X198017501Y-82782843I-449924J216724D01*
G01*
X198670789Y-80511701D02*
G75*
G03*
X197968016Y-81160280I-252253J-431706D01*
G01*
X198017512Y-81377158D02*
G75*
G03*
X197968015Y-81160280I-500512J-142D01*
G01*
%TO.C,LED68*%
X56161249Y-181389658D02*
X56161249Y-182795342D01*
X55255702Y-183592499D02*
X53666797Y-183592499D01*
X53666798Y-180592500D02*
X55255702Y-180592500D01*
X52761251Y-182795342D02*
X52761251Y-181389658D01*
X56161250Y-182795342D02*
G75*
G03*
X56210735Y-183012220I500348J80D01*
G01*
X55507961Y-183660798D02*
G75*
G03*
X56210733Y-183012220I252293J431662D01*
G01*
X56210734Y-181172780D02*
G75*
G03*
X56161249Y-181389657I449826J-216721D01*
G01*
X56210733Y-181172779D02*
G75*
G03*
X55507961Y-180524204I-450516J216874D01*
G01*
X55255702Y-180592500D02*
G75*
G03*
X55507960Y-180524201I-103J500379D01*
G01*
X55507961Y-183660799D02*
G75*
G03*
X55255703Y-183592500I-252339J-432000D01*
G01*
X53414540Y-180524200D02*
G75*
G03*
X53666798Y-180592500I252350J432030D01*
G01*
X53666797Y-183592499D02*
G75*
G03*
X53414539Y-183660798I-107J-499601D01*
G01*
X52711769Y-183012222D02*
G75*
G03*
X53414539Y-183660798I450521J-216868D01*
G01*
X52711766Y-183012220D02*
G75*
G03*
X52761251Y-182795343I-450386J216850D01*
G01*
X53414539Y-180524201D02*
G75*
G03*
X52711767Y-181172781I-252253J-431706D01*
G01*
X52761262Y-181389658D02*
G75*
G03*
X52711765Y-181172780I-500512J-142D01*
G01*
%TO.C,LED81*%
X349054999Y-124239658D02*
X349054999Y-125645342D01*
X348149452Y-126442499D02*
X346560547Y-126442499D01*
X346560548Y-123442500D02*
X348149452Y-123442500D01*
X345655001Y-125645342D02*
X345655001Y-124239658D01*
X349055000Y-125645342D02*
G75*
G03*
X349104485Y-125862220I500348J80D01*
G01*
X348401711Y-126510798D02*
G75*
G03*
X349104483Y-125862220I252293J431662D01*
G01*
X349104484Y-124022780D02*
G75*
G03*
X349054999Y-124239657I449826J-216721D01*
G01*
X349104483Y-124022779D02*
G75*
G03*
X348401711Y-123374204I-450516J216874D01*
G01*
X348149452Y-123442500D02*
G75*
G03*
X348401710Y-123374201I-103J500379D01*
G01*
X348401711Y-126510799D02*
G75*
G03*
X348149453Y-126442500I-252339J-432000D01*
G01*
X346308290Y-123374200D02*
G75*
G03*
X346560548Y-123442500I252350J432030D01*
G01*
X346560547Y-126442499D02*
G75*
G03*
X346308289Y-126510798I-107J-499601D01*
G01*
X345605519Y-125862222D02*
G75*
G03*
X346308289Y-126510798I450521J-216868D01*
G01*
X345605516Y-125862220D02*
G75*
G03*
X345655001Y-125645343I-450386J216850D01*
G01*
X346308289Y-123374201D02*
G75*
G03*
X345605517Y-124022781I-252253J-431706D01*
G01*
X345655012Y-124239658D02*
G75*
G03*
X345605515Y-124022780I-500512J-142D01*
G01*
%TO.C,LED29*%
X272854999Y-124239658D02*
X272854999Y-125645342D01*
X271949452Y-126442500D02*
X270360548Y-126442500D01*
X270360548Y-123442501D02*
X271949453Y-123442501D01*
X269455001Y-125645342D02*
X269455001Y-124239658D01*
X272855000Y-125645342D02*
G75*
G03*
X272904485Y-125862220I500348J80D01*
G01*
X272201712Y-126510798D02*
G75*
G03*
X272904483Y-125862219I252292J431663D01*
G01*
X272904484Y-124022780D02*
G75*
G03*
X272854999Y-124239657I450138J-216792D01*
G01*
X272904483Y-124022780D02*
G75*
G03*
X272201711Y-123374203I-450519J216872D01*
G01*
X271949453Y-123442501D02*
G75*
G03*
X272201711Y-123374202I90J499665D01*
G01*
X272201711Y-126510799D02*
G75*
G03*
X271949452Y-126442500I-252346J-432027D01*
G01*
X270108290Y-123374200D02*
G75*
G03*
X270360547Y-123442500I252350J432030D01*
G01*
X270360548Y-126442501D02*
G75*
G03*
X270108290Y-126510799I102J-500379D01*
G01*
X269405519Y-125862222D02*
G75*
G03*
X270108289Y-126510796I450511J-216878D01*
G01*
X269405524Y-125862224D02*
G75*
G03*
X269455001Y-125645343I-449924J216724D01*
G01*
X270108289Y-123374201D02*
G75*
G03*
X269405516Y-124022780I-252253J-431706D01*
G01*
X269455012Y-124239658D02*
G75*
G03*
X269405515Y-124022780I-500512J-142D01*
G01*
%TO.C,LED72*%
X244279999Y-181389658D02*
X244279999Y-182795342D01*
X243374452Y-183592499D02*
X241785547Y-183592499D01*
X241785548Y-180592500D02*
X243374452Y-180592500D01*
X240880001Y-182795342D02*
X240880001Y-181389658D01*
X244280000Y-182795342D02*
G75*
G03*
X244329485Y-183012220I500348J80D01*
G01*
X243626711Y-183660798D02*
G75*
G03*
X244329483Y-183012220I252293J431662D01*
G01*
X244329484Y-181172780D02*
G75*
G03*
X244279999Y-181389657I449826J-216721D01*
G01*
X244329483Y-181172779D02*
G75*
G03*
X243626711Y-180524204I-450516J216874D01*
G01*
X243374452Y-180592500D02*
G75*
G03*
X243626710Y-180524201I-103J500379D01*
G01*
X243626711Y-183660799D02*
G75*
G03*
X243374453Y-183592500I-252339J-432000D01*
G01*
X241533290Y-180524200D02*
G75*
G03*
X241785548Y-180592500I252350J432030D01*
G01*
X241785547Y-183592499D02*
G75*
G03*
X241533289Y-183660798I-107J-499601D01*
G01*
X240830519Y-183012222D02*
G75*
G03*
X241533289Y-183660798I450521J-216868D01*
G01*
X240830516Y-183012220D02*
G75*
G03*
X240880001Y-182795343I-450386J216850D01*
G01*
X241533289Y-180524201D02*
G75*
G03*
X240830517Y-181172781I-252253J-431706D01*
G01*
X240880012Y-181389658D02*
G75*
G03*
X240830515Y-181172780I-500512J-142D01*
G01*
%TO.C,LED52*%
X277617499Y-143289658D02*
X277617499Y-144695342D01*
X276711952Y-145492499D02*
X275123047Y-145492499D01*
X275123048Y-142492500D02*
X276711952Y-142492500D01*
X274217501Y-144695342D02*
X274217501Y-143289658D01*
X277617500Y-144695342D02*
G75*
G03*
X277666985Y-144912220I500348J80D01*
G01*
X276964211Y-145560798D02*
G75*
G03*
X277666983Y-144912220I252293J431662D01*
G01*
X277666984Y-143072780D02*
G75*
G03*
X277617499Y-143289657I449826J-216721D01*
G01*
X277666983Y-143072779D02*
G75*
G03*
X276964211Y-142424204I-450516J216874D01*
G01*
X276711952Y-142492500D02*
G75*
G03*
X276964210Y-142424201I-103J500379D01*
G01*
X276964211Y-145560799D02*
G75*
G03*
X276711953Y-145492500I-252339J-432000D01*
G01*
X274870790Y-142424200D02*
G75*
G03*
X275123048Y-142492500I252350J432030D01*
G01*
X275123047Y-145492499D02*
G75*
G03*
X274870789Y-145560798I-107J-499601D01*
G01*
X274168019Y-144912222D02*
G75*
G03*
X274870789Y-145560798I450521J-216868D01*
G01*
X274168016Y-144912220D02*
G75*
G03*
X274217501Y-144695343I-450386J216850D01*
G01*
X274870789Y-142424201D02*
G75*
G03*
X274168017Y-143072781I-252253J-431706D01*
G01*
X274217512Y-143289658D02*
G75*
G03*
X274168015Y-143072780I-500512J-142D01*
G01*
%TO.C,LED24*%
X244279999Y-105189658D02*
X244279999Y-106595342D01*
X243374452Y-107392499D02*
X241785547Y-107392499D01*
X241785548Y-104392500D02*
X243374452Y-104392500D01*
X240880001Y-106595342D02*
X240880001Y-105189658D01*
X244280000Y-106595342D02*
G75*
G03*
X244329485Y-106812220I500348J80D01*
G01*
X243626711Y-107460798D02*
G75*
G03*
X244329483Y-106812220I252293J431662D01*
G01*
X244329484Y-104972780D02*
G75*
G03*
X244279999Y-105189657I449826J-216721D01*
G01*
X244329483Y-104972779D02*
G75*
G03*
X243626711Y-104324204I-450516J216874D01*
G01*
X243374452Y-104392500D02*
G75*
G03*
X243626710Y-104324201I-103J500379D01*
G01*
X243626711Y-107460799D02*
G75*
G03*
X243374453Y-107392500I-252339J-432000D01*
G01*
X241533290Y-104324200D02*
G75*
G03*
X241785548Y-104392500I252350J432030D01*
G01*
X241785547Y-107392499D02*
G75*
G03*
X241533289Y-107460798I-107J-499601D01*
G01*
X240830519Y-106812222D02*
G75*
G03*
X241533289Y-107460798I450521J-216868D01*
G01*
X240830516Y-106812220D02*
G75*
G03*
X240880001Y-106595343I-450386J216850D01*
G01*
X241533289Y-104324201D02*
G75*
G03*
X240830517Y-104972781I-252253J-431706D01*
G01*
X240880012Y-105189658D02*
G75*
G03*
X240830515Y-104972780I-500512J-142D01*
G01*
%TO.C,LED20*%
X168079999Y-105189658D02*
X168079999Y-106595342D01*
X167174452Y-107392499D02*
X165585547Y-107392499D01*
X165585548Y-104392500D02*
X167174452Y-104392500D01*
X164680001Y-106595342D02*
X164680001Y-105189658D01*
X168080000Y-106595342D02*
G75*
G03*
X168129485Y-106812220I500348J80D01*
G01*
X167426711Y-107460798D02*
G75*
G03*
X168129483Y-106812220I252293J431662D01*
G01*
X168129484Y-104972780D02*
G75*
G03*
X168079999Y-105189657I449826J-216721D01*
G01*
X168129483Y-104972779D02*
G75*
G03*
X167426711Y-104324204I-450516J216874D01*
G01*
X167174452Y-104392500D02*
G75*
G03*
X167426710Y-104324201I-103J500379D01*
G01*
X167426711Y-107460799D02*
G75*
G03*
X167174453Y-107392500I-252339J-432000D01*
G01*
X165333290Y-104324200D02*
G75*
G03*
X165585548Y-104392500I252350J432030D01*
G01*
X165585547Y-107392499D02*
G75*
G03*
X165333289Y-107460798I-107J-499601D01*
G01*
X164630519Y-106812222D02*
G75*
G03*
X165333289Y-107460798I450521J-216868D01*
G01*
X164630516Y-106812220D02*
G75*
G03*
X164680001Y-106595343I-450386J216850D01*
G01*
X165333289Y-104324201D02*
G75*
G03*
X164630517Y-104972781I-252253J-431706D01*
G01*
X164680012Y-105189658D02*
G75*
G03*
X164630515Y-104972780I-500512J-142D01*
G01*
%TO.C,LED8*%
X163317499Y-81377158D02*
X163317499Y-82782842D01*
X162411952Y-83580000D02*
X160823048Y-83580000D01*
X160823048Y-80580001D02*
X162411953Y-80580001D01*
X159917501Y-82782842D02*
X159917501Y-81377158D01*
X163317500Y-82782842D02*
G75*
G03*
X163366985Y-82999720I500348J80D01*
G01*
X162664212Y-83648298D02*
G75*
G03*
X163366983Y-82999719I252292J431663D01*
G01*
X163366984Y-81160280D02*
G75*
G03*
X163317499Y-81377157I450138J-216792D01*
G01*
X163366983Y-81160280D02*
G75*
G03*
X162664211Y-80511703I-450519J216872D01*
G01*
X162411953Y-80580001D02*
G75*
G03*
X162664211Y-80511702I90J499665D01*
G01*
X162664211Y-83648299D02*
G75*
G03*
X162411952Y-83580000I-252346J-432027D01*
G01*
X160570790Y-80511700D02*
G75*
G03*
X160823047Y-80580000I252350J432030D01*
G01*
X160823048Y-83580001D02*
G75*
G03*
X160570790Y-83648299I102J-500379D01*
G01*
X159868019Y-82999722D02*
G75*
G03*
X160570789Y-83648296I450511J-216878D01*
G01*
X159868024Y-82999724D02*
G75*
G03*
X159917501Y-82782843I-449924J216724D01*
G01*
X160570789Y-80511701D02*
G75*
G03*
X159868016Y-81160280I-252253J-431706D01*
G01*
X159917512Y-81377158D02*
G75*
G03*
X159868015Y-81160280I-500512J-142D01*
G01*
%TO.C,LED50*%
X239517499Y-143289658D02*
X239517499Y-144695342D01*
X238611952Y-145492499D02*
X237023047Y-145492499D01*
X237023048Y-142492500D02*
X238611952Y-142492500D01*
X236117501Y-144695342D02*
X236117501Y-143289658D01*
X239517500Y-144695342D02*
G75*
G03*
X239566985Y-144912220I500348J80D01*
G01*
X238864211Y-145560798D02*
G75*
G03*
X239566983Y-144912220I252293J431662D01*
G01*
X239566984Y-143072780D02*
G75*
G03*
X239517499Y-143289657I449826J-216721D01*
G01*
X239566983Y-143072779D02*
G75*
G03*
X238864211Y-142424204I-450516J216874D01*
G01*
X238611952Y-142492500D02*
G75*
G03*
X238864210Y-142424201I-103J500379D01*
G01*
X238864211Y-145560799D02*
G75*
G03*
X238611953Y-145492500I-252339J-432000D01*
G01*
X236770790Y-142424200D02*
G75*
G03*
X237023048Y-142492500I252350J432030D01*
G01*
X237023047Y-145492499D02*
G75*
G03*
X236770789Y-145560798I-107J-499601D01*
G01*
X236068019Y-144912222D02*
G75*
G03*
X236770789Y-145560798I450521J-216868D01*
G01*
X236068016Y-144912220D02*
G75*
G03*
X236117501Y-144695343I-450386J216850D01*
G01*
X236770789Y-142424201D02*
G75*
G03*
X236068017Y-143072781I-252253J-431706D01*
G01*
X236117512Y-143289658D02*
G75*
G03*
X236068015Y-143072780I-500512J-142D01*
G01*
%TO.C,LED61*%
X172842499Y-162339658D02*
X172842499Y-163745342D01*
X171936952Y-164542500D02*
X170348048Y-164542500D01*
X170348048Y-161542501D02*
X171936953Y-161542501D01*
X169442501Y-163745342D02*
X169442501Y-162339658D01*
X172842500Y-163745342D02*
G75*
G03*
X172891985Y-163962220I500348J80D01*
G01*
X172189212Y-164610798D02*
G75*
G03*
X172891983Y-163962219I252292J431663D01*
G01*
X172891984Y-162122780D02*
G75*
G03*
X172842499Y-162339657I450138J-216792D01*
G01*
X172891983Y-162122780D02*
G75*
G03*
X172189211Y-161474203I-450519J216872D01*
G01*
X171936953Y-161542501D02*
G75*
G03*
X172189211Y-161474202I90J499665D01*
G01*
X172189211Y-164610799D02*
G75*
G03*
X171936952Y-164542500I-252346J-432027D01*
G01*
X170095790Y-161474200D02*
G75*
G03*
X170348047Y-161542500I252350J432030D01*
G01*
X170348048Y-164542501D02*
G75*
G03*
X170095790Y-164610799I102J-500379D01*
G01*
X169393019Y-163962222D02*
G75*
G03*
X170095789Y-164610796I450511J-216878D01*
G01*
X169393024Y-163962224D02*
G75*
G03*
X169442501Y-163745343I-449924J216724D01*
G01*
X170095789Y-161474201D02*
G75*
G03*
X169393016Y-162122780I-252253J-431706D01*
G01*
X169442512Y-162339658D02*
G75*
G03*
X169393015Y-162122780I-500512J-142D01*
G01*
%TO.C,LED41*%
X60923749Y-143289658D02*
X60923749Y-144695342D01*
X60018202Y-145492499D02*
X58429297Y-145492499D01*
X58429298Y-142492500D02*
X60018202Y-142492500D01*
X57523751Y-144695342D02*
X57523751Y-143289658D01*
X60923750Y-144695342D02*
G75*
G03*
X60973235Y-144912220I500348J80D01*
G01*
X60270461Y-145560798D02*
G75*
G03*
X60973233Y-144912220I252293J431662D01*
G01*
X60973234Y-143072780D02*
G75*
G03*
X60923749Y-143289657I449826J-216721D01*
G01*
X60973233Y-143072779D02*
G75*
G03*
X60270461Y-142424204I-450516J216874D01*
G01*
X60018202Y-142492500D02*
G75*
G03*
X60270460Y-142424201I-103J500379D01*
G01*
X60270461Y-145560799D02*
G75*
G03*
X60018203Y-145492500I-252339J-432000D01*
G01*
X58177040Y-142424200D02*
G75*
G03*
X58429298Y-142492500I252350J432030D01*
G01*
X58429297Y-145492499D02*
G75*
G03*
X58177039Y-145560798I-107J-499601D01*
G01*
X57474269Y-144912222D02*
G75*
G03*
X58177039Y-145560798I450521J-216868D01*
G01*
X57474266Y-144912220D02*
G75*
G03*
X57523751Y-144695343I-450386J216850D01*
G01*
X58177039Y-142424201D02*
G75*
G03*
X57474267Y-143072781I-252253J-431706D01*
G01*
X57523762Y-143289658D02*
G75*
G03*
X57474265Y-143072780I-500512J-142D01*
G01*
%TO.C,LED63*%
X134742499Y-162339658D02*
X134742499Y-163745342D01*
X133836952Y-164542500D02*
X132248048Y-164542500D01*
X132248048Y-161542501D02*
X133836953Y-161542501D01*
X131342501Y-163745342D02*
X131342501Y-162339658D01*
X134742500Y-163745342D02*
G75*
G03*
X134791985Y-163962220I500348J80D01*
G01*
X134089212Y-164610798D02*
G75*
G03*
X134791983Y-163962219I252292J431663D01*
G01*
X134791984Y-162122780D02*
G75*
G03*
X134742499Y-162339657I450138J-216792D01*
G01*
X134791983Y-162122780D02*
G75*
G03*
X134089211Y-161474203I-450519J216872D01*
G01*
X133836953Y-161542501D02*
G75*
G03*
X134089211Y-161474202I90J499665D01*
G01*
X134089211Y-164610799D02*
G75*
G03*
X133836952Y-164542500I-252346J-432027D01*
G01*
X131995790Y-161474200D02*
G75*
G03*
X132248047Y-161542500I252350J432030D01*
G01*
X132248048Y-164542501D02*
G75*
G03*
X131995790Y-164610799I102J-500379D01*
G01*
X131293019Y-163962222D02*
G75*
G03*
X131995789Y-164610796I450511J-216878D01*
G01*
X131293024Y-163962224D02*
G75*
G03*
X131342501Y-163745343I-449924J216724D01*
G01*
X131995789Y-161474201D02*
G75*
G03*
X131293016Y-162122780I-252253J-431706D01*
G01*
X131342512Y-162339658D02*
G75*
G03*
X131293015Y-162122780I-500512J-142D01*
G01*
%TO.C,LED79*%
X349054999Y-162339658D02*
X349054999Y-163745342D01*
X348149452Y-164542499D02*
X346560547Y-164542499D01*
X346560548Y-161542500D02*
X348149452Y-161542500D01*
X345655001Y-163745342D02*
X345655001Y-162339658D01*
X349055000Y-163745342D02*
G75*
G03*
X349104485Y-163962220I500348J80D01*
G01*
X348401711Y-164610798D02*
G75*
G03*
X349104483Y-163962220I252293J431662D01*
G01*
X349104484Y-162122780D02*
G75*
G03*
X349054999Y-162339657I449826J-216721D01*
G01*
X349104483Y-162122779D02*
G75*
G03*
X348401711Y-161474204I-450516J216874D01*
G01*
X348149452Y-161542500D02*
G75*
G03*
X348401710Y-161474201I-103J500379D01*
G01*
X348401711Y-164610799D02*
G75*
G03*
X348149453Y-164542500I-252339J-432000D01*
G01*
X346308290Y-161474200D02*
G75*
G03*
X346560548Y-161542500I252350J432030D01*
G01*
X346560547Y-164542499D02*
G75*
G03*
X346308289Y-164610798I-107J-499601D01*
G01*
X345605519Y-163962222D02*
G75*
G03*
X346308289Y-164610798I450521J-216868D01*
G01*
X345605516Y-163962220D02*
G75*
G03*
X345655001Y-163745343I-450386J216850D01*
G01*
X346308289Y-161474201D02*
G75*
G03*
X345605517Y-162122781I-252253J-431706D01*
G01*
X345655012Y-162339658D02*
G75*
G03*
X345605515Y-162122780I-500512J-142D01*
G01*
%TO.C,LED31*%
X234754999Y-124239658D02*
X234754999Y-125645342D01*
X233849452Y-126442500D02*
X232260548Y-126442500D01*
X232260548Y-123442501D02*
X233849453Y-123442501D01*
X231355001Y-125645342D02*
X231355001Y-124239658D01*
X234755000Y-125645342D02*
G75*
G03*
X234804485Y-125862220I500348J80D01*
G01*
X234101712Y-126510798D02*
G75*
G03*
X234804483Y-125862219I252292J431663D01*
G01*
X234804484Y-124022780D02*
G75*
G03*
X234754999Y-124239657I450138J-216792D01*
G01*
X234804483Y-124022780D02*
G75*
G03*
X234101711Y-123374203I-450519J216872D01*
G01*
X233849453Y-123442501D02*
G75*
G03*
X234101711Y-123374202I90J499665D01*
G01*
X234101711Y-126510799D02*
G75*
G03*
X233849452Y-126442500I-252346J-432027D01*
G01*
X232008290Y-123374200D02*
G75*
G03*
X232260547Y-123442500I252350J432030D01*
G01*
X232260548Y-126442501D02*
G75*
G03*
X232008290Y-126510799I102J-500379D01*
G01*
X231305519Y-125862222D02*
G75*
G03*
X232008289Y-126510796I450511J-216878D01*
G01*
X231305524Y-125862224D02*
G75*
G03*
X231355001Y-125645343I-449924J216724D01*
G01*
X232008289Y-123374201D02*
G75*
G03*
X231305516Y-124022780I-252253J-431706D01*
G01*
X231355012Y-124239658D02*
G75*
G03*
X231305515Y-124022780I-500512J-142D01*
G01*
%TO.C,LED12*%
X82354999Y-81377158D02*
X82354999Y-82782842D01*
X81449452Y-83580000D02*
X79860548Y-83580000D01*
X79860548Y-80580001D02*
X81449453Y-80580001D01*
X78955001Y-82782842D02*
X78955001Y-81377158D01*
X82355000Y-82782842D02*
G75*
G03*
X82404485Y-82999720I500348J80D01*
G01*
X81701712Y-83648298D02*
G75*
G03*
X82404483Y-82999719I252292J431663D01*
G01*
X82404484Y-81160280D02*
G75*
G03*
X82354999Y-81377157I450138J-216792D01*
G01*
X82404483Y-81160280D02*
G75*
G03*
X81701711Y-80511703I-450519J216872D01*
G01*
X81449453Y-80580001D02*
G75*
G03*
X81701711Y-80511702I90J499665D01*
G01*
X81701711Y-83648299D02*
G75*
G03*
X81449452Y-83580000I-252346J-432027D01*
G01*
X79608290Y-80511700D02*
G75*
G03*
X79860547Y-80580000I252350J432030D01*
G01*
X79860548Y-83580001D02*
G75*
G03*
X79608290Y-83648299I102J-500379D01*
G01*
X78905519Y-82999722D02*
G75*
G03*
X79608289Y-83648296I450511J-216878D01*
G01*
X78905524Y-82999724D02*
G75*
G03*
X78955001Y-82782843I-449924J216724D01*
G01*
X79608289Y-80511701D02*
G75*
G03*
X78905516Y-81160280I-252253J-431706D01*
G01*
X78955012Y-81377158D02*
G75*
G03*
X78905515Y-81160280I-500512J-142D01*
G01*
%TO.C,LED25*%
X263329999Y-105189658D02*
X263329999Y-106595342D01*
X262424452Y-107392499D02*
X260835547Y-107392499D01*
X260835548Y-104392500D02*
X262424452Y-104392500D01*
X259930001Y-106595342D02*
X259930001Y-105189658D01*
X263330000Y-106595342D02*
G75*
G03*
X263379485Y-106812220I500348J80D01*
G01*
X262676711Y-107460798D02*
G75*
G03*
X263379483Y-106812220I252293J431662D01*
G01*
X263379484Y-104972780D02*
G75*
G03*
X263329999Y-105189657I449826J-216721D01*
G01*
X263379483Y-104972779D02*
G75*
G03*
X262676711Y-104324204I-450516J216874D01*
G01*
X262424452Y-104392500D02*
G75*
G03*
X262676710Y-104324201I-103J500379D01*
G01*
X262676711Y-107460799D02*
G75*
G03*
X262424453Y-107392500I-252339J-432000D01*
G01*
X260583290Y-104324200D02*
G75*
G03*
X260835548Y-104392500I252350J432030D01*
G01*
X260835547Y-107392499D02*
G75*
G03*
X260583289Y-107460798I-107J-499601D01*
G01*
X259880519Y-106812222D02*
G75*
G03*
X260583289Y-107460798I450521J-216868D01*
G01*
X259880516Y-106812220D02*
G75*
G03*
X259930001Y-106595343I-450386J216850D01*
G01*
X260583289Y-104324201D02*
G75*
G03*
X259880517Y-104972781I-252253J-431706D01*
G01*
X259930012Y-105189658D02*
G75*
G03*
X259880515Y-104972780I-500512J-142D01*
G01*
%TO.C,LED23*%
X225229999Y-105189658D02*
X225229999Y-106595342D01*
X224324452Y-107392499D02*
X222735547Y-107392499D01*
X222735548Y-104392500D02*
X224324452Y-104392500D01*
X221830001Y-106595342D02*
X221830001Y-105189658D01*
X225230000Y-106595342D02*
G75*
G03*
X225279485Y-106812220I500348J80D01*
G01*
X224576711Y-107460798D02*
G75*
G03*
X225279483Y-106812220I252293J431662D01*
G01*
X225279484Y-104972780D02*
G75*
G03*
X225229999Y-105189657I449826J-216721D01*
G01*
X225279483Y-104972779D02*
G75*
G03*
X224576711Y-104324204I-450516J216874D01*
G01*
X224324452Y-104392500D02*
G75*
G03*
X224576710Y-104324201I-103J500379D01*
G01*
X224576711Y-107460799D02*
G75*
G03*
X224324453Y-107392500I-252339J-432000D01*
G01*
X222483290Y-104324200D02*
G75*
G03*
X222735548Y-104392500I252350J432030D01*
G01*
X222735547Y-107392499D02*
G75*
G03*
X222483289Y-107460798I-107J-499601D01*
G01*
X221780519Y-106812222D02*
G75*
G03*
X222483289Y-107460798I450521J-216868D01*
G01*
X221780516Y-106812220D02*
G75*
G03*
X221830001Y-106595343I-450386J216850D01*
G01*
X222483289Y-104324201D02*
G75*
G03*
X221780517Y-104972781I-252253J-431706D01*
G01*
X221830012Y-105189658D02*
G75*
G03*
X221780515Y-104972780I-500512J-142D01*
G01*
%TO.C,LED78*%
X325242499Y-167102158D02*
X325242499Y-168507842D01*
X324336952Y-169304999D02*
X322748047Y-169304999D01*
X322748048Y-166305000D02*
X324336952Y-166305000D01*
X321842501Y-168507842D02*
X321842501Y-167102158D01*
X325242500Y-168507842D02*
G75*
G03*
X325291985Y-168724720I500348J80D01*
G01*
X324589211Y-169373298D02*
G75*
G03*
X325291983Y-168724720I252293J431662D01*
G01*
X325291984Y-166885280D02*
G75*
G03*
X325242499Y-167102157I449826J-216721D01*
G01*
X325291983Y-166885279D02*
G75*
G03*
X324589211Y-166236704I-450516J216874D01*
G01*
X324336952Y-166305000D02*
G75*
G03*
X324589210Y-166236701I-103J500379D01*
G01*
X324589211Y-169373299D02*
G75*
G03*
X324336953Y-169305000I-252339J-432000D01*
G01*
X322495790Y-166236700D02*
G75*
G03*
X322748048Y-166305000I252350J432030D01*
G01*
X322748047Y-169304999D02*
G75*
G03*
X322495789Y-169373298I-107J-499601D01*
G01*
X321793019Y-168724722D02*
G75*
G03*
X322495789Y-169373298I450521J-216868D01*
G01*
X321793016Y-168724720D02*
G75*
G03*
X321842501Y-168507843I-450386J216850D01*
G01*
X322495789Y-166236701D02*
G75*
G03*
X321793017Y-166885281I-252253J-431706D01*
G01*
X321842512Y-167102158D02*
G75*
G03*
X321793015Y-166885280I-500512J-142D01*
G01*
%TO.C,LED3*%
X263329999Y-81377158D02*
X263329999Y-82782842D01*
X262424452Y-83580000D02*
X260835548Y-83580000D01*
X260835548Y-80580001D02*
X262424453Y-80580001D01*
X259930001Y-82782842D02*
X259930001Y-81377158D01*
X263330000Y-82782842D02*
G75*
G03*
X263379485Y-82999720I500348J80D01*
G01*
X262676712Y-83648298D02*
G75*
G03*
X263379483Y-82999719I252292J431663D01*
G01*
X263379484Y-81160280D02*
G75*
G03*
X263329999Y-81377157I450138J-216792D01*
G01*
X263379483Y-81160280D02*
G75*
G03*
X262676711Y-80511703I-450519J216872D01*
G01*
X262424453Y-80580001D02*
G75*
G03*
X262676711Y-80511702I90J499665D01*
G01*
X262676711Y-83648299D02*
G75*
G03*
X262424452Y-83580000I-252346J-432027D01*
G01*
X260583290Y-80511700D02*
G75*
G03*
X260835547Y-80580000I252350J432030D01*
G01*
X260835548Y-83580001D02*
G75*
G03*
X260583290Y-83648299I102J-500379D01*
G01*
X259880519Y-82999722D02*
G75*
G03*
X260583289Y-83648296I450511J-216878D01*
G01*
X259880524Y-82999724D02*
G75*
G03*
X259930001Y-82782843I-449924J216724D01*
G01*
X260583289Y-80511701D02*
G75*
G03*
X259880516Y-81160280I-252253J-431706D01*
G01*
X259930012Y-81377158D02*
G75*
G03*
X259880515Y-81160280I-500512J-142D01*
G01*
%TO.C,LED15*%
X72829999Y-105189658D02*
X72829999Y-106595342D01*
X71924452Y-107392499D02*
X70335547Y-107392499D01*
X70335548Y-104392500D02*
X71924452Y-104392500D01*
X69430001Y-106595342D02*
X69430001Y-105189658D01*
X72830000Y-106595342D02*
G75*
G03*
X72879485Y-106812220I500348J80D01*
G01*
X72176711Y-107460798D02*
G75*
G03*
X72879483Y-106812220I252293J431662D01*
G01*
X72879484Y-104972780D02*
G75*
G03*
X72829999Y-105189657I449826J-216721D01*
G01*
X72879483Y-104972779D02*
G75*
G03*
X72176711Y-104324204I-450516J216874D01*
G01*
X71924452Y-104392500D02*
G75*
G03*
X72176710Y-104324201I-103J500379D01*
G01*
X72176711Y-107460799D02*
G75*
G03*
X71924453Y-107392500I-252339J-432000D01*
G01*
X70083290Y-104324200D02*
G75*
G03*
X70335548Y-104392500I252350J432030D01*
G01*
X70335547Y-107392499D02*
G75*
G03*
X70083289Y-107460798I-107J-499601D01*
G01*
X69380519Y-106812222D02*
G75*
G03*
X70083289Y-107460798I450521J-216868D01*
G01*
X69380516Y-106812220D02*
G75*
G03*
X69430001Y-106595343I-450386J216850D01*
G01*
X70083289Y-104324201D02*
G75*
G03*
X69380517Y-104972781I-252253J-431706D01*
G01*
X69430012Y-105189658D02*
G75*
G03*
X69380515Y-104972780I-500512J-142D01*
G01*
%TO.C,LED69*%
X79973749Y-181389658D02*
X79973749Y-182795342D01*
X79068202Y-183592499D02*
X77479297Y-183592499D01*
X77479298Y-180592500D02*
X79068202Y-180592500D01*
X76573751Y-182795342D02*
X76573751Y-181389658D01*
X79973750Y-182795342D02*
G75*
G03*
X80023235Y-183012220I500348J80D01*
G01*
X79320461Y-183660798D02*
G75*
G03*
X80023233Y-183012220I252293J431662D01*
G01*
X80023234Y-181172780D02*
G75*
G03*
X79973749Y-181389657I449826J-216721D01*
G01*
X80023233Y-181172779D02*
G75*
G03*
X79320461Y-180524204I-450516J216874D01*
G01*
X79068202Y-180592500D02*
G75*
G03*
X79320460Y-180524201I-103J500379D01*
G01*
X79320461Y-183660799D02*
G75*
G03*
X79068203Y-183592500I-252339J-432000D01*
G01*
X77227040Y-180524200D02*
G75*
G03*
X77479298Y-180592500I252350J432030D01*
G01*
X77479297Y-183592499D02*
G75*
G03*
X77227039Y-183660798I-107J-499601D01*
G01*
X76524269Y-183012222D02*
G75*
G03*
X77227039Y-183660798I450521J-216868D01*
G01*
X76524266Y-183012220D02*
G75*
G03*
X76573751Y-182795343I-450386J216850D01*
G01*
X77227039Y-180524201D02*
G75*
G03*
X76524267Y-181172781I-252253J-431706D01*
G01*
X76573762Y-181389658D02*
G75*
G03*
X76524265Y-181172780I-500512J-142D01*
G01*
%TO.C,LED44*%
X125217499Y-143289658D02*
X125217499Y-144695342D01*
X124311952Y-145492499D02*
X122723047Y-145492499D01*
X122723048Y-142492500D02*
X124311952Y-142492500D01*
X121817501Y-144695342D02*
X121817501Y-143289658D01*
X125217500Y-144695342D02*
G75*
G03*
X125266985Y-144912220I500348J80D01*
G01*
X124564211Y-145560798D02*
G75*
G03*
X125266983Y-144912220I252293J431662D01*
G01*
X125266984Y-143072780D02*
G75*
G03*
X125217499Y-143289657I449826J-216721D01*
G01*
X125266983Y-143072779D02*
G75*
G03*
X124564211Y-142424204I-450516J216874D01*
G01*
X124311952Y-142492500D02*
G75*
G03*
X124564210Y-142424201I-103J500379D01*
G01*
X124564211Y-145560799D02*
G75*
G03*
X124311953Y-145492500I-252339J-432000D01*
G01*
X122470790Y-142424200D02*
G75*
G03*
X122723048Y-142492500I252350J432030D01*
G01*
X122723047Y-145492499D02*
G75*
G03*
X122470789Y-145560798I-107J-499601D01*
G01*
X121768019Y-144912222D02*
G75*
G03*
X122470789Y-145560798I450521J-216868D01*
G01*
X121768016Y-144912220D02*
G75*
G03*
X121817501Y-144695343I-450386J216850D01*
G01*
X122470789Y-142424201D02*
G75*
G03*
X121768017Y-143072781I-252253J-431706D01*
G01*
X121817512Y-143289658D02*
G75*
G03*
X121768015Y-143072780I-500512J-142D01*
G01*
%TO.C,LED66*%
X77592499Y-162339658D02*
X77592499Y-163745342D01*
X76686952Y-164542500D02*
X75098048Y-164542500D01*
X75098048Y-161542501D02*
X76686953Y-161542501D01*
X74192501Y-163745342D02*
X74192501Y-162339658D01*
X77592500Y-163745342D02*
G75*
G03*
X77641985Y-163962220I500348J80D01*
G01*
X76939212Y-164610798D02*
G75*
G03*
X77641983Y-163962219I252292J431663D01*
G01*
X77641984Y-162122780D02*
G75*
G03*
X77592499Y-162339657I450138J-216792D01*
G01*
X77641983Y-162122780D02*
G75*
G03*
X76939211Y-161474203I-450519J216872D01*
G01*
X76686953Y-161542501D02*
G75*
G03*
X76939211Y-161474202I90J499665D01*
G01*
X76939211Y-164610799D02*
G75*
G03*
X76686952Y-164542500I-252346J-432027D01*
G01*
X74845790Y-161474200D02*
G75*
G03*
X75098047Y-161542500I252350J432030D01*
G01*
X75098048Y-164542501D02*
G75*
G03*
X74845790Y-164610799I102J-500379D01*
G01*
X74143019Y-163962222D02*
G75*
G03*
X74845789Y-164610796I450511J-216878D01*
G01*
X74143024Y-163962224D02*
G75*
G03*
X74192501Y-163745343I-449924J216724D01*
G01*
X74845789Y-161474201D02*
G75*
G03*
X74143016Y-162122780I-252253J-431706D01*
G01*
X74192512Y-162339658D02*
G75*
G03*
X74143015Y-162122780I-500512J-142D01*
G01*
%TO.C,LED71*%
X175223749Y-181389658D02*
X175223749Y-182795342D01*
X174318202Y-183592499D02*
X172729297Y-183592499D01*
X172729298Y-180592500D02*
X174318202Y-180592500D01*
X171823751Y-182795342D02*
X171823751Y-181389658D01*
X175223750Y-182795342D02*
G75*
G03*
X175273235Y-183012220I500348J80D01*
G01*
X174570461Y-183660798D02*
G75*
G03*
X175273233Y-183012220I252293J431662D01*
G01*
X175273234Y-181172780D02*
G75*
G03*
X175223749Y-181389657I449826J-216721D01*
G01*
X175273233Y-181172779D02*
G75*
G03*
X174570461Y-180524204I-450516J216874D01*
G01*
X174318202Y-180592500D02*
G75*
G03*
X174570460Y-180524201I-103J500379D01*
G01*
X174570461Y-183660799D02*
G75*
G03*
X174318203Y-183592500I-252339J-432000D01*
G01*
X172477040Y-180524200D02*
G75*
G03*
X172729298Y-180592500I252350J432030D01*
G01*
X172729297Y-183592499D02*
G75*
G03*
X172477039Y-183660798I-107J-499601D01*
G01*
X171774269Y-183012222D02*
G75*
G03*
X172477039Y-183660798I450521J-216868D01*
G01*
X171774266Y-183012220D02*
G75*
G03*
X171823751Y-182795343I-450386J216850D01*
G01*
X172477039Y-180524201D02*
G75*
G03*
X171774267Y-181172781I-252253J-431706D01*
G01*
X171823762Y-181389658D02*
G75*
G03*
X171774265Y-181172780I-500512J-142D01*
G01*
%TO.C,LED36*%
X139504999Y-124239658D02*
X139504999Y-125645342D01*
X138599452Y-126442500D02*
X137010548Y-126442500D01*
X137010548Y-123442501D02*
X138599453Y-123442501D01*
X136105001Y-125645342D02*
X136105001Y-124239658D01*
X139505000Y-125645342D02*
G75*
G03*
X139554485Y-125862220I500348J80D01*
G01*
X138851712Y-126510798D02*
G75*
G03*
X139554483Y-125862219I252292J431663D01*
G01*
X139554484Y-124022780D02*
G75*
G03*
X139504999Y-124239657I450138J-216792D01*
G01*
X139554483Y-124022780D02*
G75*
G03*
X138851711Y-123374203I-450519J216872D01*
G01*
X138599453Y-123442501D02*
G75*
G03*
X138851711Y-123374202I90J499665D01*
G01*
X138851711Y-126510799D02*
G75*
G03*
X138599452Y-126442500I-252346J-432027D01*
G01*
X136758290Y-123374200D02*
G75*
G03*
X137010547Y-123442500I252350J432030D01*
G01*
X137010548Y-126442501D02*
G75*
G03*
X136758290Y-126510799I102J-500379D01*
G01*
X136055519Y-125862222D02*
G75*
G03*
X136758289Y-126510796I450511J-216878D01*
G01*
X136055524Y-125862224D02*
G75*
G03*
X136105001Y-125645343I-449924J216724D01*
G01*
X136758289Y-123374201D02*
G75*
G03*
X136055516Y-124022780I-252253J-431706D01*
G01*
X136105012Y-124239658D02*
G75*
G03*
X136055515Y-124022780I-500512J-142D01*
G01*
%TO.C,LED1*%
X301429999Y-81377158D02*
X301429999Y-82782842D01*
X300524452Y-83580000D02*
X298935548Y-83580000D01*
X298935548Y-80580001D02*
X300524453Y-80580001D01*
X298030001Y-82782842D02*
X298030001Y-81377158D01*
X301430000Y-82782842D02*
G75*
G03*
X301479485Y-82999720I500348J80D01*
G01*
X300776712Y-83648298D02*
G75*
G03*
X301479483Y-82999719I252292J431663D01*
G01*
X301479484Y-81160280D02*
G75*
G03*
X301429999Y-81377157I450138J-216792D01*
G01*
X301479483Y-81160280D02*
G75*
G03*
X300776711Y-80511703I-450519J216872D01*
G01*
X300524453Y-80580001D02*
G75*
G03*
X300776711Y-80511702I90J499665D01*
G01*
X300776711Y-83648299D02*
G75*
G03*
X300524452Y-83580000I-252346J-432027D01*
G01*
X298683290Y-80511700D02*
G75*
G03*
X298935547Y-80580000I252350J432030D01*
G01*
X298935548Y-83580001D02*
G75*
G03*
X298683290Y-83648299I102J-500379D01*
G01*
X297980519Y-82999722D02*
G75*
G03*
X298683289Y-83648296I450511J-216878D01*
G01*
X297980524Y-82999724D02*
G75*
G03*
X298030001Y-82782843I-449924J216724D01*
G01*
X298683289Y-80511701D02*
G75*
G03*
X297980516Y-81160280I-252253J-431706D01*
G01*
X298030012Y-81377158D02*
G75*
G03*
X297980515Y-81160280I-500512J-142D01*
G01*
%TO.C,LED77*%
X344292499Y-186152158D02*
X344292499Y-187557842D01*
X343386952Y-188354999D02*
X341798047Y-188354999D01*
X341798048Y-185355000D02*
X343386952Y-185355000D01*
X340892501Y-187557842D02*
X340892501Y-186152158D01*
X344292500Y-187557842D02*
G75*
G03*
X344341985Y-187774720I500348J80D01*
G01*
X343639211Y-188423298D02*
G75*
G03*
X344341983Y-187774720I252293J431662D01*
G01*
X344341984Y-185935280D02*
G75*
G03*
X344292499Y-186152157I449826J-216721D01*
G01*
X344341983Y-185935279D02*
G75*
G03*
X343639211Y-185286704I-450516J216874D01*
G01*
X343386952Y-185355000D02*
G75*
G03*
X343639210Y-185286701I-103J500379D01*
G01*
X343639211Y-188423299D02*
G75*
G03*
X343386953Y-188355000I-252339J-432000D01*
G01*
X341545790Y-185286700D02*
G75*
G03*
X341798048Y-185355000I252350J432030D01*
G01*
X341798047Y-188354999D02*
G75*
G03*
X341545789Y-188423298I-107J-499601D01*
G01*
X340843019Y-187774722D02*
G75*
G03*
X341545789Y-188423298I450521J-216868D01*
G01*
X340843016Y-187774720D02*
G75*
G03*
X340892501Y-187557843I-450386J216850D01*
G01*
X341545789Y-185286701D02*
G75*
G03*
X340843017Y-185935281I-252253J-431706D01*
G01*
X340892512Y-186152158D02*
G75*
G03*
X340843015Y-185935280I-500512J-142D01*
G01*
%TO.C,LED7*%
X182367499Y-81377158D02*
X182367499Y-82782842D01*
X181461952Y-83580000D02*
X179873048Y-83580000D01*
X179873048Y-80580001D02*
X181461953Y-80580001D01*
X178967501Y-82782842D02*
X178967501Y-81377158D01*
X182367500Y-82782842D02*
G75*
G03*
X182416985Y-82999720I500348J80D01*
G01*
X181714212Y-83648298D02*
G75*
G03*
X182416983Y-82999719I252292J431663D01*
G01*
X182416984Y-81160280D02*
G75*
G03*
X182367499Y-81377157I450138J-216792D01*
G01*
X182416983Y-81160280D02*
G75*
G03*
X181714211Y-80511703I-450519J216872D01*
G01*
X181461953Y-80580001D02*
G75*
G03*
X181714211Y-80511702I90J499665D01*
G01*
X181714211Y-83648299D02*
G75*
G03*
X181461952Y-83580000I-252346J-432027D01*
G01*
X179620790Y-80511700D02*
G75*
G03*
X179873047Y-80580000I252350J432030D01*
G01*
X179873048Y-83580001D02*
G75*
G03*
X179620790Y-83648299I102J-500379D01*
G01*
X178918019Y-82999722D02*
G75*
G03*
X179620789Y-83648296I450511J-216878D01*
G01*
X178918024Y-82999724D02*
G75*
G03*
X178967501Y-82782843I-449924J216724D01*
G01*
X179620789Y-80511701D02*
G75*
G03*
X178918016Y-81160280I-252253J-431706D01*
G01*
X178967512Y-81377158D02*
G75*
G03*
X178918015Y-81160280I-500512J-142D01*
G01*
%TO.C,LED65*%
X96642499Y-162339658D02*
X96642499Y-163745342D01*
X95736952Y-164542500D02*
X94148048Y-164542500D01*
X94148048Y-161542501D02*
X95736953Y-161542501D01*
X93242501Y-163745342D02*
X93242501Y-162339658D01*
X96642500Y-163745342D02*
G75*
G03*
X96691985Y-163962220I500348J80D01*
G01*
X95989212Y-164610798D02*
G75*
G03*
X96691983Y-163962219I252292J431663D01*
G01*
X96691984Y-162122780D02*
G75*
G03*
X96642499Y-162339657I450138J-216792D01*
G01*
X96691983Y-162122780D02*
G75*
G03*
X95989211Y-161474203I-450519J216872D01*
G01*
X95736953Y-161542501D02*
G75*
G03*
X95989211Y-161474202I90J499665D01*
G01*
X95989211Y-164610799D02*
G75*
G03*
X95736952Y-164542500I-252346J-432027D01*
G01*
X93895790Y-161474200D02*
G75*
G03*
X94148047Y-161542500I252350J432030D01*
G01*
X94148048Y-164542501D02*
G75*
G03*
X93895790Y-164610799I102J-500379D01*
G01*
X93193019Y-163962222D02*
G75*
G03*
X93895789Y-164610796I450511J-216878D01*
G01*
X93193024Y-163962224D02*
G75*
G03*
X93242501Y-163745343I-449924J216724D01*
G01*
X93895789Y-161474201D02*
G75*
G03*
X93193016Y-162122780I-252253J-431706D01*
G01*
X93242512Y-162339658D02*
G75*
G03*
X93193015Y-162122780I-500512J-142D01*
G01*
%TO.C,LED75*%
X306192499Y-186152158D02*
X306192499Y-187557842D01*
X305286952Y-188354999D02*
X303698047Y-188354999D01*
X303698048Y-185355000D02*
X305286952Y-185355000D01*
X302792501Y-187557842D02*
X302792501Y-186152158D01*
X306192500Y-187557842D02*
G75*
G03*
X306241985Y-187774720I500348J80D01*
G01*
X305539211Y-188423298D02*
G75*
G03*
X306241983Y-187774720I252293J431662D01*
G01*
X306241984Y-185935280D02*
G75*
G03*
X306192499Y-186152157I449826J-216721D01*
G01*
X306241983Y-185935279D02*
G75*
G03*
X305539211Y-185286704I-450516J216874D01*
G01*
X305286952Y-185355000D02*
G75*
G03*
X305539210Y-185286701I-103J500379D01*
G01*
X305539211Y-188423299D02*
G75*
G03*
X305286953Y-188355000I-252339J-432000D01*
G01*
X303445790Y-185286700D02*
G75*
G03*
X303698048Y-185355000I252350J432030D01*
G01*
X303698047Y-188354999D02*
G75*
G03*
X303445789Y-188423298I-107J-499601D01*
G01*
X302743019Y-187774722D02*
G75*
G03*
X303445789Y-188423298I450521J-216868D01*
G01*
X302743016Y-187774720D02*
G75*
G03*
X302792501Y-187557843I-450386J216850D01*
G01*
X303445789Y-185286701D02*
G75*
G03*
X302743017Y-185935281I-252253J-431706D01*
G01*
X302792512Y-186152158D02*
G75*
G03*
X302743015Y-185935280I-500512J-142D01*
G01*
%TO.C,LED2*%
X282379999Y-81377158D02*
X282379999Y-82782842D01*
X281474452Y-83580000D02*
X279885548Y-83580000D01*
X279885548Y-80580001D02*
X281474453Y-80580001D01*
X278980001Y-82782842D02*
X278980001Y-81377158D01*
X282380000Y-82782842D02*
G75*
G03*
X282429485Y-82999720I500348J80D01*
G01*
X281726712Y-83648298D02*
G75*
G03*
X282429483Y-82999719I252292J431663D01*
G01*
X282429484Y-81160280D02*
G75*
G03*
X282379999Y-81377157I450138J-216792D01*
G01*
X282429483Y-81160280D02*
G75*
G03*
X281726711Y-80511703I-450519J216872D01*
G01*
X281474453Y-80580001D02*
G75*
G03*
X281726711Y-80511702I90J499665D01*
G01*
X281726711Y-83648299D02*
G75*
G03*
X281474452Y-83580000I-252346J-432027D01*
G01*
X279633290Y-80511700D02*
G75*
G03*
X279885547Y-80580000I252350J432030D01*
G01*
X279885548Y-83580001D02*
G75*
G03*
X279633290Y-83648299I102J-500379D01*
G01*
X278930519Y-82999722D02*
G75*
G03*
X279633289Y-83648296I450511J-216878D01*
G01*
X278930524Y-82999724D02*
G75*
G03*
X278980001Y-82782843I-449924J216724D01*
G01*
X279633289Y-80511701D02*
G75*
G03*
X278930516Y-81160280I-252253J-431706D01*
G01*
X278980012Y-81377158D02*
G75*
G03*
X278930515Y-81160280I-500512J-142D01*
G01*
%TO.C,LED51*%
X258567499Y-143289658D02*
X258567499Y-144695342D01*
X257661952Y-145492499D02*
X256073047Y-145492499D01*
X256073048Y-142492500D02*
X257661952Y-142492500D01*
X255167501Y-144695342D02*
X255167501Y-143289658D01*
X258567500Y-144695342D02*
G75*
G03*
X258616985Y-144912220I500348J80D01*
G01*
X257914211Y-145560798D02*
G75*
G03*
X258616983Y-144912220I252293J431662D01*
G01*
X258616984Y-143072780D02*
G75*
G03*
X258567499Y-143289657I449826J-216721D01*
G01*
X258616983Y-143072779D02*
G75*
G03*
X257914211Y-142424204I-450516J216874D01*
G01*
X257661952Y-142492500D02*
G75*
G03*
X257914210Y-142424201I-103J500379D01*
G01*
X257914211Y-145560799D02*
G75*
G03*
X257661953Y-145492500I-252339J-432000D01*
G01*
X255820790Y-142424200D02*
G75*
G03*
X256073048Y-142492500I252350J432030D01*
G01*
X256073047Y-145492499D02*
G75*
G03*
X255820789Y-145560798I-107J-499601D01*
G01*
X255118019Y-144912222D02*
G75*
G03*
X255820789Y-145560798I450521J-216868D01*
G01*
X255118016Y-144912220D02*
G75*
G03*
X255167501Y-144695343I-450386J216850D01*
G01*
X255820789Y-142424201D02*
G75*
G03*
X255118017Y-143072781I-252253J-431706D01*
G01*
X255167512Y-143289658D02*
G75*
G03*
X255118015Y-143072780I-500512J-142D01*
G01*
%TO.C,LED57*%
X249042499Y-162339658D02*
X249042499Y-163745342D01*
X248136952Y-164542500D02*
X246548048Y-164542500D01*
X246548048Y-161542501D02*
X248136953Y-161542501D01*
X245642501Y-163745342D02*
X245642501Y-162339658D01*
X249042500Y-163745342D02*
G75*
G03*
X249091985Y-163962220I500348J80D01*
G01*
X248389212Y-164610798D02*
G75*
G03*
X249091983Y-163962219I252292J431663D01*
G01*
X249091984Y-162122780D02*
G75*
G03*
X249042499Y-162339657I450138J-216792D01*
G01*
X249091983Y-162122780D02*
G75*
G03*
X248389211Y-161474203I-450519J216872D01*
G01*
X248136953Y-161542501D02*
G75*
G03*
X248389211Y-161474202I90J499665D01*
G01*
X248389211Y-164610799D02*
G75*
G03*
X248136952Y-164542500I-252346J-432027D01*
G01*
X246295790Y-161474200D02*
G75*
G03*
X246548047Y-161542500I252350J432030D01*
G01*
X246548048Y-164542501D02*
G75*
G03*
X246295790Y-164610799I102J-500379D01*
G01*
X245593019Y-163962222D02*
G75*
G03*
X246295789Y-164610796I450511J-216878D01*
G01*
X245593024Y-163962224D02*
G75*
G03*
X245642501Y-163745343I-449924J216724D01*
G01*
X246295789Y-161474201D02*
G75*
G03*
X245593016Y-162122780I-252253J-431706D01*
G01*
X245642512Y-162339658D02*
G75*
G03*
X245593015Y-162122780I-500512J-142D01*
G01*
%TO.C,LED58*%
X229992499Y-162339658D02*
X229992499Y-163745342D01*
X229086952Y-164542500D02*
X227498048Y-164542500D01*
X227498048Y-161542501D02*
X229086953Y-161542501D01*
X226592501Y-163745342D02*
X226592501Y-162339658D01*
X229992500Y-163745342D02*
G75*
G03*
X230041985Y-163962220I500348J80D01*
G01*
X229339212Y-164610798D02*
G75*
G03*
X230041983Y-163962219I252292J431663D01*
G01*
X230041984Y-162122780D02*
G75*
G03*
X229992499Y-162339657I450138J-216792D01*
G01*
X230041983Y-162122780D02*
G75*
G03*
X229339211Y-161474203I-450519J216872D01*
G01*
X229086953Y-161542501D02*
G75*
G03*
X229339211Y-161474202I90J499665D01*
G01*
X229339211Y-164610799D02*
G75*
G03*
X229086952Y-164542500I-252346J-432027D01*
G01*
X227245790Y-161474200D02*
G75*
G03*
X227498047Y-161542500I252350J432030D01*
G01*
X227498048Y-164542501D02*
G75*
G03*
X227245790Y-164610799I102J-500379D01*
G01*
X226543019Y-163962222D02*
G75*
G03*
X227245789Y-164610796I450511J-216878D01*
G01*
X226543024Y-163962224D02*
G75*
G03*
X226592501Y-163745343I-449924J216724D01*
G01*
X227245789Y-161474201D02*
G75*
G03*
X226543016Y-162122780I-252253J-431706D01*
G01*
X226592512Y-162339658D02*
G75*
G03*
X226543015Y-162122780I-500512J-142D01*
G01*
%TO.C,LED46*%
X163317499Y-143289658D02*
X163317499Y-144695342D01*
X162411952Y-145492499D02*
X160823047Y-145492499D01*
X160823048Y-142492500D02*
X162411952Y-142492500D01*
X159917501Y-144695342D02*
X159917501Y-143289658D01*
X163317500Y-144695342D02*
G75*
G03*
X163366985Y-144912220I500348J80D01*
G01*
X162664211Y-145560798D02*
G75*
G03*
X163366983Y-144912220I252293J431662D01*
G01*
X163366984Y-143072780D02*
G75*
G03*
X163317499Y-143289657I449826J-216721D01*
G01*
X163366983Y-143072779D02*
G75*
G03*
X162664211Y-142424204I-450516J216874D01*
G01*
X162411952Y-142492500D02*
G75*
G03*
X162664210Y-142424201I-103J500379D01*
G01*
X162664211Y-145560799D02*
G75*
G03*
X162411953Y-145492500I-252339J-432000D01*
G01*
X160570790Y-142424200D02*
G75*
G03*
X160823048Y-142492500I252350J432030D01*
G01*
X160823047Y-145492499D02*
G75*
G03*
X160570789Y-145560798I-107J-499601D01*
G01*
X159868019Y-144912222D02*
G75*
G03*
X160570789Y-145560798I450521J-216868D01*
G01*
X159868016Y-144912220D02*
G75*
G03*
X159917501Y-144695343I-450386J216850D01*
G01*
X160570789Y-142424201D02*
G75*
G03*
X159868017Y-143072781I-252253J-431706D01*
G01*
X159917512Y-143289658D02*
G75*
G03*
X159868015Y-143072780I-500512J-142D01*
G01*
%TO.C,LED27*%
X310954999Y-105189658D02*
X310954999Y-106595342D01*
X310049452Y-107392499D02*
X308460547Y-107392499D01*
X308460548Y-104392500D02*
X310049452Y-104392500D01*
X307555001Y-106595342D02*
X307555001Y-105189658D01*
X310955000Y-106595342D02*
G75*
G03*
X311004485Y-106812220I500348J80D01*
G01*
X310301711Y-107460798D02*
G75*
G03*
X311004483Y-106812220I252293J431662D01*
G01*
X311004484Y-104972780D02*
G75*
G03*
X310954999Y-105189657I449826J-216721D01*
G01*
X311004483Y-104972779D02*
G75*
G03*
X310301711Y-104324204I-450516J216874D01*
G01*
X310049452Y-104392500D02*
G75*
G03*
X310301710Y-104324201I-103J500379D01*
G01*
X310301711Y-107460799D02*
G75*
G03*
X310049453Y-107392500I-252339J-432000D01*
G01*
X308208290Y-104324200D02*
G75*
G03*
X308460548Y-104392500I252350J432030D01*
G01*
X308460547Y-107392499D02*
G75*
G03*
X308208289Y-107460798I-107J-499601D01*
G01*
X307505519Y-106812222D02*
G75*
G03*
X308208289Y-107460798I450521J-216868D01*
G01*
X307505516Y-106812220D02*
G75*
G03*
X307555001Y-106595343I-450386J216850D01*
G01*
X308208289Y-104324201D02*
G75*
G03*
X307505517Y-104972781I-252253J-431706D01*
G01*
X307555012Y-105189658D02*
G75*
G03*
X307505515Y-104972780I-500512J-142D01*
G01*
%TO.C,LED22*%
X206179999Y-105189658D02*
X206179999Y-106595342D01*
X205274452Y-107392499D02*
X203685547Y-107392499D01*
X203685548Y-104392500D02*
X205274452Y-104392500D01*
X202780001Y-106595342D02*
X202780001Y-105189658D01*
X206180000Y-106595342D02*
G75*
G03*
X206229485Y-106812220I500348J80D01*
G01*
X205526711Y-107460798D02*
G75*
G03*
X206229483Y-106812220I252293J431662D01*
G01*
X206229484Y-104972780D02*
G75*
G03*
X206179999Y-105189657I449826J-216721D01*
G01*
X206229483Y-104972779D02*
G75*
G03*
X205526711Y-104324204I-450516J216874D01*
G01*
X205274452Y-104392500D02*
G75*
G03*
X205526710Y-104324201I-103J500379D01*
G01*
X205526711Y-107460799D02*
G75*
G03*
X205274453Y-107392500I-252339J-432000D01*
G01*
X203433290Y-104324200D02*
G75*
G03*
X203685548Y-104392500I252350J432030D01*
G01*
X203685547Y-107392499D02*
G75*
G03*
X203433289Y-107460798I-107J-499601D01*
G01*
X202730519Y-106812222D02*
G75*
G03*
X203433289Y-107460798I450521J-216868D01*
G01*
X202730516Y-106812220D02*
G75*
G03*
X202780001Y-106595343I-450386J216850D01*
G01*
X203433289Y-104324201D02*
G75*
G03*
X202730517Y-104972781I-252253J-431706D01*
G01*
X202780012Y-105189658D02*
G75*
G03*
X202730515Y-104972780I-500512J-142D01*
G01*
%TO.C,LED5*%
X220467499Y-81377158D02*
X220467499Y-82782842D01*
X219561952Y-83580000D02*
X217973048Y-83580000D01*
X217973048Y-80580001D02*
X219561953Y-80580001D01*
X217067501Y-82782842D02*
X217067501Y-81377158D01*
X220467500Y-82782842D02*
G75*
G03*
X220516985Y-82999720I500348J80D01*
G01*
X219814212Y-83648298D02*
G75*
G03*
X220516983Y-82999719I252292J431663D01*
G01*
X220516984Y-81160280D02*
G75*
G03*
X220467499Y-81377157I450138J-216792D01*
G01*
X220516983Y-81160280D02*
G75*
G03*
X219814211Y-80511703I-450519J216872D01*
G01*
X219561953Y-80580001D02*
G75*
G03*
X219814211Y-80511702I90J499665D01*
G01*
X219814211Y-83648299D02*
G75*
G03*
X219561952Y-83580000I-252346J-432027D01*
G01*
X217720790Y-80511700D02*
G75*
G03*
X217973047Y-80580000I252350J432030D01*
G01*
X217973048Y-83580001D02*
G75*
G03*
X217720790Y-83648299I102J-500379D01*
G01*
X217018019Y-82999722D02*
G75*
G03*
X217720789Y-83648296I450511J-216878D01*
G01*
X217018024Y-82999724D02*
G75*
G03*
X217067501Y-82782843I-449924J216724D01*
G01*
X217720789Y-80511701D02*
G75*
G03*
X217018016Y-81160280I-252253J-431706D01*
G01*
X217067512Y-81377158D02*
G75*
G03*
X217018015Y-81160280I-500512J-142D01*
G01*
%TO.C,LED54*%
X318098749Y-133764658D02*
X318098749Y-135170342D01*
X317193202Y-135967499D02*
X315604297Y-135967499D01*
X315604298Y-132967500D02*
X317193202Y-132967500D01*
X314698751Y-135170342D02*
X314698751Y-133764658D01*
X318098750Y-135170342D02*
G75*
G03*
X318148235Y-135387220I500348J80D01*
G01*
X317445461Y-136035798D02*
G75*
G03*
X318148233Y-135387220I252293J431662D01*
G01*
X318148234Y-133547780D02*
G75*
G03*
X318098749Y-133764657I449826J-216721D01*
G01*
X318148233Y-133547779D02*
G75*
G03*
X317445461Y-132899204I-450516J216874D01*
G01*
X317193202Y-132967500D02*
G75*
G03*
X317445460Y-132899201I-103J500379D01*
G01*
X317445461Y-136035799D02*
G75*
G03*
X317193203Y-135967500I-252339J-432000D01*
G01*
X315352040Y-132899200D02*
G75*
G03*
X315604298Y-132967500I252350J432030D01*
G01*
X315604297Y-135967499D02*
G75*
G03*
X315352039Y-136035798I-107J-499601D01*
G01*
X314649269Y-135387222D02*
G75*
G03*
X315352039Y-136035798I450521J-216868D01*
G01*
X314649266Y-135387220D02*
G75*
G03*
X314698751Y-135170343I-450386J216850D01*
G01*
X315352039Y-132899201D02*
G75*
G03*
X314649267Y-133547781I-252253J-431706D01*
G01*
X314698762Y-133764658D02*
G75*
G03*
X314649265Y-133547780I-500512J-142D01*
G01*
%TO.C,LED47*%
X182367499Y-143289658D02*
X182367499Y-144695342D01*
X181461952Y-145492499D02*
X179873047Y-145492499D01*
X179873048Y-142492500D02*
X181461952Y-142492500D01*
X178967501Y-144695342D02*
X178967501Y-143289658D01*
X182367500Y-144695342D02*
G75*
G03*
X182416985Y-144912220I500348J80D01*
G01*
X181714211Y-145560798D02*
G75*
G03*
X182416983Y-144912220I252293J431662D01*
G01*
X182416984Y-143072780D02*
G75*
G03*
X182367499Y-143289657I449826J-216721D01*
G01*
X182416983Y-143072779D02*
G75*
G03*
X181714211Y-142424204I-450516J216874D01*
G01*
X181461952Y-142492500D02*
G75*
G03*
X181714210Y-142424201I-103J500379D01*
G01*
X181714211Y-145560799D02*
G75*
G03*
X181461953Y-145492500I-252339J-432000D01*
G01*
X179620790Y-142424200D02*
G75*
G03*
X179873048Y-142492500I252350J432030D01*
G01*
X179873047Y-145492499D02*
G75*
G03*
X179620789Y-145560798I-107J-499601D01*
G01*
X178918019Y-144912222D02*
G75*
G03*
X179620789Y-145560798I450521J-216868D01*
G01*
X178918016Y-144912220D02*
G75*
G03*
X178967501Y-144695343I-450386J216850D01*
G01*
X179620789Y-142424201D02*
G75*
G03*
X178918017Y-143072781I-252253J-431706D01*
G01*
X178967512Y-143289658D02*
G75*
G03*
X178918015Y-143072780I-500512J-142D01*
G01*
%TO.C,LED43*%
X106167499Y-143289658D02*
X106167499Y-144695342D01*
X105261952Y-145492499D02*
X103673047Y-145492499D01*
X103673048Y-142492500D02*
X105261952Y-142492500D01*
X102767501Y-144695342D02*
X102767501Y-143289658D01*
X106167500Y-144695342D02*
G75*
G03*
X106216985Y-144912220I500348J80D01*
G01*
X105514211Y-145560798D02*
G75*
G03*
X106216983Y-144912220I252293J431662D01*
G01*
X106216984Y-143072780D02*
G75*
G03*
X106167499Y-143289657I449826J-216721D01*
G01*
X106216983Y-143072779D02*
G75*
G03*
X105514211Y-142424204I-450516J216874D01*
G01*
X105261952Y-142492500D02*
G75*
G03*
X105514210Y-142424201I-103J500379D01*
G01*
X105514211Y-145560799D02*
G75*
G03*
X105261953Y-145492500I-252339J-432000D01*
G01*
X103420790Y-142424200D02*
G75*
G03*
X103673048Y-142492500I252350J432030D01*
G01*
X103673047Y-145492499D02*
G75*
G03*
X103420789Y-145560798I-107J-499601D01*
G01*
X102718019Y-144912222D02*
G75*
G03*
X103420789Y-145560798I450521J-216868D01*
G01*
X102718016Y-144912220D02*
G75*
G03*
X102767501Y-144695343I-450386J216850D01*
G01*
X103420789Y-142424201D02*
G75*
G03*
X102718017Y-143072781I-252253J-431706D01*
G01*
X102767512Y-143289658D02*
G75*
G03*
X102718015Y-143072780I-500512J-142D01*
G01*
%TO.C,LED28*%
X291904999Y-124239658D02*
X291904999Y-125645342D01*
X290999452Y-126442500D02*
X289410548Y-126442500D01*
X289410548Y-123442501D02*
X290999453Y-123442501D01*
X288505001Y-125645342D02*
X288505001Y-124239658D01*
X291905000Y-125645342D02*
G75*
G03*
X291954485Y-125862220I500348J80D01*
G01*
X291251712Y-126510798D02*
G75*
G03*
X291954483Y-125862219I252292J431663D01*
G01*
X291954484Y-124022780D02*
G75*
G03*
X291904999Y-124239657I450138J-216792D01*
G01*
X291954483Y-124022780D02*
G75*
G03*
X291251711Y-123374203I-450519J216872D01*
G01*
X290999453Y-123442501D02*
G75*
G03*
X291251711Y-123374202I90J499665D01*
G01*
X291251711Y-126510799D02*
G75*
G03*
X290999452Y-126442500I-252346J-432027D01*
G01*
X289158290Y-123374200D02*
G75*
G03*
X289410547Y-123442500I252350J432030D01*
G01*
X289410548Y-126442501D02*
G75*
G03*
X289158290Y-126510799I102J-500379D01*
G01*
X288455519Y-125862222D02*
G75*
G03*
X289158289Y-126510796I450511J-216878D01*
G01*
X288455524Y-125862224D02*
G75*
G03*
X288505001Y-125645343I-449924J216724D01*
G01*
X289158289Y-123374201D02*
G75*
G03*
X288455516Y-124022780I-252253J-431706D01*
G01*
X288505012Y-124239658D02*
G75*
G03*
X288455515Y-124022780I-500512J-142D01*
G01*
%TO.C,LED56*%
X268092499Y-162339658D02*
X268092499Y-163745342D01*
X267186952Y-164542500D02*
X265598048Y-164542500D01*
X265598048Y-161542501D02*
X267186953Y-161542501D01*
X264692501Y-163745342D02*
X264692501Y-162339658D01*
X268092500Y-163745342D02*
G75*
G03*
X268141985Y-163962220I500348J80D01*
G01*
X267439212Y-164610798D02*
G75*
G03*
X268141983Y-163962219I252292J431663D01*
G01*
X268141984Y-162122780D02*
G75*
G03*
X268092499Y-162339657I450138J-216792D01*
G01*
X268141983Y-162122780D02*
G75*
G03*
X267439211Y-161474203I-450519J216872D01*
G01*
X267186953Y-161542501D02*
G75*
G03*
X267439211Y-161474202I90J499665D01*
G01*
X267439211Y-164610799D02*
G75*
G03*
X267186952Y-164542500I-252346J-432027D01*
G01*
X265345790Y-161474200D02*
G75*
G03*
X265598047Y-161542500I252350J432030D01*
G01*
X265598048Y-164542501D02*
G75*
G03*
X265345790Y-164610799I102J-500379D01*
G01*
X264643019Y-163962222D02*
G75*
G03*
X265345789Y-164610796I450511J-216878D01*
G01*
X264643024Y-163962224D02*
G75*
G03*
X264692501Y-163745343I-449924J216724D01*
G01*
X265345789Y-161474201D02*
G75*
G03*
X264643016Y-162122780I-252253J-431706D01*
G01*
X264692512Y-162339658D02*
G75*
G03*
X264643015Y-162122780I-500512J-142D01*
G01*
%TO.C,LED38*%
X101404999Y-124239658D02*
X101404999Y-125645342D01*
X100499452Y-126442500D02*
X98910548Y-126442500D01*
X98910548Y-123442501D02*
X100499453Y-123442501D01*
X98005001Y-125645342D02*
X98005001Y-124239658D01*
X101405000Y-125645342D02*
G75*
G03*
X101454485Y-125862220I500348J80D01*
G01*
X100751712Y-126510798D02*
G75*
G03*
X101454483Y-125862219I252292J431663D01*
G01*
X101454484Y-124022780D02*
G75*
G03*
X101404999Y-124239657I450138J-216792D01*
G01*
X101454483Y-124022780D02*
G75*
G03*
X100751711Y-123374203I-450519J216872D01*
G01*
X100499453Y-123442501D02*
G75*
G03*
X100751711Y-123374202I90J499665D01*
G01*
X100751711Y-126510799D02*
G75*
G03*
X100499452Y-126442500I-252346J-432027D01*
G01*
X98658290Y-123374200D02*
G75*
G03*
X98910547Y-123442500I252350J432030D01*
G01*
X98910548Y-126442501D02*
G75*
G03*
X98658290Y-126510799I102J-500379D01*
G01*
X97955519Y-125862222D02*
G75*
G03*
X98658289Y-126510796I450511J-216878D01*
G01*
X97955524Y-125862224D02*
G75*
G03*
X98005001Y-125645343I-449924J216724D01*
G01*
X98658289Y-123374201D02*
G75*
G03*
X97955516Y-124022780I-252253J-431706D01*
G01*
X98005012Y-124239658D02*
G75*
G03*
X97955515Y-124022780I-500512J-142D01*
G01*
%TO.C,LED18*%
X129979999Y-105189658D02*
X129979999Y-106595342D01*
X129074452Y-107392499D02*
X127485547Y-107392499D01*
X127485548Y-104392500D02*
X129074452Y-104392500D01*
X126580001Y-106595342D02*
X126580001Y-105189658D01*
X129980000Y-106595342D02*
G75*
G03*
X130029485Y-106812220I500348J80D01*
G01*
X129326711Y-107460798D02*
G75*
G03*
X130029483Y-106812220I252293J431662D01*
G01*
X130029484Y-104972780D02*
G75*
G03*
X129979999Y-105189657I449826J-216721D01*
G01*
X130029483Y-104972779D02*
G75*
G03*
X129326711Y-104324204I-450516J216874D01*
G01*
X129074452Y-104392500D02*
G75*
G03*
X129326710Y-104324201I-103J500379D01*
G01*
X129326711Y-107460799D02*
G75*
G03*
X129074453Y-107392500I-252339J-432000D01*
G01*
X127233290Y-104324200D02*
G75*
G03*
X127485548Y-104392500I252350J432030D01*
G01*
X127485547Y-107392499D02*
G75*
G03*
X127233289Y-107460798I-107J-499601D01*
G01*
X126530519Y-106812222D02*
G75*
G03*
X127233289Y-107460798I450521J-216868D01*
G01*
X126530516Y-106812220D02*
G75*
G03*
X126580001Y-106595343I-450386J216850D01*
G01*
X127233289Y-104324201D02*
G75*
G03*
X126530517Y-104972781I-252253J-431706D01*
G01*
X126580012Y-105189658D02*
G75*
G03*
X126530515Y-104972780I-500512J-142D01*
G01*
%TO.C,LED48*%
X201417499Y-143289658D02*
X201417499Y-144695342D01*
X200511952Y-145492499D02*
X198923047Y-145492499D01*
X198923048Y-142492500D02*
X200511952Y-142492500D01*
X198017501Y-144695342D02*
X198017501Y-143289658D01*
X201417500Y-144695342D02*
G75*
G03*
X201466985Y-144912220I500348J80D01*
G01*
X200764211Y-145560798D02*
G75*
G03*
X201466983Y-144912220I252293J431662D01*
G01*
X201466984Y-143072780D02*
G75*
G03*
X201417499Y-143289657I449826J-216721D01*
G01*
X201466983Y-143072779D02*
G75*
G03*
X200764211Y-142424204I-450516J216874D01*
G01*
X200511952Y-142492500D02*
G75*
G03*
X200764210Y-142424201I-103J500379D01*
G01*
X200764211Y-145560799D02*
G75*
G03*
X200511953Y-145492500I-252339J-432000D01*
G01*
X198670790Y-142424200D02*
G75*
G03*
X198923048Y-142492500I252350J432030D01*
G01*
X198923047Y-145492499D02*
G75*
G03*
X198670789Y-145560798I-107J-499601D01*
G01*
X197968019Y-144912222D02*
G75*
G03*
X198670789Y-145560798I450521J-216868D01*
G01*
X197968016Y-144912220D02*
G75*
G03*
X198017501Y-144695343I-450386J216850D01*
G01*
X198670789Y-142424201D02*
G75*
G03*
X197968017Y-143072781I-252253J-431706D01*
G01*
X198017512Y-143289658D02*
G75*
G03*
X197968015Y-143072780I-500512J-142D01*
G01*
%TO.C,LED42*%
X87117499Y-143289658D02*
X87117499Y-144695342D01*
X86211952Y-145492499D02*
X84623047Y-145492499D01*
X84623048Y-142492500D02*
X86211952Y-142492500D01*
X83717501Y-144695342D02*
X83717501Y-143289658D01*
X87117500Y-144695342D02*
G75*
G03*
X87166985Y-144912220I500348J80D01*
G01*
X86464211Y-145560798D02*
G75*
G03*
X87166983Y-144912220I252293J431662D01*
G01*
X87166984Y-143072780D02*
G75*
G03*
X87117499Y-143289657I449826J-216721D01*
G01*
X87166983Y-143072779D02*
G75*
G03*
X86464211Y-142424204I-450516J216874D01*
G01*
X86211952Y-142492500D02*
G75*
G03*
X86464210Y-142424201I-103J500379D01*
G01*
X86464211Y-145560799D02*
G75*
G03*
X86211953Y-145492500I-252339J-432000D01*
G01*
X84370790Y-142424200D02*
G75*
G03*
X84623048Y-142492500I252350J432030D01*
G01*
X84623047Y-145492499D02*
G75*
G03*
X84370789Y-145560798I-107J-499601D01*
G01*
X83668019Y-144912222D02*
G75*
G03*
X84370789Y-145560798I450521J-216868D01*
G01*
X83668016Y-144912220D02*
G75*
G03*
X83717501Y-144695343I-450386J216850D01*
G01*
X84370789Y-142424201D02*
G75*
G03*
X83668017Y-143072781I-252253J-431706D01*
G01*
X83717512Y-143289658D02*
G75*
G03*
X83668015Y-143072780I-500512J-142D01*
G01*
%TO.C,LED53*%
X296667499Y-143289658D02*
X296667499Y-144695342D01*
X295761952Y-145492499D02*
X294173047Y-145492499D01*
X294173048Y-142492500D02*
X295761952Y-142492500D01*
X293267501Y-144695342D02*
X293267501Y-143289658D01*
X296667500Y-144695342D02*
G75*
G03*
X296716985Y-144912220I500348J80D01*
G01*
X296014211Y-145560798D02*
G75*
G03*
X296716983Y-144912220I252293J431662D01*
G01*
X296716984Y-143072780D02*
G75*
G03*
X296667499Y-143289657I449826J-216721D01*
G01*
X296716983Y-143072779D02*
G75*
G03*
X296014211Y-142424204I-450516J216874D01*
G01*
X295761952Y-142492500D02*
G75*
G03*
X296014210Y-142424201I-103J500379D01*
G01*
X296014211Y-145560799D02*
G75*
G03*
X295761953Y-145492500I-252339J-432000D01*
G01*
X293920790Y-142424200D02*
G75*
G03*
X294173048Y-142492500I252350J432030D01*
G01*
X294173047Y-145492499D02*
G75*
G03*
X293920789Y-145560798I-107J-499601D01*
G01*
X293218019Y-144912222D02*
G75*
G03*
X293920789Y-145560798I450521J-216868D01*
G01*
X293218016Y-144912220D02*
G75*
G03*
X293267501Y-144695343I-450386J216850D01*
G01*
X293920789Y-142424201D02*
G75*
G03*
X293218017Y-143072781I-252253J-431706D01*
G01*
X293267512Y-143289658D02*
G75*
G03*
X293218015Y-143072780I-500512J-142D01*
G01*
%TO.C,LED64*%
X115692499Y-162339658D02*
X115692499Y-163745342D01*
X114786952Y-164542500D02*
X113198048Y-164542500D01*
X113198048Y-161542501D02*
X114786953Y-161542501D01*
X112292501Y-163745342D02*
X112292501Y-162339658D01*
X115692500Y-163745342D02*
G75*
G03*
X115741985Y-163962220I500348J80D01*
G01*
X115039212Y-164610798D02*
G75*
G03*
X115741983Y-163962219I252292J431663D01*
G01*
X115741984Y-162122780D02*
G75*
G03*
X115692499Y-162339657I450138J-216792D01*
G01*
X115741983Y-162122780D02*
G75*
G03*
X115039211Y-161474203I-450519J216872D01*
G01*
X114786953Y-161542501D02*
G75*
G03*
X115039211Y-161474202I90J499665D01*
G01*
X115039211Y-164610799D02*
G75*
G03*
X114786952Y-164542500I-252346J-432027D01*
G01*
X112945790Y-161474200D02*
G75*
G03*
X113198047Y-161542500I252350J432030D01*
G01*
X113198048Y-164542501D02*
G75*
G03*
X112945790Y-164610799I102J-500379D01*
G01*
X112243019Y-163962222D02*
G75*
G03*
X112945789Y-164610796I450511J-216878D01*
G01*
X112243024Y-163962224D02*
G75*
G03*
X112292501Y-163745343I-449924J216724D01*
G01*
X112945789Y-161474201D02*
G75*
G03*
X112243016Y-162122780I-252253J-431706D01*
G01*
X112292512Y-162339658D02*
G75*
G03*
X112243015Y-162122780I-500512J-142D01*
G01*
%TO.C,LED45*%
X144267499Y-143289658D02*
X144267499Y-144695342D01*
X143361952Y-145492499D02*
X141773047Y-145492499D01*
X141773048Y-142492500D02*
X143361952Y-142492500D01*
X140867501Y-144695342D02*
X140867501Y-143289658D01*
X144267500Y-144695342D02*
G75*
G03*
X144316985Y-144912220I500348J80D01*
G01*
X143614211Y-145560798D02*
G75*
G03*
X144316983Y-144912220I252293J431662D01*
G01*
X144316984Y-143072780D02*
G75*
G03*
X144267499Y-143289657I449826J-216721D01*
G01*
X144316983Y-143072779D02*
G75*
G03*
X143614211Y-142424204I-450516J216874D01*
G01*
X143361952Y-142492500D02*
G75*
G03*
X143614210Y-142424201I-103J500379D01*
G01*
X143614211Y-145560799D02*
G75*
G03*
X143361953Y-145492500I-252339J-432000D01*
G01*
X141520790Y-142424200D02*
G75*
G03*
X141773048Y-142492500I252350J432030D01*
G01*
X141773047Y-145492499D02*
G75*
G03*
X141520789Y-145560798I-107J-499601D01*
G01*
X140818019Y-144912222D02*
G75*
G03*
X141520789Y-145560798I450521J-216868D01*
G01*
X140818016Y-144912220D02*
G75*
G03*
X140867501Y-144695343I-450386J216850D01*
G01*
X141520789Y-142424201D02*
G75*
G03*
X140818017Y-143072781I-252253J-431706D01*
G01*
X140867512Y-143289658D02*
G75*
G03*
X140818015Y-143072780I-500512J-142D01*
G01*
%TO.C,LED35*%
X158554999Y-124239658D02*
X158554999Y-125645342D01*
X157649452Y-126442500D02*
X156060548Y-126442500D01*
X156060548Y-123442501D02*
X157649453Y-123442501D01*
X155155001Y-125645342D02*
X155155001Y-124239658D01*
X158555000Y-125645342D02*
G75*
G03*
X158604485Y-125862220I500348J80D01*
G01*
X157901712Y-126510798D02*
G75*
G03*
X158604483Y-125862219I252292J431663D01*
G01*
X158604484Y-124022780D02*
G75*
G03*
X158554999Y-124239657I450138J-216792D01*
G01*
X158604483Y-124022780D02*
G75*
G03*
X157901711Y-123374203I-450519J216872D01*
G01*
X157649453Y-123442501D02*
G75*
G03*
X157901711Y-123374202I90J499665D01*
G01*
X157901711Y-126510799D02*
G75*
G03*
X157649452Y-126442500I-252346J-432027D01*
G01*
X155808290Y-123374200D02*
G75*
G03*
X156060547Y-123442500I252350J432030D01*
G01*
X156060548Y-126442501D02*
G75*
G03*
X155808290Y-126510799I102J-500379D01*
G01*
X155105519Y-125862222D02*
G75*
G03*
X155808289Y-126510796I450511J-216878D01*
G01*
X155105524Y-125862224D02*
G75*
G03*
X155155001Y-125645343I-449924J216724D01*
G01*
X155808289Y-123374201D02*
G75*
G03*
X155105516Y-124022780I-252253J-431706D01*
G01*
X155155012Y-124239658D02*
G75*
G03*
X155105515Y-124022780I-500512J-142D01*
G01*
%TO.C,LED37*%
X120454999Y-124239658D02*
X120454999Y-125645342D01*
X119549452Y-126442500D02*
X117960548Y-126442500D01*
X117960548Y-123442501D02*
X119549453Y-123442501D01*
X117055001Y-125645342D02*
X117055001Y-124239658D01*
X120455000Y-125645342D02*
G75*
G03*
X120504485Y-125862220I500348J80D01*
G01*
X119801712Y-126510798D02*
G75*
G03*
X120504483Y-125862219I252292J431663D01*
G01*
X120504484Y-124022780D02*
G75*
G03*
X120454999Y-124239657I450138J-216792D01*
G01*
X120504483Y-124022780D02*
G75*
G03*
X119801711Y-123374203I-450519J216872D01*
G01*
X119549453Y-123442501D02*
G75*
G03*
X119801711Y-123374202I90J499665D01*
G01*
X119801711Y-126510799D02*
G75*
G03*
X119549452Y-126442500I-252346J-432027D01*
G01*
X117708290Y-123374200D02*
G75*
G03*
X117960547Y-123442500I252350J432030D01*
G01*
X117960548Y-126442501D02*
G75*
G03*
X117708290Y-126510799I102J-500379D01*
G01*
X117005519Y-125862222D02*
G75*
G03*
X117708289Y-126510796I450511J-216878D01*
G01*
X117005524Y-125862224D02*
G75*
G03*
X117055001Y-125645343I-449924J216724D01*
G01*
X117708289Y-123374201D02*
G75*
G03*
X117005516Y-124022780I-252253J-431706D01*
G01*
X117055012Y-124239658D02*
G75*
G03*
X117005515Y-124022780I-500512J-142D01*
G01*
%TO.C,LED11*%
X101404999Y-81377158D02*
X101404999Y-82782842D01*
X100499452Y-83580000D02*
X98910548Y-83580000D01*
X98910548Y-80580001D02*
X100499453Y-80580001D01*
X98005001Y-82782842D02*
X98005001Y-81377158D01*
X101405000Y-82782842D02*
G75*
G03*
X101454485Y-82999720I500348J80D01*
G01*
X100751712Y-83648298D02*
G75*
G03*
X101454483Y-82999719I252292J431663D01*
G01*
X101454484Y-81160280D02*
G75*
G03*
X101404999Y-81377157I450138J-216792D01*
G01*
X101454483Y-81160280D02*
G75*
G03*
X100751711Y-80511703I-450519J216872D01*
G01*
X100499453Y-80580001D02*
G75*
G03*
X100751711Y-80511702I90J499665D01*
G01*
X100751711Y-83648299D02*
G75*
G03*
X100499452Y-83580000I-252346J-432027D01*
G01*
X98658290Y-80511700D02*
G75*
G03*
X98910547Y-80580000I252350J432030D01*
G01*
X98910548Y-83580001D02*
G75*
G03*
X98658290Y-83648299I102J-500379D01*
G01*
X97955519Y-82999722D02*
G75*
G03*
X98658289Y-83648296I450511J-216878D01*
G01*
X97955524Y-82999724D02*
G75*
G03*
X98005001Y-82782843I-449924J216724D01*
G01*
X98658289Y-80511701D02*
G75*
G03*
X97955516Y-81160280I-252253J-431706D01*
G01*
X98005012Y-81377158D02*
G75*
G03*
X97955515Y-81160280I-500512J-142D01*
G01*
%TO.C,LED19*%
X149029999Y-105189658D02*
X149029999Y-106595342D01*
X148124452Y-107392499D02*
X146535547Y-107392499D01*
X146535548Y-104392500D02*
X148124452Y-104392500D01*
X145630001Y-106595342D02*
X145630001Y-105189658D01*
X149030000Y-106595342D02*
G75*
G03*
X149079485Y-106812220I500348J80D01*
G01*
X148376711Y-107460798D02*
G75*
G03*
X149079483Y-106812220I252293J431662D01*
G01*
X149079484Y-104972780D02*
G75*
G03*
X149029999Y-105189657I449826J-216721D01*
G01*
X149079483Y-104972779D02*
G75*
G03*
X148376711Y-104324204I-450516J216874D01*
G01*
X148124452Y-104392500D02*
G75*
G03*
X148376710Y-104324201I-103J500379D01*
G01*
X148376711Y-107460799D02*
G75*
G03*
X148124453Y-107392500I-252339J-432000D01*
G01*
X146283290Y-104324200D02*
G75*
G03*
X146535548Y-104392500I252350J432030D01*
G01*
X146535547Y-107392499D02*
G75*
G03*
X146283289Y-107460798I-107J-499601D01*
G01*
X145580519Y-106812222D02*
G75*
G03*
X146283289Y-107460798I450521J-216868D01*
G01*
X145580516Y-106812220D02*
G75*
G03*
X145630001Y-106595343I-450386J216850D01*
G01*
X146283289Y-104324201D02*
G75*
G03*
X145580517Y-104972781I-252253J-431706D01*
G01*
X145630012Y-105189658D02*
G75*
G03*
X145580515Y-104972780I-500512J-142D01*
G01*
%TO.C,LED39*%
X82354999Y-124239658D02*
X82354999Y-125645342D01*
X81449452Y-126442500D02*
X79860548Y-126442500D01*
X79860548Y-123442501D02*
X81449453Y-123442501D01*
X78955001Y-125645342D02*
X78955001Y-124239658D01*
X82355000Y-125645342D02*
G75*
G03*
X82404485Y-125862220I500348J80D01*
G01*
X81701712Y-126510798D02*
G75*
G03*
X82404483Y-125862219I252292J431663D01*
G01*
X82404484Y-124022780D02*
G75*
G03*
X82354999Y-124239657I450138J-216792D01*
G01*
X82404483Y-124022780D02*
G75*
G03*
X81701711Y-123374203I-450519J216872D01*
G01*
X81449453Y-123442501D02*
G75*
G03*
X81701711Y-123374202I90J499665D01*
G01*
X81701711Y-126510799D02*
G75*
G03*
X81449452Y-126442500I-252346J-432027D01*
G01*
X79608290Y-123374200D02*
G75*
G03*
X79860547Y-123442500I252350J432030D01*
G01*
X79860548Y-126442501D02*
G75*
G03*
X79608290Y-126510799I102J-500379D01*
G01*
X78905519Y-125862222D02*
G75*
G03*
X79608289Y-126510796I450511J-216878D01*
G01*
X78905524Y-125862224D02*
G75*
G03*
X78955001Y-125645343I-449924J216724D01*
G01*
X79608289Y-123374201D02*
G75*
G03*
X78905516Y-124022780I-252253J-431706D01*
G01*
X78955012Y-124239658D02*
G75*
G03*
X78905515Y-124022780I-500512J-142D01*
G01*
%TO.C,LED32*%
X215704999Y-124239658D02*
X215704999Y-125645342D01*
X214799452Y-126442500D02*
X213210548Y-126442500D01*
X213210548Y-123442501D02*
X214799453Y-123442501D01*
X212305001Y-125645342D02*
X212305001Y-124239658D01*
X215705000Y-125645342D02*
G75*
G03*
X215754485Y-125862220I500348J80D01*
G01*
X215051712Y-126510798D02*
G75*
G03*
X215754483Y-125862219I252292J431663D01*
G01*
X215754484Y-124022780D02*
G75*
G03*
X215704999Y-124239657I450138J-216792D01*
G01*
X215754483Y-124022780D02*
G75*
G03*
X215051711Y-123374203I-450519J216872D01*
G01*
X214799453Y-123442501D02*
G75*
G03*
X215051711Y-123374202I90J499665D01*
G01*
X215051711Y-126510799D02*
G75*
G03*
X214799452Y-126442500I-252346J-432027D01*
G01*
X212958290Y-123374200D02*
G75*
G03*
X213210547Y-123442500I252350J432030D01*
G01*
X213210548Y-126442501D02*
G75*
G03*
X212958290Y-126510799I102J-500379D01*
G01*
X212255519Y-125862222D02*
G75*
G03*
X212958289Y-126510796I450511J-216878D01*
G01*
X212255524Y-125862224D02*
G75*
G03*
X212305001Y-125645343I-449924J216724D01*
G01*
X212958289Y-123374201D02*
G75*
G03*
X212255516Y-124022780I-252253J-431706D01*
G01*
X212305012Y-124239658D02*
G75*
G03*
X212255515Y-124022780I-500512J-142D01*
G01*
%TO.C,LED21*%
X187129999Y-105189658D02*
X187129999Y-106595342D01*
X186224452Y-107392499D02*
X184635547Y-107392499D01*
X184635548Y-104392500D02*
X186224452Y-104392500D01*
X183730001Y-106595342D02*
X183730001Y-105189658D01*
X187130000Y-106595342D02*
G75*
G03*
X187179485Y-106812220I500348J80D01*
G01*
X186476711Y-107460798D02*
G75*
G03*
X187179483Y-106812220I252293J431662D01*
G01*
X187179484Y-104972780D02*
G75*
G03*
X187129999Y-105189657I449826J-216721D01*
G01*
X187179483Y-104972779D02*
G75*
G03*
X186476711Y-104324204I-450516J216874D01*
G01*
X186224452Y-104392500D02*
G75*
G03*
X186476710Y-104324201I-103J500379D01*
G01*
X186476711Y-107460799D02*
G75*
G03*
X186224453Y-107392500I-252339J-432000D01*
G01*
X184383290Y-104324200D02*
G75*
G03*
X184635548Y-104392500I252350J432030D01*
G01*
X184635547Y-107392499D02*
G75*
G03*
X184383289Y-107460798I-107J-499601D01*
G01*
X183680519Y-106812222D02*
G75*
G03*
X184383289Y-107460798I450521J-216868D01*
G01*
X183680516Y-106812220D02*
G75*
G03*
X183730001Y-106595343I-450386J216850D01*
G01*
X184383289Y-104324201D02*
G75*
G03*
X183680517Y-104972781I-252253J-431706D01*
G01*
X183730012Y-105189658D02*
G75*
G03*
X183680515Y-104972780I-500512J-142D01*
G01*
%TO.C,LED16*%
X91879999Y-105189658D02*
X91879999Y-106595342D01*
X90974452Y-107392499D02*
X89385547Y-107392499D01*
X89385548Y-104392500D02*
X90974452Y-104392500D01*
X88480001Y-106595342D02*
X88480001Y-105189658D01*
X91880000Y-106595342D02*
G75*
G03*
X91929485Y-106812220I500348J80D01*
G01*
X91226711Y-107460798D02*
G75*
G03*
X91929483Y-106812220I252293J431662D01*
G01*
X91929484Y-104972780D02*
G75*
G03*
X91879999Y-105189657I449826J-216721D01*
G01*
X91929483Y-104972779D02*
G75*
G03*
X91226711Y-104324204I-450516J216874D01*
G01*
X90974452Y-104392500D02*
G75*
G03*
X91226710Y-104324201I-103J500379D01*
G01*
X91226711Y-107460799D02*
G75*
G03*
X90974453Y-107392500I-252339J-432000D01*
G01*
X89133290Y-104324200D02*
G75*
G03*
X89385548Y-104392500I252350J432030D01*
G01*
X89385547Y-107392499D02*
G75*
G03*
X89133289Y-107460798I-107J-499601D01*
G01*
X88430519Y-106812222D02*
G75*
G03*
X89133289Y-107460798I450521J-216868D01*
G01*
X88430516Y-106812220D02*
G75*
G03*
X88480001Y-106595343I-450386J216850D01*
G01*
X89133289Y-104324201D02*
G75*
G03*
X88430517Y-104972781I-252253J-431706D01*
G01*
X88480012Y-105189658D02*
G75*
G03*
X88430515Y-104972780I-500512J-142D01*
G01*
%TO.C,LED59*%
X210942499Y-162339658D02*
X210942499Y-163745342D01*
X210036952Y-164542500D02*
X208448048Y-164542500D01*
X208448048Y-161542501D02*
X210036953Y-161542501D01*
X207542501Y-163745342D02*
X207542501Y-162339658D01*
X210942500Y-163745342D02*
G75*
G03*
X210991985Y-163962220I500348J80D01*
G01*
X210289212Y-164610798D02*
G75*
G03*
X210991983Y-163962219I252292J431663D01*
G01*
X210991984Y-162122780D02*
G75*
G03*
X210942499Y-162339657I450138J-216792D01*
G01*
X210991983Y-162122780D02*
G75*
G03*
X210289211Y-161474203I-450519J216872D01*
G01*
X210036953Y-161542501D02*
G75*
G03*
X210289211Y-161474202I90J499665D01*
G01*
X210289211Y-164610799D02*
G75*
G03*
X210036952Y-164542500I-252346J-432027D01*
G01*
X208195790Y-161474200D02*
G75*
G03*
X208448047Y-161542500I252350J432030D01*
G01*
X208448048Y-164542501D02*
G75*
G03*
X208195790Y-164610799I102J-500379D01*
G01*
X207493019Y-163962222D02*
G75*
G03*
X208195789Y-164610796I450511J-216878D01*
G01*
X207493024Y-163962224D02*
G75*
G03*
X207542501Y-163745343I-449924J216724D01*
G01*
X208195789Y-161474201D02*
G75*
G03*
X207493016Y-162122780I-252253J-431706D01*
G01*
X207542512Y-162339658D02*
G75*
G03*
X207493015Y-162122780I-500512J-142D01*
G01*
%TO.C,LED4*%
X244279999Y-81377158D02*
X244279999Y-82782842D01*
X243374452Y-83580000D02*
X241785548Y-83580000D01*
X241785548Y-80580001D02*
X243374453Y-80580001D01*
X240880001Y-82782842D02*
X240880001Y-81377158D01*
X244280000Y-82782842D02*
G75*
G03*
X244329485Y-82999720I500348J80D01*
G01*
X243626712Y-83648298D02*
G75*
G03*
X244329483Y-82999719I252292J431663D01*
G01*
X244329484Y-81160280D02*
G75*
G03*
X244279999Y-81377157I450138J-216792D01*
G01*
X244329483Y-81160280D02*
G75*
G03*
X243626711Y-80511703I-450519J216872D01*
G01*
X243374453Y-80580001D02*
G75*
G03*
X243626711Y-80511702I90J499665D01*
G01*
X243626711Y-83648299D02*
G75*
G03*
X243374452Y-83580000I-252346J-432027D01*
G01*
X241533290Y-80511700D02*
G75*
G03*
X241785547Y-80580000I252350J432030D01*
G01*
X241785548Y-83580001D02*
G75*
G03*
X241533290Y-83648299I102J-500379D01*
G01*
X240830519Y-82999722D02*
G75*
G03*
X241533289Y-83648296I450511J-216878D01*
G01*
X240830524Y-82999724D02*
G75*
G03*
X240880001Y-82782843I-449924J216724D01*
G01*
X241533289Y-80511701D02*
G75*
G03*
X240830516Y-81160280I-252253J-431706D01*
G01*
X240880012Y-81377158D02*
G75*
G03*
X240830515Y-81160280I-500512J-142D01*
G01*
%TO.C,LED76*%
X325242499Y-186152158D02*
X325242499Y-187557842D01*
X324336952Y-188354999D02*
X322748047Y-188354999D01*
X322748048Y-185355000D02*
X324336952Y-185355000D01*
X321842501Y-187557842D02*
X321842501Y-186152158D01*
X325242500Y-187557842D02*
G75*
G03*
X325291985Y-187774720I500348J80D01*
G01*
X324589211Y-188423298D02*
G75*
G03*
X325291983Y-187774720I252293J431662D01*
G01*
X325291984Y-185935280D02*
G75*
G03*
X325242499Y-186152157I449826J-216721D01*
G01*
X325291983Y-185935279D02*
G75*
G03*
X324589211Y-185286704I-450516J216874D01*
G01*
X324336952Y-185355000D02*
G75*
G03*
X324589210Y-185286701I-103J500379D01*
G01*
X324589211Y-188423299D02*
G75*
G03*
X324336953Y-188355000I-252339J-432000D01*
G01*
X322495790Y-185286700D02*
G75*
G03*
X322748048Y-185355000I252350J432030D01*
G01*
X322748047Y-188354999D02*
G75*
G03*
X322495789Y-188423298I-107J-499601D01*
G01*
X321793019Y-187774722D02*
G75*
G03*
X322495789Y-188423298I450521J-216868D01*
G01*
X321793016Y-187774720D02*
G75*
G03*
X321842501Y-187557843I-450386J216850D01*
G01*
X322495789Y-185286701D02*
G75*
G03*
X321793017Y-185935281I-252253J-431706D01*
G01*
X321842512Y-186152158D02*
G75*
G03*
X321793015Y-185935280I-500512J-142D01*
G01*
%TO.C,LED30*%
X253804999Y-124239658D02*
X253804999Y-125645342D01*
X252899452Y-126442500D02*
X251310548Y-126442500D01*
X251310548Y-123442501D02*
X252899453Y-123442501D01*
X250405001Y-125645342D02*
X250405001Y-124239658D01*
X253805000Y-125645342D02*
G75*
G03*
X253854485Y-125862220I500348J80D01*
G01*
X253151712Y-126510798D02*
G75*
G03*
X253854483Y-125862219I252292J431663D01*
G01*
X253854484Y-124022780D02*
G75*
G03*
X253804999Y-124239657I450138J-216792D01*
G01*
X253854483Y-124022780D02*
G75*
G03*
X253151711Y-123374203I-450519J216872D01*
G01*
X252899453Y-123442501D02*
G75*
G03*
X253151711Y-123374202I90J499665D01*
G01*
X253151711Y-126510799D02*
G75*
G03*
X252899452Y-126442500I-252346J-432027D01*
G01*
X251058290Y-123374200D02*
G75*
G03*
X251310547Y-123442500I252350J432030D01*
G01*
X251310548Y-126442501D02*
G75*
G03*
X251058290Y-126510799I102J-500379D01*
G01*
X250355519Y-125862222D02*
G75*
G03*
X251058289Y-126510796I450511J-216878D01*
G01*
X250355524Y-125862224D02*
G75*
G03*
X250405001Y-125645343I-449924J216724D01*
G01*
X251058289Y-123374201D02*
G75*
G03*
X250355516Y-124022780I-252253J-431706D01*
G01*
X250405012Y-124239658D02*
G75*
G03*
X250355515Y-124022780I-500512J-142D01*
G01*
%TO.C,LED73*%
X263329999Y-181389658D02*
X263329999Y-182795342D01*
X262424452Y-183592499D02*
X260835547Y-183592499D01*
X260835548Y-180592500D02*
X262424452Y-180592500D01*
X259930001Y-182795342D02*
X259930001Y-181389658D01*
X263330000Y-182795342D02*
G75*
G03*
X263379485Y-183012220I500348J80D01*
G01*
X262676711Y-183660798D02*
G75*
G03*
X263379483Y-183012220I252293J431662D01*
G01*
X263379484Y-181172780D02*
G75*
G03*
X263329999Y-181389657I449826J-216721D01*
G01*
X263379483Y-181172779D02*
G75*
G03*
X262676711Y-180524204I-450516J216874D01*
G01*
X262424452Y-180592500D02*
G75*
G03*
X262676710Y-180524201I-103J500379D01*
G01*
X262676711Y-183660799D02*
G75*
G03*
X262424453Y-183592500I-252339J-432000D01*
G01*
X260583290Y-180524200D02*
G75*
G03*
X260835548Y-180592500I252350J432030D01*
G01*
X260835547Y-183592499D02*
G75*
G03*
X260583289Y-183660798I-107J-499601D01*
G01*
X259880519Y-183012222D02*
G75*
G03*
X260583289Y-183660798I450521J-216868D01*
G01*
X259880516Y-183012220D02*
G75*
G03*
X259930001Y-182795343I-450386J216850D01*
G01*
X260583289Y-180524201D02*
G75*
G03*
X259880517Y-181172781I-252253J-431706D01*
G01*
X259930012Y-181389658D02*
G75*
G03*
X259880515Y-181172780I-500512J-142D01*
G01*
%TO.C,LED62*%
X153792499Y-162339658D02*
X153792499Y-163745342D01*
X152886952Y-164542500D02*
X151298048Y-164542500D01*
X151298048Y-161542501D02*
X152886953Y-161542501D01*
X150392501Y-163745342D02*
X150392501Y-162339658D01*
X153792500Y-163745342D02*
G75*
G03*
X153841985Y-163962220I500348J80D01*
G01*
X153139212Y-164610798D02*
G75*
G03*
X153841983Y-163962219I252292J431663D01*
G01*
X153841984Y-162122780D02*
G75*
G03*
X153792499Y-162339657I450138J-216792D01*
G01*
X153841983Y-162122780D02*
G75*
G03*
X153139211Y-161474203I-450519J216872D01*
G01*
X152886953Y-161542501D02*
G75*
G03*
X153139211Y-161474202I90J499665D01*
G01*
X153139211Y-164610799D02*
G75*
G03*
X152886952Y-164542500I-252346J-432027D01*
G01*
X151045790Y-161474200D02*
G75*
G03*
X151298047Y-161542500I252350J432030D01*
G01*
X151298048Y-164542501D02*
G75*
G03*
X151045790Y-164610799I102J-500379D01*
G01*
X150343019Y-163962222D02*
G75*
G03*
X151045789Y-164610796I450511J-216878D01*
G01*
X150343024Y-163962224D02*
G75*
G03*
X150392501Y-163745343I-449924J216724D01*
G01*
X151045789Y-161474201D02*
G75*
G03*
X150343016Y-162122780I-252253J-431706D01*
G01*
X150392512Y-162339658D02*
G75*
G03*
X150343015Y-162122780I-500512J-142D01*
G01*
%TO.C,LED67*%
X56161249Y-162339658D02*
X56161249Y-163745342D01*
X55255702Y-164542500D02*
X53666798Y-164542500D01*
X53666798Y-161542501D02*
X55255703Y-161542501D01*
X52761251Y-163745342D02*
X52761251Y-162339658D01*
X56161250Y-163745342D02*
G75*
G03*
X56210735Y-163962220I500348J80D01*
G01*
X55507962Y-164610798D02*
G75*
G03*
X56210733Y-163962219I252292J431663D01*
G01*
X56210734Y-162122780D02*
G75*
G03*
X56161249Y-162339657I450138J-216792D01*
G01*
X56210733Y-162122780D02*
G75*
G03*
X55507961Y-161474203I-450519J216872D01*
G01*
X55255703Y-161542501D02*
G75*
G03*
X55507961Y-161474202I90J499665D01*
G01*
X55507961Y-164610799D02*
G75*
G03*
X55255702Y-164542500I-252346J-432027D01*
G01*
X53414540Y-161474200D02*
G75*
G03*
X53666797Y-161542500I252350J432030D01*
G01*
X53666798Y-164542501D02*
G75*
G03*
X53414540Y-164610799I102J-500379D01*
G01*
X52711769Y-163962222D02*
G75*
G03*
X53414539Y-164610796I450511J-216878D01*
G01*
X52711774Y-163962224D02*
G75*
G03*
X52761251Y-163745343I-449924J216724D01*
G01*
X53414539Y-161474201D02*
G75*
G03*
X52711766Y-162122780I-252253J-431706D01*
G01*
X52761262Y-162339658D02*
G75*
G03*
X52711765Y-162122780I-500512J-142D01*
G01*
%TO.C,LED17*%
X110929999Y-105189658D02*
X110929999Y-106595342D01*
X110024452Y-107392499D02*
X108435547Y-107392499D01*
X108435548Y-104392500D02*
X110024452Y-104392500D01*
X107530001Y-106595342D02*
X107530001Y-105189658D01*
X110930000Y-106595342D02*
G75*
G03*
X110979485Y-106812220I500348J80D01*
G01*
X110276711Y-107460798D02*
G75*
G03*
X110979483Y-106812220I252293J431662D01*
G01*
X110979484Y-104972780D02*
G75*
G03*
X110929999Y-105189657I449826J-216721D01*
G01*
X110979483Y-104972779D02*
G75*
G03*
X110276711Y-104324204I-450516J216874D01*
G01*
X110024452Y-104392500D02*
G75*
G03*
X110276710Y-104324201I-103J500379D01*
G01*
X110276711Y-107460799D02*
G75*
G03*
X110024453Y-107392500I-252339J-432000D01*
G01*
X108183290Y-104324200D02*
G75*
G03*
X108435548Y-104392500I252350J432030D01*
G01*
X108435547Y-107392499D02*
G75*
G03*
X108183289Y-107460798I-107J-499601D01*
G01*
X107480519Y-106812222D02*
G75*
G03*
X108183289Y-107460798I450521J-216868D01*
G01*
X107480516Y-106812220D02*
G75*
G03*
X107530001Y-106595343I-450386J216850D01*
G01*
X108183289Y-104324201D02*
G75*
G03*
X107480517Y-104972781I-252253J-431706D01*
G01*
X107530012Y-105189658D02*
G75*
G03*
X107480515Y-104972780I-500512J-142D01*
G01*
%TO.C,LED9*%
X139504999Y-81377158D02*
X139504999Y-82782842D01*
X138599452Y-83580000D02*
X137010548Y-83580000D01*
X137010548Y-80580001D02*
X138599453Y-80580001D01*
X136105001Y-82782842D02*
X136105001Y-81377158D01*
X139505000Y-82782842D02*
G75*
G03*
X139554485Y-82999720I500348J80D01*
G01*
X138851712Y-83648298D02*
G75*
G03*
X139554483Y-82999719I252292J431663D01*
G01*
X139554484Y-81160280D02*
G75*
G03*
X139504999Y-81377157I450138J-216792D01*
G01*
X139554483Y-81160280D02*
G75*
G03*
X138851711Y-80511703I-450519J216872D01*
G01*
X138599453Y-80580001D02*
G75*
G03*
X138851711Y-80511702I90J499665D01*
G01*
X138851711Y-83648299D02*
G75*
G03*
X138599452Y-83580000I-252346J-432027D01*
G01*
X136758290Y-80511700D02*
G75*
G03*
X137010547Y-80580000I252350J432030D01*
G01*
X137010548Y-83580001D02*
G75*
G03*
X136758290Y-83648299I102J-500379D01*
G01*
X136055519Y-82999722D02*
G75*
G03*
X136758289Y-83648296I450511J-216878D01*
G01*
X136055524Y-82999724D02*
G75*
G03*
X136105001Y-82782843I-449924J216724D01*
G01*
X136758289Y-80511701D02*
G75*
G03*
X136055516Y-81160280I-252253J-431706D01*
G01*
X136105012Y-81377158D02*
G75*
G03*
X136055515Y-81160280I-500512J-142D01*
G01*
%TO.C,LED74*%
X282379999Y-181389658D02*
X282379999Y-182795342D01*
X281474452Y-183592499D02*
X279885547Y-183592499D01*
X279885548Y-180592500D02*
X281474452Y-180592500D01*
X278980001Y-182795342D02*
X278980001Y-181389658D01*
X282380000Y-182795342D02*
G75*
G03*
X282429485Y-183012220I500348J80D01*
G01*
X281726711Y-183660798D02*
G75*
G03*
X282429483Y-183012220I252293J431662D01*
G01*
X282429484Y-181172780D02*
G75*
G03*
X282379999Y-181389657I449826J-216721D01*
G01*
X282429483Y-181172779D02*
G75*
G03*
X281726711Y-180524204I-450516J216874D01*
G01*
X281474452Y-180592500D02*
G75*
G03*
X281726710Y-180524201I-103J500379D01*
G01*
X281726711Y-183660799D02*
G75*
G03*
X281474453Y-183592500I-252339J-432000D01*
G01*
X279633290Y-180524200D02*
G75*
G03*
X279885548Y-180592500I252350J432030D01*
G01*
X279885547Y-183592499D02*
G75*
G03*
X279633289Y-183660798I-107J-499601D01*
G01*
X278930519Y-183012222D02*
G75*
G03*
X279633289Y-183660798I450521J-216868D01*
G01*
X278930516Y-183012220D02*
G75*
G03*
X278980001Y-182795343I-450386J216850D01*
G01*
X279633289Y-180524201D02*
G75*
G03*
X278930517Y-181172781I-252253J-431706D01*
G01*
X278980012Y-181389658D02*
G75*
G03*
X278930515Y-181172780I-500512J-142D01*
G01*
%TO.C,BZ1*%
X353006701Y-114345742D02*
X353007000Y-106746000D01*
X352101453Y-105948843D02*
X342500189Y-105948070D01*
X342609258Y-115251701D02*
X352209544Y-115251289D01*
X341703032Y-106853617D02*
X341703711Y-114454544D01*
X353006701Y-114345742D02*
G75*
G03*
X353075000Y-114598000I500352J96D01*
G01*
X352426421Y-115300774D02*
G75*
G03*
X353074998Y-114598001I216874J450517D01*
G01*
X353056485Y-106529123D02*
G75*
G03*
X353007000Y-106746000I449826J-216721D01*
G01*
X353056485Y-106529123D02*
G75*
G03*
X352353712Y-105880546I-450517J216874D01*
G01*
X352101453Y-105948842D02*
G75*
G03*
X352353711Y-105880543I-81J500298D01*
G01*
X352426421Y-115300774D02*
G75*
G03*
X352209544Y-115251289I-216721J-449826D01*
G01*
X342283316Y-105898576D02*
G75*
G03*
X342500189Y-105948070I216684J449576D01*
G01*
X342609258Y-115251712D02*
G75*
G03*
X342357000Y-115320001I142J-500588D01*
G01*
X341654228Y-114671422D02*
G75*
G03*
X342356999Y-115319997I450512J-216878D01*
G01*
X341654226Y-114671421D02*
G75*
G03*
X341703711Y-114454544I-449826J216721D01*
G01*
X342283292Y-105898627D02*
G75*
G03*
X341634736Y-106601358I-216892J-450473D01*
G01*
X341703028Y-106853617D02*
G75*
G03*
X341634733Y-106601359I-500328J-83D01*
G01*
%TO.C,LED10*%
X120454999Y-81377158D02*
X120454999Y-82782842D01*
X119549452Y-83580000D02*
X117960548Y-83580000D01*
X117960548Y-80580001D02*
X119549453Y-80580001D01*
X117055001Y-82782842D02*
X117055001Y-81377158D01*
X120455000Y-82782842D02*
G75*
G03*
X120504485Y-82999720I500348J80D01*
G01*
X119801712Y-83648298D02*
G75*
G03*
X120504483Y-82999719I252292J431663D01*
G01*
X120504484Y-81160280D02*
G75*
G03*
X120454999Y-81377157I450138J-216792D01*
G01*
X120504483Y-81160280D02*
G75*
G03*
X119801711Y-80511703I-450519J216872D01*
G01*
X119549453Y-80580001D02*
G75*
G03*
X119801711Y-80511702I90J499665D01*
G01*
X119801711Y-83648299D02*
G75*
G03*
X119549452Y-83580000I-252346J-432027D01*
G01*
X117708290Y-80511700D02*
G75*
G03*
X117960547Y-80580000I252350J432030D01*
G01*
X117960548Y-83580001D02*
G75*
G03*
X117708290Y-83648299I102J-500379D01*
G01*
X117005519Y-82999722D02*
G75*
G03*
X117708289Y-83648296I450511J-216878D01*
G01*
X117005524Y-82999724D02*
G75*
G03*
X117055001Y-82782843I-449924J216724D01*
G01*
X117708289Y-80511701D02*
G75*
G03*
X117005516Y-81160280I-252253J-431706D01*
G01*
X117055012Y-81377158D02*
G75*
G03*
X117005515Y-81160280I-500512J-142D01*
G01*
%TO.C,LED60*%
X191892499Y-162339658D02*
X191892499Y-163745342D01*
X190986952Y-164542500D02*
X189398048Y-164542500D01*
X189398048Y-161542501D02*
X190986953Y-161542501D01*
X188492501Y-163745342D02*
X188492501Y-162339658D01*
X191892500Y-163745342D02*
G75*
G03*
X191941985Y-163962220I500348J80D01*
G01*
X191239212Y-164610798D02*
G75*
G03*
X191941983Y-163962219I252292J431663D01*
G01*
X191941984Y-162122780D02*
G75*
G03*
X191892499Y-162339657I450138J-216792D01*
G01*
X191941983Y-162122780D02*
G75*
G03*
X191239211Y-161474203I-450519J216872D01*
G01*
X190986953Y-161542501D02*
G75*
G03*
X191239211Y-161474202I90J499665D01*
G01*
X191239211Y-164610799D02*
G75*
G03*
X190986952Y-164542500I-252346J-432027D01*
G01*
X189145790Y-161474200D02*
G75*
G03*
X189398047Y-161542500I252350J432030D01*
G01*
X189398048Y-164542501D02*
G75*
G03*
X189145790Y-164610799I102J-500379D01*
G01*
X188443019Y-163962222D02*
G75*
G03*
X189145789Y-164610796I450511J-216878D01*
G01*
X188443024Y-163962224D02*
G75*
G03*
X188492501Y-163745343I-449924J216724D01*
G01*
X189145789Y-161474201D02*
G75*
G03*
X188443016Y-162122780I-252253J-431706D01*
G01*
X188492512Y-162339658D02*
G75*
G03*
X188443015Y-162122780I-500512J-142D01*
G01*
%TO.C,LED33*%
X196654999Y-124239658D02*
X196654999Y-125645342D01*
X195749452Y-126442500D02*
X194160548Y-126442500D01*
X194160548Y-123442501D02*
X195749453Y-123442501D01*
X193255001Y-125645342D02*
X193255001Y-124239658D01*
X196655000Y-125645342D02*
G75*
G03*
X196704485Y-125862220I500348J80D01*
G01*
X196001712Y-126510798D02*
G75*
G03*
X196704483Y-125862219I252292J431663D01*
G01*
X196704484Y-124022780D02*
G75*
G03*
X196654999Y-124239657I450138J-216792D01*
G01*
X196704483Y-124022780D02*
G75*
G03*
X196001711Y-123374203I-450519J216872D01*
G01*
X195749453Y-123442501D02*
G75*
G03*
X196001711Y-123374202I90J499665D01*
G01*
X196001711Y-126510799D02*
G75*
G03*
X195749452Y-126442500I-252346J-432027D01*
G01*
X193908290Y-123374200D02*
G75*
G03*
X194160547Y-123442500I252350J432030D01*
G01*
X194160548Y-126442501D02*
G75*
G03*
X193908290Y-126510799I102J-500379D01*
G01*
X193205519Y-125862222D02*
G75*
G03*
X193908289Y-126510796I450511J-216878D01*
G01*
X193205524Y-125862224D02*
G75*
G03*
X193255001Y-125645343I-449924J216724D01*
G01*
X193908289Y-123374201D02*
G75*
G03*
X193205516Y-124022780I-252253J-431706D01*
G01*
X193255012Y-124239658D02*
G75*
G03*
X193205515Y-124022780I-500512J-142D01*
G01*
%TO.C,LED80*%
X349054999Y-143289658D02*
X349054999Y-144695342D01*
X348149452Y-145492500D02*
X346560548Y-145492500D01*
X346560548Y-142492501D02*
X348149453Y-142492501D01*
X345655001Y-144695342D02*
X345655001Y-143289658D01*
X349055000Y-144695342D02*
G75*
G03*
X349104485Y-144912220I500348J80D01*
G01*
X348401712Y-145560798D02*
G75*
G03*
X349104483Y-144912219I252292J431663D01*
G01*
X349104484Y-143072780D02*
G75*
G03*
X349054999Y-143289657I450138J-216792D01*
G01*
X349104483Y-143072780D02*
G75*
G03*
X348401711Y-142424203I-450519J216872D01*
G01*
X348149453Y-142492501D02*
G75*
G03*
X348401711Y-142424202I90J499665D01*
G01*
X348401711Y-145560799D02*
G75*
G03*
X348149452Y-145492500I-252346J-432027D01*
G01*
X346308290Y-142424200D02*
G75*
G03*
X346560547Y-142492500I252350J432030D01*
G01*
X346560548Y-145492501D02*
G75*
G03*
X346308290Y-145560799I102J-500379D01*
G01*
X345605519Y-144912222D02*
G75*
G03*
X346308289Y-145560796I450511J-216878D01*
G01*
X345605524Y-144912224D02*
G75*
G03*
X345655001Y-144695343I-449924J216724D01*
G01*
X346308289Y-142424201D02*
G75*
G03*
X345605516Y-143072780I-252253J-431706D01*
G01*
X345655012Y-143289658D02*
G75*
G03*
X345605515Y-143072780I-500512J-142D01*
G01*
%TD*%
M02*
