%TF.GenerationSoftware,KiCad,Pcbnew,7.0.6*%
%TF.CreationDate,2024-01-15T18:39:28+00:00*%
%TF.ProjectId,MoonBoard,4d6f6f6e-426f-4617-9264-2e6b69636164,rev?*%
%TF.SameCoordinates,Original*%
%TF.FileFunction,Legend,Top*%
%TF.FilePolarity,Positive*%
%FSLAX46Y46*%
G04 Gerber Fmt 4.6, Leading zero omitted, Abs format (unit mm)*
G04 Created by KiCad (PCBNEW 7.0.6) date 2024-01-15 18:39:28*
%MOMM*%
%LPD*%
G01*
G04 APERTURE LIST*
G04 Aperture macros list*
%AMRoundRect*
0 Rectangle with rounded corners*
0 $1 Rounding radius*
0 $2 $3 $4 $5 $6 $7 $8 $9 X,Y pos of 4 corners*
0 Add a 4 corners polygon primitive as box body*
4,1,4,$2,$3,$4,$5,$6,$7,$8,$9,$2,$3,0*
0 Add four circle primitives for the rounded corners*
1,1,$1+$1,$2,$3*
1,1,$1+$1,$4,$5*
1,1,$1+$1,$6,$7*
1,1,$1+$1,$8,$9*
0 Add four rect primitives between the rounded corners*
20,1,$1+$1,$2,$3,$4,$5,0*
20,1,$1+$1,$4,$5,$6,$7,0*
20,1,$1+$1,$6,$7,$8,$9,0*
20,1,$1+$1,$8,$9,$2,$3,0*%
G04 Aperture macros list end*
%ADD10C,0.153000*%
%ADD11C,0.650000*%
%ADD12C,0.776000*%
%ADD13C,4.476000*%
%ADD14RoundRect,0.038000X0.850000X-0.850000X0.850000X0.850000X-0.850000X0.850000X-0.850000X-0.850000X0*%
%ADD15O,1.776000X1.776000*%
%ADD16C,4.076000*%
%ADD17C,4.063800*%
%ADD18RoundRect,0.038000X0.850000X0.850000X-0.850000X0.850000X-0.850000X-0.850000X0.850000X-0.850000X0*%
%ADD19RoundRect,0.038000X-0.850000X0.850000X-0.850000X-0.850000X0.850000X-0.850000X0.850000X0.850000X0*%
%ADD20C,1.826000*%
%ADD21RoundRect,0.038000X0.800000X0.800000X-0.800000X0.800000X-0.800000X-0.800000X0.800000X-0.800000X0*%
%ADD22O,1.676000X1.676000*%
%ADD23RoundRect,0.038000X1.100000X1.100000X-1.100000X1.100000X-1.100000X-1.100000X1.100000X-1.100000X0*%
G04 APERTURE END LIST*
D10*
X323268684Y-83100276D02*
X323317064Y-82955133D01*
X323317064Y-82955133D02*
X323317064Y-82713228D01*
X323317064Y-82713228D02*
X323268684Y-82616466D01*
X323268684Y-82616466D02*
X323220303Y-82568085D01*
X323220303Y-82568085D02*
X323123541Y-82519704D01*
X323123541Y-82519704D02*
X323026779Y-82519704D01*
X323026779Y-82519704D02*
X322930017Y-82568085D01*
X322930017Y-82568085D02*
X322881636Y-82616466D01*
X322881636Y-82616466D02*
X322833255Y-82713228D01*
X322833255Y-82713228D02*
X322784874Y-82906752D01*
X322784874Y-82906752D02*
X322736493Y-83003514D01*
X322736493Y-83003514D02*
X322688112Y-83051895D01*
X322688112Y-83051895D02*
X322591350Y-83100276D01*
X322591350Y-83100276D02*
X322494588Y-83100276D01*
X322494588Y-83100276D02*
X322397826Y-83051895D01*
X322397826Y-83051895D02*
X322349445Y-83003514D01*
X322349445Y-83003514D02*
X322301064Y-82906752D01*
X322301064Y-82906752D02*
X322301064Y-82664847D01*
X322301064Y-82664847D02*
X322349445Y-82519704D01*
X322301064Y-82181038D02*
X323317064Y-81939133D01*
X323317064Y-81939133D02*
X322591350Y-81745609D01*
X322591350Y-81745609D02*
X323317064Y-81552085D01*
X323317064Y-81552085D02*
X322301064Y-81310181D01*
X322301064Y-80729609D02*
X322301064Y-80536085D01*
X322301064Y-80536085D02*
X322349445Y-80439323D01*
X322349445Y-80439323D02*
X322446207Y-80342561D01*
X322446207Y-80342561D02*
X322639731Y-80294180D01*
X322639731Y-80294180D02*
X322978398Y-80294180D01*
X322978398Y-80294180D02*
X323171922Y-80342561D01*
X323171922Y-80342561D02*
X323268684Y-80439323D01*
X323268684Y-80439323D02*
X323317064Y-80536085D01*
X323317064Y-80536085D02*
X323317064Y-80729609D01*
X323317064Y-80729609D02*
X323268684Y-80826371D01*
X323268684Y-80826371D02*
X323171922Y-80923133D01*
X323171922Y-80923133D02*
X322978398Y-80971514D01*
X322978398Y-80971514D02*
X322639731Y-80971514D01*
X322639731Y-80971514D02*
X322446207Y-80923133D01*
X322446207Y-80923133D02*
X322349445Y-80826371D01*
X322349445Y-80826371D02*
X322301064Y-80729609D01*
G36*
X338872303Y-74961677D02*
G01*
X338903128Y-74992501D01*
X338937881Y-75062007D01*
X338937881Y-75171030D01*
X338903128Y-75240536D01*
X338872302Y-75271362D01*
X338802797Y-75306115D01*
X338510309Y-75306115D01*
X338510309Y-74926924D01*
X338802797Y-74926924D01*
X338872303Y-74961677D01*
G37*
G36*
X342911814Y-76088067D02*
G01*
X338073024Y-76088067D01*
X338073024Y-75866424D01*
X338357309Y-75866424D01*
X338375207Y-75915597D01*
X338420525Y-75941762D01*
X338472059Y-75932675D01*
X338505695Y-75892589D01*
X338510309Y-75866424D01*
X338510309Y-75459115D01*
X338635884Y-75459115D01*
X338951710Y-75910294D01*
X338994572Y-75940315D01*
X339046702Y-75935762D01*
X339083709Y-75898764D01*
X339086543Y-75866424D01*
X339373309Y-75866424D01*
X339380106Y-75885099D01*
X339383558Y-75904674D01*
X339388846Y-75909111D01*
X339391207Y-75915597D01*
X339408418Y-75925534D01*
X339423644Y-75938310D01*
X339433581Y-75940062D01*
X339436525Y-75941762D01*
X339439872Y-75941171D01*
X339449809Y-75942924D01*
X339933619Y-75942924D01*
X339982792Y-75925026D01*
X340008957Y-75879708D01*
X339999870Y-75828174D01*
X339959784Y-75794538D01*
X339933619Y-75789924D01*
X339526309Y-75789924D01*
X339526309Y-75410734D01*
X339788476Y-75410734D01*
X339837649Y-75392836D01*
X339863814Y-75347518D01*
X339854727Y-75295984D01*
X339814641Y-75262348D01*
X339788476Y-75257734D01*
X339526309Y-75257734D01*
X339526309Y-75140710D01*
X340244166Y-75140710D01*
X340245730Y-75145008D01*
X340244668Y-75149456D01*
X340252242Y-75174922D01*
X340300623Y-75271684D01*
X340301835Y-75272832D01*
X340314953Y-75291566D01*
X340363334Y-75339947D01*
X340364851Y-75340654D01*
X340383216Y-75354277D01*
X340479978Y-75402658D01*
X340483578Y-75403072D01*
X340495636Y-75408450D01*
X340681011Y-75454793D01*
X340759160Y-75493868D01*
X340789985Y-75524693D01*
X340824738Y-75594198D01*
X340824738Y-75654841D01*
X340789985Y-75724346D01*
X340759159Y-75755172D01*
X340689655Y-75789924D01*
X340478222Y-75789924D01*
X340344857Y-75745470D01*
X340292548Y-75746900D01*
X340253395Y-75781618D01*
X340245719Y-75833381D01*
X340273112Y-75877967D01*
X340296475Y-75890618D01*
X340441618Y-75938998D01*
X340443286Y-75938952D01*
X340465809Y-75942924D01*
X340707714Y-75942924D01*
X340712011Y-75941359D01*
X340716459Y-75942422D01*
X340741925Y-75934848D01*
X340838687Y-75886468D01*
X340839833Y-75885257D01*
X340858570Y-75872138D01*
X340864284Y-75866424D01*
X341260166Y-75866424D01*
X341266963Y-75885099D01*
X341270415Y-75904674D01*
X341275703Y-75909111D01*
X341278064Y-75915597D01*
X341295275Y-75925534D01*
X341310501Y-75938310D01*
X341320438Y-75940062D01*
X341323382Y-75941762D01*
X341326729Y-75941171D01*
X341336666Y-75942924D01*
X341820476Y-75942924D01*
X341869649Y-75925026D01*
X341895814Y-75879708D01*
X341886727Y-75828174D01*
X341846641Y-75794538D01*
X341820476Y-75789924D01*
X341413166Y-75789924D01*
X341413166Y-75410734D01*
X341675333Y-75410734D01*
X341724506Y-75392836D01*
X341750671Y-75347518D01*
X341741584Y-75295984D01*
X341701498Y-75262348D01*
X341675333Y-75257734D01*
X341413166Y-75257734D01*
X341413166Y-74926924D01*
X341820476Y-74926924D01*
X341869649Y-74909026D01*
X341895814Y-74863708D01*
X341891129Y-74837140D01*
X342035423Y-74837140D01*
X342044510Y-74888674D01*
X342084596Y-74922310D01*
X342110761Y-74926924D01*
X342324547Y-74926924D01*
X342324547Y-75866424D01*
X342342445Y-75915597D01*
X342387763Y-75941762D01*
X342439297Y-75932675D01*
X342472933Y-75892589D01*
X342477547Y-75866424D01*
X342477547Y-74926924D01*
X342691333Y-74926924D01*
X342740506Y-74909026D01*
X342766671Y-74863708D01*
X342757584Y-74812174D01*
X342717498Y-74778538D01*
X342691333Y-74773924D01*
X342110761Y-74773924D01*
X342061588Y-74791822D01*
X342035423Y-74837140D01*
X341891129Y-74837140D01*
X341886727Y-74812174D01*
X341846641Y-74778538D01*
X341820476Y-74773924D01*
X341336666Y-74773924D01*
X341317990Y-74780721D01*
X341298416Y-74784173D01*
X341293978Y-74789461D01*
X341287493Y-74791822D01*
X341277555Y-74809033D01*
X341264780Y-74824259D01*
X341263027Y-74834196D01*
X341261328Y-74837140D01*
X341261918Y-74840487D01*
X341260166Y-74850424D01*
X341260166Y-75866424D01*
X340864284Y-75866424D01*
X340906951Y-75823757D01*
X340907658Y-75822239D01*
X340921281Y-75803875D01*
X340969662Y-75707113D01*
X340970184Y-75702568D01*
X340973124Y-75699066D01*
X340977738Y-75672901D01*
X340977738Y-75576139D01*
X340976173Y-75571840D01*
X340977236Y-75567393D01*
X340969662Y-75541927D01*
X340921281Y-75445165D01*
X340920065Y-75444014D01*
X340906951Y-75425283D01*
X340858570Y-75376902D01*
X340857055Y-75376195D01*
X340838688Y-75362572D01*
X340741926Y-75314191D01*
X340738325Y-75313776D01*
X340726268Y-75308399D01*
X340540892Y-75262055D01*
X340462744Y-75222981D01*
X340431919Y-75192155D01*
X340397166Y-75122650D01*
X340397166Y-75062007D01*
X340431918Y-74992502D01*
X340462744Y-74961677D01*
X340532250Y-74926924D01*
X340743682Y-74926924D01*
X340877046Y-74971379D01*
X340929356Y-74969950D01*
X340968509Y-74935231D01*
X340976185Y-74883468D01*
X340948793Y-74838882D01*
X340925429Y-74826231D01*
X340780286Y-74777850D01*
X340778617Y-74777895D01*
X340756095Y-74773924D01*
X340514190Y-74773924D01*
X340509891Y-74775488D01*
X340505444Y-74774426D01*
X340479978Y-74782000D01*
X340383216Y-74830381D01*
X340382065Y-74831596D01*
X340363334Y-74844711D01*
X340314953Y-74893092D01*
X340314246Y-74894606D01*
X340300623Y-74912974D01*
X340252242Y-75009736D01*
X340251719Y-75014280D01*
X340248780Y-75017783D01*
X340244166Y-75043948D01*
X340244166Y-75140710D01*
X339526309Y-75140710D01*
X339526309Y-74926924D01*
X339933619Y-74926924D01*
X339982792Y-74909026D01*
X340008957Y-74863708D01*
X339999870Y-74812174D01*
X339959784Y-74778538D01*
X339933619Y-74773924D01*
X339449809Y-74773924D01*
X339431133Y-74780721D01*
X339411559Y-74784173D01*
X339407121Y-74789461D01*
X339400636Y-74791822D01*
X339390698Y-74809033D01*
X339377923Y-74824259D01*
X339376170Y-74834196D01*
X339374471Y-74837140D01*
X339375061Y-74840487D01*
X339373309Y-74850424D01*
X339373309Y-75866424D01*
X339086543Y-75866424D01*
X339088277Y-75846636D01*
X339077052Y-75822554D01*
X338822281Y-75458596D01*
X338825155Y-75457550D01*
X338829603Y-75458613D01*
X338855069Y-75451039D01*
X338951831Y-75402658D01*
X338952979Y-75401445D01*
X338971713Y-75388328D01*
X339020094Y-75339947D01*
X339020801Y-75338429D01*
X339034424Y-75320065D01*
X339082805Y-75223303D01*
X339083327Y-75218758D01*
X339086267Y-75215256D01*
X339090881Y-75189091D01*
X339090881Y-75043948D01*
X339089316Y-75039649D01*
X339090379Y-75035202D01*
X339082805Y-75009736D01*
X339034424Y-74912974D01*
X339033208Y-74911823D01*
X339020094Y-74893092D01*
X338971713Y-74844711D01*
X338970198Y-74844004D01*
X338951831Y-74830381D01*
X338855069Y-74782000D01*
X338850524Y-74781477D01*
X338847022Y-74778538D01*
X338820857Y-74773924D01*
X338433809Y-74773924D01*
X338415133Y-74780721D01*
X338395559Y-74784173D01*
X338391121Y-74789461D01*
X338384636Y-74791822D01*
X338374698Y-74809033D01*
X338361923Y-74824259D01*
X338360170Y-74834196D01*
X338358471Y-74837140D01*
X338359061Y-74840487D01*
X338357309Y-74850424D01*
X338357309Y-75866424D01*
X338073024Y-75866424D01*
X338073024Y-74555080D01*
X338218167Y-74555080D01*
X338227254Y-74606614D01*
X338267340Y-74640250D01*
X338293505Y-74644864D01*
X342686495Y-74644864D01*
X342735668Y-74626966D01*
X342761833Y-74581648D01*
X342752746Y-74530114D01*
X342712660Y-74496478D01*
X342686495Y-74491864D01*
X338293505Y-74491864D01*
X338244332Y-74509762D01*
X338218167Y-74555080D01*
X338073024Y-74555080D01*
X338073024Y-74346721D01*
X342911814Y-74346721D01*
X342911814Y-76088067D01*
G37*
G36*
X312939351Y-70032957D02*
G01*
X313012352Y-70105958D01*
X313053310Y-70269788D01*
X313053310Y-70589619D01*
X313012352Y-70753450D01*
X312939350Y-70826452D01*
X312869846Y-70861204D01*
X312712440Y-70861204D01*
X312642935Y-70826452D01*
X312569933Y-70753450D01*
X312528976Y-70589620D01*
X312528976Y-70269788D01*
X312569933Y-70105958D01*
X312642935Y-70032956D01*
X312712441Y-69998204D01*
X312869845Y-69998204D01*
X312939351Y-70032957D01*
G37*
G36*
X315652674Y-70036947D02*
G01*
X315727890Y-70112163D01*
X315766964Y-70190310D01*
X315811024Y-70366551D01*
X315811024Y-70492858D01*
X315766964Y-70669097D01*
X315727890Y-70747246D01*
X315652674Y-70822461D01*
X315536444Y-70861204D01*
X315383452Y-70861204D01*
X315383452Y-69998204D01*
X315536444Y-69998204D01*
X315652674Y-70036947D01*
G37*
G36*
X316109167Y-71159347D02*
G01*
X312230833Y-71159347D01*
X312230833Y-70599038D01*
X312375976Y-70599038D01*
X312377185Y-70602360D01*
X312378260Y-70617592D01*
X312426641Y-70811116D01*
X312430866Y-70817371D01*
X312431524Y-70824892D01*
X312446763Y-70846656D01*
X312543525Y-70943418D01*
X312545040Y-70944124D01*
X312563408Y-70957748D01*
X312660170Y-71006128D01*
X312664713Y-71006650D01*
X312668216Y-71009590D01*
X312694381Y-71014204D01*
X312887905Y-71014204D01*
X312892202Y-71012639D01*
X312896650Y-71013702D01*
X312922116Y-71006128D01*
X313018878Y-70957748D01*
X313020024Y-70956537D01*
X313038761Y-70943418D01*
X313044475Y-70937704D01*
X313488738Y-70937704D01*
X313495535Y-70956379D01*
X313498987Y-70975954D01*
X313504275Y-70980391D01*
X313506636Y-70986877D01*
X313523847Y-70996814D01*
X313539073Y-71009590D01*
X313549010Y-71011342D01*
X313551954Y-71013042D01*
X313555301Y-71012451D01*
X313565238Y-71014204D01*
X314049048Y-71014204D01*
X314098221Y-70996306D01*
X314124386Y-70950988D01*
X314122044Y-70937704D01*
X314311214Y-70937704D01*
X314318011Y-70956379D01*
X314321463Y-70975954D01*
X314326751Y-70980391D01*
X314329112Y-70986877D01*
X314346323Y-70996814D01*
X314361549Y-71009590D01*
X314371486Y-71011342D01*
X314374430Y-71013042D01*
X314377777Y-71012451D01*
X314387714Y-71014204D01*
X314871524Y-71014204D01*
X314920697Y-70996306D01*
X314946862Y-70950988D01*
X314944520Y-70937704D01*
X315230452Y-70937704D01*
X315237249Y-70956379D01*
X315240701Y-70975954D01*
X315245989Y-70980391D01*
X315248350Y-70986877D01*
X315265561Y-70996814D01*
X315280787Y-71009590D01*
X315290724Y-71011342D01*
X315293668Y-71013042D01*
X315297015Y-71012451D01*
X315306952Y-71014204D01*
X315548857Y-71014204D01*
X315550428Y-71013632D01*
X315573048Y-71010278D01*
X315718191Y-70961898D01*
X315721772Y-70959055D01*
X315726330Y-70958657D01*
X315748094Y-70943418D01*
X315844856Y-70846656D01*
X315845563Y-70845138D01*
X315859186Y-70826774D01*
X315907567Y-70730012D01*
X315907981Y-70726411D01*
X315913359Y-70714354D01*
X315961740Y-70520830D01*
X315961372Y-70517312D01*
X315964024Y-70502276D01*
X315964024Y-70357133D01*
X315962814Y-70353810D01*
X315961740Y-70338579D01*
X315913359Y-70145055D01*
X315911330Y-70142052D01*
X315907567Y-70129397D01*
X315859186Y-70032635D01*
X315857970Y-70031484D01*
X315844856Y-70012753D01*
X315748094Y-69915991D01*
X315743948Y-69914058D01*
X315741555Y-69910162D01*
X315718191Y-69897511D01*
X315573048Y-69849130D01*
X315571379Y-69849175D01*
X315548857Y-69845204D01*
X315306952Y-69845204D01*
X315288276Y-69852001D01*
X315268702Y-69855453D01*
X315264264Y-69860741D01*
X315257779Y-69863102D01*
X315247841Y-69880313D01*
X315235066Y-69895539D01*
X315233313Y-69905476D01*
X315231614Y-69908420D01*
X315232204Y-69911767D01*
X315230452Y-69921704D01*
X315230452Y-70937704D01*
X314944520Y-70937704D01*
X314937775Y-70899454D01*
X314897689Y-70865818D01*
X314871524Y-70861204D01*
X314464214Y-70861204D01*
X314464214Y-70482014D01*
X314726381Y-70482014D01*
X314775554Y-70464116D01*
X314801719Y-70418798D01*
X314792632Y-70367264D01*
X314752546Y-70333628D01*
X314726381Y-70329014D01*
X314464214Y-70329014D01*
X314464214Y-69998204D01*
X314871524Y-69998204D01*
X314920697Y-69980306D01*
X314946862Y-69934988D01*
X314937775Y-69883454D01*
X314897689Y-69849818D01*
X314871524Y-69845204D01*
X314387714Y-69845204D01*
X314369038Y-69852001D01*
X314349464Y-69855453D01*
X314345026Y-69860741D01*
X314338541Y-69863102D01*
X314328603Y-69880313D01*
X314315828Y-69895539D01*
X314314075Y-69905476D01*
X314312376Y-69908420D01*
X314312966Y-69911767D01*
X314311214Y-69921704D01*
X314311214Y-70937704D01*
X314122044Y-70937704D01*
X314115299Y-70899454D01*
X314075213Y-70865818D01*
X314049048Y-70861204D01*
X313641738Y-70861204D01*
X313641738Y-69921704D01*
X313623840Y-69872531D01*
X313578522Y-69846366D01*
X313526988Y-69855453D01*
X313493352Y-69895539D01*
X313488738Y-69921704D01*
X313488738Y-70937704D01*
X313044475Y-70937704D01*
X313135523Y-70846656D01*
X313138713Y-70839814D01*
X313144823Y-70835381D01*
X313155645Y-70811116D01*
X313204026Y-70617592D01*
X313203658Y-70614074D01*
X313206310Y-70599038D01*
X313206310Y-70260371D01*
X313205100Y-70257048D01*
X313204026Y-70241817D01*
X313155645Y-70048293D01*
X313151418Y-70042036D01*
X313150761Y-70034517D01*
X313135523Y-70012753D01*
X313038761Y-69915991D01*
X313037246Y-69915284D01*
X313018879Y-69901661D01*
X312922117Y-69853280D01*
X312917572Y-69852757D01*
X312914070Y-69849818D01*
X312887905Y-69845204D01*
X312694381Y-69845204D01*
X312690082Y-69846768D01*
X312685635Y-69845706D01*
X312660169Y-69853280D01*
X312563407Y-69901661D01*
X312562256Y-69902876D01*
X312543525Y-69915991D01*
X312446763Y-70012753D01*
X312443572Y-70019594D01*
X312437463Y-70024028D01*
X312426641Y-70048293D01*
X312378260Y-70241817D01*
X312378627Y-70245334D01*
X312375976Y-70260371D01*
X312375976Y-70599038D01*
X312230833Y-70599038D01*
X312230833Y-69700061D01*
X316109167Y-69700061D01*
X316109167Y-71159347D01*
G37*
G36*
X349776814Y-93489347D02*
G01*
X344980404Y-93489347D01*
X344980404Y-93267704D01*
X345125547Y-93267704D01*
X345132344Y-93286379D01*
X345135796Y-93305954D01*
X345141084Y-93310391D01*
X345143445Y-93316877D01*
X345160656Y-93326814D01*
X345175882Y-93339590D01*
X345185819Y-93341342D01*
X345188763Y-93343042D01*
X345192110Y-93342451D01*
X345202047Y-93344204D01*
X345685857Y-93344204D01*
X345735030Y-93326306D01*
X345761195Y-93280988D01*
X345752108Y-93229454D01*
X345712022Y-93195818D01*
X345685857Y-93191204D01*
X345278547Y-93191204D01*
X345278547Y-92832276D01*
X345996404Y-92832276D01*
X345997613Y-92835598D01*
X345998688Y-92850830D01*
X346047069Y-93044354D01*
X346049097Y-93047356D01*
X346052861Y-93060012D01*
X346101242Y-93156774D01*
X346102454Y-93157922D01*
X346115572Y-93176656D01*
X346212334Y-93273418D01*
X346216480Y-93275351D01*
X346218874Y-93279247D01*
X346242237Y-93291898D01*
X346387380Y-93340278D01*
X346389048Y-93340232D01*
X346411571Y-93344204D01*
X346508333Y-93344204D01*
X346509904Y-93343632D01*
X346532524Y-93340278D01*
X346677667Y-93291898D01*
X346681248Y-93289055D01*
X346685806Y-93288657D01*
X346707570Y-93273418D01*
X346726568Y-93254420D01*
X347013566Y-93254420D01*
X347022653Y-93305954D01*
X347062739Y-93339590D01*
X347088904Y-93344204D01*
X347669476Y-93344204D01*
X347718649Y-93326306D01*
X347744814Y-93280988D01*
X347740129Y-93254420D01*
X347981185Y-93254420D01*
X347990272Y-93305954D01*
X348030358Y-93339590D01*
X348056523Y-93344204D01*
X348637095Y-93344204D01*
X348686268Y-93326306D01*
X348712433Y-93280988D01*
X348710091Y-93267704D01*
X348996023Y-93267704D01*
X349002820Y-93286379D01*
X349006272Y-93305954D01*
X349011560Y-93310391D01*
X349013921Y-93316877D01*
X349031132Y-93326814D01*
X349046358Y-93339590D01*
X349056295Y-93341342D01*
X349059239Y-93343042D01*
X349062586Y-93342451D01*
X349072523Y-93344204D01*
X349556333Y-93344204D01*
X349605506Y-93326306D01*
X349631671Y-93280988D01*
X349622584Y-93229454D01*
X349582498Y-93195818D01*
X349556333Y-93191204D01*
X349149023Y-93191204D01*
X349149023Y-92812014D01*
X349411190Y-92812014D01*
X349460363Y-92794116D01*
X349486528Y-92748798D01*
X349477441Y-92697264D01*
X349437355Y-92663628D01*
X349411190Y-92659014D01*
X349149023Y-92659014D01*
X349149023Y-92328204D01*
X349556333Y-92328204D01*
X349605506Y-92310306D01*
X349631671Y-92264988D01*
X349622584Y-92213454D01*
X349582498Y-92179818D01*
X349556333Y-92175204D01*
X349072523Y-92175204D01*
X349053847Y-92182001D01*
X349034273Y-92185453D01*
X349029835Y-92190741D01*
X349023350Y-92193102D01*
X349013412Y-92210313D01*
X349000637Y-92225539D01*
X348998884Y-92235476D01*
X348997185Y-92238420D01*
X348997775Y-92241767D01*
X348996023Y-92251704D01*
X348996023Y-93267704D01*
X348710091Y-93267704D01*
X348703346Y-93229454D01*
X348663260Y-93195818D01*
X348637095Y-93191204D01*
X348423309Y-93191204D01*
X348423309Y-92251704D01*
X348421804Y-92247569D01*
X348422845Y-92243296D01*
X348413004Y-92223393D01*
X348405411Y-92202531D01*
X348401601Y-92200331D01*
X348399652Y-92196388D01*
X348379322Y-92187468D01*
X348360093Y-92176366D01*
X348355759Y-92177130D01*
X348351732Y-92175363D01*
X348330425Y-92181597D01*
X348308559Y-92185453D01*
X348305731Y-92188822D01*
X348301510Y-92190058D01*
X348283157Y-92209270D01*
X348190597Y-92348108D01*
X348107969Y-92430736D01*
X348022311Y-92473566D01*
X347986334Y-92511566D01*
X347983198Y-92563801D01*
X348014372Y-92605830D01*
X348065269Y-92617988D01*
X348090735Y-92610414D01*
X348187497Y-92562033D01*
X348188645Y-92560820D01*
X348207379Y-92547703D01*
X348270309Y-92484773D01*
X348270309Y-93191204D01*
X348056523Y-93191204D01*
X348007350Y-93209102D01*
X347981185Y-93254420D01*
X347740129Y-93254420D01*
X347735727Y-93229454D01*
X347695641Y-93195818D01*
X347669476Y-93191204D01*
X347455690Y-93191204D01*
X347455690Y-92251704D01*
X347454185Y-92247569D01*
X347455226Y-92243296D01*
X347445385Y-92223393D01*
X347437792Y-92202531D01*
X347433982Y-92200331D01*
X347432033Y-92196388D01*
X347411703Y-92187468D01*
X347392474Y-92176366D01*
X347388140Y-92177130D01*
X347384113Y-92175363D01*
X347362806Y-92181597D01*
X347340940Y-92185453D01*
X347338112Y-92188822D01*
X347333891Y-92190058D01*
X347315538Y-92209270D01*
X347222978Y-92348108D01*
X347140350Y-92430736D01*
X347054692Y-92473566D01*
X347018715Y-92511566D01*
X347015579Y-92563801D01*
X347046753Y-92605830D01*
X347097650Y-92617988D01*
X347123116Y-92610414D01*
X347219878Y-92562033D01*
X347221026Y-92560820D01*
X347239760Y-92547703D01*
X347302690Y-92484773D01*
X347302690Y-93191204D01*
X347088904Y-93191204D01*
X347039731Y-93209102D01*
X347013566Y-93254420D01*
X346726568Y-93254420D01*
X346755951Y-93225037D01*
X346778065Y-93177610D01*
X346764522Y-93127064D01*
X346721657Y-93097050D01*
X346669527Y-93101611D01*
X346647763Y-93116849D01*
X346612150Y-93152461D01*
X346495920Y-93191204D01*
X346423984Y-93191204D01*
X346307753Y-93152461D01*
X346232538Y-93077246D01*
X346193464Y-92999098D01*
X346149403Y-92822857D01*
X346149403Y-92696551D01*
X346193464Y-92520310D01*
X346232538Y-92442163D01*
X346307753Y-92366947D01*
X346423984Y-92328204D01*
X346495920Y-92328204D01*
X346612150Y-92366947D01*
X346647763Y-92402560D01*
X346695190Y-92424674D01*
X346745736Y-92411131D01*
X346775750Y-92368266D01*
X346771189Y-92316136D01*
X346755951Y-92294372D01*
X346707570Y-92245991D01*
X346703424Y-92244058D01*
X346701031Y-92240162D01*
X346677667Y-92227511D01*
X346532524Y-92179130D01*
X346530855Y-92179175D01*
X346508333Y-92175204D01*
X346411571Y-92175204D01*
X346409999Y-92175775D01*
X346387379Y-92179130D01*
X346242237Y-92227511D01*
X346238654Y-92230354D01*
X346234098Y-92230753D01*
X346212334Y-92245991D01*
X346115572Y-92342753D01*
X346114865Y-92344267D01*
X346101242Y-92362635D01*
X346052861Y-92459397D01*
X346052446Y-92462997D01*
X346047069Y-92475055D01*
X345998688Y-92668579D01*
X345999055Y-92672096D01*
X345996404Y-92687133D01*
X345996404Y-92832276D01*
X345278547Y-92832276D01*
X345278547Y-92812014D01*
X345540714Y-92812014D01*
X345589887Y-92794116D01*
X345616052Y-92748798D01*
X345606965Y-92697264D01*
X345566879Y-92663628D01*
X345540714Y-92659014D01*
X345278547Y-92659014D01*
X345278547Y-92328204D01*
X345685857Y-92328204D01*
X345735030Y-92310306D01*
X345761195Y-92264988D01*
X345752108Y-92213454D01*
X345712022Y-92179818D01*
X345685857Y-92175204D01*
X345202047Y-92175204D01*
X345183371Y-92182001D01*
X345163797Y-92185453D01*
X345159359Y-92190741D01*
X345152874Y-92193102D01*
X345142936Y-92210313D01*
X345130161Y-92225539D01*
X345128408Y-92235476D01*
X345126709Y-92238420D01*
X345127299Y-92241767D01*
X345125547Y-92251704D01*
X345125547Y-93267704D01*
X344980404Y-93267704D01*
X344980404Y-92030061D01*
X349776814Y-92030061D01*
X349776814Y-93489347D01*
G37*
G36*
X345471150Y-75169477D02*
G01*
X345497985Y-75196312D01*
X345532738Y-75265818D01*
X345532738Y-75374840D01*
X345497984Y-75444347D01*
X345467159Y-75475172D01*
X345397655Y-75509924D01*
X345105166Y-75509924D01*
X345105166Y-75130734D01*
X345354920Y-75130734D01*
X345471150Y-75169477D01*
G37*
G36*
X345418778Y-74681676D02*
G01*
X345449604Y-74712502D01*
X345484357Y-74782008D01*
X345484357Y-74842650D01*
X345449604Y-74912155D01*
X345418779Y-74942980D01*
X345349273Y-74977734D01*
X345105166Y-74977734D01*
X345105166Y-74646924D01*
X345349273Y-74646924D01*
X345418778Y-74681676D01*
G37*
G36*
X346483160Y-74681677D02*
G01*
X346556161Y-74754678D01*
X346597119Y-74918509D01*
X346597119Y-75238340D01*
X346556161Y-75402170D01*
X346483159Y-75475172D01*
X346413655Y-75509924D01*
X346256249Y-75509924D01*
X346186744Y-75475172D01*
X346113742Y-75402170D01*
X346072785Y-75238340D01*
X346072785Y-74918508D01*
X346113742Y-74754678D01*
X346186744Y-74681676D01*
X346256250Y-74646924D01*
X346413654Y-74646924D01*
X346483160Y-74681677D01*
G37*
G36*
X347547541Y-74681677D02*
G01*
X347620542Y-74754678D01*
X347661500Y-74918509D01*
X347661500Y-75238339D01*
X347620542Y-75402170D01*
X347547540Y-75475172D01*
X347478036Y-75509924D01*
X347320630Y-75509924D01*
X347251125Y-75475172D01*
X347178123Y-75402170D01*
X347137166Y-75238340D01*
X347137166Y-74918508D01*
X347178123Y-74754678D01*
X347251124Y-74681677D01*
X347320631Y-74646924D01*
X347478035Y-74646924D01*
X347547541Y-74681677D01*
G37*
G36*
X349289254Y-74681676D02*
G01*
X349320080Y-74712502D01*
X349359154Y-74790649D01*
X349403214Y-74966889D01*
X349403214Y-75189959D01*
X349359154Y-75366198D01*
X349320079Y-75444347D01*
X349289254Y-75475172D01*
X349219750Y-75509924D01*
X349159106Y-75509924D01*
X349089601Y-75475172D01*
X349058776Y-75444346D01*
X349019701Y-75366198D01*
X348975642Y-75189959D01*
X348975642Y-74966889D01*
X349019701Y-74790650D01*
X349058776Y-74712501D01*
X349089600Y-74681677D01*
X349159107Y-74646924D01*
X349219749Y-74646924D01*
X349289254Y-74681676D01*
G37*
G36*
X349701357Y-75808067D02*
G01*
X344807023Y-75808067D01*
X344807023Y-75586424D01*
X344952166Y-75586424D01*
X344958963Y-75605099D01*
X344962415Y-75624674D01*
X344967703Y-75629111D01*
X344970064Y-75635597D01*
X344987275Y-75645534D01*
X345002501Y-75658310D01*
X345012438Y-75660062D01*
X345015382Y-75661762D01*
X345018729Y-75661171D01*
X345028666Y-75662924D01*
X345415714Y-75662924D01*
X345420011Y-75661359D01*
X345424459Y-75662422D01*
X345449925Y-75654848D01*
X345546687Y-75606468D01*
X345547833Y-75605257D01*
X345566570Y-75592138D01*
X345614951Y-75543757D01*
X345615658Y-75542239D01*
X345629281Y-75523875D01*
X345677662Y-75427113D01*
X345678184Y-75422568D01*
X345681124Y-75419066D01*
X345685738Y-75392901D01*
X345685738Y-75247758D01*
X345919785Y-75247758D01*
X345920994Y-75251080D01*
X345922069Y-75266312D01*
X345970450Y-75459836D01*
X345974675Y-75466091D01*
X345975333Y-75473612D01*
X345990572Y-75495376D01*
X346087334Y-75592138D01*
X346088849Y-75592844D01*
X346107217Y-75606468D01*
X346203979Y-75654848D01*
X346208522Y-75655370D01*
X346212025Y-75658310D01*
X346238190Y-75662924D01*
X346431714Y-75662924D01*
X346436011Y-75661359D01*
X346440459Y-75662422D01*
X346465925Y-75654848D01*
X346562687Y-75606468D01*
X346563833Y-75605257D01*
X346582570Y-75592138D01*
X346679332Y-75495376D01*
X346682522Y-75488534D01*
X346688632Y-75484101D01*
X346699454Y-75459836D01*
X346747835Y-75266312D01*
X346747467Y-75262794D01*
X346750119Y-75247758D01*
X346984166Y-75247758D01*
X346985375Y-75251080D01*
X346986450Y-75266312D01*
X347034831Y-75459836D01*
X347039056Y-75466091D01*
X347039714Y-75473612D01*
X347054953Y-75495376D01*
X347151715Y-75592138D01*
X347153230Y-75592844D01*
X347171598Y-75606468D01*
X347268360Y-75654848D01*
X347272903Y-75655370D01*
X347276406Y-75658310D01*
X347302571Y-75662924D01*
X347496095Y-75662924D01*
X347500392Y-75661359D01*
X347504840Y-75662422D01*
X347530306Y-75654848D01*
X347627068Y-75606468D01*
X347628214Y-75605257D01*
X347646951Y-75592138D01*
X347743713Y-75495376D01*
X347746903Y-75488534D01*
X347753013Y-75484101D01*
X347763835Y-75459836D01*
X347812216Y-75266312D01*
X347811848Y-75262794D01*
X347814500Y-75247758D01*
X347814500Y-74909091D01*
X347813290Y-74905768D01*
X347812216Y-74890537D01*
X347763835Y-74697013D01*
X347759608Y-74690756D01*
X347758951Y-74683237D01*
X347743713Y-74661473D01*
X347646951Y-74564711D01*
X347645436Y-74564004D01*
X347636182Y-74557140D01*
X347952947Y-74557140D01*
X347962034Y-74608674D01*
X348002120Y-74642310D01*
X348028285Y-74646924D01*
X348242071Y-74646924D01*
X348242071Y-75586424D01*
X348259969Y-75635597D01*
X348305287Y-75661762D01*
X348356821Y-75652675D01*
X348390457Y-75612589D01*
X348395071Y-75586424D01*
X348395071Y-75199377D01*
X348822642Y-75199377D01*
X348823851Y-75202699D01*
X348824926Y-75217931D01*
X348873307Y-75411455D01*
X348875335Y-75414457D01*
X348879099Y-75427113D01*
X348927480Y-75523875D01*
X348928692Y-75525023D01*
X348941810Y-75543757D01*
X348990191Y-75592138D01*
X348991706Y-75592844D01*
X349010074Y-75606468D01*
X349106836Y-75654848D01*
X349111379Y-75655370D01*
X349114882Y-75658310D01*
X349141047Y-75662924D01*
X349237809Y-75662924D01*
X349242106Y-75661359D01*
X349246554Y-75662422D01*
X349272020Y-75654848D01*
X349368782Y-75606468D01*
X349369928Y-75605257D01*
X349388665Y-75592138D01*
X349437046Y-75543757D01*
X349437753Y-75542239D01*
X349451376Y-75523875D01*
X349499757Y-75427113D01*
X349500171Y-75423512D01*
X349505549Y-75411455D01*
X349553930Y-75217931D01*
X349553562Y-75214413D01*
X349556214Y-75199377D01*
X349556214Y-74957472D01*
X349555004Y-74954149D01*
X349553930Y-74938918D01*
X349505549Y-74745394D01*
X349503520Y-74742391D01*
X349499757Y-74729736D01*
X349451376Y-74632974D01*
X349450160Y-74631823D01*
X349437046Y-74613092D01*
X349388665Y-74564711D01*
X349387150Y-74564004D01*
X349368783Y-74550381D01*
X349272021Y-74502000D01*
X349267476Y-74501477D01*
X349263974Y-74498538D01*
X349237809Y-74493924D01*
X349141047Y-74493924D01*
X349136748Y-74495488D01*
X349132301Y-74494426D01*
X349106835Y-74502000D01*
X349010073Y-74550381D01*
X349008922Y-74551596D01*
X348990191Y-74564711D01*
X348941810Y-74613092D01*
X348941103Y-74614606D01*
X348927480Y-74632974D01*
X348879099Y-74729736D01*
X348878684Y-74733336D01*
X348873307Y-74745394D01*
X348824926Y-74938918D01*
X348825293Y-74942435D01*
X348822642Y-74957472D01*
X348822642Y-75199377D01*
X348395071Y-75199377D01*
X348395071Y-74646924D01*
X348608857Y-74646924D01*
X348658030Y-74629026D01*
X348684195Y-74583708D01*
X348675108Y-74532174D01*
X348635022Y-74498538D01*
X348608857Y-74493924D01*
X348028285Y-74493924D01*
X347979112Y-74511822D01*
X347952947Y-74557140D01*
X347636182Y-74557140D01*
X347627069Y-74550381D01*
X347530307Y-74502000D01*
X347525762Y-74501477D01*
X347522260Y-74498538D01*
X347496095Y-74493924D01*
X347302571Y-74493924D01*
X347298272Y-74495488D01*
X347293825Y-74494426D01*
X347268359Y-74502000D01*
X347171597Y-74550381D01*
X347170446Y-74551596D01*
X347151715Y-74564711D01*
X347054953Y-74661473D01*
X347051762Y-74668314D01*
X347045653Y-74672748D01*
X347034831Y-74697013D01*
X346986450Y-74890537D01*
X346986817Y-74894054D01*
X346984166Y-74909091D01*
X346984166Y-75247758D01*
X346750119Y-75247758D01*
X346750119Y-74909091D01*
X346748909Y-74905768D01*
X346747835Y-74890537D01*
X346699454Y-74697013D01*
X346695227Y-74690756D01*
X346694570Y-74683237D01*
X346679332Y-74661473D01*
X346582570Y-74564711D01*
X346581055Y-74564004D01*
X346562688Y-74550381D01*
X346465926Y-74502000D01*
X346461381Y-74501477D01*
X346457879Y-74498538D01*
X346431714Y-74493924D01*
X346238190Y-74493924D01*
X346233891Y-74495488D01*
X346229444Y-74494426D01*
X346203978Y-74502000D01*
X346107216Y-74550381D01*
X346106065Y-74551596D01*
X346087334Y-74564711D01*
X345990572Y-74661473D01*
X345987381Y-74668314D01*
X345981272Y-74672748D01*
X345970450Y-74697013D01*
X345922069Y-74890537D01*
X345922436Y-74894054D01*
X345919785Y-74909091D01*
X345919785Y-75247758D01*
X345685738Y-75247758D01*
X345684173Y-75243459D01*
X345685236Y-75239012D01*
X345677662Y-75213546D01*
X345629281Y-75116784D01*
X345628065Y-75115633D01*
X345614951Y-75096902D01*
X345566570Y-75048521D01*
X345562424Y-75046588D01*
X345560031Y-75042692D01*
X345544080Y-75034055D01*
X345566570Y-75011566D01*
X345567277Y-75010048D01*
X345580900Y-74991684D01*
X345629281Y-74894922D01*
X345629803Y-74890377D01*
X345632743Y-74886875D01*
X345637357Y-74860710D01*
X345637357Y-74763948D01*
X345635792Y-74759649D01*
X345636855Y-74755202D01*
X345629281Y-74729736D01*
X345580900Y-74632974D01*
X345579684Y-74631823D01*
X345566570Y-74613092D01*
X345518189Y-74564711D01*
X345516674Y-74564004D01*
X345498307Y-74550381D01*
X345401545Y-74502000D01*
X345397000Y-74501477D01*
X345393498Y-74498538D01*
X345367333Y-74493924D01*
X345028666Y-74493924D01*
X345009990Y-74500721D01*
X344990416Y-74504173D01*
X344985978Y-74509461D01*
X344979493Y-74511822D01*
X344969555Y-74529033D01*
X344956780Y-74544259D01*
X344955027Y-74554196D01*
X344953328Y-74557140D01*
X344953918Y-74560487D01*
X344952166Y-74570424D01*
X344952166Y-75586424D01*
X344807023Y-75586424D01*
X344807023Y-74348781D01*
X349701357Y-74348781D01*
X349701357Y-75808067D01*
G37*
X317855017Y-73657438D02*
X317855017Y-72883343D01*
X318242064Y-73270390D02*
X317467969Y-73270390D01*
X317226064Y-72496295D02*
X317226064Y-71867342D01*
X317226064Y-71867342D02*
X317613112Y-72206009D01*
X317613112Y-72206009D02*
X317613112Y-72060866D01*
X317613112Y-72060866D02*
X317661493Y-71964104D01*
X317661493Y-71964104D02*
X317709874Y-71915723D01*
X317709874Y-71915723D02*
X317806636Y-71867342D01*
X317806636Y-71867342D02*
X318048541Y-71867342D01*
X318048541Y-71867342D02*
X318145303Y-71915723D01*
X318145303Y-71915723D02*
X318193684Y-71964104D01*
X318193684Y-71964104D02*
X318242064Y-72060866D01*
X318242064Y-72060866D02*
X318242064Y-72351152D01*
X318242064Y-72351152D02*
X318193684Y-72447914D01*
X318193684Y-72447914D02*
X318145303Y-72496295D01*
X317226064Y-71577057D02*
X318242064Y-71238390D01*
X318242064Y-71238390D02*
X317226064Y-70899723D01*
X317226064Y-70657819D02*
X317226064Y-70028866D01*
X317226064Y-70028866D02*
X317613112Y-70367533D01*
X317613112Y-70367533D02*
X317613112Y-70222390D01*
X317613112Y-70222390D02*
X317661493Y-70125628D01*
X317661493Y-70125628D02*
X317709874Y-70077247D01*
X317709874Y-70077247D02*
X317806636Y-70028866D01*
X317806636Y-70028866D02*
X318048541Y-70028866D01*
X318048541Y-70028866D02*
X318145303Y-70077247D01*
X318145303Y-70077247D02*
X318193684Y-70125628D01*
X318193684Y-70125628D02*
X318242064Y-70222390D01*
X318242064Y-70222390D02*
X318242064Y-70512676D01*
X318242064Y-70512676D02*
X318193684Y-70609438D01*
X318193684Y-70609438D02*
X318145303Y-70657819D01*
X319809445Y-73125247D02*
X319761064Y-73222009D01*
X319761064Y-73222009D02*
X319761064Y-73367152D01*
X319761064Y-73367152D02*
X319809445Y-73512295D01*
X319809445Y-73512295D02*
X319906207Y-73609057D01*
X319906207Y-73609057D02*
X320002969Y-73657438D01*
X320002969Y-73657438D02*
X320196493Y-73705819D01*
X320196493Y-73705819D02*
X320341636Y-73705819D01*
X320341636Y-73705819D02*
X320535160Y-73657438D01*
X320535160Y-73657438D02*
X320631922Y-73609057D01*
X320631922Y-73609057D02*
X320728684Y-73512295D01*
X320728684Y-73512295D02*
X320777064Y-73367152D01*
X320777064Y-73367152D02*
X320777064Y-73270390D01*
X320777064Y-73270390D02*
X320728684Y-73125247D01*
X320728684Y-73125247D02*
X320680303Y-73076866D01*
X320680303Y-73076866D02*
X320341636Y-73076866D01*
X320341636Y-73076866D02*
X320341636Y-73270390D01*
X320777064Y-72641438D02*
X319761064Y-72641438D01*
X319761064Y-72641438D02*
X320777064Y-72060866D01*
X320777064Y-72060866D02*
X319761064Y-72060866D01*
X320777064Y-71577057D02*
X319761064Y-71577057D01*
X319761064Y-71577057D02*
X319761064Y-71335152D01*
X319761064Y-71335152D02*
X319809445Y-71190009D01*
X319809445Y-71190009D02*
X319906207Y-71093247D01*
X319906207Y-71093247D02*
X320002969Y-71044866D01*
X320002969Y-71044866D02*
X320196493Y-70996485D01*
X320196493Y-70996485D02*
X320341636Y-70996485D01*
X320341636Y-70996485D02*
X320535160Y-71044866D01*
X320535160Y-71044866D02*
X320631922Y-71093247D01*
X320631922Y-71093247D02*
X320728684Y-71190009D01*
X320728684Y-71190009D02*
X320777064Y-71335152D01*
X320777064Y-71335152D02*
X320777064Y-71577057D01*
X318193684Y-84600086D02*
X318242064Y-84454943D01*
X318242064Y-84454943D02*
X318242064Y-84213038D01*
X318242064Y-84213038D02*
X318193684Y-84116276D01*
X318193684Y-84116276D02*
X318145303Y-84067895D01*
X318145303Y-84067895D02*
X318048541Y-84019514D01*
X318048541Y-84019514D02*
X317951779Y-84019514D01*
X317951779Y-84019514D02*
X317855017Y-84067895D01*
X317855017Y-84067895D02*
X317806636Y-84116276D01*
X317806636Y-84116276D02*
X317758255Y-84213038D01*
X317758255Y-84213038D02*
X317709874Y-84406562D01*
X317709874Y-84406562D02*
X317661493Y-84503324D01*
X317661493Y-84503324D02*
X317613112Y-84551705D01*
X317613112Y-84551705D02*
X317516350Y-84600086D01*
X317516350Y-84600086D02*
X317419588Y-84600086D01*
X317419588Y-84600086D02*
X317322826Y-84551705D01*
X317322826Y-84551705D02*
X317274445Y-84503324D01*
X317274445Y-84503324D02*
X317226064Y-84406562D01*
X317226064Y-84406562D02*
X317226064Y-84164657D01*
X317226064Y-84164657D02*
X317274445Y-84019514D01*
X317226064Y-83680848D02*
X318242064Y-83438943D01*
X318242064Y-83438943D02*
X317516350Y-83245419D01*
X317516350Y-83245419D02*
X318242064Y-83051895D01*
X318242064Y-83051895D02*
X317226064Y-82809991D01*
X318242064Y-82422943D02*
X317226064Y-82422943D01*
X317226064Y-82422943D02*
X317226064Y-82181038D01*
X317226064Y-82181038D02*
X317274445Y-82035895D01*
X317274445Y-82035895D02*
X317371207Y-81939133D01*
X317371207Y-81939133D02*
X317467969Y-81890752D01*
X317467969Y-81890752D02*
X317661493Y-81842371D01*
X317661493Y-81842371D02*
X317806636Y-81842371D01*
X317806636Y-81842371D02*
X318000160Y-81890752D01*
X318000160Y-81890752D02*
X318096922Y-81939133D01*
X318096922Y-81939133D02*
X318193684Y-82035895D01*
X318193684Y-82035895D02*
X318242064Y-82181038D01*
X318242064Y-82181038D02*
X318242064Y-82422943D01*
X318242064Y-81406943D02*
X317226064Y-81406943D01*
X317226064Y-80729609D02*
X317226064Y-80536085D01*
X317226064Y-80536085D02*
X317274445Y-80439323D01*
X317274445Y-80439323D02*
X317371207Y-80342561D01*
X317371207Y-80342561D02*
X317564731Y-80294180D01*
X317564731Y-80294180D02*
X317903398Y-80294180D01*
X317903398Y-80294180D02*
X318096922Y-80342561D01*
X318096922Y-80342561D02*
X318193684Y-80439323D01*
X318193684Y-80439323D02*
X318242064Y-80536085D01*
X318242064Y-80536085D02*
X318242064Y-80729609D01*
X318242064Y-80729609D02*
X318193684Y-80826371D01*
X318193684Y-80826371D02*
X318096922Y-80923133D01*
X318096922Y-80923133D02*
X317903398Y-80971514D01*
X317903398Y-80971514D02*
X317564731Y-80971514D01*
X317564731Y-80971514D02*
X317371207Y-80923133D01*
X317371207Y-80923133D02*
X317274445Y-80826371D01*
X317274445Y-80826371D02*
X317226064Y-80729609D01*
G36*
X339763450Y-95804599D02*
G01*
X339836452Y-95877601D01*
X339871204Y-95947105D01*
X339871204Y-96104512D01*
X339836452Y-96174016D01*
X339763450Y-96247018D01*
X339599620Y-96287976D01*
X339279789Y-96287976D01*
X339115958Y-96247018D01*
X339042957Y-96174016D01*
X339008204Y-96104510D01*
X339008204Y-95947107D01*
X339042957Y-95877601D01*
X339115958Y-95804599D01*
X339279789Y-95763642D01*
X339599620Y-95763642D01*
X339763450Y-95804599D01*
G37*
G36*
X339679098Y-94791702D02*
G01*
X339757246Y-94830776D01*
X339832461Y-94905991D01*
X339871204Y-95022221D01*
X339871204Y-95175214D01*
X339008204Y-95175214D01*
X339008204Y-95022222D01*
X339046947Y-94905991D01*
X339122163Y-94830775D01*
X339200310Y-94791702D01*
X339376551Y-94747642D01*
X339502858Y-94747642D01*
X339679098Y-94791702D01*
G37*
G36*
X339321817Y-92847157D02*
G01*
X339352641Y-92877981D01*
X339387395Y-92947487D01*
X339387395Y-93239976D01*
X339008204Y-93239976D01*
X339008204Y-92947487D01*
X339042956Y-92877982D01*
X339073782Y-92847156D01*
X339143288Y-92812404D01*
X339252311Y-92812404D01*
X339321817Y-92847157D01*
G37*
G36*
X340169347Y-99537357D02*
G01*
X338710061Y-99537357D01*
X338710061Y-99315714D01*
X338855204Y-99315714D01*
X338862001Y-99334389D01*
X338865453Y-99353964D01*
X338870741Y-99358401D01*
X338873102Y-99364887D01*
X338890313Y-99374824D01*
X338905539Y-99387600D01*
X338915476Y-99389352D01*
X338918420Y-99391052D01*
X338921767Y-99390461D01*
X338931704Y-99392214D01*
X339947704Y-99392214D01*
X339966379Y-99385416D01*
X339985954Y-99381965D01*
X339990391Y-99376676D01*
X339996877Y-99374316D01*
X340006814Y-99357104D01*
X340019590Y-99341879D01*
X340021342Y-99331941D01*
X340023042Y-99328998D01*
X340022451Y-99325650D01*
X340024204Y-99315714D01*
X340024204Y-98831904D01*
X340006306Y-98782731D01*
X339960988Y-98756566D01*
X339909454Y-98765653D01*
X339875818Y-98805739D01*
X339871204Y-98831904D01*
X339871204Y-99239214D01*
X339492014Y-99239214D01*
X339492014Y-98977047D01*
X339474116Y-98927874D01*
X339428798Y-98901709D01*
X339377264Y-98910796D01*
X339343628Y-98950882D01*
X339339014Y-98977047D01*
X339339014Y-99239214D01*
X339008204Y-99239214D01*
X339008204Y-98831904D01*
X338990306Y-98782731D01*
X338944988Y-98756566D01*
X338893454Y-98765653D01*
X338859818Y-98805739D01*
X338855204Y-98831904D01*
X338855204Y-99315714D01*
X338710061Y-99315714D01*
X338710061Y-98383192D01*
X338856366Y-98383192D01*
X338859789Y-98402608D01*
X338859702Y-98422320D01*
X338864224Y-98427758D01*
X338865453Y-98434726D01*
X338880554Y-98447397D01*
X338893159Y-98462556D01*
X338900120Y-98463815D01*
X338905539Y-98468362D01*
X338931704Y-98472976D01*
X339947704Y-98472976D01*
X339996877Y-98455078D01*
X340023042Y-98409760D01*
X340013955Y-98358226D01*
X339973869Y-98324590D01*
X339947704Y-98319976D01*
X339219770Y-98319976D01*
X339985658Y-97882325D01*
X339990229Y-97876925D01*
X339996877Y-97874506D01*
X340006734Y-97857432D01*
X340019473Y-97842388D01*
X340019504Y-97835314D01*
X340023042Y-97829188D01*
X340019618Y-97809771D01*
X340019706Y-97790060D01*
X340015183Y-97784621D01*
X340013955Y-97777654D01*
X339998851Y-97764980D01*
X339986248Y-97749824D01*
X339979287Y-97748564D01*
X339973869Y-97744018D01*
X339947704Y-97739404D01*
X338931704Y-97739404D01*
X338882531Y-97757302D01*
X338856366Y-97802620D01*
X338865453Y-97854154D01*
X338905539Y-97887790D01*
X338931704Y-97892404D01*
X339659639Y-97892404D01*
X338893749Y-98330055D01*
X338889176Y-98335455D01*
X338882531Y-98337874D01*
X338872674Y-98354945D01*
X338859935Y-98369992D01*
X338859903Y-98377065D01*
X338856366Y-98383192D01*
X338710061Y-98383192D01*
X338710061Y-97041809D01*
X338855204Y-97041809D01*
X338855775Y-97043380D01*
X338859130Y-97066000D01*
X338907511Y-97211143D01*
X338910353Y-97214724D01*
X338910752Y-97219282D01*
X338925991Y-97241046D01*
X339022753Y-97337808D01*
X339024270Y-97338515D01*
X339042635Y-97352138D01*
X339139397Y-97400519D01*
X339142997Y-97400933D01*
X339155055Y-97406311D01*
X339348579Y-97454692D01*
X339352096Y-97454324D01*
X339367133Y-97456976D01*
X339512276Y-97456976D01*
X339515598Y-97455766D01*
X339530830Y-97454692D01*
X339724354Y-97406311D01*
X339727356Y-97404282D01*
X339740012Y-97400519D01*
X339836774Y-97352138D01*
X339837922Y-97350925D01*
X339856656Y-97337808D01*
X339953418Y-97241046D01*
X339955351Y-97236899D01*
X339959247Y-97234506D01*
X339971898Y-97211143D01*
X340020278Y-97066000D01*
X340020232Y-97064331D01*
X340024204Y-97041809D01*
X340024204Y-96945047D01*
X340023631Y-96943475D01*
X340020278Y-96920856D01*
X339971898Y-96775713D01*
X339969054Y-96772130D01*
X339968656Y-96767574D01*
X339953418Y-96745810D01*
X339905037Y-96697429D01*
X339857610Y-96675315D01*
X339807064Y-96688858D01*
X339777050Y-96731723D01*
X339781610Y-96783853D01*
X339796849Y-96805617D01*
X339832461Y-96841229D01*
X339871204Y-96957459D01*
X339871204Y-97029396D01*
X339832461Y-97145626D01*
X339757246Y-97220841D01*
X339679097Y-97259916D01*
X339502858Y-97303976D01*
X339376551Y-97303976D01*
X339200311Y-97259916D01*
X339122163Y-97220842D01*
X339046947Y-97145626D01*
X339008204Y-97029395D01*
X339008204Y-96957460D01*
X339046947Y-96841229D01*
X339082560Y-96805617D01*
X339104674Y-96758190D01*
X339091131Y-96707644D01*
X339048266Y-96677630D01*
X338996136Y-96682191D01*
X338974372Y-96697429D01*
X338925991Y-96745810D01*
X338924058Y-96749955D01*
X338920162Y-96752349D01*
X338907511Y-96775713D01*
X338859130Y-96920856D01*
X338859175Y-96922524D01*
X338855204Y-96945047D01*
X338855204Y-97041809D01*
X338710061Y-97041809D01*
X338710061Y-96122571D01*
X338855204Y-96122571D01*
X338856768Y-96126869D01*
X338855706Y-96131317D01*
X338863280Y-96156783D01*
X338911661Y-96253545D01*
X338912873Y-96254693D01*
X338925991Y-96273427D01*
X339022753Y-96370189D01*
X339029594Y-96373379D01*
X339034028Y-96379489D01*
X339058293Y-96390311D01*
X339251817Y-96438692D01*
X339255334Y-96438324D01*
X339270371Y-96440976D01*
X339609038Y-96440976D01*
X339612360Y-96439766D01*
X339627592Y-96438692D01*
X339821116Y-96390311D01*
X339827371Y-96386085D01*
X339834892Y-96385428D01*
X339856656Y-96370189D01*
X339953418Y-96273427D01*
X339954124Y-96271911D01*
X339967748Y-96253544D01*
X340016128Y-96156782D01*
X340016650Y-96152238D01*
X340019590Y-96148736D01*
X340024204Y-96122571D01*
X340024204Y-95929047D01*
X340022639Y-95924749D01*
X340023702Y-95920302D01*
X340016128Y-95894836D01*
X339967748Y-95798074D01*
X339966534Y-95796925D01*
X339953418Y-95778191D01*
X339856656Y-95681429D01*
X339849814Y-95678238D01*
X339845381Y-95672129D01*
X339821116Y-95661307D01*
X339627592Y-95612926D01*
X339624074Y-95613293D01*
X339609038Y-95610642D01*
X339270371Y-95610642D01*
X339267048Y-95611851D01*
X339251817Y-95612926D01*
X339058293Y-95661307D01*
X339052036Y-95665533D01*
X339044517Y-95666191D01*
X339022753Y-95681429D01*
X338925991Y-95778191D01*
X338925284Y-95779705D01*
X338911661Y-95798073D01*
X338863280Y-95894835D01*
X338862757Y-95899379D01*
X338859818Y-95902882D01*
X338855204Y-95929047D01*
X338855204Y-96122571D01*
X338710061Y-96122571D01*
X338710061Y-95251714D01*
X338855204Y-95251714D01*
X338862001Y-95270389D01*
X338865453Y-95289964D01*
X338870741Y-95294401D01*
X338873102Y-95300887D01*
X338890313Y-95310824D01*
X338905539Y-95323600D01*
X338915476Y-95325352D01*
X338918420Y-95327052D01*
X338921767Y-95326461D01*
X338931704Y-95328214D01*
X339947704Y-95328214D01*
X339966379Y-95321416D01*
X339985954Y-95317965D01*
X339990391Y-95312676D01*
X339996877Y-95310316D01*
X340006814Y-95293104D01*
X340019590Y-95277879D01*
X340021342Y-95267941D01*
X340023042Y-95264998D01*
X340022451Y-95261650D01*
X340024204Y-95251714D01*
X340024204Y-95009809D01*
X340023631Y-95008237D01*
X340020278Y-94985618D01*
X339971898Y-94840475D01*
X339969054Y-94836892D01*
X339968656Y-94832336D01*
X339953418Y-94810572D01*
X339856656Y-94713810D01*
X339855141Y-94713103D01*
X339836774Y-94699480D01*
X339740012Y-94651099D01*
X339736411Y-94650684D01*
X339724354Y-94645307D01*
X339530830Y-94596926D01*
X339527312Y-94597293D01*
X339512276Y-94594642D01*
X339367133Y-94594642D01*
X339363810Y-94595851D01*
X339348579Y-94596926D01*
X339155055Y-94645307D01*
X339152052Y-94647335D01*
X339139397Y-94651099D01*
X339042635Y-94699480D01*
X339041484Y-94700695D01*
X339022753Y-94713810D01*
X338925991Y-94810572D01*
X338924058Y-94814717D01*
X338920162Y-94817111D01*
X338907511Y-94840475D01*
X338859130Y-94985618D01*
X338859175Y-94987286D01*
X338855204Y-95009809D01*
X338855204Y-95251714D01*
X338710061Y-95251714D01*
X338710061Y-94235714D01*
X338855204Y-94235714D01*
X338862001Y-94254389D01*
X338865453Y-94273964D01*
X338870741Y-94278401D01*
X338873102Y-94284887D01*
X338890313Y-94294824D01*
X338905539Y-94307600D01*
X338915476Y-94309352D01*
X338918420Y-94311052D01*
X338921767Y-94310461D01*
X338931704Y-94312214D01*
X339947704Y-94312214D01*
X339966379Y-94305416D01*
X339985954Y-94301965D01*
X339990391Y-94296676D01*
X339996877Y-94294316D01*
X340006814Y-94277104D01*
X340019590Y-94261879D01*
X340021342Y-94251941D01*
X340023042Y-94248998D01*
X340022451Y-94245650D01*
X340024204Y-94235714D01*
X340024204Y-93751904D01*
X340006306Y-93702731D01*
X339960988Y-93676566D01*
X339909454Y-93685653D01*
X339875818Y-93725739D01*
X339871204Y-93751904D01*
X339871204Y-94159214D01*
X339492014Y-94159214D01*
X339492014Y-93897047D01*
X339474116Y-93847874D01*
X339428798Y-93821709D01*
X339377264Y-93830796D01*
X339343628Y-93870882D01*
X339339014Y-93897047D01*
X339339014Y-94159214D01*
X339008204Y-94159214D01*
X339008204Y-93751904D01*
X338990306Y-93702731D01*
X338944988Y-93676566D01*
X338893454Y-93685653D01*
X338859818Y-93725739D01*
X338855204Y-93751904D01*
X338855204Y-94235714D01*
X338710061Y-94235714D01*
X338710061Y-93316476D01*
X338855204Y-93316476D01*
X338862001Y-93335151D01*
X338865453Y-93354726D01*
X338870741Y-93359163D01*
X338873102Y-93365649D01*
X338890313Y-93375586D01*
X338905539Y-93388362D01*
X338915476Y-93390114D01*
X338918420Y-93391814D01*
X338921767Y-93391223D01*
X338931704Y-93392976D01*
X339947704Y-93392976D01*
X339996877Y-93375078D01*
X340023042Y-93329760D01*
X340013955Y-93278226D01*
X339973869Y-93244590D01*
X339947704Y-93239976D01*
X339540395Y-93239976D01*
X339540395Y-93114400D01*
X339991574Y-92798575D01*
X340021595Y-92755713D01*
X340017042Y-92703583D01*
X339980044Y-92666576D01*
X339927916Y-92662008D01*
X339903834Y-92673233D01*
X339539876Y-92928003D01*
X339538830Y-92925129D01*
X339539893Y-92920682D01*
X339532319Y-92895216D01*
X339483938Y-92798454D01*
X339482722Y-92797303D01*
X339469608Y-92778572D01*
X339421227Y-92730191D01*
X339419712Y-92729484D01*
X339401345Y-92715861D01*
X339304583Y-92667480D01*
X339300038Y-92666957D01*
X339296536Y-92664018D01*
X339270371Y-92659404D01*
X339125228Y-92659404D01*
X339120929Y-92660968D01*
X339116482Y-92659906D01*
X339091016Y-92667480D01*
X338994254Y-92715861D01*
X338993103Y-92717076D01*
X338974372Y-92730191D01*
X338925991Y-92778572D01*
X338925284Y-92780086D01*
X338911661Y-92798454D01*
X338863280Y-92895216D01*
X338862757Y-92899760D01*
X338859818Y-92903263D01*
X338855204Y-92929428D01*
X338855204Y-93316476D01*
X338710061Y-93316476D01*
X338710061Y-92514261D01*
X340169347Y-92514261D01*
X340169347Y-99537357D01*
G37*
G36*
X325517817Y-75741701D02*
G01*
X325595966Y-75780776D01*
X325671181Y-75855991D01*
X325709924Y-75972221D01*
X325709924Y-76125214D01*
X324846924Y-76125214D01*
X324846924Y-75972222D01*
X324885667Y-75855991D01*
X324960883Y-75780776D01*
X325039031Y-75741701D01*
X325215271Y-75697642D01*
X325341578Y-75697642D01*
X325517817Y-75741701D01*
G37*
G36*
X326008067Y-78600500D02*
G01*
X324548781Y-78600500D01*
X324548781Y-78185333D01*
X324693924Y-78185333D01*
X324695488Y-78189631D01*
X324694426Y-78194079D01*
X324702000Y-78219545D01*
X324750381Y-78316307D01*
X324751593Y-78317455D01*
X324764711Y-78336189D01*
X324813092Y-78384570D01*
X324814609Y-78385277D01*
X324832974Y-78398900D01*
X324929736Y-78447281D01*
X324934280Y-78447803D01*
X324937783Y-78450743D01*
X324963948Y-78455357D01*
X325060710Y-78455357D01*
X325065008Y-78453792D01*
X325069456Y-78454855D01*
X325094922Y-78447281D01*
X325191684Y-78398900D01*
X325192832Y-78397687D01*
X325211566Y-78384570D01*
X325259947Y-78336189D01*
X325260654Y-78334671D01*
X325274277Y-78316307D01*
X325322658Y-78219545D01*
X325323072Y-78215944D01*
X325328450Y-78203887D01*
X325374794Y-78018510D01*
X325413867Y-77940363D01*
X325444692Y-77909538D01*
X325514199Y-77874785D01*
X325574841Y-77874785D01*
X325644347Y-77909538D01*
X325675172Y-77940363D01*
X325709924Y-78009867D01*
X325709924Y-78221301D01*
X325665470Y-78354666D01*
X325666900Y-78406975D01*
X325701618Y-78446128D01*
X325753381Y-78453804D01*
X325797967Y-78426411D01*
X325810618Y-78403048D01*
X325858998Y-78257905D01*
X325858952Y-78256236D01*
X325862924Y-78233714D01*
X325862924Y-77991809D01*
X325861359Y-77987511D01*
X325862422Y-77983064D01*
X325854848Y-77957598D01*
X325806468Y-77860836D01*
X325805254Y-77859687D01*
X325792138Y-77840953D01*
X325743757Y-77792572D01*
X325742242Y-77791865D01*
X325723875Y-77778242D01*
X325627113Y-77729861D01*
X325622568Y-77729338D01*
X325619066Y-77726399D01*
X325592901Y-77721785D01*
X325496139Y-77721785D01*
X325491840Y-77723349D01*
X325487393Y-77722287D01*
X325461927Y-77729861D01*
X325365165Y-77778242D01*
X325364014Y-77779457D01*
X325345283Y-77792572D01*
X325296902Y-77840953D01*
X325296195Y-77842467D01*
X325282572Y-77860835D01*
X325234191Y-77957597D01*
X325233776Y-77961197D01*
X325228399Y-77973255D01*
X325182054Y-78158631D01*
X325142981Y-78236778D01*
X325112156Y-78267604D01*
X325042650Y-78302357D01*
X324982008Y-78302357D01*
X324912502Y-78267603D01*
X324881677Y-78236779D01*
X324846924Y-78167273D01*
X324846924Y-77955841D01*
X324891379Y-77822477D01*
X324889950Y-77770167D01*
X324855231Y-77731014D01*
X324803468Y-77723338D01*
X324758882Y-77750730D01*
X324746231Y-77774094D01*
X324697850Y-77919237D01*
X324697895Y-77920905D01*
X324693924Y-77943428D01*
X324693924Y-78185333D01*
X324548781Y-78185333D01*
X324548781Y-77464146D01*
X324694058Y-77464146D01*
X324714834Y-77512174D01*
X324761621Y-77535611D01*
X324788143Y-77534039D01*
X325804143Y-77292134D01*
X325810844Y-77287715D01*
X325818837Y-77287007D01*
X325832123Y-77273688D01*
X325847833Y-77263333D01*
X325850126Y-77255642D01*
X325855795Y-77249961D01*
X325857412Y-77231215D01*
X325862790Y-77213187D01*
X325859603Y-77205821D01*
X325860294Y-77197826D01*
X325849483Y-77182426D01*
X325842014Y-77165159D01*
X325834838Y-77161564D01*
X325830228Y-77154997D01*
X325806135Y-77143797D01*
X325357609Y-77024190D01*
X325806135Y-76904583D01*
X325812714Y-76899987D01*
X325820686Y-76899064D01*
X325833612Y-76885391D01*
X325849036Y-76874619D01*
X325851122Y-76866871D01*
X325856636Y-76861039D01*
X325857749Y-76842256D01*
X325862641Y-76824090D01*
X325859258Y-76816812D01*
X325859733Y-76808801D01*
X325848512Y-76793696D01*
X325840582Y-76776637D01*
X325833313Y-76773237D01*
X325828528Y-76766795D01*
X325804143Y-76756246D01*
X324788143Y-76514342D01*
X324736162Y-76520364D01*
X324700212Y-76558389D01*
X324697115Y-76610627D01*
X324728320Y-76652633D01*
X324752705Y-76663182D01*
X325473777Y-76834865D01*
X325040999Y-76950273D01*
X325035263Y-76954278D01*
X325028297Y-76954897D01*
X325014321Y-76968905D01*
X324998098Y-76980237D01*
X324996279Y-76986990D01*
X324991339Y-76991943D01*
X324989637Y-77011658D01*
X324984493Y-77030766D01*
X324987441Y-77037108D01*
X324986840Y-77044078D01*
X324998211Y-77060276D01*
X325006552Y-77078219D01*
X325012887Y-77081182D01*
X325016906Y-77086907D01*
X325040999Y-77098107D01*
X325473777Y-77213514D01*
X324752705Y-77385199D01*
X324709015Y-77414000D01*
X324694058Y-77464146D01*
X324548781Y-77464146D01*
X324548781Y-76201714D01*
X324693924Y-76201714D01*
X324700721Y-76220389D01*
X324704173Y-76239964D01*
X324709461Y-76244401D01*
X324711822Y-76250887D01*
X324729033Y-76260824D01*
X324744259Y-76273600D01*
X324754196Y-76275352D01*
X324757140Y-76277052D01*
X324760487Y-76276461D01*
X324770424Y-76278214D01*
X325786424Y-76278214D01*
X325805099Y-76271416D01*
X325824674Y-76267965D01*
X325829111Y-76262676D01*
X325835597Y-76260316D01*
X325845534Y-76243104D01*
X325858310Y-76227879D01*
X325860062Y-76217941D01*
X325861762Y-76214998D01*
X325861171Y-76211650D01*
X325862924Y-76201714D01*
X325862924Y-75959809D01*
X325862351Y-75958237D01*
X325858998Y-75935618D01*
X325810618Y-75790475D01*
X325807774Y-75786892D01*
X325807376Y-75782336D01*
X325792138Y-75760572D01*
X325695376Y-75663810D01*
X325693861Y-75663103D01*
X325675494Y-75649480D01*
X325578732Y-75601099D01*
X325575131Y-75600684D01*
X325563074Y-75595307D01*
X325369550Y-75546926D01*
X325366032Y-75547293D01*
X325350996Y-75544642D01*
X325205853Y-75544642D01*
X325202530Y-75545851D01*
X325187299Y-75546926D01*
X324993775Y-75595307D01*
X324990772Y-75597335D01*
X324978117Y-75601099D01*
X324881355Y-75649480D01*
X324880204Y-75650695D01*
X324861473Y-75663810D01*
X324764711Y-75760572D01*
X324762778Y-75764717D01*
X324758882Y-75767111D01*
X324746231Y-75790475D01*
X324697850Y-75935618D01*
X324697895Y-75937286D01*
X324693924Y-75959809D01*
X324693924Y-76201714D01*
X324548781Y-76201714D01*
X324548781Y-75399499D01*
X326008067Y-75399499D01*
X326008067Y-78600500D01*
G37*
X322349445Y-73125247D02*
X322301064Y-73222009D01*
X322301064Y-73222009D02*
X322301064Y-73367152D01*
X322301064Y-73367152D02*
X322349445Y-73512295D01*
X322349445Y-73512295D02*
X322446207Y-73609057D01*
X322446207Y-73609057D02*
X322542969Y-73657438D01*
X322542969Y-73657438D02*
X322736493Y-73705819D01*
X322736493Y-73705819D02*
X322881636Y-73705819D01*
X322881636Y-73705819D02*
X323075160Y-73657438D01*
X323075160Y-73657438D02*
X323171922Y-73609057D01*
X323171922Y-73609057D02*
X323268684Y-73512295D01*
X323268684Y-73512295D02*
X323317064Y-73367152D01*
X323317064Y-73367152D02*
X323317064Y-73270390D01*
X323317064Y-73270390D02*
X323268684Y-73125247D01*
X323268684Y-73125247D02*
X323220303Y-73076866D01*
X323220303Y-73076866D02*
X322881636Y-73076866D01*
X322881636Y-73076866D02*
X322881636Y-73270390D01*
X323317064Y-72641438D02*
X322301064Y-72641438D01*
X322301064Y-72641438D02*
X323317064Y-72060866D01*
X323317064Y-72060866D02*
X322301064Y-72060866D01*
X323317064Y-71577057D02*
X322301064Y-71577057D01*
X322301064Y-71577057D02*
X322301064Y-71335152D01*
X322301064Y-71335152D02*
X322349445Y-71190009D01*
X322349445Y-71190009D02*
X322446207Y-71093247D01*
X322446207Y-71093247D02*
X322542969Y-71044866D01*
X322542969Y-71044866D02*
X322736493Y-70996485D01*
X322736493Y-70996485D02*
X322881636Y-70996485D01*
X322881636Y-70996485D02*
X323075160Y-71044866D01*
X323075160Y-71044866D02*
X323171922Y-71093247D01*
X323171922Y-71093247D02*
X323268684Y-71190009D01*
X323268684Y-71190009D02*
X323317064Y-71335152D01*
X323317064Y-71335152D02*
X323317064Y-71577057D01*
X320728684Y-84890371D02*
X320777064Y-84745228D01*
X320777064Y-84745228D02*
X320777064Y-84503323D01*
X320777064Y-84503323D02*
X320728684Y-84406561D01*
X320728684Y-84406561D02*
X320680303Y-84358180D01*
X320680303Y-84358180D02*
X320583541Y-84309799D01*
X320583541Y-84309799D02*
X320486779Y-84309799D01*
X320486779Y-84309799D02*
X320390017Y-84358180D01*
X320390017Y-84358180D02*
X320341636Y-84406561D01*
X320341636Y-84406561D02*
X320293255Y-84503323D01*
X320293255Y-84503323D02*
X320244874Y-84696847D01*
X320244874Y-84696847D02*
X320196493Y-84793609D01*
X320196493Y-84793609D02*
X320148112Y-84841990D01*
X320148112Y-84841990D02*
X320051350Y-84890371D01*
X320051350Y-84890371D02*
X319954588Y-84890371D01*
X319954588Y-84890371D02*
X319857826Y-84841990D01*
X319857826Y-84841990D02*
X319809445Y-84793609D01*
X319809445Y-84793609D02*
X319761064Y-84696847D01*
X319761064Y-84696847D02*
X319761064Y-84454942D01*
X319761064Y-84454942D02*
X319809445Y-84309799D01*
X319761064Y-83971133D02*
X320777064Y-83729228D01*
X320777064Y-83729228D02*
X320051350Y-83535704D01*
X320051350Y-83535704D02*
X320777064Y-83342180D01*
X320777064Y-83342180D02*
X319761064Y-83100276D01*
X320680303Y-82132656D02*
X320728684Y-82181037D01*
X320728684Y-82181037D02*
X320777064Y-82326180D01*
X320777064Y-82326180D02*
X320777064Y-82422942D01*
X320777064Y-82422942D02*
X320728684Y-82568085D01*
X320728684Y-82568085D02*
X320631922Y-82664847D01*
X320631922Y-82664847D02*
X320535160Y-82713228D01*
X320535160Y-82713228D02*
X320341636Y-82761609D01*
X320341636Y-82761609D02*
X320196493Y-82761609D01*
X320196493Y-82761609D02*
X320002969Y-82713228D01*
X320002969Y-82713228D02*
X319906207Y-82664847D01*
X319906207Y-82664847D02*
X319809445Y-82568085D01*
X319809445Y-82568085D02*
X319761064Y-82422942D01*
X319761064Y-82422942D02*
X319761064Y-82326180D01*
X319761064Y-82326180D02*
X319809445Y-82181037D01*
X319809445Y-82181037D02*
X319857826Y-82132656D01*
X320777064Y-81213418D02*
X320777064Y-81697228D01*
X320777064Y-81697228D02*
X319761064Y-81697228D01*
X320777064Y-80874752D02*
X319761064Y-80874752D01*
X320777064Y-80294180D02*
X320196493Y-80729609D01*
X319761064Y-80294180D02*
X320341636Y-80874752D01*
X309847057Y-80150085D02*
X309750295Y-80101704D01*
X309750295Y-80101704D02*
X309605152Y-80101704D01*
X309605152Y-80101704D02*
X309460009Y-80150085D01*
X309460009Y-80150085D02*
X309363247Y-80246847D01*
X309363247Y-80246847D02*
X309314866Y-80343609D01*
X309314866Y-80343609D02*
X309266485Y-80537133D01*
X309266485Y-80537133D02*
X309266485Y-80682276D01*
X309266485Y-80682276D02*
X309314866Y-80875800D01*
X309314866Y-80875800D02*
X309363247Y-80972562D01*
X309363247Y-80972562D02*
X309460009Y-81069324D01*
X309460009Y-81069324D02*
X309605152Y-81117704D01*
X309605152Y-81117704D02*
X309701914Y-81117704D01*
X309701914Y-81117704D02*
X309847057Y-81069324D01*
X309847057Y-81069324D02*
X309895438Y-81020943D01*
X309895438Y-81020943D02*
X309895438Y-80682276D01*
X309895438Y-80682276D02*
X309701914Y-80682276D01*
X310330866Y-81117704D02*
X310330866Y-80101704D01*
X310330866Y-80101704D02*
X310911438Y-81117704D01*
X310911438Y-81117704D02*
X310911438Y-80101704D01*
X311395247Y-81117704D02*
X311395247Y-80101704D01*
X311395247Y-80101704D02*
X311637152Y-80101704D01*
X311637152Y-80101704D02*
X311782295Y-80150085D01*
X311782295Y-80150085D02*
X311879057Y-80246847D01*
X311879057Y-80246847D02*
X311927438Y-80343609D01*
X311927438Y-80343609D02*
X311975819Y-80537133D01*
X311975819Y-80537133D02*
X311975819Y-80682276D01*
X311975819Y-80682276D02*
X311927438Y-80875800D01*
X311927438Y-80875800D02*
X311879057Y-80972562D01*
X311879057Y-80972562D02*
X311782295Y-81069324D01*
X311782295Y-81069324D02*
X311637152Y-81117704D01*
X311637152Y-81117704D02*
X311395247Y-81117704D01*
X309556771Y-75902657D02*
X309701914Y-75951037D01*
X309701914Y-75951037D02*
X309943819Y-75951037D01*
X309943819Y-75951037D02*
X310040581Y-75902657D01*
X310040581Y-75902657D02*
X310088962Y-75854276D01*
X310088962Y-75854276D02*
X310137343Y-75757514D01*
X310137343Y-75757514D02*
X310137343Y-75660752D01*
X310137343Y-75660752D02*
X310088962Y-75563990D01*
X310088962Y-75563990D02*
X310040581Y-75515609D01*
X310040581Y-75515609D02*
X309943819Y-75467228D01*
X309943819Y-75467228D02*
X309750295Y-75418847D01*
X309750295Y-75418847D02*
X309653533Y-75370466D01*
X309653533Y-75370466D02*
X309605152Y-75322085D01*
X309605152Y-75322085D02*
X309556771Y-75225323D01*
X309556771Y-75225323D02*
X309556771Y-75128561D01*
X309556771Y-75128561D02*
X309605152Y-75031799D01*
X309605152Y-75031799D02*
X309653533Y-74983418D01*
X309653533Y-74983418D02*
X309750295Y-74935037D01*
X309750295Y-74935037D02*
X309992200Y-74935037D01*
X309992200Y-74935037D02*
X310137343Y-74983418D01*
X311153343Y-75854276D02*
X311104962Y-75902657D01*
X311104962Y-75902657D02*
X310959819Y-75951037D01*
X310959819Y-75951037D02*
X310863057Y-75951037D01*
X310863057Y-75951037D02*
X310717914Y-75902657D01*
X310717914Y-75902657D02*
X310621152Y-75805895D01*
X310621152Y-75805895D02*
X310572771Y-75709133D01*
X310572771Y-75709133D02*
X310524390Y-75515609D01*
X310524390Y-75515609D02*
X310524390Y-75370466D01*
X310524390Y-75370466D02*
X310572771Y-75176942D01*
X310572771Y-75176942D02*
X310621152Y-75080180D01*
X310621152Y-75080180D02*
X310717914Y-74983418D01*
X310717914Y-74983418D02*
X310863057Y-74935037D01*
X310863057Y-74935037D02*
X310959819Y-74935037D01*
X310959819Y-74935037D02*
X311104962Y-74983418D01*
X311104962Y-74983418D02*
X311153343Y-75031799D01*
X312072581Y-75951037D02*
X311588771Y-75951037D01*
X311588771Y-75951037D02*
X311588771Y-74935037D01*
X309847056Y-77518370D02*
X310185723Y-78534370D01*
X310185723Y-78534370D02*
X310524390Y-77518370D01*
X310863056Y-78534370D02*
X310863056Y-77518370D01*
X311346866Y-78534370D02*
X311346866Y-77518370D01*
X311346866Y-77518370D02*
X311927438Y-78534370D01*
X311927438Y-78534370D02*
X311927438Y-77518370D01*
X309508390Y-73319324D02*
X309653533Y-73367704D01*
X309653533Y-73367704D02*
X309895438Y-73367704D01*
X309895438Y-73367704D02*
X309992200Y-73319324D01*
X309992200Y-73319324D02*
X310040581Y-73270943D01*
X310040581Y-73270943D02*
X310088962Y-73174181D01*
X310088962Y-73174181D02*
X310088962Y-73077419D01*
X310088962Y-73077419D02*
X310040581Y-72980657D01*
X310040581Y-72980657D02*
X309992200Y-72932276D01*
X309992200Y-72932276D02*
X309895438Y-72883895D01*
X309895438Y-72883895D02*
X309701914Y-72835514D01*
X309701914Y-72835514D02*
X309605152Y-72787133D01*
X309605152Y-72787133D02*
X309556771Y-72738752D01*
X309556771Y-72738752D02*
X309508390Y-72641990D01*
X309508390Y-72641990D02*
X309508390Y-72545228D01*
X309508390Y-72545228D02*
X309556771Y-72448466D01*
X309556771Y-72448466D02*
X309605152Y-72400085D01*
X309605152Y-72400085D02*
X309701914Y-72351704D01*
X309701914Y-72351704D02*
X309943819Y-72351704D01*
X309943819Y-72351704D02*
X310088962Y-72400085D01*
X310524390Y-73367704D02*
X310524390Y-72351704D01*
X310524390Y-72351704D02*
X310766295Y-72351704D01*
X310766295Y-72351704D02*
X310911438Y-72400085D01*
X310911438Y-72400085D02*
X311008200Y-72496847D01*
X311008200Y-72496847D02*
X311056581Y-72593609D01*
X311056581Y-72593609D02*
X311104962Y-72787133D01*
X311104962Y-72787133D02*
X311104962Y-72932276D01*
X311104962Y-72932276D02*
X311056581Y-73125800D01*
X311056581Y-73125800D02*
X311008200Y-73222562D01*
X311008200Y-73222562D02*
X310911438Y-73319324D01*
X310911438Y-73319324D02*
X310766295Y-73367704D01*
X310766295Y-73367704D02*
X310524390Y-73367704D01*
X311492009Y-73077419D02*
X311975819Y-73077419D01*
X311395247Y-73367704D02*
X311733914Y-72351704D01*
X311733914Y-72351704D02*
X312072581Y-73367704D01*
%TO.C,JP1*%
X337890000Y-73880000D02*
X337890000Y-72550000D01*
X339220000Y-73880000D02*
X337890000Y-73880000D01*
X340490000Y-73880000D02*
X343090000Y-73880000D01*
X340490000Y-73880000D02*
X340490000Y-71220000D01*
X343090000Y-73880000D02*
X343090000Y-71220000D01*
X340490000Y-71220000D02*
X343090000Y-71220000D01*
%TO.C,G\u002A\u002A\u002A*%
X336605055Y-72626208D02*
X336607136Y-72629721D01*
X336612894Y-72639613D01*
X336622105Y-72655493D01*
X336634543Y-72676972D01*
X336649983Y-72703659D01*
X336668201Y-72735164D01*
X336688972Y-72771098D01*
X336712069Y-72811070D01*
X336737269Y-72854690D01*
X336764346Y-72901569D01*
X336793075Y-72951315D01*
X336823231Y-73003541D01*
X336854589Y-73057854D01*
X336886924Y-73113866D01*
X336920010Y-73171186D01*
X336953623Y-73229424D01*
X336987538Y-73288191D01*
X337021530Y-73347095D01*
X337055373Y-73405748D01*
X337088843Y-73463759D01*
X337121713Y-73520739D01*
X337153761Y-73576296D01*
X337184759Y-73630042D01*
X337214484Y-73681585D01*
X337242710Y-73730537D01*
X337269212Y-73776507D01*
X337293765Y-73819106D01*
X337316144Y-73857942D01*
X337336123Y-73892626D01*
X337353479Y-73922769D01*
X337367985Y-73947979D01*
X337379417Y-73967868D01*
X337387550Y-73982044D01*
X337392158Y-73990119D01*
X337393038Y-73991687D01*
X337392082Y-73994337D01*
X337391481Y-73994341D01*
X337387835Y-73992388D01*
X337377750Y-73986707D01*
X337361549Y-73977486D01*
X337339556Y-73964910D01*
X337312093Y-73949166D01*
X337279484Y-73930440D01*
X337242053Y-73908918D01*
X337200123Y-73884785D01*
X337154016Y-73858229D01*
X337104057Y-73829436D01*
X337050568Y-73798591D01*
X336993874Y-73765880D01*
X336934296Y-73731491D01*
X336872159Y-73695609D01*
X336807786Y-73658420D01*
X336741500Y-73620111D01*
X336717076Y-73605992D01*
X336650183Y-73567314D01*
X336585096Y-73529672D01*
X336522139Y-73493253D01*
X336461633Y-73458244D01*
X336403902Y-73424832D01*
X336349268Y-73393204D01*
X336298054Y-73363548D01*
X336250583Y-73336049D01*
X336207178Y-73310896D01*
X336168162Y-73288274D01*
X336133856Y-73268372D01*
X336104585Y-73251376D01*
X336080670Y-73237473D01*
X336062435Y-73226850D01*
X336050202Y-73219695D01*
X336044294Y-73216194D01*
X336043777Y-73215863D01*
X336045771Y-73212611D01*
X336052534Y-73204752D01*
X336063263Y-73193151D01*
X336077153Y-73178677D01*
X336093399Y-73162197D01*
X336095843Y-73159753D01*
X336110129Y-73145391D01*
X336124890Y-73130349D01*
X336140631Y-73114089D01*
X336157858Y-73096073D01*
X336177079Y-73075762D01*
X336198799Y-73052616D01*
X336223524Y-73026099D01*
X336251762Y-72995671D01*
X336284018Y-72960794D01*
X336320799Y-72920929D01*
X336339348Y-72900800D01*
X336364763Y-72873348D01*
X336391303Y-72844928D01*
X336418436Y-72816093D01*
X336445627Y-72787394D01*
X336472343Y-72759381D01*
X336498050Y-72732607D01*
X336522216Y-72707623D01*
X336544307Y-72684979D01*
X336563789Y-72665227D01*
X336580129Y-72648919D01*
X336592793Y-72636605D01*
X336601248Y-72628838D01*
X336604960Y-72626167D01*
X336605055Y-72626208D01*
G36*
X336605055Y-72626208D02*
G01*
X336607136Y-72629721D01*
X336612894Y-72639613D01*
X336622105Y-72655493D01*
X336634543Y-72676972D01*
X336649983Y-72703659D01*
X336668201Y-72735164D01*
X336688972Y-72771098D01*
X336712069Y-72811070D01*
X336737269Y-72854690D01*
X336764346Y-72901569D01*
X336793075Y-72951315D01*
X336823231Y-73003541D01*
X336854589Y-73057854D01*
X336886924Y-73113866D01*
X336920010Y-73171186D01*
X336953623Y-73229424D01*
X336987538Y-73288191D01*
X337021530Y-73347095D01*
X337055373Y-73405748D01*
X337088843Y-73463759D01*
X337121713Y-73520739D01*
X337153761Y-73576296D01*
X337184759Y-73630042D01*
X337214484Y-73681585D01*
X337242710Y-73730537D01*
X337269212Y-73776507D01*
X337293765Y-73819106D01*
X337316144Y-73857942D01*
X337336123Y-73892626D01*
X337353479Y-73922769D01*
X337367985Y-73947979D01*
X337379417Y-73967868D01*
X337387550Y-73982044D01*
X337392158Y-73990119D01*
X337393038Y-73991687D01*
X337392082Y-73994337D01*
X337391481Y-73994341D01*
X337387835Y-73992388D01*
X337377750Y-73986707D01*
X337361549Y-73977486D01*
X337339556Y-73964910D01*
X337312093Y-73949166D01*
X337279484Y-73930440D01*
X337242053Y-73908918D01*
X337200123Y-73884785D01*
X337154016Y-73858229D01*
X337104057Y-73829436D01*
X337050568Y-73798591D01*
X336993874Y-73765880D01*
X336934296Y-73731491D01*
X336872159Y-73695609D01*
X336807786Y-73658420D01*
X336741500Y-73620111D01*
X336717076Y-73605992D01*
X336650183Y-73567314D01*
X336585096Y-73529672D01*
X336522139Y-73493253D01*
X336461633Y-73458244D01*
X336403902Y-73424832D01*
X336349268Y-73393204D01*
X336298054Y-73363548D01*
X336250583Y-73336049D01*
X336207178Y-73310896D01*
X336168162Y-73288274D01*
X336133856Y-73268372D01*
X336104585Y-73251376D01*
X336080670Y-73237473D01*
X336062435Y-73226850D01*
X336050202Y-73219695D01*
X336044294Y-73216194D01*
X336043777Y-73215863D01*
X336045771Y-73212611D01*
X336052534Y-73204752D01*
X336063263Y-73193151D01*
X336077153Y-73178677D01*
X336093399Y-73162197D01*
X336095843Y-73159753D01*
X336110129Y-73145391D01*
X336124890Y-73130349D01*
X336140631Y-73114089D01*
X336157858Y-73096073D01*
X336177079Y-73075762D01*
X336198799Y-73052616D01*
X336223524Y-73026099D01*
X336251762Y-72995671D01*
X336284018Y-72960794D01*
X336320799Y-72920929D01*
X336339348Y-72900800D01*
X336364763Y-72873348D01*
X336391303Y-72844928D01*
X336418436Y-72816093D01*
X336445627Y-72787394D01*
X336472343Y-72759381D01*
X336498050Y-72732607D01*
X336522216Y-72707623D01*
X336544307Y-72684979D01*
X336563789Y-72665227D01*
X336580129Y-72648919D01*
X336592793Y-72636605D01*
X336601248Y-72628838D01*
X336604960Y-72626167D01*
X336605055Y-72626208D01*
G37*
X335482138Y-70681500D02*
X335487932Y-70691189D01*
X335497152Y-70706850D01*
X335509565Y-70728078D01*
X335524939Y-70754472D01*
X335543042Y-70785628D01*
X335563642Y-70821143D01*
X335586508Y-70860615D01*
X335611406Y-70903641D01*
X335638106Y-70949818D01*
X335666375Y-70998744D01*
X335695981Y-71050015D01*
X335726692Y-71103229D01*
X335758276Y-71157983D01*
X335790502Y-71213874D01*
X335823136Y-71270500D01*
X335855948Y-71327458D01*
X335888705Y-71384344D01*
X335921175Y-71440757D01*
X335953126Y-71496293D01*
X335984326Y-71550549D01*
X336014543Y-71603124D01*
X336043546Y-71653613D01*
X336071101Y-71701615D01*
X336096978Y-71746726D01*
X336120944Y-71788543D01*
X336142767Y-71826665D01*
X336162214Y-71860688D01*
X336179056Y-71890209D01*
X336193058Y-71914826D01*
X336203989Y-71934135D01*
X336211617Y-71947734D01*
X336215711Y-71955221D01*
X336216374Y-71956606D01*
X336213108Y-71960400D01*
X336204037Y-71967208D01*
X336190253Y-71976373D01*
X336172845Y-71987237D01*
X336152905Y-71999140D01*
X336131524Y-72011425D01*
X336109792Y-72023432D01*
X336088800Y-72034505D01*
X336079751Y-72039074D01*
X336015803Y-72068780D01*
X335949353Y-72095497D01*
X335879165Y-72119642D01*
X335804005Y-72141633D01*
X335722640Y-72161887D01*
X335703479Y-72166219D01*
X335669433Y-72173259D01*
X335628378Y-72180799D01*
X335580161Y-72188863D01*
X335524629Y-72197476D01*
X335461627Y-72206663D01*
X335391002Y-72216448D01*
X335385667Y-72217170D01*
X335323106Y-72225782D01*
X335267626Y-72233790D01*
X335218529Y-72241334D01*
X335175120Y-72248556D01*
X335136700Y-72255594D01*
X335102573Y-72262588D01*
X335072043Y-72269680D01*
X335044411Y-72277009D01*
X335018982Y-72284716D01*
X334995058Y-72292940D01*
X334979317Y-72298891D01*
X334932969Y-72319498D01*
X334892794Y-72342988D01*
X334857354Y-72370471D01*
X334825212Y-72403057D01*
X334795707Y-72440761D01*
X334785009Y-72455515D01*
X334775831Y-72467547D01*
X334769144Y-72475627D01*
X334765922Y-72478521D01*
X334765913Y-72478520D01*
X334762012Y-72476531D01*
X334752151Y-72471046D01*
X334737111Y-72462511D01*
X334717678Y-72451377D01*
X334694632Y-72438091D01*
X334668758Y-72423101D01*
X334644011Y-72408707D01*
X334616366Y-72392484D01*
X334590990Y-72377378D01*
X334568648Y-72363860D01*
X334550104Y-72352402D01*
X334536122Y-72343474D01*
X334527467Y-72337550D01*
X334524863Y-72335182D01*
X334526782Y-72331483D01*
X334532401Y-72321383D01*
X334541518Y-72305235D01*
X334553927Y-72283395D01*
X334569426Y-72256215D01*
X334587811Y-72224049D01*
X334608877Y-72187251D01*
X334632421Y-72146174D01*
X334658239Y-72101172D01*
X334686128Y-72052599D01*
X334715882Y-72000808D01*
X334747299Y-71946153D01*
X334780174Y-71888988D01*
X334814304Y-71829666D01*
X334849485Y-71768541D01*
X334885513Y-71705966D01*
X334922184Y-71642295D01*
X334959295Y-71577883D01*
X334996640Y-71513082D01*
X335034018Y-71448246D01*
X335071223Y-71383729D01*
X335108052Y-71319884D01*
X335144301Y-71257065D01*
X335179766Y-71195626D01*
X335214244Y-71135921D01*
X335247530Y-71078302D01*
X335279420Y-71023125D01*
X335309712Y-70970741D01*
X335338200Y-70921506D01*
X335364682Y-70875772D01*
X335388952Y-70833894D01*
X335410808Y-70796224D01*
X335430045Y-70763117D01*
X335446460Y-70734927D01*
X335459849Y-70712006D01*
X335470008Y-70694709D01*
X335476733Y-70683389D01*
X335479820Y-70678400D01*
X335480000Y-70678183D01*
X335482138Y-70681500D01*
G36*
X335482138Y-70681500D02*
G01*
X335487932Y-70691189D01*
X335497152Y-70706850D01*
X335509565Y-70728078D01*
X335524939Y-70754472D01*
X335543042Y-70785628D01*
X335563642Y-70821143D01*
X335586508Y-70860615D01*
X335611406Y-70903641D01*
X335638106Y-70949818D01*
X335666375Y-70998744D01*
X335695981Y-71050015D01*
X335726692Y-71103229D01*
X335758276Y-71157983D01*
X335790502Y-71213874D01*
X335823136Y-71270500D01*
X335855948Y-71327458D01*
X335888705Y-71384344D01*
X335921175Y-71440757D01*
X335953126Y-71496293D01*
X335984326Y-71550549D01*
X336014543Y-71603124D01*
X336043546Y-71653613D01*
X336071101Y-71701615D01*
X336096978Y-71746726D01*
X336120944Y-71788543D01*
X336142767Y-71826665D01*
X336162214Y-71860688D01*
X336179056Y-71890209D01*
X336193058Y-71914826D01*
X336203989Y-71934135D01*
X336211617Y-71947734D01*
X336215711Y-71955221D01*
X336216374Y-71956606D01*
X336213108Y-71960400D01*
X336204037Y-71967208D01*
X336190253Y-71976373D01*
X336172845Y-71987237D01*
X336152905Y-71999140D01*
X336131524Y-72011425D01*
X336109792Y-72023432D01*
X336088800Y-72034505D01*
X336079751Y-72039074D01*
X336015803Y-72068780D01*
X335949353Y-72095497D01*
X335879165Y-72119642D01*
X335804005Y-72141633D01*
X335722640Y-72161887D01*
X335703479Y-72166219D01*
X335669433Y-72173259D01*
X335628378Y-72180799D01*
X335580161Y-72188863D01*
X335524629Y-72197476D01*
X335461627Y-72206663D01*
X335391002Y-72216448D01*
X335385667Y-72217170D01*
X335323106Y-72225782D01*
X335267626Y-72233790D01*
X335218529Y-72241334D01*
X335175120Y-72248556D01*
X335136700Y-72255594D01*
X335102573Y-72262588D01*
X335072043Y-72269680D01*
X335044411Y-72277009D01*
X335018982Y-72284716D01*
X334995058Y-72292940D01*
X334979317Y-72298891D01*
X334932969Y-72319498D01*
X334892794Y-72342988D01*
X334857354Y-72370471D01*
X334825212Y-72403057D01*
X334795707Y-72440761D01*
X334785009Y-72455515D01*
X334775831Y-72467547D01*
X334769144Y-72475627D01*
X334765922Y-72478521D01*
X334765913Y-72478520D01*
X334762012Y-72476531D01*
X334752151Y-72471046D01*
X334737111Y-72462511D01*
X334717678Y-72451377D01*
X334694632Y-72438091D01*
X334668758Y-72423101D01*
X334644011Y-72408707D01*
X334616366Y-72392484D01*
X334590990Y-72377378D01*
X334568648Y-72363860D01*
X334550104Y-72352402D01*
X334536122Y-72343474D01*
X334527467Y-72337550D01*
X334524863Y-72335182D01*
X334526782Y-72331483D01*
X334532401Y-72321383D01*
X334541518Y-72305235D01*
X334553927Y-72283395D01*
X334569426Y-72256215D01*
X334587811Y-72224049D01*
X334608877Y-72187251D01*
X334632421Y-72146174D01*
X334658239Y-72101172D01*
X334686128Y-72052599D01*
X334715882Y-72000808D01*
X334747299Y-71946153D01*
X334780174Y-71888988D01*
X334814304Y-71829666D01*
X334849485Y-71768541D01*
X334885513Y-71705966D01*
X334922184Y-71642295D01*
X334959295Y-71577883D01*
X334996640Y-71513082D01*
X335034018Y-71448246D01*
X335071223Y-71383729D01*
X335108052Y-71319884D01*
X335144301Y-71257065D01*
X335179766Y-71195626D01*
X335214244Y-71135921D01*
X335247530Y-71078302D01*
X335279420Y-71023125D01*
X335309712Y-70970741D01*
X335338200Y-70921506D01*
X335364682Y-70875772D01*
X335388952Y-70833894D01*
X335410808Y-70796224D01*
X335430045Y-70763117D01*
X335446460Y-70734927D01*
X335459849Y-70712006D01*
X335470008Y-70694709D01*
X335476733Y-70683389D01*
X335479820Y-70678400D01*
X335480000Y-70678183D01*
X335482138Y-70681500D01*
G37*
X334440210Y-72734322D02*
X334467030Y-72749855D01*
X334491757Y-72764275D01*
X334513553Y-72777089D01*
X334531585Y-72787801D01*
X334545015Y-72795916D01*
X334553009Y-72800939D01*
X334554854Y-72802267D01*
X334553979Y-72806604D01*
X334549308Y-72816838D01*
X334541249Y-72832280D01*
X334530208Y-72852242D01*
X334516595Y-72876035D01*
X334500815Y-72902969D01*
X334483276Y-72932357D01*
X334464387Y-72963509D01*
X334444553Y-72995736D01*
X334424184Y-73028350D01*
X334403686Y-73060662D01*
X334383565Y-73091831D01*
X334368609Y-73115317D01*
X334355411Y-73137086D01*
X334344660Y-73155935D01*
X334337045Y-73170661D01*
X334333422Y-73179460D01*
X334329801Y-73194824D01*
X334327969Y-73211394D01*
X334328032Y-73230146D01*
X334330094Y-73252055D01*
X334334260Y-73278098D01*
X334340637Y-73309249D01*
X334349330Y-73346485D01*
X334353096Y-73361766D01*
X334359297Y-73387130D01*
X334366579Y-73417681D01*
X334374369Y-73450969D01*
X334382094Y-73484543D01*
X334389181Y-73515955D01*
X334390076Y-73519979D01*
X334401539Y-73570821D01*
X334411847Y-73614623D01*
X334421230Y-73652036D01*
X334429917Y-73683710D01*
X334438138Y-73710294D01*
X334446122Y-73732438D01*
X334454098Y-73750793D01*
X334462296Y-73766009D01*
X334470946Y-73778735D01*
X334480276Y-73789622D01*
X334487818Y-73796935D01*
X334497811Y-73804866D01*
X334507613Y-73809424D01*
X334519248Y-73810927D01*
X334534738Y-73809693D01*
X334551387Y-73806927D01*
X334576439Y-73805332D01*
X334597967Y-73810589D01*
X334616229Y-73822842D01*
X334631481Y-73842236D01*
X334638642Y-73855913D01*
X334641301Y-73862013D01*
X334644039Y-73869047D01*
X334647094Y-73877811D01*
X334650701Y-73889098D01*
X334655100Y-73903702D01*
X334660528Y-73922419D01*
X334667222Y-73946041D01*
X334675419Y-73975363D01*
X334685358Y-74011180D01*
X334688882Y-74023916D01*
X334697799Y-74053586D01*
X334706201Y-74075954D01*
X334714339Y-74091493D01*
X334722467Y-74100675D01*
X334730837Y-74103974D01*
X334731659Y-74103999D01*
X334741154Y-74100444D01*
X334752350Y-74090479D01*
X334764630Y-74075156D01*
X334777377Y-74055528D01*
X334789974Y-74032645D01*
X334798509Y-74014550D01*
X335022360Y-74014550D01*
X335024829Y-74046647D01*
X335034064Y-74077020D01*
X335037452Y-74084182D01*
X335051079Y-74104591D01*
X335067259Y-74117621D01*
X335085892Y-74123240D01*
X335106881Y-74121415D01*
X335126673Y-74113901D01*
X335143495Y-74103558D01*
X335163446Y-74088162D01*
X335185145Y-74069038D01*
X335207207Y-74047512D01*
X335228253Y-74024909D01*
X335246898Y-74002555D01*
X335256944Y-73988977D01*
X335272935Y-73961002D01*
X335283362Y-73931727D01*
X335287919Y-73902672D01*
X335286297Y-73875355D01*
X335282646Y-73861579D01*
X335272588Y-73840389D01*
X335258291Y-73823719D01*
X335238095Y-73809708D01*
X335234686Y-73807844D01*
X335211202Y-73798191D01*
X335189333Y-73795507D01*
X335168321Y-73799965D01*
X335147410Y-73811736D01*
X335125842Y-73830993D01*
X335123956Y-73832979D01*
X335112189Y-73846475D01*
X335098114Y-73864106D01*
X335082981Y-73884140D01*
X335068047Y-73904845D01*
X335054563Y-73924489D01*
X335043785Y-73941341D01*
X335037709Y-73952129D01*
X335026655Y-73982465D01*
X335022360Y-74014550D01*
X334798509Y-74014550D01*
X334801805Y-74007561D01*
X334812253Y-73981327D01*
X334820702Y-73954994D01*
X334822127Y-73949693D01*
X334830634Y-73904309D01*
X334832925Y-73858976D01*
X334829223Y-73814715D01*
X334819752Y-73772544D01*
X334804735Y-73733483D01*
X334784395Y-73698552D01*
X334761058Y-73670825D01*
X334745393Y-73655117D01*
X334734470Y-73642989D01*
X334727518Y-73632483D01*
X334723771Y-73621640D01*
X334722458Y-73608503D01*
X334722811Y-73591111D01*
X334723631Y-73575475D01*
X334725154Y-73539332D01*
X334726011Y-73498222D01*
X334726204Y-73451513D01*
X334725734Y-73398572D01*
X334724599Y-73338767D01*
X334723862Y-73309028D01*
X334721282Y-73211366D01*
X334746649Y-73169423D01*
X334764046Y-73141704D01*
X334783421Y-73112602D01*
X334803626Y-73083718D01*
X334823510Y-73056650D01*
X334841925Y-73033001D01*
X334857721Y-73014370D01*
X334859115Y-73012841D01*
X334880962Y-72989089D01*
X334918121Y-73010260D01*
X334955281Y-73031432D01*
X334933805Y-73051060D01*
X334925356Y-73059305D01*
X334914807Y-73070593D01*
X334901729Y-73085432D01*
X334885692Y-73104329D01*
X334866267Y-73127790D01*
X334843025Y-73156325D01*
X334815536Y-73190439D01*
X334809289Y-73198228D01*
X334800162Y-73211893D01*
X334794012Y-73227072D01*
X334790757Y-73244885D01*
X334790313Y-73266451D01*
X334792597Y-73292890D01*
X334797524Y-73325320D01*
X334799146Y-73334420D01*
X334804723Y-73384455D01*
X334803954Y-73437243D01*
X334796884Y-73491048D01*
X334794697Y-73501875D01*
X334790311Y-73523171D01*
X334787622Y-73539047D01*
X334786448Y-73551666D01*
X334786609Y-73563193D01*
X334787926Y-73575792D01*
X334788303Y-73578564D01*
X334792349Y-73599825D01*
X334798442Y-73622429D01*
X334805747Y-73643798D01*
X334813427Y-73661354D01*
X334817376Y-73668249D01*
X334825656Y-73677945D01*
X334833384Y-73684350D01*
X334839226Y-73687587D01*
X334844814Y-73688219D01*
X334852589Y-73685960D01*
X334864605Y-73680704D01*
X334889520Y-73665306D01*
X334912020Y-73643654D01*
X334930970Y-73617200D01*
X334945238Y-73587396D01*
X334950542Y-73570627D01*
X334954870Y-73549746D01*
X334956345Y-73529736D01*
X334954707Y-73509269D01*
X334949697Y-73487014D01*
X334941054Y-73461643D01*
X334928519Y-73431827D01*
X334919634Y-73412546D01*
X334904063Y-73378712D01*
X334892233Y-73350357D01*
X334884097Y-73326127D01*
X334879605Y-73304671D01*
X334878907Y-73289074D01*
X334944324Y-73289074D01*
X334944329Y-73322160D01*
X334947978Y-73357084D01*
X334954986Y-73391475D01*
X334965070Y-73422960D01*
X334968800Y-73431813D01*
X334981805Y-73457313D01*
X334994347Y-73475092D01*
X335006398Y-73485137D01*
X335017932Y-73487434D01*
X335028923Y-73481969D01*
X335039342Y-73468728D01*
X335039447Y-73468550D01*
X335045305Y-73453825D01*
X335049459Y-73433714D01*
X335051651Y-73410506D01*
X335051621Y-73386495D01*
X335050364Y-73372141D01*
X335047824Y-73356154D01*
X335043822Y-73335534D01*
X335038951Y-73313185D01*
X335034795Y-73295888D01*
X335030128Y-73276085D01*
X335026327Y-73257441D01*
X335023796Y-73242125D01*
X335022941Y-73232695D01*
X335023324Y-73225163D01*
X335025141Y-73218731D01*
X335029390Y-73211912D01*
X335037071Y-73203218D01*
X335049182Y-73191163D01*
X335053936Y-73186565D01*
X335067515Y-73172728D01*
X335078469Y-73160135D01*
X335085573Y-73150262D01*
X335087546Y-73146009D01*
X335087096Y-73133683D01*
X335081479Y-73120471D01*
X335072284Y-73109409D01*
X335066237Y-73105321D01*
X335053323Y-73102984D01*
X335038982Y-73107440D01*
X335023791Y-73117933D01*
X335008328Y-73133705D01*
X334993170Y-73153999D01*
X334978894Y-73178057D01*
X334966077Y-73205120D01*
X334955297Y-73234433D01*
X334948247Y-73260197D01*
X334944324Y-73289074D01*
X334878907Y-73289074D01*
X334878708Y-73284636D01*
X334881358Y-73264668D01*
X334887507Y-73243414D01*
X334897105Y-73219522D01*
X334910104Y-73191639D01*
X334911580Y-73188598D01*
X334922175Y-73168287D01*
X334935300Y-73145244D01*
X334948880Y-73123046D01*
X334955763Y-73112532D01*
X334966223Y-73096273D01*
X334975041Y-73081103D01*
X334981202Y-73068860D01*
X334983603Y-73062064D01*
X334985829Y-73049490D01*
X335063886Y-73094546D01*
X335086178Y-73107441D01*
X335106126Y-73119034D01*
X335122762Y-73128756D01*
X335135114Y-73136041D01*
X335142213Y-73140319D01*
X335143535Y-73141193D01*
X335141638Y-73143564D01*
X335135794Y-73146406D01*
X335119767Y-73156657D01*
X335106302Y-73173373D01*
X335095742Y-73195530D01*
X335088431Y-73222103D01*
X335084708Y-73252068D01*
X335084918Y-73284400D01*
X335085940Y-73295694D01*
X335090445Y-73322650D01*
X335097210Y-73345112D01*
X335105822Y-73362265D01*
X335115867Y-73373294D01*
X335126929Y-73377384D01*
X335127442Y-73377392D01*
X335143156Y-73373884D01*
X335156199Y-73364438D01*
X335165896Y-73350666D01*
X335171574Y-73334185D01*
X335172559Y-73316608D01*
X335168177Y-73299549D01*
X335163416Y-73291227D01*
X335153386Y-73271313D01*
X335150153Y-73250459D01*
X335153596Y-73230251D01*
X335163598Y-73212276D01*
X335169857Y-73205655D01*
X335178428Y-73197075D01*
X335182156Y-73190047D01*
X335182412Y-73181387D01*
X335181954Y-73177523D01*
X335179907Y-73162262D01*
X335198110Y-73172410D01*
X335207851Y-73177909D01*
X335222685Y-73186371D01*
X335240947Y-73196839D01*
X335260970Y-73208361D01*
X335271615Y-73214503D01*
X335292156Y-73226464D01*
X335306757Y-73235301D01*
X335316300Y-73241698D01*
X335321667Y-73246341D01*
X335323740Y-73249915D01*
X335323400Y-73253104D01*
X335322852Y-73254300D01*
X335315489Y-73265779D01*
X335302785Y-73282054D01*
X335284653Y-73303222D01*
X335261011Y-73329377D01*
X335231774Y-73360614D01*
X335196857Y-73397029D01*
X335196456Y-73397443D01*
X335156464Y-73439327D01*
X335121997Y-73476698D01*
X335092612Y-73510086D01*
X335067862Y-73540018D01*
X335047303Y-73567022D01*
X335030492Y-73591626D01*
X335023658Y-73602679D01*
X335010317Y-73626688D01*
X335000081Y-73649411D01*
X334992423Y-73672730D01*
X334986817Y-73698525D01*
X334982739Y-73728675D01*
X334980143Y-73758275D01*
X334978007Y-73786647D01*
X334975482Y-73819011D01*
X334972868Y-73851578D01*
X334970466Y-73880557D01*
X334970234Y-73883282D01*
X334968537Y-73905390D01*
X334967339Y-73925483D01*
X334966712Y-73941946D01*
X334966726Y-73953165D01*
X334967045Y-73956587D01*
X334970017Y-73966179D01*
X334974282Y-73970108D01*
X334980185Y-73968087D01*
X334988072Y-73959830D01*
X334998288Y-73945051D01*
X335011178Y-73923462D01*
X335014921Y-73916856D01*
X335041468Y-73872501D01*
X335067153Y-73835595D01*
X335092266Y-73805857D01*
X335117097Y-73783009D01*
X335141939Y-73766770D01*
X335167081Y-73756862D01*
X335185005Y-73753545D01*
X335205349Y-73753529D01*
X335228507Y-73756741D01*
X335251529Y-73762509D01*
X335271463Y-73770163D01*
X335280535Y-73775261D01*
X335292740Y-73784462D01*
X335302383Y-73794631D01*
X335311250Y-73807992D01*
X335319834Y-73824165D01*
X335328310Y-73839143D01*
X335335815Y-73847196D01*
X335343417Y-73848939D01*
X335352187Y-73844989D01*
X335353875Y-73843792D01*
X335359278Y-73838709D01*
X335368899Y-73828516D01*
X335381946Y-73814099D01*
X335397628Y-73796343D01*
X335415152Y-73776136D01*
X335432336Y-73756005D01*
X335454269Y-73730421D01*
X335478273Y-73702942D01*
X335502771Y-73675339D01*
X335526188Y-73649380D01*
X335546947Y-73626835D01*
X335555390Y-73617865D01*
X335575962Y-73596672D01*
X335597624Y-73575155D01*
X335619608Y-73554004D01*
X335641145Y-73533905D01*
X335661466Y-73515546D01*
X335679801Y-73499616D01*
X335695382Y-73486802D01*
X335707439Y-73477792D01*
X335715205Y-73473274D01*
X335717379Y-73472958D01*
X335721045Y-73475008D01*
X335731103Y-73480749D01*
X335747179Y-73489967D01*
X335768900Y-73502444D01*
X335795893Y-73517966D01*
X335827783Y-73536318D01*
X335864196Y-73557282D01*
X335904759Y-73580645D01*
X335949098Y-73606190D01*
X335996840Y-73633701D01*
X336047611Y-73662964D01*
X336101036Y-73693762D01*
X336156743Y-73725881D01*
X336214358Y-73759103D01*
X336273506Y-73793214D01*
X336333815Y-73827999D01*
X336394910Y-73863241D01*
X336456417Y-73898725D01*
X336517964Y-73934235D01*
X336579176Y-73969556D01*
X336639679Y-74004473D01*
X336699100Y-74038769D01*
X336757066Y-74072229D01*
X336813202Y-74104637D01*
X336867134Y-74135778D01*
X336918489Y-74165437D01*
X336966894Y-74193397D01*
X337011974Y-74219443D01*
X337053356Y-74243360D01*
X337090666Y-74264931D01*
X337123530Y-74283942D01*
X337151575Y-74300177D01*
X337174427Y-74313420D01*
X337191712Y-74323455D01*
X337194868Y-74325290D01*
X337224085Y-74342295D01*
X335295337Y-74342295D01*
X335172977Y-74342291D01*
X335052588Y-74342279D01*
X334934407Y-74342260D01*
X334818668Y-74342234D01*
X334705606Y-74342201D01*
X334595458Y-74342161D01*
X334488458Y-74342115D01*
X334384842Y-74342062D01*
X334284845Y-74342003D01*
X334188703Y-74341939D01*
X334096651Y-74341869D01*
X334008924Y-74341793D01*
X333925758Y-74341713D01*
X333847388Y-74341628D01*
X333774049Y-74341538D01*
X333705978Y-74341444D01*
X333643408Y-74341346D01*
X333586576Y-74341244D01*
X333535717Y-74341138D01*
X333491067Y-74341029D01*
X333452860Y-74340917D01*
X333421332Y-74340802D01*
X333396719Y-74340684D01*
X333379255Y-74340564D01*
X333369177Y-74340441D01*
X333366589Y-74340340D01*
X333368508Y-74336870D01*
X333374129Y-74326987D01*
X333383248Y-74311044D01*
X333395661Y-74289395D01*
X333411165Y-74262393D01*
X333429556Y-74230391D01*
X333450631Y-74193743D01*
X333474184Y-74152802D01*
X333500013Y-74107921D01*
X333527915Y-74059454D01*
X333557684Y-74007755D01*
X333589118Y-73953177D01*
X333622012Y-73896072D01*
X333636332Y-73871217D01*
X334499580Y-73871217D01*
X334500419Y-73887895D01*
X334503946Y-73905726D01*
X334505686Y-73911468D01*
X334517262Y-73940565D01*
X334533294Y-73972773D01*
X334552477Y-74005921D01*
X334573512Y-74037837D01*
X334595096Y-74066349D01*
X334606315Y-74079341D01*
X334616973Y-74090441D01*
X334624912Y-74096728D01*
X334632270Y-74099509D01*
X334640275Y-74100093D01*
X334652592Y-74098428D01*
X334660420Y-74092683D01*
X334661369Y-74091410D01*
X334665879Y-74080956D01*
X334667366Y-74070901D01*
X334666008Y-74056994D01*
X334662314Y-74037160D01*
X334656625Y-74012812D01*
X334649282Y-73985365D01*
X334640629Y-73956229D01*
X334636389Y-73942914D01*
X334624963Y-73911247D01*
X334613278Y-73886657D01*
X334600615Y-73868422D01*
X334586256Y-73855820D01*
X334569482Y-73848128D01*
X334549573Y-73844624D01*
X334538160Y-73844217D01*
X334521050Y-73845137D01*
X334509319Y-73847723D01*
X334505931Y-73849579D01*
X334501421Y-73857757D01*
X334499580Y-73871217D01*
X333636332Y-73871217D01*
X333656163Y-73836796D01*
X333691368Y-73775700D01*
X333727421Y-73713139D01*
X333764121Y-73649465D01*
X333801262Y-73585033D01*
X333838641Y-73520195D01*
X333876055Y-73455306D01*
X333913300Y-73390718D01*
X333950171Y-73326784D01*
X333986465Y-73263859D01*
X334021979Y-73202296D01*
X334056508Y-73142447D01*
X334089849Y-73084667D01*
X334121798Y-73029309D01*
X334152152Y-72976727D01*
X334180706Y-72927273D01*
X334207257Y-72881301D01*
X334231600Y-72839164D01*
X334253534Y-72801217D01*
X334272853Y-72767811D01*
X334289353Y-72739302D01*
X334302832Y-72716042D01*
X334313085Y-72698384D01*
X334319908Y-72686682D01*
X334323099Y-72681289D01*
X334323158Y-72681193D01*
X334329771Y-72670583D01*
X334440210Y-72734322D01*
G36*
X334440210Y-72734322D02*
G01*
X334467030Y-72749855D01*
X334491757Y-72764275D01*
X334513553Y-72777089D01*
X334531585Y-72787801D01*
X334545015Y-72795916D01*
X334553009Y-72800939D01*
X334554854Y-72802267D01*
X334553979Y-72806604D01*
X334549308Y-72816838D01*
X334541249Y-72832280D01*
X334530208Y-72852242D01*
X334516595Y-72876035D01*
X334500815Y-72902969D01*
X334483276Y-72932357D01*
X334464387Y-72963509D01*
X334444553Y-72995736D01*
X334424184Y-73028350D01*
X334403686Y-73060662D01*
X334383565Y-73091831D01*
X334368609Y-73115317D01*
X334355411Y-73137086D01*
X334344660Y-73155935D01*
X334337045Y-73170661D01*
X334333422Y-73179460D01*
X334329801Y-73194824D01*
X334327969Y-73211394D01*
X334328032Y-73230146D01*
X334330094Y-73252055D01*
X334334260Y-73278098D01*
X334340637Y-73309249D01*
X334349330Y-73346485D01*
X334353096Y-73361766D01*
X334359297Y-73387130D01*
X334366579Y-73417681D01*
X334374369Y-73450969D01*
X334382094Y-73484543D01*
X334389181Y-73515955D01*
X334390076Y-73519979D01*
X334401539Y-73570821D01*
X334411847Y-73614623D01*
X334421230Y-73652036D01*
X334429917Y-73683710D01*
X334438138Y-73710294D01*
X334446122Y-73732438D01*
X334454098Y-73750793D01*
X334462296Y-73766009D01*
X334470946Y-73778735D01*
X334480276Y-73789622D01*
X334487818Y-73796935D01*
X334497811Y-73804866D01*
X334507613Y-73809424D01*
X334519248Y-73810927D01*
X334534738Y-73809693D01*
X334551387Y-73806927D01*
X334576439Y-73805332D01*
X334597967Y-73810589D01*
X334616229Y-73822842D01*
X334631481Y-73842236D01*
X334638642Y-73855913D01*
X334641301Y-73862013D01*
X334644039Y-73869047D01*
X334647094Y-73877811D01*
X334650701Y-73889098D01*
X334655100Y-73903702D01*
X334660528Y-73922419D01*
X334667222Y-73946041D01*
X334675419Y-73975363D01*
X334685358Y-74011180D01*
X334688882Y-74023916D01*
X334697799Y-74053586D01*
X334706201Y-74075954D01*
X334714339Y-74091493D01*
X334722467Y-74100675D01*
X334730837Y-74103974D01*
X334731659Y-74103999D01*
X334741154Y-74100444D01*
X334752350Y-74090479D01*
X334764630Y-74075156D01*
X334777377Y-74055528D01*
X334789974Y-74032645D01*
X334798509Y-74014550D01*
X335022360Y-74014550D01*
X335024829Y-74046647D01*
X335034064Y-74077020D01*
X335037452Y-74084182D01*
X335051079Y-74104591D01*
X335067259Y-74117621D01*
X335085892Y-74123240D01*
X335106881Y-74121415D01*
X335126673Y-74113901D01*
X335143495Y-74103558D01*
X335163446Y-74088162D01*
X335185145Y-74069038D01*
X335207207Y-74047512D01*
X335228253Y-74024909D01*
X335246898Y-74002555D01*
X335256944Y-73988977D01*
X335272935Y-73961002D01*
X335283362Y-73931727D01*
X335287919Y-73902672D01*
X335286297Y-73875355D01*
X335282646Y-73861579D01*
X335272588Y-73840389D01*
X335258291Y-73823719D01*
X335238095Y-73809708D01*
X335234686Y-73807844D01*
X335211202Y-73798191D01*
X335189333Y-73795507D01*
X335168321Y-73799965D01*
X335147410Y-73811736D01*
X335125842Y-73830993D01*
X335123956Y-73832979D01*
X335112189Y-73846475D01*
X335098114Y-73864106D01*
X335082981Y-73884140D01*
X335068047Y-73904845D01*
X335054563Y-73924489D01*
X335043785Y-73941341D01*
X335037709Y-73952129D01*
X335026655Y-73982465D01*
X335022360Y-74014550D01*
X334798509Y-74014550D01*
X334801805Y-74007561D01*
X334812253Y-73981327D01*
X334820702Y-73954994D01*
X334822127Y-73949693D01*
X334830634Y-73904309D01*
X334832925Y-73858976D01*
X334829223Y-73814715D01*
X334819752Y-73772544D01*
X334804735Y-73733483D01*
X334784395Y-73698552D01*
X334761058Y-73670825D01*
X334745393Y-73655117D01*
X334734470Y-73642989D01*
X334727518Y-73632483D01*
X334723771Y-73621640D01*
X334722458Y-73608503D01*
X334722811Y-73591111D01*
X334723631Y-73575475D01*
X334725154Y-73539332D01*
X334726011Y-73498222D01*
X334726204Y-73451513D01*
X334725734Y-73398572D01*
X334724599Y-73338767D01*
X334723862Y-73309028D01*
X334721282Y-73211366D01*
X334746649Y-73169423D01*
X334764046Y-73141704D01*
X334783421Y-73112602D01*
X334803626Y-73083718D01*
X334823510Y-73056650D01*
X334841925Y-73033001D01*
X334857721Y-73014370D01*
X334859115Y-73012841D01*
X334880962Y-72989089D01*
X334918121Y-73010260D01*
X334955281Y-73031432D01*
X334933805Y-73051060D01*
X334925356Y-73059305D01*
X334914807Y-73070593D01*
X334901729Y-73085432D01*
X334885692Y-73104329D01*
X334866267Y-73127790D01*
X334843025Y-73156325D01*
X334815536Y-73190439D01*
X334809289Y-73198228D01*
X334800162Y-73211893D01*
X334794012Y-73227072D01*
X334790757Y-73244885D01*
X334790313Y-73266451D01*
X334792597Y-73292890D01*
X334797524Y-73325320D01*
X334799146Y-73334420D01*
X334804723Y-73384455D01*
X334803954Y-73437243D01*
X334796884Y-73491048D01*
X334794697Y-73501875D01*
X334790311Y-73523171D01*
X334787622Y-73539047D01*
X334786448Y-73551666D01*
X334786609Y-73563193D01*
X334787926Y-73575792D01*
X334788303Y-73578564D01*
X334792349Y-73599825D01*
X334798442Y-73622429D01*
X334805747Y-73643798D01*
X334813427Y-73661354D01*
X334817376Y-73668249D01*
X334825656Y-73677945D01*
X334833384Y-73684350D01*
X334839226Y-73687587D01*
X334844814Y-73688219D01*
X334852589Y-73685960D01*
X334864605Y-73680704D01*
X334889520Y-73665306D01*
X334912020Y-73643654D01*
X334930970Y-73617200D01*
X334945238Y-73587396D01*
X334950542Y-73570627D01*
X334954870Y-73549746D01*
X334956345Y-73529736D01*
X334954707Y-73509269D01*
X334949697Y-73487014D01*
X334941054Y-73461643D01*
X334928519Y-73431827D01*
X334919634Y-73412546D01*
X334904063Y-73378712D01*
X334892233Y-73350357D01*
X334884097Y-73326127D01*
X334879605Y-73304671D01*
X334878907Y-73289074D01*
X334944324Y-73289074D01*
X334944329Y-73322160D01*
X334947978Y-73357084D01*
X334954986Y-73391475D01*
X334965070Y-73422960D01*
X334968800Y-73431813D01*
X334981805Y-73457313D01*
X334994347Y-73475092D01*
X335006398Y-73485137D01*
X335017932Y-73487434D01*
X335028923Y-73481969D01*
X335039342Y-73468728D01*
X335039447Y-73468550D01*
X335045305Y-73453825D01*
X335049459Y-73433714D01*
X335051651Y-73410506D01*
X335051621Y-73386495D01*
X335050364Y-73372141D01*
X335047824Y-73356154D01*
X335043822Y-73335534D01*
X335038951Y-73313185D01*
X335034795Y-73295888D01*
X335030128Y-73276085D01*
X335026327Y-73257441D01*
X335023796Y-73242125D01*
X335022941Y-73232695D01*
X335023324Y-73225163D01*
X335025141Y-73218731D01*
X335029390Y-73211912D01*
X335037071Y-73203218D01*
X335049182Y-73191163D01*
X335053936Y-73186565D01*
X335067515Y-73172728D01*
X335078469Y-73160135D01*
X335085573Y-73150262D01*
X335087546Y-73146009D01*
X335087096Y-73133683D01*
X335081479Y-73120471D01*
X335072284Y-73109409D01*
X335066237Y-73105321D01*
X335053323Y-73102984D01*
X335038982Y-73107440D01*
X335023791Y-73117933D01*
X335008328Y-73133705D01*
X334993170Y-73153999D01*
X334978894Y-73178057D01*
X334966077Y-73205120D01*
X334955297Y-73234433D01*
X334948247Y-73260197D01*
X334944324Y-73289074D01*
X334878907Y-73289074D01*
X334878708Y-73284636D01*
X334881358Y-73264668D01*
X334887507Y-73243414D01*
X334897105Y-73219522D01*
X334910104Y-73191639D01*
X334911580Y-73188598D01*
X334922175Y-73168287D01*
X334935300Y-73145244D01*
X334948880Y-73123046D01*
X334955763Y-73112532D01*
X334966223Y-73096273D01*
X334975041Y-73081103D01*
X334981202Y-73068860D01*
X334983603Y-73062064D01*
X334985829Y-73049490D01*
X335063886Y-73094546D01*
X335086178Y-73107441D01*
X335106126Y-73119034D01*
X335122762Y-73128756D01*
X335135114Y-73136041D01*
X335142213Y-73140319D01*
X335143535Y-73141193D01*
X335141638Y-73143564D01*
X335135794Y-73146406D01*
X335119767Y-73156657D01*
X335106302Y-73173373D01*
X335095742Y-73195530D01*
X335088431Y-73222103D01*
X335084708Y-73252068D01*
X335084918Y-73284400D01*
X335085940Y-73295694D01*
X335090445Y-73322650D01*
X335097210Y-73345112D01*
X335105822Y-73362265D01*
X335115867Y-73373294D01*
X335126929Y-73377384D01*
X335127442Y-73377392D01*
X335143156Y-73373884D01*
X335156199Y-73364438D01*
X335165896Y-73350666D01*
X335171574Y-73334185D01*
X335172559Y-73316608D01*
X335168177Y-73299549D01*
X335163416Y-73291227D01*
X335153386Y-73271313D01*
X335150153Y-73250459D01*
X335153596Y-73230251D01*
X335163598Y-73212276D01*
X335169857Y-73205655D01*
X335178428Y-73197075D01*
X335182156Y-73190047D01*
X335182412Y-73181387D01*
X335181954Y-73177523D01*
X335179907Y-73162262D01*
X335198110Y-73172410D01*
X335207851Y-73177909D01*
X335222685Y-73186371D01*
X335240947Y-73196839D01*
X335260970Y-73208361D01*
X335271615Y-73214503D01*
X335292156Y-73226464D01*
X335306757Y-73235301D01*
X335316300Y-73241698D01*
X335321667Y-73246341D01*
X335323740Y-73249915D01*
X335323400Y-73253104D01*
X335322852Y-73254300D01*
X335315489Y-73265779D01*
X335302785Y-73282054D01*
X335284653Y-73303222D01*
X335261011Y-73329377D01*
X335231774Y-73360614D01*
X335196857Y-73397029D01*
X335196456Y-73397443D01*
X335156464Y-73439327D01*
X335121997Y-73476698D01*
X335092612Y-73510086D01*
X335067862Y-73540018D01*
X335047303Y-73567022D01*
X335030492Y-73591626D01*
X335023658Y-73602679D01*
X335010317Y-73626688D01*
X335000081Y-73649411D01*
X334992423Y-73672730D01*
X334986817Y-73698525D01*
X334982739Y-73728675D01*
X334980143Y-73758275D01*
X334978007Y-73786647D01*
X334975482Y-73819011D01*
X334972868Y-73851578D01*
X334970466Y-73880557D01*
X334970234Y-73883282D01*
X334968537Y-73905390D01*
X334967339Y-73925483D01*
X334966712Y-73941946D01*
X334966726Y-73953165D01*
X334967045Y-73956587D01*
X334970017Y-73966179D01*
X334974282Y-73970108D01*
X334980185Y-73968087D01*
X334988072Y-73959830D01*
X334998288Y-73945051D01*
X335011178Y-73923462D01*
X335014921Y-73916856D01*
X335041468Y-73872501D01*
X335067153Y-73835595D01*
X335092266Y-73805857D01*
X335117097Y-73783009D01*
X335141939Y-73766770D01*
X335167081Y-73756862D01*
X335185005Y-73753545D01*
X335205349Y-73753529D01*
X335228507Y-73756741D01*
X335251529Y-73762509D01*
X335271463Y-73770163D01*
X335280535Y-73775261D01*
X335292740Y-73784462D01*
X335302383Y-73794631D01*
X335311250Y-73807992D01*
X335319834Y-73824165D01*
X335328310Y-73839143D01*
X335335815Y-73847196D01*
X335343417Y-73848939D01*
X335352187Y-73844989D01*
X335353875Y-73843792D01*
X335359278Y-73838709D01*
X335368899Y-73828516D01*
X335381946Y-73814099D01*
X335397628Y-73796343D01*
X335415152Y-73776136D01*
X335432336Y-73756005D01*
X335454269Y-73730421D01*
X335478273Y-73702942D01*
X335502771Y-73675339D01*
X335526188Y-73649380D01*
X335546947Y-73626835D01*
X335555390Y-73617865D01*
X335575962Y-73596672D01*
X335597624Y-73575155D01*
X335619608Y-73554004D01*
X335641145Y-73533905D01*
X335661466Y-73515546D01*
X335679801Y-73499616D01*
X335695382Y-73486802D01*
X335707439Y-73477792D01*
X335715205Y-73473274D01*
X335717379Y-73472958D01*
X335721045Y-73475008D01*
X335731103Y-73480749D01*
X335747179Y-73489967D01*
X335768900Y-73502444D01*
X335795893Y-73517966D01*
X335827783Y-73536318D01*
X335864196Y-73557282D01*
X335904759Y-73580645D01*
X335949098Y-73606190D01*
X335996840Y-73633701D01*
X336047611Y-73662964D01*
X336101036Y-73693762D01*
X336156743Y-73725881D01*
X336214358Y-73759103D01*
X336273506Y-73793214D01*
X336333815Y-73827999D01*
X336394910Y-73863241D01*
X336456417Y-73898725D01*
X336517964Y-73934235D01*
X336579176Y-73969556D01*
X336639679Y-74004473D01*
X336699100Y-74038769D01*
X336757066Y-74072229D01*
X336813202Y-74104637D01*
X336867134Y-74135778D01*
X336918489Y-74165437D01*
X336966894Y-74193397D01*
X337011974Y-74219443D01*
X337053356Y-74243360D01*
X337090666Y-74264931D01*
X337123530Y-74283942D01*
X337151575Y-74300177D01*
X337174427Y-74313420D01*
X337191712Y-74323455D01*
X337194868Y-74325290D01*
X337224085Y-74342295D01*
X335295337Y-74342295D01*
X335172977Y-74342291D01*
X335052588Y-74342279D01*
X334934407Y-74342260D01*
X334818668Y-74342234D01*
X334705606Y-74342201D01*
X334595458Y-74342161D01*
X334488458Y-74342115D01*
X334384842Y-74342062D01*
X334284845Y-74342003D01*
X334188703Y-74341939D01*
X334096651Y-74341869D01*
X334008924Y-74341793D01*
X333925758Y-74341713D01*
X333847388Y-74341628D01*
X333774049Y-74341538D01*
X333705978Y-74341444D01*
X333643408Y-74341346D01*
X333586576Y-74341244D01*
X333535717Y-74341138D01*
X333491067Y-74341029D01*
X333452860Y-74340917D01*
X333421332Y-74340802D01*
X333396719Y-74340684D01*
X333379255Y-74340564D01*
X333369177Y-74340441D01*
X333366589Y-74340340D01*
X333368508Y-74336870D01*
X333374129Y-74326987D01*
X333383248Y-74311044D01*
X333395661Y-74289395D01*
X333411165Y-74262393D01*
X333429556Y-74230391D01*
X333450631Y-74193743D01*
X333474184Y-74152802D01*
X333500013Y-74107921D01*
X333527915Y-74059454D01*
X333557684Y-74007755D01*
X333589118Y-73953177D01*
X333622012Y-73896072D01*
X333636332Y-73871217D01*
X334499580Y-73871217D01*
X334500419Y-73887895D01*
X334503946Y-73905726D01*
X334505686Y-73911468D01*
X334517262Y-73940565D01*
X334533294Y-73972773D01*
X334552477Y-74005921D01*
X334573512Y-74037837D01*
X334595096Y-74066349D01*
X334606315Y-74079341D01*
X334616973Y-74090441D01*
X334624912Y-74096728D01*
X334632270Y-74099509D01*
X334640275Y-74100093D01*
X334652592Y-74098428D01*
X334660420Y-74092683D01*
X334661369Y-74091410D01*
X334665879Y-74080956D01*
X334667366Y-74070901D01*
X334666008Y-74056994D01*
X334662314Y-74037160D01*
X334656625Y-74012812D01*
X334649282Y-73985365D01*
X334640629Y-73956229D01*
X334636389Y-73942914D01*
X334624963Y-73911247D01*
X334613278Y-73886657D01*
X334600615Y-73868422D01*
X334586256Y-73855820D01*
X334569482Y-73848128D01*
X334549573Y-73844624D01*
X334538160Y-73844217D01*
X334521050Y-73845137D01*
X334509319Y-73847723D01*
X334505931Y-73849579D01*
X334501421Y-73857757D01*
X334499580Y-73871217D01*
X333636332Y-73871217D01*
X333656163Y-73836796D01*
X333691368Y-73775700D01*
X333727421Y-73713139D01*
X333764121Y-73649465D01*
X333801262Y-73585033D01*
X333838641Y-73520195D01*
X333876055Y-73455306D01*
X333913300Y-73390718D01*
X333950171Y-73326784D01*
X333986465Y-73263859D01*
X334021979Y-73202296D01*
X334056508Y-73142447D01*
X334089849Y-73084667D01*
X334121798Y-73029309D01*
X334152152Y-72976727D01*
X334180706Y-72927273D01*
X334207257Y-72881301D01*
X334231600Y-72839164D01*
X334253534Y-72801217D01*
X334272853Y-72767811D01*
X334289353Y-72739302D01*
X334302832Y-72716042D01*
X334313085Y-72698384D01*
X334319908Y-72686682D01*
X334323099Y-72681289D01*
X334323158Y-72681193D01*
X334329771Y-72670583D01*
X334440210Y-72734322D01*
G37*
%TO.C,ENCODER1*%
X353255000Y-102400000D02*
X350855000Y-102400000D01*
X353255000Y-98300000D02*
X353255000Y-102400000D01*
X353255000Y-94300000D02*
X353255000Y-90200000D01*
X353255000Y-90200000D02*
X341455000Y-90200000D01*
X348655000Y-102400000D02*
X346055000Y-102400000D01*
X347655000Y-90800000D02*
X347055000Y-90800000D01*
X347355000Y-90500000D02*
X347655000Y-90800000D01*
X347055000Y-90800000D02*
X347355000Y-90500000D01*
X343855000Y-102400000D02*
X341455000Y-102400000D01*
X341455000Y-102400000D02*
X341455000Y-98300000D01*
X341455000Y-94300000D02*
X341455000Y-90200000D01*
X349355000Y-96300000D02*
G75*
G03*
X349355000Y-96300000I-2000000J0D01*
G01*
%TO.C,OLED1*%
X312840000Y-79290000D02*
X312840000Y-71610000D01*
X315500000Y-71610000D02*
X312840000Y-71610000D01*
X315500000Y-79290000D02*
X312840000Y-79290000D01*
X315500000Y-79290000D02*
X315500000Y-71610000D01*
X315500000Y-80560000D02*
X315500000Y-81890000D01*
X315500000Y-81890000D02*
X314170000Y-81890000D01*
%TO.C,JP2*%
X344630000Y-73880000D02*
X344630000Y-72550000D01*
X345960000Y-73880000D02*
X344630000Y-73880000D01*
X347230000Y-73880000D02*
X349830000Y-73880000D01*
X347230000Y-73880000D02*
X347230000Y-71220000D01*
X349830000Y-73880000D02*
X349830000Y-71220000D01*
X347230000Y-71220000D02*
X349830000Y-71220000D01*
%TO.C,SWD1*%
X324185000Y-74395000D02*
X324185000Y-75725000D01*
X322855000Y-74395000D02*
X324185000Y-74395000D01*
X321585000Y-74395000D02*
X316445000Y-74395000D01*
X321585000Y-74395000D02*
X321585000Y-76995000D01*
X316445000Y-74395000D02*
X316445000Y-79595000D01*
X324185000Y-76995000D02*
X324185000Y-79595000D01*
X321585000Y-76995000D02*
X324185000Y-76995000D01*
X324185000Y-79595000D02*
X316445000Y-79595000D01*
%TD*%
%LPC*%
%TO.C,TH1*%
D11*
X46105000Y-72800000D02*
G75*
G03*
X46105000Y-72800000I-325000J0D01*
G01*
%TO.C,TH2*%
X46105000Y-185700000D02*
G75*
G03*
X46105000Y-185700000I-325000J0D01*
G01*
%TO.C,TH3*%
X353305000Y-185700000D02*
G75*
G03*
X353305000Y-185700000I-325000J0D01*
G01*
%TD*%
D12*
%TO.C,H5*%
X332630000Y-100812050D03*
X333113274Y-99645324D03*
X333113274Y-101978776D03*
X334280000Y-99162050D03*
D13*
X334280000Y-100812050D03*
D12*
X334280000Y-102462050D03*
X335446726Y-99645324D03*
X335446726Y-101978776D03*
X335930000Y-100812050D03*
%TD*%
%TO.C,H3*%
X190924000Y-88906250D03*
X191407274Y-87739524D03*
X191407274Y-90072976D03*
X192574000Y-87256250D03*
D13*
X192574000Y-88906250D03*
D12*
X192574000Y-90556250D03*
X193740726Y-87739524D03*
X193740726Y-90072976D03*
X194224000Y-88906250D03*
%TD*%
%TO.C,H2*%
X243311500Y-129387500D03*
X243794774Y-128220774D03*
X243794774Y-130554226D03*
X244961500Y-127737500D03*
D13*
X244961500Y-129387500D03*
D12*
X244961500Y-131037500D03*
X246128226Y-128220774D03*
X246128226Y-130554226D03*
X246611500Y-129387500D03*
%TD*%
D14*
%TO.C,JP1*%
X339220000Y-72550000D03*
D15*
X341760000Y-72550000D03*
%TD*%
D16*
%TO.C,S1*%
X321161250Y-107797500D03*
D17*
X321161250Y-92557500D03*
D16*
X297348750Y-107797500D03*
D17*
X297348750Y-92557500D03*
%TD*%
D16*
%TO.C,S3*%
X223530000Y-183997500D03*
D17*
X223530000Y-168757500D03*
D16*
X123517500Y-183997500D03*
D17*
X123517500Y-168757500D03*
%TD*%
D12*
%TO.C,H1*%
X64842500Y-88906250D03*
X65325774Y-87739524D03*
X65325774Y-90072976D03*
X66492500Y-87256250D03*
D13*
X66492500Y-88906250D03*
D12*
X66492500Y-90556250D03*
X67659226Y-87739524D03*
X67659226Y-90072976D03*
X68142500Y-88906250D03*
%TD*%
%TO.C,H8*%
X306414375Y-160343750D03*
X306897649Y-159177024D03*
X306897649Y-161510476D03*
X308064375Y-158693750D03*
D13*
X308064375Y-160343750D03*
D12*
X308064375Y-161993750D03*
X309231101Y-159177024D03*
X309231101Y-161510476D03*
X309714375Y-160343750D03*
%TD*%
D16*
%TO.C,S2*%
X309413750Y-117481250D03*
X309413750Y-141293750D03*
D17*
X324653750Y-117481250D03*
X324653750Y-141293750D03*
%TD*%
D12*
%TO.C,H6*%
X198067500Y-177012500D03*
X198550774Y-175845774D03*
X198550774Y-178179226D03*
X199717500Y-175362500D03*
D13*
X199717500Y-177012500D03*
D12*
X199717500Y-178662500D03*
X200884226Y-175845774D03*
X200884226Y-178179226D03*
X201367500Y-177012500D03*
%TD*%
D18*
%TO.C,OLED1*%
X314170000Y-80560000D03*
D15*
X314170000Y-78020000D03*
X314170000Y-75480000D03*
X314170000Y-72940000D03*
%TD*%
D14*
%TO.C,JP2*%
X345960000Y-72550000D03*
D15*
X348500000Y-72550000D03*
%TD*%
D12*
%TO.C,H7*%
X129011000Y-129387500D03*
X129494274Y-128220774D03*
X129494274Y-130554226D03*
X130661000Y-127737500D03*
D13*
X130661000Y-129387500D03*
D12*
X130661000Y-131037500D03*
X131827726Y-128220774D03*
X131827726Y-130554226D03*
X132311000Y-129387500D03*
%TD*%
D19*
%TO.C,SWD1*%
X322855000Y-75725000D03*
D15*
X322855000Y-78265000D03*
X320315000Y-75725000D03*
X320315000Y-78265000D03*
X317775000Y-75725000D03*
X317775000Y-78265000D03*
%TD*%
D12*
%TO.C,H4*%
X63526875Y-167487500D03*
X64010149Y-166320774D03*
X64010149Y-168654226D03*
X65176875Y-165837500D03*
D13*
X65176875Y-167487500D03*
D12*
X65176875Y-169137500D03*
X66343601Y-166320774D03*
X66343601Y-168654226D03*
X66826875Y-167487500D03*
%TD*%
D20*
%TO.C,HALL4*%
X123835000Y-77000000D03*
X113675000Y-77000000D03*
%TD*%
%TO.C,HALL9*%
X223847500Y-77000000D03*
X213687500Y-77000000D03*
%TD*%
%TO.C,HALL58*%
X80972500Y-157962500D03*
X70812500Y-157962500D03*
%TD*%
%TO.C,HALL25*%
X266710000Y-100812500D03*
X256550000Y-100812500D03*
%TD*%
%TO.C,HALL8*%
X204797500Y-77000000D03*
X194637500Y-77000000D03*
%TD*%
%TO.C,HALL63*%
X176222500Y-157962500D03*
X166062500Y-157962500D03*
%TD*%
%TO.C,HALL30*%
X104785000Y-119862500D03*
X94625000Y-119862500D03*
%TD*%
%TO.C,HALL28*%
X61922500Y-119862500D03*
X51762500Y-119862500D03*
%TD*%
%TO.C,HALL7*%
X185747500Y-77000000D03*
X175587500Y-77000000D03*
%TD*%
%TO.C,HALL27*%
X314335000Y-100812500D03*
X304175000Y-100812500D03*
%TD*%
%TO.C,HALL1*%
X57160000Y-77000000D03*
X47000000Y-77000000D03*
%TD*%
%TO.C,HALL14*%
X57160000Y-100812500D03*
X47000000Y-100812500D03*
%TD*%
%TO.C,HALL70*%
X352435000Y-157962500D03*
X342275000Y-157962500D03*
%TD*%
%TO.C,HALL5*%
X142885000Y-77000000D03*
X132725000Y-77000000D03*
%TD*%
%TO.C,HALL41*%
X321478750Y-129387500D03*
X311318750Y-129387500D03*
%TD*%
%TO.C,HALL54*%
X280997500Y-138912500D03*
X270837500Y-138912500D03*
%TD*%
%TO.C,HALL39*%
X276235000Y-119862500D03*
X266075000Y-119862500D03*
%TD*%
%TO.C,HALL32*%
X142885000Y-119862500D03*
X132725000Y-119862500D03*
%TD*%
%TO.C,HALL2*%
X85735000Y-77000000D03*
X75575000Y-77000000D03*
%TD*%
%TO.C,HALL76*%
X247660000Y-177012500D03*
X237500000Y-177012500D03*
%TD*%
%TO.C,HALL40*%
X295285000Y-119862500D03*
X285125000Y-119862500D03*
%TD*%
%TO.C,HALL55*%
X300047500Y-138912500D03*
X289887500Y-138912500D03*
%TD*%
%TO.C,HALL67*%
X252422500Y-157962500D03*
X242262500Y-157962500D03*
%TD*%
%TO.C,HALL50*%
X204797500Y-138912500D03*
X194637500Y-138912500D03*
%TD*%
%TO.C,HALL49*%
X185747500Y-138912500D03*
X175587500Y-138912500D03*
%TD*%
%TO.C,HALL6*%
X166697500Y-77000000D03*
X156537500Y-77000000D03*
%TD*%
%TO.C,HALL16*%
X95260000Y-100812500D03*
X85100000Y-100812500D03*
%TD*%
%TO.C,HALL21*%
X190510000Y-100812500D03*
X180350000Y-100812500D03*
%TD*%
%TO.C,HALL66*%
X233372500Y-157962500D03*
X223212500Y-157962500D03*
%TD*%
%TO.C,HALL11*%
X266710000Y-77000000D03*
X256550000Y-77000000D03*
%TD*%
%TO.C,HALL78*%
X285760000Y-177012500D03*
X275600000Y-177012500D03*
%TD*%
%TO.C,HALL12*%
X285760000Y-77000000D03*
X275600000Y-77000000D03*
%TD*%
%TO.C,HALL23*%
X228610000Y-100812500D03*
X218450000Y-100812500D03*
%TD*%
%TO.C,HALL65*%
X214322500Y-157962500D03*
X204162500Y-157962500D03*
%TD*%
%TO.C,HALL59*%
X100022500Y-157962500D03*
X89862500Y-157962500D03*
%TD*%
%TO.C,HALL34*%
X180985000Y-119862500D03*
X170825000Y-119862500D03*
%TD*%
%TO.C,HALL33*%
X161935000Y-119862500D03*
X151775000Y-119862500D03*
%TD*%
%TO.C,HALL46*%
X128597500Y-138912500D03*
X118437500Y-138912500D03*
%TD*%
%TO.C,HALL68*%
X271472500Y-157962500D03*
X261312500Y-157962500D03*
%TD*%
%TO.C,HALL26*%
X285760000Y-100812500D03*
X275600000Y-100812500D03*
%TD*%
%TO.C,HALL45*%
X109547500Y-138912500D03*
X99387500Y-138912500D03*
%TD*%
%TO.C,HALL77*%
X266710000Y-177012500D03*
X256550000Y-177012500D03*
%TD*%
%TO.C,HALL22*%
X209560000Y-100812500D03*
X199400000Y-100812500D03*
%TD*%
%TO.C,HALL56*%
X352435000Y-138912500D03*
X342275000Y-138912500D03*
%TD*%
%TO.C,HALL38*%
X257185000Y-119862500D03*
X247025000Y-119862500D03*
%TD*%
%TO.C,HALL81*%
X347672500Y-181775000D03*
X337512500Y-181775000D03*
%TD*%
%TO.C,HALL17*%
X114310000Y-100812500D03*
X104150000Y-100812500D03*
%TD*%
%TO.C,HALL53*%
X261947500Y-138912500D03*
X251787500Y-138912500D03*
%TD*%
%TO.C,HALL69*%
X297666250Y-157962500D03*
X287506250Y-157962500D03*
%TD*%
%TO.C,HALL13*%
X304810000Y-77000000D03*
X294650000Y-77000000D03*
%TD*%
%TO.C,HALL71*%
X328622500Y-162725000D03*
X318462500Y-162725000D03*
%TD*%
%TO.C,HALL62*%
X157172500Y-157962500D03*
X147012500Y-157962500D03*
%TD*%
%TO.C,HALL15*%
X76210000Y-100812500D03*
X66050000Y-100812500D03*
%TD*%
%TO.C,HALL72*%
X59541250Y-177012500D03*
X49381250Y-177012500D03*
%TD*%
%TO.C,HALL24*%
X247660000Y-100812500D03*
X237500000Y-100812500D03*
%TD*%
%TO.C,HALL73*%
X83353750Y-177012500D03*
X73193750Y-177012500D03*
%TD*%
%TO.C,HALL52*%
X242897500Y-138912500D03*
X232737500Y-138912500D03*
%TD*%
%TO.C,HALL48*%
X166697500Y-138912500D03*
X156537500Y-138912500D03*
%TD*%
%TO.C,HALL51*%
X223847500Y-138912500D03*
X213687500Y-138912500D03*
%TD*%
%TO.C,HALL43*%
X64303750Y-138912500D03*
X54143750Y-138912500D03*
%TD*%
%TO.C,HALL3*%
X104785000Y-77000000D03*
X94625000Y-77000000D03*
%TD*%
%TO.C,HALL44*%
X90497500Y-138912500D03*
X80337500Y-138912500D03*
%TD*%
%TO.C,HALL47*%
X147647500Y-138912500D03*
X137487500Y-138912500D03*
%TD*%
%TO.C,HALL18*%
X133360000Y-100812500D03*
X123200000Y-100812500D03*
%TD*%
%TO.C,HALL75*%
X178603750Y-177012500D03*
X168443750Y-177012500D03*
%TD*%
%TO.C,HALL37*%
X238135000Y-119862500D03*
X227975000Y-119862500D03*
%TD*%
%TO.C,HALL79*%
X309572500Y-181775000D03*
X299412500Y-181775000D03*
%TD*%
D21*
%TO.C,SW2*%
X337580000Y-106800000D03*
D22*
X337580000Y-109340000D03*
X337580000Y-111880000D03*
X337580000Y-114420000D03*
X329960000Y-114420000D03*
X329960000Y-111880000D03*
X329960000Y-109340000D03*
X329960000Y-106800000D03*
%TD*%
D20*
%TO.C,HALL60*%
X119072500Y-157962500D03*
X108912500Y-157962500D03*
%TD*%
%TO.C,HALL20*%
X171460000Y-100812500D03*
X161300000Y-100812500D03*
%TD*%
%TO.C,HALL36*%
X219085000Y-119862500D03*
X208925000Y-119862500D03*
%TD*%
%TO.C,HALL57*%
X59541250Y-157962500D03*
X49381250Y-157962500D03*
%TD*%
%TO.C,HALL10*%
X247660000Y-77000000D03*
X237500000Y-77000000D03*
%TD*%
%TO.C,HALL74*%
X107166250Y-177012500D03*
X97006250Y-177012500D03*
%TD*%
%TO.C,HALL29*%
X85735000Y-119862500D03*
X75575000Y-119862500D03*
%TD*%
%TO.C,HALL42*%
X352435000Y-119862500D03*
X342275000Y-119862500D03*
%TD*%
%TO.C,HALL64*%
X195272500Y-157962500D03*
X185112500Y-157962500D03*
%TD*%
%TO.C,HALL31*%
X123835000Y-119862500D03*
X113675000Y-119862500D03*
%TD*%
%TO.C,HALL35*%
X200035000Y-119862500D03*
X189875000Y-119862500D03*
%TD*%
%TO.C,HALL80*%
X328622500Y-181775000D03*
X318462500Y-181775000D03*
%TD*%
%TO.C,HALL19*%
X152410000Y-100812500D03*
X142250000Y-100812500D03*
%TD*%
D23*
%TO.C,BZ1*%
X354107000Y-110600000D03*
X340603000Y-110600000D03*
%TD*%
D20*
%TO.C,HALL61*%
X138122500Y-157962500D03*
X127962500Y-157962500D03*
%TD*%
%LPD*%
M02*
