M48
; DRILL file {KiCad 7.0.6} date Wed Feb 21 18:21:50 2024
; FORMAT={-:-/ absolute / inch / decimal}
; #@! TF.CreationDate,2024-02-21T18:21:50+00:00
; #@! TF.GenerationSoftware,Kicad,Pcbnew,7.0.6
; #@! TF.FileFunction,Plated,1,4,PTH
FMAT,2
INCH
; #@! TA.AperFunction,Plated,PTH,ViaDrill
T1C0.0118
; #@! TA.AperFunction,Plated,PTH,ComponentDrill
T2C0.0157
; #@! TA.AperFunction,Plated,PTH,ComponentDrill
T3C0.0315
; #@! TA.AperFunction,Plated,PTH,ComponentDrill
T4C0.0394
; #@! TA.AperFunction,Plated,PTH,ComponentDrill
T5C0.0591
; #@! TA.AperFunction,Plated,PTH,ComponentDrill
T6C0.1200
%
G90
G05
T1
X1.8437Y-3.164
X1.8437Y-3.2018
X1.8457Y-3.2612
X1.889Y-3.2612
X1.889Y-4.1393
X1.8904Y-4.1987
X1.9375Y-6.3515
X1.9375Y-6.3893
X1.9383Y-6.4487
X1.9598Y-3.0725
X1.9598Y-4.01
X1.9835Y-6.4487
X1.9835Y-7.1393
X1.9835Y-7.1987
X2.0312Y-4.8515
X2.0312Y-4.8893
X2.0312Y-4.9487
X2.0536Y-6.26
X2.0536Y-7.01
X2.074Y-4.9487
X2.1291Y-3.0692
X2.1291Y-4.0067
X2.1473Y-4.76
X2.1685Y-5.6987
X2.1689Y-5.6393
X2.1843Y-3.0315
X2.1843Y-3.969
X2.2118Y-3.2612
X2.2197Y-2.9552
X2.2197Y-3.8927
X2.2229Y-6.2567
X2.2229Y-7.0067
X2.2411Y-5.51
X2.2571Y-4.1987
X2.2571Y-4.2365
X2.278Y-6.1102
X2.278Y-6.219
X2.278Y-6.8583
X2.278Y-6.969
X2.3063Y-6.4488
X2.3166Y-4.7567
X2.3508Y-7.1987
X2.3508Y-7.2365
X2.3718Y-4.719
X2.4008Y-4.9488
X2.4087Y-4.6427
X2.4104Y-5.5067
X2.4655Y-5.469
X2.5383Y-5.6987
X2.5383Y-5.7365
X2.6233Y-5.2836
X2.637Y-4.1393
X2.7098Y-4.01
X2.7305Y-5.1467
X2.7561Y-5.0453
X2.7561Y-5.372
X2.7812Y-6.3515
X2.7812Y-6.3893
X2.7817Y-5.1467
X2.8073Y-5.0453
X2.8073Y-5.372
X2.8585Y-5.0453
X2.8585Y-5.372
X2.8791Y-4.0067
X2.8841Y-5.0118
X2.8841Y-5.2707
X2.8973Y-6.26
X2.9096Y-5.0453
X2.9096Y-5.372
X2.9205Y-7.1393
X2.9343Y-3.969
X2.9352Y-5.2707
X2.9677Y-3.8927
X2.9687Y-3.164
X2.9687Y-3.2018
X2.9687Y-4.8515
X2.9687Y-4.8893
X2.9864Y-5.1467
X2.9911Y-7.01
X3.0071Y-4.1987
X3.0071Y-4.2365
X3.0666Y-6.2567
X3.0784Y-6.1102
X3.0848Y-3.0725
X3.0848Y-4.76
X3.1218Y-6.219
X3.1349Y-6.4487
X3.1604Y-7.0067
X3.2Y-5.6393
X3.2155Y-6.8583
X3.2155Y-6.969
X3.2541Y-3.0692
X3.2541Y-4.7567
X3.2659Y-4.6105
X3.2723Y-5.51
X3.2883Y-7.1987
X3.2883Y-7.2365
X3.3093Y-3.0315
X3.3093Y-4.719
X3.3378Y-3.2612
X3.3378Y-4.9488
X3.3457Y-2.9552
X3.389Y-4.1393
X3.4416Y-5.5067
X3.4534Y-5.3583
X3.4598Y-4.01
X3.4968Y-5.469
X3.5312Y-6.3515
X3.5312Y-6.3893
X3.5696Y-5.6987
X3.5696Y-5.7365
X3.6291Y-4.0067
X3.6473Y-6.26
X3.6843Y-3.969
X3.7187Y-3.164
X3.7187Y-3.2018
X3.7187Y-4.8515
X3.7187Y-4.8893
X3.7197Y-3.8927
X3.7571Y-4.1987
X3.7571Y-4.2365
X3.8166Y-6.2567
X3.8348Y-3.0725
X3.8348Y-4.76
X3.8575Y-7.1393
X3.8718Y-6.219
X3.9008Y-6.4488
X3.9047Y-6.1427
X3.9286Y-7.01
X3.952Y-5.6393
X4.0041Y-3.0692
X4.0041Y-4.7567
X4.0223Y-5.51
X4.0593Y-3.0315
X4.0593Y-4.719
X4.0858Y-3.2612
X4.0898Y-4.9487
X4.0937Y-2.9552
X4.0937Y-4.6427
X4.0979Y-7.0067
X4.137Y-4.1393
X4.153Y-6.8583
X4.153Y-6.969
X4.1916Y-5.5067
X4.2098Y-4.01
X4.2258Y-7.1987
X4.2258Y-7.2365
X4.2468Y-5.469
X4.2769Y-5.2836
X4.2812Y-6.3515
X4.2812Y-6.3893
X4.3196Y-5.6987
X4.3196Y-5.7365
X4.3791Y-4.0067
X4.3841Y-5.1467
X4.3973Y-6.26
X4.4096Y-5.0453
X4.4343Y-3.969
X4.4352Y-5.1467
X4.4608Y-5.0453
X4.4608Y-5.372
X4.4677Y-3.8927
X4.4687Y-3.164
X4.4687Y-3.2018
X4.4687Y-4.8515
X4.4687Y-4.8893
X4.5071Y-4.1987
X4.5071Y-4.2365
X4.512Y-5.0039
X4.512Y-5.0453
X4.512Y-5.372
X4.5376Y-5.2707
X4.5632Y-5.0453
X4.5632Y-5.372
X4.5666Y-6.2567
X4.5784Y-6.1102
X4.5848Y-3.0725
X4.5848Y-4.76
X4.5888Y-5.2707
X4.6218Y-6.219
X4.64Y-5.1467
X4.6488Y-6.4487
X4.7Y-5.6393
X4.7541Y-3.0692
X4.7541Y-4.7567
X4.7659Y-4.6102
X4.7723Y-5.51
X4.8093Y-3.0315
X4.8093Y-4.719
X4.8378Y-3.2612
X4.8378Y-4.9488
X4.8457Y-2.9552
X4.889Y-4.1393
X4.9416Y-5.5067
X4.9534Y-5.3583
X4.9598Y-4.01
X4.9968Y-5.469
X5.0312Y-6.3515
X5.0312Y-6.3893
X5.0696Y-5.6987
X5.0696Y-5.7365
X5.1291Y-4.0067
X5.1473Y-6.26
X5.1843Y-3.969
X5.2187Y-3.164
X5.2187Y-3.2018
X5.2187Y-4.8515
X5.2187Y-4.8893
X5.2197Y-3.8927
X5.2571Y-4.1987
X5.2571Y-4.2365
X5.3166Y-6.2567
X5.3348Y-3.0725
X5.3348Y-4.76
X5.3718Y-6.219
X5.4008Y-6.4488
X5.4087Y-6.1427
X5.452Y-5.6393
X5.5041Y-3.0692
X5.5041Y-4.7567
X5.5223Y-5.51
X5.5593Y-3.0315
X5.5593Y-4.719
X5.5858Y-4.9487
X5.5898Y-3.2612
X5.5937Y-2.9552
X5.5937Y-4.6427
X5.637Y-4.1393
X5.6916Y-5.5067
X5.7098Y-4.01
X5.7468Y-5.469
X5.7769Y-5.2836
X5.7812Y-6.3515
X5.7812Y-6.3893
X5.8196Y-5.6987
X5.8196Y-5.7365
X5.8791Y-4.0067
X5.8841Y-5.1467
X5.8973Y-6.26
X5.9096Y-5.0453
X5.9096Y-5.372
X5.9343Y-3.969
X5.9352Y-5.1467
X5.9608Y-5.0453
X5.9608Y-5.372
X5.9677Y-3.8927
X5.9687Y-4.8515
X5.9687Y-4.8893
X5.9864Y-5.1467
X6.0071Y-4.1987
X6.0071Y-4.2365
X6.012Y-5.0039
X6.012Y-5.0453
X6.012Y-5.372
X6.0376Y-5.1467
X6.0376Y-5.2707
X6.0632Y-5.0453
X6.0632Y-5.372
X6.0666Y-6.2567
X6.0784Y-6.1102
X6.0848Y-4.76
X6.0888Y-5.2707
X6.1218Y-6.219
X6.14Y-5.1467
X6.1488Y-6.4488
X6.1562Y-3.164
X6.1562Y-3.2018
X6.2Y-5.6393
X6.2541Y-4.7567
X6.2659Y-4.6102
X6.2723Y-3.0725
X6.2723Y-5.51
X6.3093Y-4.719
X6.3375Y-4.9484
X6.389Y-4.1393
X6.4416Y-3.0692
X6.4416Y-5.5067
X6.4534Y-2.9213
X6.4534Y-5.3583
X6.4598Y-4.01
X6.4968Y-3.0315
X6.4968Y-5.469
X6.5268Y-3.2612
X6.5312Y-6.3515
X6.5312Y-6.3893
X6.5696Y-5.6987
X6.5696Y-5.7365
X6.6291Y-4.0067
X6.6473Y-6.26
X6.6685Y-7.1393
X6.6843Y-3.969
X6.7187Y-4.8515
X6.7187Y-4.8893
X6.7197Y-3.8927
X6.7411Y-7.01
X6.7571Y-4.1987
X6.7571Y-4.2365
X6.8166Y-6.2567
X6.8284Y-6.1102
X6.8348Y-4.76
X6.8718Y-6.219
X6.9008Y-6.4488
X6.9062Y-3.164
X6.9062Y-3.2018
X6.9104Y-7.0067
X6.9222Y-6.8583
X6.952Y-5.6393
X6.9655Y-6.969
X7.0041Y-4.7567
X7.0159Y-4.6102
X7.0223Y-3.0725
X7.0223Y-5.51
X7.0383Y-7.1987
X7.0383Y-7.2365
X7.0593Y-4.719
X7.0898Y-4.9487
X7.137Y-4.1393
X7.1916Y-3.0692
X7.1916Y-5.5067
X7.2098Y-4.01
X7.2468Y-3.0315
X7.2468Y-5.3583
X7.2468Y-5.469
X7.2748Y-3.2612
X7.2812Y-6.3515
X7.2812Y-6.3893
X7.2827Y-2.9552
X7.3196Y-5.6987
X7.3196Y-5.7365
X7.3791Y-4.0067
X7.3973Y-6.26
X7.4343Y-3.969
X7.4677Y-3.8927
X7.4687Y-4.8515
X7.4687Y-4.8893
X7.5071Y-4.1987
X7.5071Y-4.2365
X7.5666Y-6.2567
X7.5848Y-4.76
X7.6218Y-6.219
X7.6488Y-6.4488
X7.6562Y-3.164
X7.6562Y-3.2018
X7.6567Y-6.1427
X7.7Y-5.6393
X7.7541Y-4.7567
X7.7723Y-3.0725
X7.7723Y-5.51
X7.8093Y-4.719
X7.8378Y-4.9488
X7.8457Y-4.6427
X7.889Y-4.1393
X7.9416Y-3.0692
X7.9416Y-5.5067
X7.9598Y-4.01
X7.9968Y-3.0315
X7.9968Y-5.469
X8.0268Y-3.2612
X8.0288Y-5.2836
X8.0307Y-2.9552
X8.0312Y-6.3515
X8.0312Y-6.3893
X8.0696Y-5.6987
X8.0696Y-5.7365
X8.1291Y-4.0067
X8.136Y-5.1467
X8.136Y-5.2707
X8.1409Y-3.8583
X8.1473Y-6.26
X8.1616Y-5.0453
X8.1843Y-3.969
X8.1872Y-5.1467
X8.1872Y-5.2707
X8.2128Y-5.0453
X8.2128Y-5.372
X8.2187Y-4.8515
X8.2187Y-4.8893
X8.2384Y-5.1467
X8.2571Y-4.1987
X8.2571Y-4.2365
X8.264Y-5.0039
X8.264Y-5.0453
X8.264Y-5.372
X8.2896Y-5.1467
X8.2896Y-5.2707
X8.3152Y-5.0453
X8.3152Y-5.372
X8.3166Y-6.2567
X8.3284Y-6.1102
X8.3348Y-4.76
X8.3407Y-5.2707
X8.3718Y-6.219
X8.3919Y-5.1467
X8.4008Y-6.4488
X8.4062Y-3.164
X8.4062Y-3.2018
X8.448Y-5.6393
X8.5041Y-4.7567
X8.5159Y-4.6102
X8.5223Y-3.0725
X8.5223Y-5.51
X8.5593Y-4.719
X8.5858Y-4.9487
X8.637Y-4.1393
X8.6916Y-3.0692
X8.6916Y-5.5067
X8.7034Y-2.9213
X8.7034Y-5.3583
X8.7098Y-4.01
X8.7468Y-3.0315
X8.7468Y-5.469
X8.7748Y-3.2612
X8.7812Y-6.3515
X8.7812Y-6.3893
X8.8196Y-5.6987
X8.8196Y-5.7365
X8.8791Y-4.0067
X8.8973Y-6.26
X8.9343Y-3.969
X8.9677Y-3.8927
X8.9687Y-4.8515
X8.9687Y-4.8893
X9.0071Y-4.1987
X9.0071Y-4.2365
X9.0666Y-6.2567
X9.0784Y-6.1102
X9.0848Y-4.76
X9.1218Y-6.219
X9.1488Y-6.4488
X9.2Y-5.6393
X9.2541Y-4.7567
X9.2659Y-4.6102
X9.2723Y-5.51
X9.3093Y-4.719
X9.3378Y-4.9487
X9.3437Y-3.164
X9.3437Y-3.2018
X9.389Y-4.1393
X9.389Y-7.1393
X9.4416Y-5.5067
X9.4598Y-3.0725
X9.4598Y-4.01
X9.4598Y-7.01
X9.4968Y-5.469
X9.5307Y-5.3927
X9.5312Y-6.3515
X9.5312Y-6.3893
X9.5696Y-5.6987
X9.5696Y-5.7365
X9.6291Y-3.0692
X9.6291Y-4.0067
X9.6291Y-7.0067
X9.6473Y-6.26
X9.6843Y-3.0315
X9.6843Y-3.969
X9.6843Y-6.969
X9.7118Y-3.2612
X9.7177Y-3.8927
X9.7187Y-4.8515
X9.7187Y-4.8893
X9.7197Y-6.8927
X9.7571Y-4.1987
X9.7571Y-4.2365
X9.7571Y-7.1987
X9.7571Y-7.2365
X9.8166Y-6.2567
X9.8348Y-4.76
X9.8496Y-3.0197
X9.8718Y-6.1102
X9.8718Y-6.219
X9.9008Y-6.4488
X9.952Y-5.6393
X10.0041Y-4.7567
X10.0223Y-5.51
X10.0593Y-4.719
X10.0898Y-4.9488
X10.0937Y-3.164
X10.0937Y-3.2018
X10.0937Y-4.6427
X10.137Y-4.1393
X10.137Y-7.1393
X10.1916Y-5.5067
X10.2098Y-3.0725
X10.2098Y-4.01
X10.2098Y-7.01
X10.2468Y-5.469
X10.2769Y-5.2836
X10.2812Y-6.3515
X10.2812Y-6.3893
X10.3196Y-5.6987
X10.3196Y-5.7365
X10.3791Y-3.0692
X10.3791Y-4.0067
X10.3791Y-7.0067
X10.3841Y-5.1467
X10.3909Y-3.8583
X10.3909Y-6.8583
X10.3973Y-6.26
X10.4096Y-5.0453
X10.4096Y-5.372
X10.4343Y-3.0315
X10.4343Y-3.969
X10.4343Y-6.969
X10.4352Y-5.1467
X10.4352Y-5.2707
X10.4608Y-5.0453
X10.4608Y-5.372
X10.4638Y-3.2612
X10.4687Y-4.8515
X10.4687Y-4.8893
X10.4717Y-2.9552
X10.4864Y-5.1467
X10.4864Y-5.2707
X10.5071Y-4.1987
X10.5071Y-4.2365
X10.5071Y-7.1987
X10.5071Y-7.2365
X10.512Y-5.0039
X10.512Y-5.0453
X10.512Y-5.372
X10.5376Y-5.1467
X10.5376Y-5.2707
X10.5632Y-5.0453
X10.5632Y-5.372
X10.5666Y-6.2567
X10.5784Y-6.1102
X10.5848Y-4.76
X10.5888Y-5.2707
X10.6218Y-6.219
X10.64Y-5.1467
X10.6488Y-6.4488
X10.7Y-5.6393
X10.7541Y-4.7567
X10.7659Y-4.6102
X10.7723Y-5.51
X10.8093Y-4.719
X10.8378Y-4.9487
X10.8437Y-3.164
X10.8437Y-3.2018
X10.889Y-4.1393
X10.889Y-7.1393
X10.9416Y-5.5067
X10.9534Y-5.3583
X10.9598Y-3.0725
X10.9598Y-4.01
X10.9598Y-7.01
X10.9968Y-5.469
X11.0504Y-4.0591
X11.0696Y-5.6987
X11.0696Y-5.7365
X11.1291Y-3.0692
X11.1291Y-7.0067
X11.1409Y-2.9213
X11.1409Y-3.8583
X11.1409Y-6.8583
X11.1843Y-3.0315
X11.1843Y-3.969
X11.1843Y-6.969
X11.2118Y-3.2612
X11.2187Y-4.8515
X11.2187Y-4.8893
X11.2571Y-4.1987
X11.2571Y-4.2365
X11.2571Y-7.1987
X11.2571Y-7.2365
X11.3125Y-6.3515
X11.3125Y-6.3893
X11.3348Y-4.76
X11.3378Y-3.8465
X11.3378Y-4.0394
X11.3516Y-3.3858
X11.3516Y-3.6142
X11.3772Y-3.8465
X11.3772Y-4.0394
X11.3909Y-3.3858
X11.3909Y-3.6142
X11.4286Y-6.26
X11.448Y-5.6393
X11.4525Y-3.5
X11.4992Y-4.0591
X11.4992Y-4.0984
X11.5041Y-4.7567
X11.5223Y-5.51
X11.5593Y-4.719
X11.5622Y-3.8022
X11.5622Y-3.8415
X11.5622Y-3.8809
X11.5622Y-3.9203
X11.5622Y-3.9596
X11.5858Y-4.9488
X11.5932Y-3.5
X11.5937Y-3.164
X11.5937Y-3.2018
X11.5937Y-4.6427
X11.5979Y-6.2567
X11.6016Y-3.8022
X11.6016Y-3.8415
X11.6016Y-3.8809
X11.6016Y-3.9203
X11.6016Y-3.9596
X11.6409Y-3.8022
X11.6409Y-3.8415
X11.6409Y-3.8809
X11.6409Y-3.9203
X11.6409Y-3.9596
X11.653Y-6.219
X11.6803Y-6.4488
X11.6882Y-6.1427
X11.6916Y-5.5067
X11.7098Y-3.0725
X11.7468Y-5.469
X11.7827Y-5.3927
X11.8196Y-5.6987
X11.8196Y-5.7365
X11.826Y-7.3268
X11.8791Y-3.0692
X11.8973Y-7.1975
X11.9343Y-3.0315
X11.9677Y-2.9552
X11.9677Y-3.2756
X12.015Y-4.1393
X12.0189Y-3.3071
X12.0666Y-7.1942
X12.0848Y-4.01
X12.1218Y-7.0472
X12.1218Y-7.1565
X12.1946Y-7.3862
X12.1946Y-7.424
X12.2541Y-4.0067
X12.2945Y-5.2643
X12.3093Y-3.969
X12.3457Y-3.8927
X12.3661Y-5.135
X12.3821Y-4.1987
X12.3821Y-4.2365
X12.5108Y-3.2244
X12.5354Y-5.1317
X12.574Y-6.5768
X12.574Y-7.3268
X12.5905Y-5.094
X12.6252Y-5.0177
X12.6473Y-6.4475
X12.6473Y-7.1975
X12.6633Y-5.3237
X12.6633Y-5.3615
X12.7354Y-3.4441
X12.7509Y-3.1299
X12.7807Y-3.5492
X12.7807Y-3.5984
X12.7807Y-3.6476
X12.8166Y-6.4442
X12.8166Y-7.1942
X12.822Y-3.6929
X12.8267Y-3.2058
X12.8718Y-6.2953
X12.8718Y-6.4065
X12.8718Y-7.0472
X12.8718Y-7.1565
X12.8832Y-4.9568
X12.885Y-3.5988
X12.885Y-3.6457
X12.8969Y-3.7992
X12.9446Y-6.6362
X12.9446Y-6.674
X12.9446Y-7.3862
X12.9446Y-7.424
X12.9648Y-4.5591
X12.9904Y-4.8199
X12.9904Y-4.9439
X13.0051Y-3.6521
X13.0159Y-4.7185
X13.0159Y-5.0453
X13.0415Y-4.8199
X13.0415Y-4.9439
X13.0445Y-3.6511
X13.0465Y-3.8228
X13.0671Y-4.7185
X13.0671Y-5.0453
X13.074Y-3.2402
X13.0748Y-3.2795
X13.0839Y-3.6521
X13.1053Y-3.5551
X13.1094Y-3.4902
X13.1183Y-5.0453
X13.1439Y-4.8199
X13.1439Y-4.9439
X13.1695Y-4.7185
X13.1695Y-5.0453
X13.1951Y-4.9439
X13.2098Y-3.6476
X13.2409Y-3.4197
X13.2463Y-4.7185
X13.3108Y-3.5748
X13.322Y-3.2165
X13.326Y-7.3268
X13.3598Y-3.4213
X13.3973Y-7.1975
X13.448Y-3.3858
X13.4687Y-5.6015
X13.4687Y-5.6393
X13.4787Y-3.0512
X13.511Y-4.8898
X13.511Y-6.3893
X13.5666Y-7.1942
X13.5784Y-7.0472
X13.5848Y-4.76
X13.5848Y-5.51
X13.5848Y-6.26
X13.6213Y-3.563
X13.6218Y-7.1565
X13.637Y-2.9715
X13.637Y-3.0791
X13.6946Y-7.3862
X13.6946Y-7.424
X13.7541Y-4.7567
X13.7541Y-5.5067
X13.7541Y-6.2567
X13.7659Y-4.6102
X13.7659Y-5.3583
X13.7659Y-6.1102
X13.8093Y-4.719
X13.8093Y-5.469
X13.8093Y-6.219
X13.822Y-3.2248
X13.8378Y-5.6987
X13.8457Y-3.3551
X13.8821Y-4.9487
X13.8821Y-4.9865
X13.8821Y-6.4487
X13.8821Y-6.4865
X13.9213Y-3.0648
X13.9244Y-3.2839
T2
X11.2079Y-3.4134
X11.2079Y-3.5866
X11.2354Y-3.4134
X11.2354Y-3.5866
X11.263Y-3.3839
X11.263Y-3.4134
X11.263Y-3.5866
X11.263Y-3.6181
T3
X12.9906Y-4.2047
X12.9906Y-4.3047
X12.9906Y-4.4047
X12.9906Y-4.5047
X13.2906Y-4.2047
X13.2906Y-4.3047
X13.2906Y-4.4047
X13.2906Y-4.5047
T4
X12.3689Y-2.8717
X12.3689Y-2.9717
X12.3689Y-3.0717
X12.3689Y-3.1717
X12.5108Y-2.9813
X12.5108Y-3.0813
X12.6108Y-2.9813
X12.6108Y-3.0813
X12.7108Y-2.9813
X12.7108Y-3.0813
X13.3551Y-2.8563
X13.4551Y-2.8563
X13.577Y-3.4961
X13.577Y-4.0669
X13.6205Y-2.8563
X13.6754Y-3.4961
X13.7205Y-2.8563
X13.7738Y-3.4961
X13.7738Y-4.0669
T6
X4.8629Y-7.244
X8.8004Y-7.244
X11.7066Y-4.244
X12.1816Y-4.6252
X12.1816Y-5.5627
X12.6441Y-4.244
T5
G00X13.4549Y-3.7657
M15
G01X13.4549Y-3.8169
M16
G05
G00X13.8959Y-3.7657
M15
G01X13.8959Y-3.8169
M16
G05
T0
M30
